<svg xmlns="http://www.w3.org/2000/svg" width="574.499" height="573.712" viewBox="0 0 574.499 573.712"><g transform="translate(-15.35 8.035)"><g transform="translate(51.007 29.812)"><path d="M356.2,37.777l-1.881,1.3a51.677,51.677,0,0,0-22.589,48.509,49.707,49.707,0,0,0,1.411,7.229,54.227,54.227,0,0,0,35.66,36.75c10.063,3.132,21.463,3.54,29.707,10.075,10.682,8.5,11.846,23.877,12.167,37.43S412.2,208,422.916,216.451c6.709,5.3,15.918,6.6,24.458,5.669,22.639-2.476,42.085-19.384,51.046-40.055s8.578-44.4,2.933-66.159c-7.909-30.5-26.6-58.894-53.93-75.071S383.876,22.119,356.2,37.777Z" transform="translate(24.149 -27.153)" fill="#fff"/><circle cx="45.686" cy="45.686" r="45.686" transform="matrix(0.923, -0.384, 0.384, 0.923, 0, 354.266)" fill="#fff"/><circle cx="35.698" cy="35.698" r="35.698" transform="matrix(0.225, -0.974, 0.974, 0.225, 24.479, 69.557)" fill="#fff"/></g><g transform="translate(15.35 501.931)"><path d="M15.88,454.225,81.21,410.11l316.562-1.51,14.482,46.293Z" transform="translate(-15.224 -408.6)" fill="#455a64"/><path d="M411.563,463.7,15.35,463.413V444.76L411.737,446Z" transform="translate(-15.35 -400.002)" fill="#455a64"/><path d="M401.015,445.763c0,.173-85.568.285-191.076.235s-191.088-.235-191.088-.421,85.543-.285,191.088-.235S401.015,445.578,401.015,445.763Z" transform="translate(-14.518 -399.866)" fill="#263238"/></g><g transform="translate(233.298 -8.035)"><path d="M261.451,134.6H199.216a7.786,7.786,0,0,1-7.786-7.786v-86.1a7.773,7.773,0,0,1,7.786-7.773h39.448L269.2,64.4v62.409a7.786,7.786,0,0,1-7.749,7.786Z" transform="translate(-191.43 -32.94)" fill="#f05454"/><g transform="translate(0 70.813)" opacity="0.2"><path d="M192.965,90.15H267.64a1.535,1.535,0,0,1,1.535,1.535v21.29A8.021,8.021,0,0,1,261.154,121h-61.7a8.021,8.021,0,0,1-8.021-8.021V91.685A1.535,1.535,0,0,1,192.965,90.15Z" transform="translate(-191.43 -90.15)"/></g><g transform="translate(47.234 0)" opacity="0.2"><path d="M229.59,32.94V57.163a7.229,7.229,0,0,0,7.229,7.241h23.307Z" transform="translate(-229.59 -32.94)" fill="#fff"/></g><g transform="translate(47.541 26.352)" opacity="0.2"><path d="M229.84,54.23s-.3,5.9,6.387,7.81a7.684,7.684,0,0,0,.767.173c3.045.545,23.072,4.1,23.072,3.639V59.342H236.76S230.942,59.144,229.84,54.23Z" transform="translate(-229.838 -54.23)"/></g><path d="M209.41,102.2a6.659,6.659,0,0,1,11.548-4.122l-1.795,1.646a3.977,3.977,0,1,0-3.045,6.325,3.862,3.862,0,0,0,3.045-1.436l1.795,1.659a6.647,6.647,0,0,1-11.548-4.085Z" transform="translate(-187.155 -17.962)" fill="#fafafa"/><path d="M219.4,107.046l.953-2.1a7.092,7.092,0,0,0,4,1.238c1.659,0,2.327-.545,2.327-1.238,0-2.265-7.031-.706-7.031-5.2,0-2.067,1.659-3.713,5.1-3.713a8.132,8.132,0,0,1,4.2,1.077l-.866,2.129a6.8,6.8,0,0,0-3.354-.953c-1.659,0-2.29.619-2.29,1.374,0,2.228,7.031.693,7.031,5.137,0,2.018-1.683,3.713-5.137,3.713a8.665,8.665,0,0,1-4.926-1.461Z" transform="translate(-184.779 -17.939)" fill="#fafafa"/><path d="M228.31,107.046l.941-2.1a7.154,7.154,0,0,0,4,1.238c1.659,0,2.327-.545,2.327-1.238,0-2.265-7.031-.706-7.031-5.2,0-2.067,1.659-3.713,5.1-3.713a8.132,8.132,0,0,1,4.2,1.077l-.866,2.129a6.758,6.758,0,0,0-3.354-.953c-1.659,0-2.29.619-2.29,1.374,0,2.228,7.031.693,7.031,5.137,0,2.018-1.671,3.713-5.137,3.713a8.565,8.565,0,0,1-4.914-1.461Z" transform="translate(-182.661 -17.939)" fill="#fafafa"/><path d="M213.487,71.874c1.238.4,1.869,1.238,1.869,3.119v4.444a1.832,1.832,0,0,0,2.03,2.055h.5v3.392h-1.609c-3.478,0-5.248-1.782-5.248-4.951v-5.05a1.139,1.139,0,0,0-1.238-1.312h-.916v-3.4h.916a1.126,1.126,0,0,0,1.238-1.3V63.841c0-3.193,1.77-4.951,5.248-4.951h1.609v3.379h-.5a1.832,1.832,0,0,0-2.03,2.067V68.78C215.356,70.686,214.774,71.491,213.487,71.874Z" transform="translate(-187.283 -26.77)" fill="#fafafa"/><path d="M238.546,70.169V73.56h-.928a1.156,1.156,0,0,0-1.238,1.312V79.9c0,3.193-1.782,4.951-5.261,4.951H229.51V81.494h.507a1.832,1.832,0,0,0,2.03-2.055V75c0-1.919.582-2.723,1.857-3.119-1.238-.384-1.857-1.238-1.857-3.107V64.326a1.832,1.832,0,0,0-2.03-2.067h-.507V58.88h1.609c3.478,0,5.261,1.77,5.261,4.951v5.1a1.136,1.136,0,0,0,1.238,1.3Z" transform="translate(-182.375 -26.772)" fill="#fafafa"/><g transform="translate(86.026 34.633)"><path d="M331.984,185.4H268.857a7.9,7.9,0,0,1-7.9-7.909v-87.4a7.9,7.9,0,0,1,7.9-7.9H308.9l30.944,31.947v63.35a7.9,7.9,0,0,1-7.86,7.909Z" transform="translate(-260.923 -82.19)" fill="#f05454"/><g transform="translate(0 71.89)" opacity="0.2"><path d="M260.955,140.27H339.9v22.775a8.541,8.541,0,0,1-8.541,8.541H269.471a8.541,8.541,0,0,1-8.541-8.541V140.27Z" transform="translate(-260.93 -140.27)"/></g><g transform="translate(47.964 0)" opacity="0.2"><path d="M299.68,82.19v24.595a7.352,7.352,0,0,0,7.352,7.352h23.642Z" transform="translate(-299.68 -82.19)" fill="#fff"/></g><g transform="translate(48.284 26.761)" opacity="0.2"><path d="M299.94,103.81s-.309,5.966,6.486,7.922a7.2,7.2,0,0,0,.78.173c3.082.557,23.406,4.171,23.406,3.713V109H306.971S301.067,108.8,299.94,103.81Z" transform="translate(-299.938 -103.81)"/></g><g transform="translate(18.889 35.5)"><path d="M289.744,120.06l-9.481,3.466,9.481,3.441v3.565l-13.554-5.149v-3.713l13.554-5.149Z" transform="translate(-276.19 -109.527)" fill="#fafafa"/><path d="M297.168,110.87h3.948l-9.358,26.81H287.81Z" transform="translate(-273.427 -110.87)" fill="#fafafa"/><path d="M312.517,121.67v3.713L299,130.52V127l9.481-3.441L299,120.1V116.57Z" transform="translate(-270.767 -109.515)" fill="#fafafa"/><path d="M286.406,149.68v10.608h-2.476v-4.345h-4.815v4.345H276.64V149.68h2.476v4.184h4.815V149.68Z" transform="translate(-276.083 -101.642)" fill="#fafafa"/><path d="M288.991,151.685H285.6V149.68h9.246v2.005h-3.4v8.6h-2.476Z" transform="translate(-273.952 -101.642)" fill="#fafafa"/><path d="M303.782,160.295v-6.362l-3.119,5.248h-1.114l-3.107-5.112v6.189h-2.3V149.65h2.03l3.986,6.622,3.911-6.6h2.018v10.608Z" transform="translate(-271.922 -101.649)" fill="#fafafa"/><path d="M305.82,149.68H308.3v8.664h5.322v1.993h-7.786Z" transform="translate(-269.145 -101.642)" fill="#fafafa"/></g></g></g><g transform="translate(49.356 129.804)"><rect width="122.218" height="196.993" rx="3.06" transform="translate(0.256 0.508)" fill="#fff"/><path d="M47.506,108.37H160.96a4.3,4.3,0,0,1,4.3,4.3v17.713H43V112.863a4.468,4.468,0,0,1,4.506-4.493Z" transform="translate(-42.781 -107.862)" fill="#e0e0e0"/><path d="M161.2,305.46a4.95,4.95,0,0,0,1.572-.347,4.134,4.134,0,0,0,2.476-3.713c0-4.221,0-10.422-.062-18.406,0-15.98,0-39.089-.1-67.645s0-62.582-.074-100.347v-1.77a5.73,5.73,0,0,0-.149-1.683,3.837,3.837,0,0,0-3.713-2.773H47.275a3.713,3.713,0,0,0-3.713,3.466c0,.631,0,1.337,0,2.005V301.017a3.9,3.9,0,0,0,3.045,4.1,19.513,19.513,0,0,0,2.847.087H68.738l67.657.1,18.393.062h0l-18.393.062-67.657.1H49.231a21.866,21.866,0,0,1-2.958-.1,4.332,4.332,0,0,1-2.562-1.634,4.456,4.456,0,0,1-.879-2.946q0-2.971,0-6.016V112.02a4.345,4.345,0,0,1,.706-2.055,4.431,4.431,0,0,1,3.713-2.005H161.188a4.394,4.394,0,0,1,1.869.384,4.444,4.444,0,0,1,2.476,2.822,6.807,6.807,0,0,1,.161,1.844v1.77c0,37.765,0,71.791-.074,100.347s-.074,51.665-.1,67.645c0,7.984,0,14.185-.062,18.406a4.159,4.159,0,0,1-.941,2.587A4.345,4.345,0,0,1,162.9,305a4.779,4.779,0,0,1-1.238.285Z" transform="translate(-42.823 -107.959)" fill="#263238"/><path d="M58.979,119.344a3.6,3.6,0,1,1-1.055-2.559,3.614,3.614,0,0,1,1.055,2.559Z" transform="translate(-40.7 -106.112)" fill="#fff"/><circle cx="3.602" cy="3.602" r="3.602" transform="translate(22.165 9.631)" fill="#fff"/><circle cx="3.602" cy="3.602" r="3.602" transform="translate(33.255 9.631)" fill="#fff"/><path d="M90.8,151.211H68.286a2.476,2.476,0,0,1-2.476-2.476h0a2.476,2.476,0,0,1,2.476-2.476H90.8a2.476,2.476,0,0,1,2.476,2.476h0A2.476,2.476,0,0,1,90.8,151.211Z" transform="translate(-37.357 -98.852)" fill="#263238"/><path d="M90.8,161.541H68.286a2.476,2.476,0,0,1-2.476-2.476h0a2.476,2.476,0,0,1,2.476-2.476H90.8a2.476,2.476,0,0,1,2.476,2.476h0A2.476,2.476,0,0,1,90.8,161.541Z" transform="translate(-37.357 -96.396)" fill="#e0e0e0"/><path d="M91.321,189.831H68.806a2.476,2.476,0,0,1-2.476-2.476h0a2.476,2.476,0,0,1,2.476-2.476H91.321a2.476,2.476,0,0,1,2.476,2.476h0A2.476,2.476,0,0,1,91.321,189.831Z" transform="translate(-37.234 -89.669)" fill="#e0e0e0"/><path d="M90.8,172.211H68.286a2.476,2.476,0,0,1-2.476-2.476h0a2.476,2.476,0,0,1,2.476-2.476H90.8a2.476,2.476,0,0,1,2.476,2.476h0A2.476,2.476,0,0,1,90.8,172.211Z" transform="translate(-37.357 -93.859)" fill="#ff725e"/><path d="M90.8,231.731H68.286a2.476,2.476,0,0,1-2.476-2.476h0a2.476,2.476,0,0,1,2.476-2.476H90.8a2.476,2.476,0,0,1,2.476,2.476h0A2.476,2.476,0,0,1,90.8,231.731Z" transform="translate(-37.357 -79.706)" fill="#ff725e"/><path d="M119.931,151.211H97.416a2.476,2.476,0,0,1-2.476-2.476h0a2.476,2.476,0,0,1,2.476-2.476h22.515a2.476,2.476,0,0,1,2.476,2.476h0A2.476,2.476,0,0,1,119.931,151.211Z" transform="translate(-30.431 -98.852)" fill="#455a64"/><path d="M144.284,161.541H97.249a2.339,2.339,0,0,1-2.228-2.476h0a2.339,2.339,0,0,1,2.228-2.476h47.1a2.339,2.339,0,0,1,2.228,2.476h0a2.339,2.339,0,0,1-2.29,2.476Z" transform="translate(-30.412 -96.396)" fill="#263238"/><path d="M143.34,172.211H95.933a2.364,2.364,0,0,1-2.3-2.476h0a2.364,2.364,0,0,1,2.3-2.476H143.34a2.364,2.364,0,0,1,2.3,2.476h0a2.364,2.364,0,0,1-2.3,2.476Z" transform="translate(-30.743 -93.859)" fill="#e0e0e0"/><path d="M115.67,180.841H68.263a2.364,2.364,0,0,1-2.3-2.476h0a2.364,2.364,0,0,1,2.3-2.476H115.67a2.364,2.364,0,0,1,2.3,2.476h0a2.364,2.364,0,0,1-2.3,2.476Z" transform="translate(-37.322 -91.807)" fill="#e0e0e0"/><path d="M59.851,148.766a2.476,2.476,0,1,1-2.476-2.476A2.476,2.476,0,0,1,59.851,148.766Z" transform="translate(-39.951 -98.845)" fill="#455a64"/><path d="M59.851,138.886a2.476,2.476,0,1,1-2.476-2.476A2.476,2.476,0,0,1,59.851,138.886Z" transform="translate(-39.951 -101.195)" fill="#455a64"/><path d="M59.851,159.066a2.476,2.476,0,1,1-2.476-2.476A2.476,2.476,0,0,1,59.851,159.066Z" transform="translate(-39.951 -96.396)" fill="#455a64"/><path d="M59.851,169.766a2.476,2.476,0,1,1-2.476-2.476A2.476,2.476,0,0,1,59.851,169.766Z" transform="translate(-39.951 -93.852)" fill="#455a64"/><path d="M91.321,218.711H68.806a2.476,2.476,0,0,1-2.476-2.476h0a2.476,2.476,0,0,1,2.476-2.476H91.321a2.476,2.476,0,0,1,2.476,2.476h0A2.476,2.476,0,0,1,91.321,218.711Z" transform="translate(-37.234 -82.802)" fill="#e0e0e0"/><path d="M90.8,201.091H68.286a2.476,2.476,0,0,1-2.476-2.476h0a2.476,2.476,0,0,1,2.476-2.476H90.8a2.476,2.476,0,0,1,2.476,2.476h0A2.476,2.476,0,0,1,90.8,201.091Z" transform="translate(-37.357 -86.992)" fill="#ff725e"/><path d="M143.34,201.091H95.933a2.364,2.364,0,0,1-2.3-2.476h0a2.364,2.364,0,0,1,2.3-2.476H143.34a2.364,2.364,0,0,1,2.3,2.476h0a2.364,2.364,0,0,1-2.3,2.476Z" transform="translate(-30.743 -86.992)" fill="#e0e0e0"/><path d="M115.67,209.721H68.263a2.364,2.364,0,0,1-2.3-2.476h0a2.364,2.364,0,0,1,2.3-2.476H115.67a2.364,2.364,0,0,1,2.3,2.476h0a2.364,2.364,0,0,1-2.3,2.476Z" transform="translate(-37.322 -84.94)" fill="#e0e0e0"/><path d="M59.851,198.646a2.476,2.476,0,1,1-2.476-2.476A2.476,2.476,0,0,1,59.851,198.646Z" transform="translate(-39.951 -86.985)" fill="#455a64"/><rect width="16.462" height="4.716" rx="0.96" transform="translate(28.626 35.933)" fill="#455a64"/><path d="M90.8,242.241H68.286a2.476,2.476,0,0,1-2.476-2.476h0a2.476,2.476,0,0,1,2.476-2.476H90.8a2.476,2.476,0,0,1,2.476,2.476h0A2.476,2.476,0,0,1,90.8,242.241Z" transform="translate(-37.357 -77.207)" fill="#263238"/><path d="M119.931,242.241H97.416a2.476,2.476,0,0,1-2.476-2.476h0a2.476,2.476,0,0,1,2.476-2.476h22.515a2.476,2.476,0,0,1,2.476,2.476h0A2.476,2.476,0,0,1,119.931,242.241Z" transform="translate(-30.431 -77.207)" fill="#455a64"/><path d="M59.851,239.8a2.476,2.476,0,1,1-2.476-2.476A2.476,2.476,0,0,1,59.851,239.8Z" transform="translate(-39.951 -77.2)" fill="#455a64"/><path d="M59.851,249.3a2.476,2.476,0,1,1-2.476-2.476A2.476,2.476,0,0,1,59.851,249.3Z" transform="translate(-39.951 -74.941)" fill="#455a64"/><rect width="16.462" height="4.716" rx="0.96" transform="translate(28.626 172.597)" fill="#455a64"/><rect width="223.234" height="141.998" transform="translate(130.632 167.089)" fill="#fff"/><rect width="40.203" height="141.998" transform="translate(130.632 167.089)" fill="#ebebeb"/><path d="M163.006,255.513a2.648,2.648,0,0,1,.668-.285l.136-.668h1.114l.173.656a2.809,2.809,0,0,1,.668.272l.569-.371.8.767-.347.582a2.648,2.648,0,0,1,.285.668l.668.136V258.4l-.656.161a2.476,2.476,0,0,1-.26.681l.371.557-.78.8-.582-.347a2.683,2.683,0,0,1-.668.3l-.136.656H163.91l-.161-.656a2.809,2.809,0,0,1-.668-.272l-.569.371-.8-.78.347-.582a2.649,2.649,0,0,1-.285-.668l-.668-.136V257.37l.656-.161a2.674,2.674,0,0,1,.26-.681l-.371-.569.78-.8.582.347Zm.594,1.5a.977.977,0,1,1-.025.025Z" transform="translate(-14.699 -73.101)" fill="#e0e0e0"/><path d="M173.847,281.372h-17.5a1.795,1.795,0,0,1-1.795-1.807h0a1.8,1.8,0,0,1,1.795-1.795h17.527a1.795,1.795,0,0,1,1.807,1.795h0a1.807,1.807,0,0,1-1.832,1.807Z" transform="translate(-16.257 -67.582)" fill="#e0e0e0"/><path d="M173.847,273.962h-17.5a1.807,1.807,0,0,1-1.795-1.807h0a1.8,1.8,0,0,1,1.795-1.795h17.527a1.795,1.795,0,0,1,1.807,1.795h0a1.807,1.807,0,0,1-1.832,1.807Z" transform="translate(-16.257 -69.344)" fill="#e0e0e0"/><path d="M173.847,267.172h-17.5a1.8,1.8,0,0,1-1.795-1.795h0a1.807,1.807,0,0,1,1.795-1.807h17.527a1.807,1.807,0,0,1,1.782,1.77h0a1.795,1.795,0,0,1-1.807,1.832Z" transform="translate(-16.257 -70.958)" fill="#e0e0e0"/><path d="M211.726,260.592H195.115a1.8,1.8,0,0,1-1.795-1.795h0a1.795,1.795,0,0,1,1.795-1.807h16.611a1.795,1.795,0,0,1,1.795,1.807h0a1.8,1.8,0,0,1-1.795,1.795Z" transform="translate(-7.038 -72.523)" fill="#263238"/><path d="M211.726,268.212H195.115a1.795,1.795,0,0,1-1.795-1.807h0a1.8,1.8,0,0,1,1.795-1.795h16.611a1.8,1.8,0,0,1,1.795,1.795h0a1.795,1.795,0,0,1-1.795,1.807Z" transform="translate(-7.038 -70.711)" fill="#e0e0e0"/><path d="M211.726,276.082H195.115a1.8,1.8,0,0,1-1.795-1.795h0a1.795,1.795,0,0,1,1.795-1.807h16.611a1.795,1.795,0,0,1,1.795,1.807h0a1.8,1.8,0,0,1-1.795,1.795Z" transform="translate(-7.038 -68.84)" fill="#ff725e"/><path d="M204.646,291.3h-9.531a1.795,1.795,0,0,1-1.795-1.807h0a1.8,1.8,0,0,1,1.795-1.795h9.531a1.8,1.8,0,0,1,1.795,1.795h0a1.795,1.795,0,0,1-1.795,1.807Z" transform="translate(-7.038 -65.221)" fill="#263238"/><path d="M204.646,299.192h-9.531a1.795,1.795,0,0,1-1.795-1.807h0a1.8,1.8,0,0,1,1.795-1.795h9.531a1.8,1.8,0,0,1,1.795,1.795h0a1.795,1.795,0,0,1-1.795,1.807Z" transform="translate(-7.038 -63.345)" fill="#263238"/><path d="M229.02,299.192H211.567a1.807,1.807,0,0,1-1.807-1.807h0a1.807,1.807,0,0,1,1.807-1.795H229.02a1.795,1.795,0,0,1,1.807,1.795h0a1.807,1.807,0,0,1-1.807,1.807Z" transform="translate(-3.129 -63.345)" fill="#e0e0e0"/><path d="M221.05,306.2H203.585a1.8,1.8,0,0,1-1.795-1.795h0a1.807,1.807,0,0,1,1.795-1.807H221.05a1.807,1.807,0,0,1,1.795,1.807h0a1.8,1.8,0,0,1-1.795,1.795Z" transform="translate(-5.024 -61.678)" fill="#ff725e"/><rect width="14.445" height="3.602" rx="0.99" transform="translate(206.668 250.837)" fill="#ff725e"/><path d="M222.43,329.892H211.587a1.807,1.807,0,0,1-1.807-1.807h0a1.795,1.795,0,0,1,1.807-1.795H222.43a1.8,1.8,0,0,1,1.795,1.795h0a1.795,1.795,0,0,1-1.795,1.807Z" transform="translate(-3.124 -56.045)" fill="#ff725e"/><path d="M222.43,346.452H211.587a1.795,1.795,0,0,1-1.807-1.795h0a1.807,1.807,0,0,1,1.807-1.807H222.43a1.795,1.795,0,0,1,1.795,1.807h0a1.8,1.8,0,0,1-1.795,1.795Z" transform="translate(-3.124 -52.107)" fill="#ff725e"/><path d="M245.549,346.452H226.537a1.795,1.795,0,0,1-1.807-1.795h0a1.807,1.807,0,0,1,1.807-1.807h19.012a1.795,1.795,0,0,1,1.795,1.807h0a1.8,1.8,0,0,1-1.795,1.795Z" transform="translate(0.431 -52.107)" fill="#455a64"/><path d="M253.173,346.452h-2.736a1.795,1.795,0,0,1-1.807-1.795h0a1.807,1.807,0,0,1,1.807-1.807h2.735a1.807,1.807,0,0,1,1.807,1.807h0a1.807,1.807,0,0,1-1.807,1.795Z" transform="translate(6.114 -52.107)" fill="#e0e0e0"/><path d="M244.068,329.892H227.977a1.807,1.807,0,0,1-1.807-1.807h0a1.795,1.795,0,0,1,1.807-1.795h16.091a1.8,1.8,0,0,1,1.795,1.795h0a1.795,1.795,0,0,1-1.795,1.807Z" transform="translate(0.773 -56.045)" fill="#e0e0e0"/><path d="M279.3,337.162H228a1.807,1.807,0,0,1-1.807-1.807h0A1.795,1.795,0,0,1,228,333.56H279.3a1.8,1.8,0,0,1,1.795,1.795h0a1.795,1.795,0,0,1-1.795,1.807Z" transform="translate(0.778 -54.316)" fill="#e0e0e0"/><path d="M280.519,329.892H247.767a1.807,1.807,0,0,1-1.807-1.807h0a1.807,1.807,0,0,1,1.807-1.795h32.752a1.795,1.795,0,0,1,1.807,1.795h0a1.807,1.807,0,0,1-1.807,1.807Z" transform="translate(5.479 -56.045)" fill="#455a64"/><rect width="17.168" height="3.602" rx="0.99" transform="translate(225.829 250.837)" fill="#455a64"/><rect width="6.969" height="3.602" rx="0.99" transform="translate(247.775 250.837)" fill="#e0e0e0"/><rect width="20.572" height="3.602" rx="0.99" transform="translate(260.054 250.837)" fill="#e0e0e0"/><path d="M227.994,306.2h-3.887a1.795,1.795,0,0,1-1.807-1.795h0a1.807,1.807,0,0,1,1.807-1.807h3.887a1.807,1.807,0,0,1,1.795,1.807h0a1.8,1.8,0,0,1-1.795,1.795Z" transform="translate(-0.147 -61.678)" fill="#263238"/><path d="M258.62,306.2H233.865a1.8,1.8,0,0,1-1.795-1.795h0a1.807,1.807,0,0,1,1.795-1.807H258.62a1.82,1.82,0,0,1,1.807,1.807h0A1.807,1.807,0,0,1,258.62,306.2Z" transform="translate(2.176 -61.678)" fill="#e0e0e0"/><path d="M233.2,260.592H216.6a1.8,1.8,0,0,1-1.795-1.795h0a1.795,1.795,0,0,1,1.795-1.807h16.6a1.807,1.807,0,0,1,1.807,1.807h0a1.795,1.795,0,0,1-1.807,1.795Z" transform="translate(-1.928 -72.523)" fill="#455a64"/><path d="M254.654,268.212H216.6a1.795,1.795,0,0,1-1.795-1.807h0a1.8,1.8,0,0,1,1.795-1.795h38.049a1.795,1.795,0,0,1,1.807,1.795h0a1.807,1.807,0,0,1-1.807,1.807Z" transform="translate(-1.928 -70.711)" fill="#263238"/><path d="M295.5,276.082H216.6a1.8,1.8,0,0,1-1.795-1.795h0a1.795,1.795,0,0,1,1.795-1.807h78.9a1.795,1.795,0,0,1,1.795,1.807h0A1.8,1.8,0,0,1,295.5,276.082Z" transform="translate(-1.928 -68.84)" fill="#e0e0e0"/><path d="M253.8,281.632H216.6a1.807,1.807,0,0,1-1.795-1.807h0a1.8,1.8,0,0,1,1.795-1.795h37.2a1.795,1.795,0,0,1,1.807,1.795h0A1.807,1.807,0,0,1,253.8,281.632Z" transform="translate(-1.928 -67.52)" fill="#e0e0e0"/><path d="M247.662,291.3H210.455a1.795,1.795,0,0,1-1.795-1.807h0a1.8,1.8,0,0,1,1.795-1.795h37.208a1.8,1.8,0,0,1,1.795,1.795h0a1.795,1.795,0,0,1-1.795,1.807Z" transform="translate(-3.39 -65.221)" fill="#455a64"/><path d="M259.744,291.3H247.267a1.807,1.807,0,0,1-1.807-1.807h0a1.795,1.795,0,0,1,1.807-1.795h12.477a1.807,1.807,0,0,1,1.807,1.795h0a1.807,1.807,0,0,1-1.807,1.807Z" transform="translate(5.36 -65.221)" fill="#ff725e"/><path d="M287.615,291.252H264.1a1.795,1.795,0,0,1-1.807-1.795h0a1.807,1.807,0,0,1,1.807-1.807h23.518a1.795,1.795,0,0,1,1.795,1.807h0a1.8,1.8,0,0,1-1.795,1.795Z" transform="translate(9.362 -65.233)" fill="#263238"/><path d="M313.5,291.252H289.985a1.8,1.8,0,0,1-1.795-1.795h0a1.795,1.795,0,0,1,1.795-1.807H313.5a1.807,1.807,0,0,1,1.807,1.807h0a1.795,1.795,0,0,1-1.807,1.795Z" transform="translate(15.52 -65.233)" fill="#e0e0e0"/><path d="M166.247,289.222h-9.9a1.807,1.807,0,0,1-1.795-1.807h0a1.8,1.8,0,0,1,1.795-1.795h9.9a1.8,1.8,0,0,1,1.795,1.795h0a1.807,1.807,0,0,1-1.795,1.807Z" transform="translate(-16.257 -65.715)" fill="#e0e0e0"/><path d="M163.289,312.762h-6.944a1.795,1.795,0,0,1-1.795-1.807h0a1.8,1.8,0,0,1,1.795-1.795h6.969a1.8,1.8,0,0,1,1.795,1.795h0a1.795,1.795,0,0,1-1.82,1.807Z" transform="translate(-16.257 -60.118)" fill="#e0e0e0"/><path d="M175.654,297.062H156.345a1.8,1.8,0,0,1-1.795-1.795h0a1.795,1.795,0,0,1,1.795-1.807h19.309a1.795,1.795,0,0,1,1.795,1.807h0A1.8,1.8,0,0,1,175.654,297.062Z" transform="translate(-16.257 -63.851)" fill="#e0e0e0"/><path d="M172.263,304.912H156.345a1.8,1.8,0,0,1-1.795-1.795h0a1.795,1.795,0,0,1,1.795-1.807h15.943a1.795,1.795,0,0,1,1.795,1.807h0a1.795,1.795,0,0,1-1.82,1.795Z" transform="translate(-16.257 -61.985)" fill="#e0e0e0"/><path d="M188.9,258.8a1.832,1.832,0,1,1-1.832-1.832A1.832,1.832,0,0,1,188.9,258.8Z" transform="translate(-8.959 -72.528)" fill="#455a64"/><circle cx="1.832" cy="1.832" r="1.832" transform="translate(176.281 174.825)" fill="#455a64"/><circle cx="1.832" cy="1.832" r="1.832" transform="translate(176.281 193.837)" fill="#455a64"/><circle cx="1.832" cy="1.832" r="1.832" transform="translate(176.281 203.615)" fill="#455a64"/><circle cx="1.832" cy="1.832" r="1.832" transform="translate(176.281 213.382)" fill="#455a64"/><path d="M188.9,290.07a1.832,1.832,0,1,1-1.832-1.82,1.832,1.832,0,0,1,1.832,1.82Z" transform="translate(-8.959 -65.09)" fill="#455a64"/><circle cx="1.832" cy="1.832" r="1.832" transform="translate(176.281 232.926)" fill="#455a64"/><circle cx="1.832" cy="1.832" r="1.832" transform="translate(176.281 242.692)" fill="#455a64"/><path d="M188.9,313.762a1.832,1.832,0,1,1-1.832-1.832A1.832,1.832,0,0,1,188.9,313.762Z" transform="translate(-8.959 -59.459)" fill="#455a64"/><path d="M188.9,321.652a1.832,1.832,0,1,1-1.832-1.832A1.832,1.832,0,0,1,188.9,321.652Z" transform="translate(-8.959 -57.583)" fill="#455a64"/><circle cx="1.832" cy="1.832" r="1.832" transform="translate(176.281 272.015)" fill="#455a64"/><path d="M188.9,337.442a1.832,1.832,0,1,1-1.832-1.832,1.832,1.832,0,0,1,1.832,1.832Z" transform="translate(-8.959 -53.829)" fill="#455a64"/><circle cx="1.832" cy="1.832" r="1.832" transform="translate(176.281 291.56)" fill="#455a64"/><path d="M155.056,227.31h211.8a4.741,4.741,0,0,1,4.741,4.741v14.68H148.36V233.994a6.684,6.684,0,0,1,6.7-6.684Z" transform="translate(-17.728 -79.58)" fill="#e0e0e0"/><circle cx="2.661" cy="2.661" r="2.661" transform="translate(139.506 155.342)" fill="#fff"/><path d="M167.462,236.121a2.649,2.649,0,1,1-.776-1.885A2.661,2.661,0,0,1,167.462,236.121Z" transform="translate(-14.452 -78.118)" fill="#fff"/><path d="M174.072,236.121a2.649,2.649,0,1,1-.776-1.885A2.661,2.661,0,0,1,174.072,236.121Z" transform="translate(-12.88 -78.118)" fill="#fff"/><path d="M186.72,355.88,205.6,376.291l17.118-20.411Z" transform="translate(-8.607 -49.009)" fill="#fff"/><path d="M365.586,388.739a7.774,7.774,0,0,0,1.956-.371,6.028,6.028,0,0,0,3.812-4.1,6.186,6.186,0,0,0,.21-2.005V361.731c0-19.619-.062-47.989-.1-83.055V232.8a5.793,5.793,0,0,0-4.555-5.038,25.437,25.437,0,0,0-3.788-.124H154a5.656,5.656,0,0,0-2.24.706,5.755,5.755,0,0,0-2.76,3.713,17.153,17.153,0,0,0-.161,3.416V382.971a5.731,5.731,0,0,0,2.884,4.642,5.657,5.657,0,0,0,2.711.755h43.038l.087.087,17.329,18.2H214.5l15.15-18.072.074-.087h.111l99.233.1,27.1.074h0l-27.1.074-99.233.1.186-.087L214.8,407.083l-.186.223-.2-.21-17.329-18.171.2.087H154.335a6.461,6.461,0,0,1-2.971-.829,6.35,6.35,0,0,1-3.193-5.124V233.782a7.573,7.573,0,0,1,.173-1.807,6.449,6.449,0,0,1,3.07-4.1,6.374,6.374,0,0,1,2.476-.792c.9-.062,1.683,0,2.476,0H363a24.211,24.211,0,0,1,3.887.136,6.313,6.313,0,0,1,4.951,5.5c.074,1.312,0,2.476,0,3.713v42.159c0,35.066-.087,63.436-.111,83.055v20.535a6.423,6.423,0,0,1-.235,2.042,5.953,5.953,0,0,1-1.795,2.884,5.817,5.817,0,0,1-2.117,1.238,5.962,5.962,0,0,1-1.473.3Z" transform="translate(-17.774 -79.64)" fill="#263238"/><path d="M163.284,128.49H331.919a3.924,3.924,0,0,1,3.924,3.924v84.825a4.691,4.691,0,0,1-4.691,4.691H163.284a3.924,3.924,0,0,1-3.924-3.924V132.414a3.924,3.924,0,0,1,3.924-3.924Z" transform="translate(-15.113 -103.078)" fill="#fff"/><path d="M163.655,128.49H331.548a4.3,4.3,0,0,1,4.3,4.3v15.769H159.36v-15.72a4.3,4.3,0,0,1,4.3-4.345Z" transform="translate(-15.113 -103.078)" fill="#e0e0e0"/><path d="M330.927,222.02a8.407,8.407,0,0,0,1.349-.235,4.877,4.877,0,0,0,2.983-2.476,5.347,5.347,0,0,0,.545-2.847V203.924c0-13.467,0-32.937-.1-57V132.913a3.713,3.713,0,0,0-2.141-3.713,4.951,4.951,0,0,0-2.315-.347H164.47a6.969,6.969,0,0,0-1.634.111,4.035,4.035,0,0,0-3.057,3.292,10.382,10.382,0,0,0,0,1.659v82.857a4.7,4.7,0,0,0,2.909,4.518,6.82,6.82,0,0,0,2.859.334H253.1l57,.1h15.5l-15.5.062-57,.1-84.553.074h-3a7.637,7.637,0,0,1-3.082-.384,5.335,5.335,0,0,1-3.292-5.075V133.94a10.623,10.623,0,0,1,.062-1.758,4.617,4.617,0,0,1,3.54-3.812,6.821,6.821,0,0,1,1.782-.136H331.273a5.15,5.15,0,0,1,2.476.4,4.258,4.258,0,0,1,2.476,4.2v14.012c0,24.062-.074,43.533-.1,57v12.539a7.258,7.258,0,0,1-.1,1.572,5.51,5.51,0,0,1-.483,1.337,5.063,5.063,0,0,1-3.094,2.476,4.071,4.071,0,0,1-1.522.26Z" transform="translate(-15.16 -103.143)" fill="#263238"/><circle cx="3.292" cy="3.292" r="3.292" transform="translate(154.087 33.718)" fill="#fff"/><path d="M182.055,138.492a3.28,3.28,0,1,1-.956-2.327,3.292,3.292,0,0,1,.956,2.327Z" transform="translate(-11.282 -101.482)" fill="#fff"/><circle cx="3.292" cy="3.292" r="3.292" transform="translate(174.313 33.718)" fill="#fff"/><path d="M204.808,168.394H184.3a2.216,2.216,0,0,1-2.228-2.216h0a2.216,2.216,0,0,1,2.228-2.228h20.51a2.228,2.228,0,0,1,2.228,2.228h0a2.228,2.228,0,0,1-2.228,2.216Z" transform="translate(-9.713 -94.646)" fill="#263238"/><path d="M204.808,177.856H184.3a2.228,2.228,0,0,1-2.228-2.228h0A2.228,2.228,0,0,1,184.3,173.4h20.51a2.24,2.24,0,0,1,2.228,2.228h0a2.24,2.24,0,0,1-2.228,2.228Z" transform="translate(-9.713 -92.399)" fill="#e0e0e0"/><path d="M299.8,168.394H240.288a2.228,2.228,0,0,1-2.228-2.216h0a2.228,2.228,0,0,1,2.228-2.228H299.8a2.228,2.228,0,0,1,2.228,2.228h0a2.228,2.228,0,0,1-2.228,2.216Z" transform="translate(3.6 -94.646)" fill="#e0e0e0"/><path d="M204.808,187.546H184.3a2.228,2.228,0,0,1-2.228-2.228h0a2.216,2.216,0,0,1,2.228-2.228h20.51a2.228,2.228,0,0,1,2.228,2.228h0a2.24,2.24,0,0,1-2.228,2.228Z" transform="translate(-9.713 -90.095)" fill="#ff725e"/><path d="M280.838,177.856H260.316a2.228,2.228,0,0,1-2.216-2.228h0a2.228,2.228,0,0,1,2.216-2.228h20.522a2.24,2.24,0,0,1,2.228,2.228h0a2.24,2.24,0,0,1-2.228,2.228Z" transform="translate(8.366 -92.399)" fill="#ff725e"/><path d="M231.37,168.394H210.848a2.228,2.228,0,0,1-2.228-2.216h0a2.228,2.228,0,0,1,2.228-2.228H231.37a2.216,2.216,0,0,1,2.216,2.228h0a2.216,2.216,0,0,1-2.216,2.216Z" transform="translate(-3.4 -94.646)" fill="#455a64"/><path d="M257.8,177.856H210.848a2.24,2.24,0,0,1-2.228-2.228h0a2.24,2.24,0,0,1,2.228-2.228H257.8a2.228,2.228,0,0,1,2.228,2.228h0A2.228,2.228,0,0,1,257.8,177.856Z" transform="translate(-3.4 -92.399)" fill="#263238"/><path d="M303.855,187.546H210.749a2.179,2.179,0,0,1-2.129-2.228h0a2.178,2.178,0,0,1,2.129-2.228h93.106a2.166,2.166,0,0,1,2.117,2.228h0a2.178,2.178,0,0,1-2.117,2.228Z" transform="translate(-3.4 -90.095)" fill="#e0e0e0"/><path d="M256.819,194.4H210.848a2.24,2.24,0,0,1-2.228-2.228h0a2.24,2.24,0,0,1,2.228-2.228h45.971a2.228,2.228,0,0,1,2.228,2.228h0a2.228,2.228,0,0,1-2.228,2.228Z" transform="translate(-3.4 -88.466)" fill="#e0e0e0"/><path d="M176.61,166.185a2.265,2.265,0,1,1-2.265-2.265,2.265,2.265,0,0,1,2.265,2.265Z" transform="translate(-12.088 -94.653)" fill="#455a64"/><path d="M176.61,157.175a2.253,2.253,0,1,1-.66-1.605A2.265,2.265,0,0,1,176.61,157.175Z" transform="translate(-12.088 -96.796)" fill="#455a64"/><circle cx="2.265" cy="2.265" r="2.265" transform="translate(159.992 80.877)" fill="#455a64"/><circle cx="2.265" cy="2.265" r="2.265" transform="translate(159.992 92.958)" fill="#455a64"/><rect width="15.002" height="4.295" rx="0.96" transform="translate(172.815 57.706)" fill="#455a64"/></g><g transform="translate(68.191 470.057)"><path d="M96.561,450.111c-10.323,4.493-20.275,4.951-29.707,0L59.96,392.27h42.864Z" transform="translate(-57.583 -380.609)" fill="#6f4439"/><path d="M100.385,391.135,99.147,387l-32.368-4a1.894,1.894,0,0,0-2.005,1.238l-2.339,6.82H58.3v7.489c16.227,2.859,31.761,3.02,46.479,0V391.06Z" transform="translate(-57.978 -382.816)" fill="#e0e0e0"/><path d="M100.446,391.168a.84.84,0,0,1,.3,0h4.208v.124c0,1.931,0,4.456.074,7.489v.149h-.149a108.417,108.417,0,0,1-19.953,2.278A136.305,136.305,0,0,1,58.486,399H58.04v-8.083H62.5l-.3.21c.78-2.277,1.56-4.506,2.3-6.684a2.228,2.228,0,0,1,1.238-1.423,2.289,2.289,0,0,1,.953-.173,8.526,8.526,0,0,1,.854.1l3.268.408,11.932,1.423,16.462,2.129h.074v.074c.371,1.3.668,2.327.891,3.07.087.322.161.594.223.8a1.88,1.88,0,0,1,0,.3.966.966,0,0,1-.1-.248l-.272-.767c-.26-.755-.594-1.77-1.04-3.082l.1.087-16.438-1.881-11.87-1.4-3.268-.4a2.8,2.8,0,0,0-1.51,0,1.6,1.6,0,0,0-.916,1.064l-2.29,6.7-.074.21H58.362l.322-.322v7.489l-.26-.322H58.6a139.5,139.5,0,0,0,26.315,2.191,113.205,113.205,0,0,0,19.879-2.092l-.149.2c0-3.033,0-5.558.074-7.489l.124.124-3.3-.074h-.829Z" transform="translate(-58.04 -382.849)" fill="#263238"/><path d="M99.388,426.889c-11.214,1.807-23.518,1.547-36.675,0L60.93,409.35a181.849,181.849,0,0,0,40.612,0Z" transform="translate(-57.353 -376.548)" fill="#ae7461"/><path d="M75.669,413.9a3.887,3.887,0,0,0-1.51,4.951l1.164,2.476a3.887,3.887,0,0,0,4.778,2.042Z" transform="translate(-54.293 -375.466)" fill="#6f4439"/><path d="M75.94,413.648l4.431,9.531a3.911,3.911,0,0,0,1.51-4.951l-1.164-2.476a3.9,3.9,0,0,0-4.778-2.1Z" transform="translate(-53.784 -375.572)" fill="#6f4439"/><path d="M99.959,389.667a7.037,7.037,0,0,1-1.461.433c-.941.248-2.327.545-4.06.854a78.287,78.287,0,0,1-27.318,0c-1.721-.322-3.107-.619-4.06-.879a7.824,7.824,0,0,1-1.461-.445,6.981,6.981,0,0,1,1.51.2c.965.186,2.364.421,4.085.668a93.1,93.1,0,0,0,27.169,0c1.733-.248,3.132-.483,4.085-.656a6.512,6.512,0,0,1,1.51-.173Z" transform="translate(-57.194 -381.237)" fill="#263238"/></g><g transform="translate(124.614 392.41)"><path d="M112.011,320.16s-7.068,1.523-8.293,6.548S113.62,451.724,114,454.632c.706,4.592,4.58,10.435,13.294,10.113,7.612-.272,111.227,0,137.307,0,3.478,0,5.558-2.946,6.016-6.461h0l-128.3-7.575Z" transform="translate(-103.624 -320.108)" fill="#e0e0e0"/><path d="M107.8,324.161l11.14,129.4a4.2,4.2,0,0,0,4.1,3.775l146.615.656-28.172-27.949-95.235-.668L136.06,327.986a3.181,3.181,0,0,0-2.476-2.76l-21.339-4.951a3.713,3.713,0,0,0-4.444,3.887Z" transform="translate(-102.632 -320.099)" fill="#e0e0e0"/><path d="M107.8,324.18a3.033,3.033,0,0,1,0-.631,3.441,3.441,0,0,1,.569-1.745,3.714,3.714,0,0,1,2.476-1.646,4.654,4.654,0,0,1,1.956.161l2.166.5,11.326,2.6,7.179,1.659a3.367,3.367,0,0,1,2.711,2.884c.136,1.386.285,2.81.433,4.27,2.389,23.518,5.793,56.938,9.9,97.141l-.272-.26,95.247.631h.124l.1.1,28.16,27.937.557.557h-7.278l-107.476-.508-24.137-.124H122.83a4.456,4.456,0,0,1-2.748-1.176,4.394,4.394,0,0,1-1.374-2.624c-.111-.953-.173-1.869-.26-2.81-.149-1.857-.309-3.713-.47-5.533-1.238-14.631-2.4-28.271-3.453-40.711-2.092-24.892-3.788-45.03-4.951-58.955-.569-6.956-1.015-12.378-1.312-16.029-.149-1.832-.248-3.218-.322-4.171s-.1-1.423-.1-1.423.074.47.161,1.411.223,2.352.384,4.171c.334,3.713.817,9.073,1.436,16.017,1.238,13.925,3,34.064,5.174,58.931,1.077,12.452,2.265,26.08,3.528,40.711q.235,2.748.483,5.533c.087.928.149,1.881.248,2.785a4.06,4.06,0,0,0,1.238,2.3,3.961,3.961,0,0,0,2.476,1.015h8.689l24.137.1,107.464.458h6.5l-.235.545-28.283-27.961.223.1-95.235-.718h-.248v-.248c-4-40.2-7.315-73.7-9.642-97.153-.149-1.461-.3-2.884-.433-4.27a3.07,3.07,0,0,0-2.476-2.649l-7.179-1.683-11.3-2.686-2.166-.508a4.456,4.456,0,0,0-1.894-.186,3.713,3.713,0,0,0-2.476,1.572,3.466,3.466,0,0,0-.594,1.708C107.791,323.97,107.828,324.18,107.8,324.18Z" transform="translate(-102.634 -320.118)" fill="#263238"/><path d="M196.745,433.092h13.628l-17.23-22.342H185.06Z" transform="translate(-84.26 -298.568)" fill="#263238"/><path d="M111.871,328.461l10.41,112.489,19.458-15.472-8.417-94.69a1.634,1.634,0,0,0-1.4-1.485l-18.183-2.6a1.646,1.646,0,0,0-1.869,1.758Z" transform="translate(-101.664 -318.556)" fill="#263238"/><path d="M128.7,433.092h14.061l14.3-22.342h-8.1Z" transform="translate(-97.661 -298.568)" fill="#263238"/><path d="M142.65,433.092h13.628l7.464-22.342h-8.1Z" transform="translate(-94.344 -298.568)" fill="#263238"/><path d="M156.12,433.092h13.628l.73-22.342H162.4Z" transform="translate(-91.141 -298.568)" fill="#263238"/><path d="M168.62,433.092h13.628L177.21,410.75h-8.083Z" transform="translate(-88.169 -298.568)" fill="#263238"/><path d="M182.708,433.092h13.628l-11.1-22.342H177.15Z" transform="translate(-86.141 -298.568)" fill="#263238"/><path d="M222.831,425.316c0,.111-20.782.2-46.417.2s-46.4-.087-46.4-.2,20.77-.186,46.4-.186S222.831,425.217,222.831,425.316Z" transform="translate(-97.35 -295.148)" fill="#e0e0e0"/><path d="M219.935,422.036c0,.111-19.73.2-44.077.2s-44.077-.087-44.077-.2,19.73-.186,44.077-.186S219.935,421.9,219.935,422.036Z" transform="translate(-96.929 -295.928)" fill="#e0e0e0"/><path d="M218.931,419.074c0,.21-18.567.384-41.466.384S136,419.247,136,419.074s18.567-.384,41.478-.384S218.931,418.826,218.931,419.074Z" transform="translate(-95.925 -296.68)" fill="#e0e0e0"/><path d="M219.011,416.306c0,.21-18.171.384-40.574.384s-40.587-.173-40.587-.384,18.171-.4,40.587-.4S219.011,416.083,219.011,416.306Z" transform="translate(-95.486 -297.341)" fill="#e0e0e0"/><path d="M220.693,414.306c0,.21-18.294.384-40.847.384S139,414.516,139,414.306s18.282-.4,40.847-.4S220.693,414.083,220.693,414.306Z" transform="translate(-95.212 -297.816)" fill="#e0e0e0"/><path d="M222.566,412.2c0,.223-18.629.4-41.6.4s-41.614-.173-41.614-.4,18.567-.384,41.614-.384S222.566,412.043,222.566,412.2Z" transform="translate(-95.129 -298.313)" fill="#e0e0e0"/><path d="M118.44,432.5l25.449-23.753" transform="translate(-100.101 -299.043)" fill="#e0e0e0"/><path d="M143.88,408.75c.124.124-5.471,5.545-12.477,12.105S118.6,432.64,118.48,432.5s5.459-5.545,12.477-12.118S143.706,408.614,143.88,408.75Z" transform="translate(-100.092 -299.044)" fill="#263238"/></g><g transform="translate(218.303 205.668)"><path d="M499.756,341.851s-1.238-13.145-33.989-21.55c-15.806-4.06-53.546-6-57.817,18.567-.136.792-18.789,155.057-18.789,155.057h69.774Z" transform="translate(-129.418 -133.915)" fill="#455a64"/><path d="M475.762,491.375H443.58l10.744-151.083c.792-7.352,8.4-12.662,17.007-11.846l2.884.272c8.59.817,14.049,9.1,13.8,18.567Z" transform="translate(-116.478 -131.416)" fill="#455a64"/><path d="M445.532,481.208c-.186,0,2.092-29.793,5.075-66.494s5.545-66.456,5.719-66.444-2.092,29.781-5.075,66.494S445.705,481.22,445.532,481.208Z" transform="translate(-116.017 -126.682)" fill="#263238"/><path d="M478.106,331.8a33.668,33.668,0,0,0-4.53-1.064,16.97,16.97,0,0,0-17.96,10.3,34.807,34.807,0,0,0-1.362,4.444,4.269,4.269,0,0,1,.062-1.238,14.857,14.857,0,0,1,.879-3.354,16.735,16.735,0,0,1,18.443-10.571,14.666,14.666,0,0,1,3.342.928,4.18,4.18,0,0,1,1.126.557Z" transform="translate(-113.945 -131.008)" fill="#263238"/><path d="M404.383,181.083c.334-8.85-5.669-10.038-10.286-9.023a15.658,15.658,0,0,0-19.247,1.052,13.925,13.925,0,0,0-20.6,12.118,11.635,11.635,0,0,0-9.457,19.953,11.14,11.14,0,0,0,5.483,21.574L404.569,190.6C407.825,187.173,404.21,185.812,404.383,181.083Z" transform="translate(-141.857 -169.25)" fill="#263238"/><path d="M346.712,225.717a47.456,47.456,0,0,1,45.724-45.29l2.476-.087c26.526.607,40.847,23.518,39.5,49.982l-.693,88.3-.173,16.772-60.651,14.42-.619-34.955s-25.6-3.045-26.81-28.469C344.83,274.114,345.684,248.715,346.712,225.717Z" transform="translate(-139.86 -166.613)" fill="#dea390"/><path d="M366.88,291.1a61.815,61.815,0,0,0,33-10.942s-7.192,18.567-32.665,17.205Z" transform="translate(-134.716 -142.877)" fill="#6f4439"/><path d="M352.42,238.417a3.627,3.627,0,0,0,3.627,3.54,3.478,3.478,0,0,0,3.627-3.416,3.627,3.627,0,0,0-3.627-3.54,3.466,3.466,0,0,0-3.627,3.416Z" transform="translate(-138.154 -153.616)" fill="#263238"/><path d="M351.011,228.782c.458.446,3.144-1.683,7.055-1.807s6.845,1.721,7.253,1.238c.2-.223-.285-1.064-1.572-1.919a9.9,9.9,0,0,0-5.83-1.572,9.506,9.506,0,0,0-5.595,2.03C351.172,227.68,350.8,228.547,351.011,228.782Z" transform="translate(-138.503 -156.062)" fill="#263238"/><path d="M377.81,237.767a3.639,3.639,0,0,0,3.639,3.54,3.478,3.478,0,0,0,3.627-3.416,3.627,3.627,0,0,0-3.627-3.54,3.478,3.478,0,0,0-3.639,3.416Z" transform="translate(-132.117 -153.771)" fill="#263238"/><path d="M381.246,227.244c.458.458,3.144-1.671,7.055-1.807s6.845,1.733,7.253,1.238c.2-.223-.285-1.064-1.572-1.931a10.026,10.026,0,0,0-5.83-1.572,9.655,9.655,0,0,0-5.595,2.03C381.395,226.167,380.962,227.046,381.246,227.244Z" transform="translate(-131.32 -156.43)" fill="#263238"/><path d="M373.577,256.523c0-.223-2.476-.557-6.387-.928-1-.062-1.956-.223-2.154-.9a5.075,5.075,0,0,1,.569-2.983q1.238-3.713,2.674-7.711c3.713-10.967,6.375-19.978,5.929-20.126s-3.812,8.664-7.526,19.606l-2.575,7.786a5.83,5.83,0,0,0-.384,3.936,2.476,2.476,0,0,0,1.7,1.4,6.817,6.817,0,0,0,1.708.173C371.114,256.808,373.577,256.746,373.577,256.523Z" transform="translate(-135.509 -156.262)" fill="#263238"/><path d="M383.323,252.1c-.644,0-.5,4.233-4.023,7.427s-8.058,2.835-8.07,3.429c0,.272,1.027.792,2.946.767a10.521,10.521,0,0,0,6.746-2.624,9.2,9.2,0,0,0,3.107-6.189C384.152,253.1,383.645,252.063,383.323,252.1Z" transform="translate(-133.682 -149.55)" fill="#263238"/><path d="M380.869,218.224c.507.99,3.837,0,7.934-.111s7.538.644,7.922-.371c.161-.5-.557-1.4-2.018-2.2a12.192,12.192,0,0,0-6.189-1.386,11.858,11.858,0,0,0-5.954,1.745C381.265,216.8,380.646,217.742,380.869,218.224Z" transform="translate(-131.401 -158.575)" fill="#263238"/><path d="M351.436,219.994c.656.928,3.391.124,6.622.235s5.954.879,6.634,0c.3-.433-.1-1.349-1.238-2.24a9.605,9.605,0,0,0-10.682-.173C351.573,218.657,351.152,219.548,351.436,219.994Z" transform="translate(-138.409 -158.067)" fill="#263238"/><path d="M348.089,214.546s6.189-16.178,13.7-20.163c9.147-4.84,13.517,5.236,22.28,2.476s17.5-7.427,26.81-.891c10.175,7.142,5.719,12.576,6.734,23.84,4.109,45.7,12.935,58.337,14.544,36.688.173-2.364,6.672-4.481,7.278-14.494.8-12.984.743-28.716-2.476-37.8-2.711-7.649-7.315-12.848-15.435-18.468-12.823-8.862-29.991-8.454-41.614-6.857S346.319,194.63,348.089,214.546Z" transform="translate(-139.208 -167.176)" fill="#263238"/><path d="M414.686,242.2a6.907,6.907,0,0,1,7.216-6.919c4.765.285,10.15,2.785,10.175,12.613.074,17.416-17.428,13.888-17.465,13.38S414.649,249.491,414.686,242.2Z" transform="translate(-123.369 -153.55)" fill="#dea390"/><path d="M417.652,253.658c.087,0,.309.21.829.446a3.082,3.082,0,0,0,2.265,0c1.832-.681,3.379-3.614,3.441-6.746a9.977,9.977,0,0,0-.854-4.345,3.54,3.54,0,0,0-2.3-2.327,1.535,1.535,0,0,0-1.782.842c-.235.483-.124.829-.21.866s-.371-.3-.235-1.015a1.869,1.869,0,0,1,.681-1.089,2.216,2.216,0,0,1,1.671-.446,4.233,4.233,0,0,1,3.181,2.686,10.261,10.261,0,0,1,1.064,4.852c-.087,3.5-1.881,6.8-4.394,7.538a3.255,3.255,0,0,1-2.773-.458C417.689,254.054,417.6,253.658,417.652,253.658Z" transform="translate(-122.646 -152.469)" fill="#6f4439"/><path d="M426.847,223.243c-2.2,1.622-4.543,3.292-7.253,3.713s-5.88-1.089-6.436-3.775c-.248-1.238,0-2.612-.829-3.515-.99-1.089-2.735-.681-4.184-.47a11.14,11.14,0,0,1-11.808-7.55c-1.238,1.98-4.233,1.993-6.189.8s-3.33-3.193-4.951-4.889-3.788-3.193-6.077-2.785c-1.238.235-2.476,1.04-3.713.978-2.3-.124-3.5-2.76-3.936-4.951s-.792-4.951-2.76-6.065-4.147-.334-6.189,0-4.815,0-5.434-2.042a4.1,4.1,0,0,1,.668-3.181,11.251,11.251,0,0,1,13.145-4.741,15.287,15.287,0,0,1,27.961-3.961,15.522,15.522,0,0,1,24.978,4.765A11.239,11.239,0,0,1,436.984,201.4c3.194,1.683,5.978,4.691,6.189,8.293s-3.193,7.3-6.7,6.486a6.216,6.216,0,0,1-10.546,6.585" transform="translate(-137.065 -168.286)" fill="#263238"/><path d="M427.123,207.88a4.208,4.208,0,0,1-.965,3.379,5.545,5.545,0,0,1-3.416,2.2,6,6,0,0,1-5.013-1.238l.73-.136a17.218,17.218,0,0,1-3.317,4.468,9.9,9.9,0,0,1-3.094,2.079,7.749,7.749,0,0,1-8.664-2.253,9.9,9.9,0,0,1-1.535-3.565,3.341,3.341,0,0,1-.186-1.4,4.928,4.928,0,0,1,.557,1.238,11.474,11.474,0,0,0,1.721,3.255c1.745,2.476,7.154,3.528,10.472-.124a17.626,17.626,0,0,0,3.156-4.184l.3-.52.446.384a5.248,5.248,0,0,0,4.233,1.238,5.149,5.149,0,0,0,3.094-1.77,8.664,8.664,0,0,0,1.485-3.057Z" transform="translate(-126.448 -160.064)" fill="#455a64"/><path d="M274.234,392.4s-32.838-.978-34.806-1.6a20.87,20.87,0,0,0-9.1,0c-2.339.743-11.685,4.06-11.685,4.06l-19.8,5.285s-19.916,12.984-19.52,15.6,2.587,4.394,6.189,3.045,21.562-10.707,21.562-10.707l19.8-2.092s27.008,9.7,32.467,9.221,19.433-2.847,19.433-2.847,1.968-14,.978-16.215S274.234,392.4,274.234,392.4Z" transform="translate(-179.315 -116.687)" fill="#dea390"/><path d="M180.506,425.852s16.648-17.836,21.253-20.238,30.276-6.622,30.276-6.622,8.219-3.4,11.227-2.2,34.881,6.016,36.279,6.189-6.808,28.073-6.808,28.073a65,65,0,0,1-23.864-1c-12.823-3.008-17.242-7.018-17.242-7.018l-12.8-3.367-7.848,2.983s-1.4,11.61-7.018,11l-2.6-1.807,2.005-12.823-8.219,3.4s-6.424,9.63-11.227,8.219S180.506,425.852,180.506,425.852Z" transform="translate(-179.076 -115.206)" fill="#dea390"/><path d="M180.524,425.88a4.307,4.307,0,0,0-.124,1.4,3.1,3.1,0,0,0,.619,1.56,4.567,4.567,0,0,0,1.881,1.374,4.741,4.741,0,0,0,2.884.421,8.875,8.875,0,0,0,3.194-1.621,29.272,29.272,0,0,0,6.04-6.634h0l8.206-3.429.334-.148v.359c-.594,3.862-1.238,8.194-1.968,12.836l-.1-.223,2.6,1.795h-.111a3.713,3.713,0,0,0,2.9-1.052,8.663,8.663,0,0,0,1.919-2.785,25.474,25.474,0,0,0,1.919-6.944v-.161l.149-.062,7.823-3h.173l12.823,3.342h.074a33.42,33.42,0,0,0,8.863,4.518,75.131,75.131,0,0,0,10.088,2.81,65.6,65.6,0,0,0,10.769,1.238,61.074,61.074,0,0,0,11.14-.619l-.248.223c.569-1.968,1.238-4.072,1.782-6.189,1.77-6.313,3.54-12.514,4.815-18.653a21.19,21.19,0,0,0,.359-2.278,3.639,3.639,0,0,0,0-.52c0-.087-.074-.124,0,0h-.149l-1.151-.173-4.58-.693-8.974-1.411c-5.879-.953-11.586-1.894-17.069-2.934-1.362-.285-2.7-.52-4.06-.928a7.5,7.5,0,0,0-3.85-.124,39.408,39.408,0,0,0-7.427,2.228H232c-8.962,1.5-17.168,2.983-24.335,4.691a44.549,44.549,0,0,0-5.087,1.5,15.421,15.421,0,0,0-4.048,2.735c-2.476,2.055-4.53,4.085-6.424,5.917-3.788,3.713-6.659,6.659-8.664,8.664l-2.24,2.315c-.52.52-.792.767-.792.767s.235-.285.73-.829l2.178-2.364c1.943-2.042,4.79-5.063,8.541-8.776,1.881-1.844,3.973-3.9,6.4-5.978.607-.52,1.238-1.052,1.906-1.547a9.432,9.432,0,0,1,2.228-1.238,45.415,45.415,0,0,1,5.149-1.535c7.179-1.758,15.373-3.268,24.347-4.815h-.062a40.079,40.079,0,0,1,7.538-2.29,8.157,8.157,0,0,1,4.147.136c1.238.384,2.624.619,3.973.9,5.459,1.027,11.14,1.943,17.057,2.884l8.974,1.4,4.58.706,1.151.173h.384a.644.644,0,0,1,.285.5,3.716,3.716,0,0,1,0,.644,20.907,20.907,0,0,1-.359,2.364c-1.238,6.189-3.057,12.378-4.827,18.7-.607,2.129-1.238,4.246-1.782,6.189v.2h-.2a60.5,60.5,0,0,1-11.251.619,64.2,64.2,0,0,1-10.868-1.238,72.9,72.9,0,0,1-10.175-2.847,46.07,46.07,0,0,1-4.741-1.993,23.114,23.114,0,0,1-4.32-2.649l.124.062-12.8-3.379h.173l-7.848,2.983.173-.223a25.624,25.624,0,0,1-1.993,7.1,8.948,8.948,0,0,1-2.042,2.934,4.258,4.258,0,0,1-3.28,1.176h-.062l-2.6-1.807-.124-.087v-.149c.73-4.629,1.423-8.962,2.03-12.823l.285.223L195.2,422.7l.074-.062a29.175,29.175,0,0,1-6.189,6.659,9.123,9.123,0,0,1-3.3,1.621,4.865,4.865,0,0,1-3.008-.47,4.568,4.568,0,0,1-1.919-1.461,3.144,3.144,0,0,1-.607-1.634,2.785,2.785,0,0,1,.272-1.473Z" transform="translate(-179.095 -115.234)" fill="#6f4439"/><path d="M226.458,408.318a5.433,5.433,0,0,1-1.238,0c-.8-.062-1.968-.173-3.416-.322l-5.05-.569-1.461-.161a4.383,4.383,0,0,0-1.448,0,30.425,30.425,0,0,0-3.119.644c-4.171,1.238-8.355,2.018-9.9,4.493a9.469,9.469,0,0,0-1.485,3c-.223.767-.285,1.238-.322,1.238a2.735,2.735,0,0,1,.087-1.238,8.305,8.305,0,0,1,1.362-3.193,7.5,7.5,0,0,1,1.7-1.745,9.406,9.406,0,0,1,2.476-1.238,62.505,62.505,0,0,1,5.979-1.844,27.626,27.626,0,0,1,3.193-.656,5.4,5.4,0,0,1,1.609,0l1.448.2,5.05.693c1.436.21,2.587.4,3.392.532a4.2,4.2,0,0,1,1.151.173Z" transform="translate(-174.639 -112.798)" fill="#6f4439"/><path d="M185.08,418.9a11.6,11.6,0,0,1,1.374-1.386c.928-.854,2.29-2.055,4.01-3.491s3.812-3.119,6.189-4.864c1.238-.867,2.476-1.758,3.887-2.6a23.369,23.369,0,0,1,2.216-1.164,19.592,19.592,0,0,1,2.476-.78,129.7,129.7,0,0,1,17.329-2.971l5.273-.656a11.863,11.863,0,0,1,1.943-.161,10.508,10.508,0,0,1-1.906.408l-5.236.854c-4.419.78-10.62,1.324-17.205,3.144a18.868,18.868,0,0,0-2.364.755,22.1,22.1,0,0,0-2.154,1.114c-1.374.817-2.649,1.683-3.862,2.538-2.476,1.708-4.518,3.342-6.276,4.728l-4.134,3.33A12.572,12.572,0,0,1,185.08,418.9Z" transform="translate(-177.945 -114.184)" fill="#6f4439"/><path d="M375.52,324.453a191.4,191.4,0,0,0-15.683,26.464c-5.954,12.378-25.189,54.524-25.189,54.524L256.26,409.55l1.163,30.288s75.7,26.971,92.648,21.76,35-24.756,35-24.756L393.183,309.1S386.462,307.854,375.52,324.453Z" transform="translate(-161.019 -136)" fill="#f05454"/><path d="M373.083,313.739s-20.1,45.587-23.035,64.9c-5.83,38.371-7.786,62.322-7.786,62.322l-6.833,59.327H469.3s4.431-109.952,1.584-146.813c-2.129-27.627-23.3-44.832-31.947-54.277-.52-.569-2.9-8.306-2.9-8.306l-62.384,15.98Z" transform="translate(-142.194 -140.326)" fill="#f05454"/><path d="M366.449,314.94a1.668,1.668,0,0,1-.148.433c-.136.309-.3.73-.52,1.238l-1.993,4.765c-1.721,4.134-4.208,10.137-6.709,17.762a211.461,211.461,0,0,0-6.919,27.231c-1.993,10.41-3.6,21.958-4.951,34.126-2.476,24.359-4.691,46.4-6.313,62.4-.829,7.959-1.5,14.408-1.968,18.9-.248,2.2-.433,3.924-.569,5.137-.074.569-.124,1-.161,1.337a2.98,2.98,0,0,1-.087.458,3.2,3.2,0,0,1,0-.458c0-.334.062-.78.1-1.349.111-1.238.26-2.934.446-5.149.421-4.506,1.027-10.954,1.77-18.926,1.547-15.967,3.59-38.049,6.189-62.421,1.337-12.167,2.971-23.741,4.951-34.163a206.063,206.063,0,0,1,7.068-27.305c2.562-7.612,5.112-13.616,6.907-17.713.891-2.067,1.621-3.651,2.117-4.716.235-.52.421-.916.569-1.238a3.723,3.723,0,0,1,.223-.347Z" transform="translate(-142.034 -134.607)" fill="#263238"/><g transform="translate(195.662 220.759)" opacity="0.3"><path d="M435.694,378.941c-1.238-12.143-6.7-24.335-16.685-31.341L337.39,464.149c14.408,7.773,30.412,15.794,46.417,12.378,8.664-1.844,16.264-6.919,22.478-13.17,12.91-12.984,19.916-30.672,24.83-48.273C434.395,403.3,436.92,391.083,435.694,378.941Z" transform="translate(-337.39 -347.6)"/></g><path d="M464.859,374.522C454.7,410.5,431.811,454.409,424.78,463.234a54.574,54.574,0,0,1-42.7,20.956c-9.209,0-87.041-15.163-110.162-19.693a9.9,9.9,0,0,1-7.761-7.662l-.2-.953L253.62,453.06l5.533-27.862,1.1-1.547,111.314,3.5h0l32.38-90.2c.619-1.027,9.964-31.291,35.326-29.917" transform="translate(-161.647 -136.497)" fill="#f05454"/><path d="M439.346,307.052H438.5a23.242,23.242,0,0,0-2.476.062,27.912,27.912,0,0,0-9.358,2.216,33.964,33.964,0,0,0-12.217,9.419,61.294,61.294,0,0,0-10.274,18.307h0C396,359.9,384.9,390.948,371.887,427.277l-.062.2h-.21l-111.264-3.491.272-.136-1.1,1.547v-.124c-1.6,8.058-3.292,16.623-4.951,25.288l-.507,2.575-.235-.384,10.385,2.8.2.062v.186a10.113,10.113,0,0,0,3.057,6,9.617,9.617,0,0,0,2.847,1.82,17.054,17.054,0,0,0,3.33.854l13.616,2.661,26.612,5.112c17.44,3.3,34.237,6.449,50.266,9.16,4.01.668,7.971,1.238,11.883,1.857,1.956.248,3.911.52,5.83.607a47.12,47.12,0,0,0,5.768-.285,54.733,54.733,0,0,0,21.042-6.746,56.172,56.172,0,0,0,15.707-13.393,76.636,76.636,0,0,0,5.4-8.145c1.622-2.76,3.156-5.5,4.6-8.182a439.96,439.96,0,0,0,23.864-52.593c2.352-6.387,4.035-11.4,5.1-14.853.52-1.7.928-3,1.238-3.887s.421-1.312.421-1.312-.111.446-.359,1.324l-1.139,3.911c-1.027,3.429-2.674,8.454-4.951,14.853a431.629,431.629,0,0,1-23.716,52.717c-1.436,2.7-2.971,5.434-4.58,8.206a74.768,74.768,0,0,1-5.434,8.219,56.432,56.432,0,0,1-15.93,13.591,55.23,55.23,0,0,1-21.228,6.845,45.788,45.788,0,0,1-5.842.3c-1.98-.087-3.924-.359-5.892-.607-3.924-.557-7.9-1.238-11.907-1.844-16.091-2.7-32.838-5.83-50.291-9.122l-26.612-5.112L273.5,465.1a17.386,17.386,0,0,1-3.441-.891,9.976,9.976,0,0,1-3.045-1.943,10.769,10.769,0,0,1-3.255-6.337l.235.248-10.385-2.8-.285-.087v-.285c.161-.817.347-1.7.52-2.575,1.72-8.664,3.416-17.23,4.951-25.288v-.074h0l1.1-1.547.1-.136h.359l111.314,3.54-.272.186,32.479-90.16h0a60.921,60.921,0,0,1,10.373-18.294,33.876,33.876,0,0,1,12.378-9.419,27.6,27.6,0,0,1,9.42-2.141,18.5,18.5,0,0,1,2.476,0Z" transform="translate(-161.718 -136.485)" fill="#263238"/><path d="M331.559,400.969a41.034,41.034,0,0,0-5.372-7.872,40.5,40.5,0,0,0-7.427-5.917,8.591,8.591,0,0,1,2.587,1.176,23.754,23.754,0,0,1,5.36,4.3,24.086,24.086,0,0,1,3.911,5.644,9.244,9.244,0,0,1,.941,2.674Z" transform="translate(-146.158 -117.43)" fill="#263238"/><path d="M362.323,425.874c-.111,0-.334-1.423-.978-3.713a35.24,35.24,0,0,0-3.652-8.318,34.546,34.546,0,0,0-5.731-7.043c-1.7-1.609-2.884-2.476-2.822-2.55a3.292,3.292,0,0,1,.9.508,22.281,22.281,0,0,1,2.228,1.7,30.152,30.152,0,0,1,9.519,15.6,18.859,18.859,0,0,1,.483,2.76,3.427,3.427,0,0,1,.05,1.064Z" transform="translate(-138.935 -113.371)" fill="#263238"/><g transform="translate(193.694 214.384)" opacity="0.3"><path d="M335.8,418.041l6.474.248c1.052-25.436,6.288-50.749,10.769-75.839C341.618,365.794,338.622,392.221,335.8,418.041Z" transform="translate(-335.8 -342.45)"/></g><path d="M429.165,297.6a2.242,2.242,0,0,1-.619.21l-1.782.5-6.56,1.745c-5.533,1.473-13.17,3.577-21.661,5.719s-16.252,3.8-21.921,4.728c-2.835.47-5.137.8-6.734.965l-1.844.186a2.3,2.3,0,0,1-.644,0,2.473,2.473,0,0,1,.631-.149l1.819-.309c1.584-.235,3.874-.644,6.684-1.164,5.632-1.04,13.368-2.76,21.847-4.951s16.091-4.184,21.711-5.545c2.785-.681,5.05-1.238,6.622-1.547l1.807-.371A2.478,2.478,0,0,1,429.165,297.6Z" transform="translate(-134.592 -138.733)" fill="#263238"/></g></g></svg>