<svg xmlns="http://www.w3.org/2000/svg" width="52.559" height="52.559" viewBox="0 0 52.559 52.559"><g style="isolation:isolate"><path d="M52.559,26.279A26.28,26.28,0,1,1,26.28,0,26.236,26.236,0,0,1,52.559,26.279Z" fill="#f2f2f2"/><path d="M108.194,119.474l-3,34.792a26.283,26.283,0,0,1-32.185,0l-3-34.792Z" transform="translate(-62.821 -107.209)" fill="#006bc0"/><path d="M256,151.338v36.335l12.552-3.544,2.8-32.792Z" transform="translate(-229.718 -135.802)" fill="#0096dc"/><path d="M163.01,205.4h-9.053l9.46-4.814.409-4.84H140.013l.417,4.934h9.559l-9.172,4.586.427,5.055H157.6l-.536,6.02-5.149,1.394-5.363-1.5-.134-3.754h-5l.625,7.4,9.868,2.789,9.868-2.789L163.01,205.4Z" transform="translate(-125.64 -175.652)" fill="#fff"/><g transform="translate(15.186 1.609)"><path d="M149.725,20.968V17.535h4.934V15.676h-6.722v7.151h6.722V20.968Z" transform="translate(-147.937 -15.676)" fill="#222123"/><path d="M225.681,18.474v-.858h4.907v-1.94h-6.722v4.433h4.818v.858h-4.818v1.859h6.722V18.474Z" transform="translate(-216.072 -15.676)" fill="#222123"/><path d="M300.391,18.474v-.858H305.3v-1.94h-6.722v4.433h4.818v.858h-4.818v1.859H305.3V18.474Z" transform="translate(-283.112 -15.676)" fill="#222123"/></g></g></svg>