<svg xmlns="http://www.w3.org/2000/svg" width="52.667" height="52.397" viewBox="0 0 52.667 52.397"><g style="isolation:isolate"><ellipse cx="26.334" cy="26.198" rx="26.334" ry="26.198" transform="translate(0 0)" fill="#2f001e"/><g transform="translate(0.468 5.16)"><path d="M32.776,89.011l-8.814-13.6L32.42,61.856a2.884,2.884,0,0,0,.509-1.579c0-2.14-2.9-3.77-5.146-3.77a2.477,2.477,0,0,0-2.394,1.325L18.613,69.651,11.946,58.019l-.108-.188a2.478,2.478,0,0,0-2.4-1.325c-2.242,0-5.145,1.63-5.145,3.77a2.884,2.884,0,0,0,.509,1.579l1.948,3.12,6.51,10.432L5.8,86.926a26.251,26.251,0,0,0,4.485,7.283,1.673,1.673,0,0,0,.888-.663l7.439-12.636,7.438,12.636a2.085,2.085,0,0,0,1.886.815c2.19,0,5.3-1.732,5.3-3.924A2.759,2.759,0,0,0,32.776,89.011Z" transform="translate(-4.297 -55.947)" fill="#ff1ac4"/><path d="M302.389,51.053c-2.108,0-3.811.856-4.006,2.145a1.73,1.73,0,0,0-.018.249v15.03a7.372,7.372,0,0,0-6.47-3.872c-4.993,0-9.018,4.84-9.018,10.7V78.87c0,5.655,4.126,10.8,8.864,10.8a8.193,8.193,0,0,0,7.133-4.076v1.121a2.48,2.48,0,0,0,1.587,2.011,26.149,26.149,0,0,0,5.8-13.939V53.447C306.262,52.021,304.631,51.053,302.389,51.053Zm-4.024,28.479a4.489,4.489,0,0,1-3.923,3.26,3.912,3.912,0,0,1-3.668-3.923V75.3a3.8,3.8,0,1,1,7.591,0Z" transform="translate(-254.28 -51.053)" fill="#ff1ac4"/></g></g></svg>