<svg xmlns="http://www.w3.org/2000/svg" width="52.559" height="52.559" viewBox="0 0 52.559 52.559"><g style="isolation:isolate"><path d="M52.559,26.279A26.28,26.28,0,1,1,26.28,0,26.236,26.236,0,0,1,52.559,26.279Z" fill="#f2f2f2"/><path d="M109.178,119.474l-3,34.792a26.283,26.283,0,0,1-32.065.092l-3.008-34.884Z" transform="translate(-63.806 -107.209)" fill="#e64c18"/><path d="M256.546,151.249v36.229l12.515-3.533,2.792-32.7Z" transform="translate(-230.21 -135.723)" fill="#f36518"/><path d="M140.9,195.528l1.227,14.532h16.312l-.534,6-5.134,1.39-5.347-1.5-.134-3.743h-4.981l.624,7.379,9.839,2.781,9.839-2.781,1.219-14.438H146.654l-.426-4.706h0l18.011-.094.407-4.825Z" transform="translate(-126.439 -175.456)" fill="#fff"/><path d="M110.908,16.8v2.5h-2.385V16.8H106.3v7.157h2.219v-2.33h2.385v2.33h2.219V16.8Z" transform="translate(-95.391 -15.072)"/><path d="M189.869,16.8h-6.824v2.5h2.219v4.716h2.386V19.293h2.219Z" transform="translate(-164.255 -15.072)"/><path d="M352.43,22.219V17.337h-2.386v7.157h5.825V22.219Z" transform="translate(-314.11 -15.557)"/><path d="M264.963,17.337,263.3,19.889l-1.664-2.552h-2.386v7.157h2.386V20.943L263.3,23.5l1.664-2.552v3.551h2.386V17.337Z" transform="translate(-232.636 -15.557)"/></g></svg>