<svg xmlns="http://www.w3.org/2000/svg" width="52.559" height="52.559" viewBox="0 0 52.559 52.559"><g style="isolation:isolate"><path d="M52.559,26.279a26.147,26.147,0,1,1-1.846-9.694A26.2,26.2,0,0,1,52.559,26.279Z" fill="#e4ba42"/><g transform="translate(14.698 17.936)"><path d="M309.513,187.109c-.95-2.754-4.844-2.754-5.6-.475s1.8,3.609,5.794,4.939,6.459,4.844,5.984,7.978-1.8,7.219-9.688,7.219a10.231,10.231,0,0,1-9.026-5.389l4.467-2.684s1.52,3.229,4.369,3.229,3.989-.95,3.989-3.134c0-2.659-9.213-3.609-10.638-8.168s.475-11.018,7.124-10.543a10.307,10.307,0,0,1,7.662,3.826Z" transform="translate(-277.885 -180.055)" fill="#f2f2f2"/><path d="M164.694,183.805v18.236a3.012,3.012,0,0,1-3.8,2.944c-1.9-.38-2.754-2.659-2.754-2.659l-4.369,2.944s.95,4.369,6.934,4.749,9.4-3.229,9.4-6.269V183.805Z" transform="translate(-153.771 -183.305)" fill="#f2f2f2"/></g></g></svg>