<svg xmlns="http://www.w3.org/2000/svg" width="52.559" height="52.559" viewBox="0 0 52.559 52.559"><g style="isolation:isolate"><path d="M52.559,26.279A26.28,26.28,0,1,1,26.28,0,26.243,26.243,0,0,1,52.559,26.279Z" transform="translate(0)" fill="#5adafd"/><g transform="translate(0.774 6.976)"><path d="M132.447,102.061c-.123-.827-.286-1.679-.488-2.55q-.267-1.147-.62-2.336a50.967,50.967,0,0,0-2.419-6.423q-.648-1.432-1.394-2.871-.656-1.266-1.385-2.529t-1.5-2.464q-.87-1.363-1.789-2.642a50.723,50.723,0,0,0-4.353-5.307q-.851-.9-1.713-1.7-.98-.917-1.965-1.7c-4.279-3.4-8.109-4.417-10.787-2.871s-3.71,5.374-2.908,10.779c.122.827.286,1.679.489,2.55q.264,1.147.619,2.336a50.741,50.741,0,0,0,2.42,6.423q.647,1.432,1.393,2.87.656,1.268,1.385,2.53t1.5,2.464q.872,1.364,1.789,2.643a50.693,50.693,0,0,0,4.353,5.306q.851.9,1.714,1.7.98.917,1.964,1.7a19.627,19.627,0,0,0,4.5,2.773,26.168,26.168,0,0,0,9.166-4.351A17.936,17.936,0,0,0,132.447,102.061ZM130.038,108a3.428,3.428,0,0,1-4.938,2.852,15.588,15.588,0,0,1-4.846-2.776q-.875-.7-1.753-1.509-.859-.8-1.714-1.7c-.976-1.033-1.941-2.164-2.883-3.377q-.943-1.215-1.851-2.535c-.876-1.273-1.723-2.614-2.527-4.008s-1.544-2.8-2.207-4.193q-.689-1.443-1.269-2.87c-.58-1.422-1.077-2.824-1.483-4.185-.236-.794-.443-1.572-.616-2.335s-.323-1.536-.432-2.273a15.576,15.576,0,0,1,.019-5.584,4.026,4.026,0,0,1,1.707-2.747,3.066,3.066,0,0,1,1.556-.384,5.768,5.768,0,0,1,1.675.28,15.58,15.58,0,0,1,4.846,2.775q.875.7,1.753,1.511.861.8,1.713,1.7c.977,1.033,1.943,2.164,2.885,3.378q.943,1.215,1.851,2.535c.875,1.273,1.722,2.614,2.526,4.007s1.544,2.8,2.207,4.193q.689,1.445,1.269,2.871c.58,1.422,1.077,2.823,1.483,4.184q.354,1.191.617,2.335c.177.777.322,1.536.431,2.273A15.57,15.57,0,0,1,130.038,108Z" transform="translate(-91.283 -67.961)" fill="#f2f2f2"/><path d="M50.672,187.654q-1.167-.46-2.453-.853-1.126-.343-2.333-.632a50.773,50.773,0,0,0-6.771-1.116c-1.042-.1-2.1-.18-3.181-.229-.95-.044-1.914-.067-2.884-.067s-1.934.022-2.885.067c-1.078.048-2.141.126-3.182.229a50.757,50.757,0,0,0-6.77,1.116q-1.205.288-2.333.632-1.284.391-2.453.853c-5.081,2.006-7.881,4.814-7.881,7.906s2.8,5.9,7.881,7.907q1.167.46,2.452.853,1.126.343,2.333.631a50.759,50.759,0,0,0,6.773,1.117c1.042.1,2.1.179,3.182.229.95.044,1.914.065,2.884.065s1.933-.021,2.883-.065q1.617-.074,3.182-.229a50.623,50.623,0,0,0,6.773-1.117q1.205-.288,2.333-.632c.855-.261,1.674-.545,2.452-.852,5.082-2.007,7.881-4.815,7.881-7.907S55.755,189.66,50.672,187.654Zm3.939,10.757a15.564,15.564,0,0,1-4.826,2.809q-1.041.41-2.185.763-1.121.346-2.33.633c-1.383.329-2.845.6-4.367.809q-1.522.211-3.119.336c-1.541.123-3.126.186-4.736.186s-3.194-.062-4.736-.184c-1.063-.084-2.106-.2-3.12-.337-1.522-.209-2.984-.48-4.367-.809q-1.207-.286-2.33-.633-1.142-.351-2.185-.763a15.566,15.566,0,0,1-4.826-2.809,3.426,3.426,0,0,1,0-5.7,15.565,15.565,0,0,1,4.826-2.809q1.041-.41,2.185-.763,1.121-.346,2.33-.633c1.383-.329,2.845-.6,4.367-.809,1.015-.141,2.057-.253,3.12-.337,1.541-.122,3.126-.184,4.736-.184s3.194.062,4.736.186q1.594.124,3.119.336c1.522.209,2.984.479,4.367.809q1.207.286,2.33.633,1.142.351,2.185.763a15.566,15.566,0,0,1,4.826,2.809,3.426,3.426,0,0,1,0,5.7Z" transform="translate(-7.544 -172.769)" fill="#f2f2f2"/><path d="M129.54,68.664c-2.678-1.546-6.509-.526-10.787,2.871q-.981.78-1.964,1.7-.861.8-1.714,1.7a50.831,50.831,0,0,0-4.354,5.306q-.915,1.277-1.788,2.642-.771,1.2-1.5,2.464t-1.385,2.53q-.745,1.437-1.393,2.87a50.8,50.8,0,0,0-2.42,6.423q-.354,1.189-.62,2.337-.3,1.307-.488,2.549a17.925,17.925,0,0,0,.027,6.329,26.153,26.153,0,0,0,9.166,4.352,19.623,19.623,0,0,0,4.5-2.773q.983-.78,1.965-1.7.861-.8,1.713-1.7a50.854,50.854,0,0,0,4.353-5.307q.915-1.278,1.789-2.643.771-1.2,1.5-2.464t1.385-2.529q.745-1.437,1.394-2.871a50.891,50.891,0,0,0,2.419-6.423q.352-1.187.619-2.336c.2-.871.366-1.723.489-2.55C133.25,74.038,132.218,70.211,129.54,68.664ZM129.01,83.7c-.407,1.361-.9,2.762-1.483,4.184q-.579,1.424-1.269,2.871c-.664,1.4-1.4,2.8-2.207,4.193s-1.651,2.734-2.526,4.007q-.907,1.319-1.852,2.536c-.942,1.213-1.907,2.344-2.884,3.377q-.851.9-1.713,1.7t-1.753,1.51a15.589,15.589,0,0,1-4.846,2.776A3.428,3.428,0,0,1,103.537,108a15.574,15.574,0,0,1-.019-5.584c.109-.737.254-1.5.431-2.273s.381-1.541.617-2.335c.407-1.361.9-2.763,1.483-4.185q.579-1.424,1.269-2.87c.664-1.4,1.4-2.8,2.207-4.193s1.651-2.735,2.527-4.008q.906-1.318,1.85-2.534c.943-1.214,1.908-2.345,2.884-3.378q.853-.9,1.714-1.7.877-.814,1.753-1.51a15.586,15.586,0,0,1,4.846-2.775,5.768,5.768,0,0,1,1.675-.28,3.064,3.064,0,0,1,1.556.384,4.022,4.022,0,0,1,1.707,2.747,15.574,15.574,0,0,1,.019,5.584c-.109.737-.254,1.5-.432,2.273S129.246,82.9,129.01,83.7Z" transform="translate(-91.283 -67.961)" fill="#f2f2f2"/><circle cx="4.794" cy="4.794" r="4.794" transform="translate(20.712 17.998)" fill="#f2f2f2"/></g></g></svg>