<svg xmlns="http://www.w3.org/2000/svg" width="52.559" height="52.559" viewBox="0 0 52.559 52.559"><g style="isolation:isolate"><path d="M52.559,26.279A26.28,26.28,0,1,1,26.28,0,26.3,26.3,0,0,1,52.559,26.279Z" fill="#0078cf"/><g transform="translate(8.531 16.596)"><path d="M333.917,178.226a26.281,26.281,0,0,1-8.173,13c-.381.02-.779.03-1.192.03a11.329,11.329,0,0,1-10-5.968l4.947-2.972s1.683,3.576,4.838,3.576,4.418-1.052,4.418-3.471c0-2.945-10.2-4-11.781-9.045s.526-12.2,7.889-11.676a11.413,11.413,0,0,1,8.484,4.237l-4.908,3.546c-1.052-3.049-5.364-3.049-6.206-.526s2,4,6.416,5.469A10.505,10.505,0,0,1,333.917,178.226Z" transform="translate(-290.797 -161.671)" fill="#f2f2f2"/><path d="M105.468,169.786H83.106v5.278H91.3v22.917h5.972V175.064h8.195Z" transform="translate(-83.106 -168.953)" fill="#f2f2f2"/></g></g></svg>