<svg xmlns="http://www.w3.org/2000/svg" width="152.926" height="69.577" viewBox="0 0 152.926 69.577"><g transform="translate(0)"><path d="M423.3-188.124a39.6,39.6,0,0,1,39.6,39.6h8.771A48.369,48.369,0,0,0,423.3-196.9Z" transform="translate(-318.744 196.895)" fill="#00a685"/><path d="M397.716-264.9a22.04,22.04,0,0,1,22.04,22.04v9.458H389.271l.038,9.923h40.536V-242.86a32.128,32.128,0,0,0-32.128-32.128Z" transform="translate(-293.159 291.228)" fill="#26595d"/><path d="M12.379-118.808q.145-.255.546-.073l2.949,1.165c.121.049.188.115.2.2a.468.468,0,0,1-.055.273,17.55,17.55,0,0,0-1.111,2.384,8.259,8.259,0,0,0-.528,3,5.572,5.572,0,0,0,.455,2.385A4.375,4.375,0,0,0,16-107.922a4.209,4.209,0,0,0,1.584.819,6.535,6.535,0,0,0,1.711.237,4.974,4.974,0,0,0,3.386-1.11,4.528,4.528,0,0,0,1.274-3.586v-23.52a.32.32,0,0,1,.361-.364h3.357a.321.321,0,0,1,.361.364v23.629a9.634,9.634,0,0,1-.636,3.641,6.82,6.82,0,0,1-1.817,2.6,7.663,7.663,0,0,1-2.816,1.547,12.174,12.174,0,0,1-3.633.51,11.733,11.733,0,0,1-3.543-.51,7.858,7.858,0,0,1-2.816-1.547,7.07,7.07,0,0,1-1.872-2.6,9.264,9.264,0,0,1-.672-3.677,13.02,13.02,0,0,1,.619-3.932,14.085,14.085,0,0,1,1.529-3.386" transform="translate(-8.188 136.271)" fill="#26595d"/><path d="M105.264-80.685a.32.32,0,0,1-.361.364h-3.357a.32.32,0,0,1-.361-.364v-24.03a.32.32,0,0,1,.361-.364H104.9a.321.321,0,0,1,.361.364Z" transform="translate(-76.57 105.903)" fill="#26595d"/><path d="M136.638-101.439a.322.322,0,0,1-.364-.364v-2.913a.322.322,0,0,1,.364-.364h5.534a7.213,7.213,0,0,1,4.84,1.525q1.786,1.525,1.786,4.973v3.412a1.9,1.9,0,0,0,.8,1.633,3.651,3.651,0,0,0,2.184.581h.619a1.4,1.4,0,0,1,1.092.4,2.026,2.026,0,0,1,.364,1.361,2.325,2.325,0,0,1-.346,1.471,1.386,1.386,0,0,1-1.111.4,7.711,7.711,0,0,1-2.639-.4,3.094,3.094,0,0,1-1.723-1.692,3.436,3.436,0,0,1-1.858,1.674,9.074,9.074,0,0,1-3.027.423H135a.323.323,0,0,1-.364-.368v-2.906a.323.323,0,0,1,.364-.367h6.772a6.744,6.744,0,0,0,1.565-.145,1.72,1.72,0,0,0,.892-.489,1.724,1.724,0,0,0,.4-.888,8.356,8.356,0,0,0,.091-1.341v-2.429a2.962,2.962,0,0,0-.928-2.429,4.322,4.322,0,0,0-2.785-.762Z" transform="translate(-101.718 114.897)" fill="#26595d"/><path d="M202.51-101.438a1.176,1.176,0,0,1-1-.367,2.418,2.418,0,0,1-.273-1.361,3.09,3.09,0,0,1,.255-1.508,1.117,1.117,0,0,1,1.019-.4h4.369a1.4,1.4,0,0,1,1.092.4,2.1,2.1,0,0,1,.364,1.4,2.223,2.223,0,0,1-.346,1.489,1.512,1.512,0,0,1-1.111.349Z" transform="translate(-151.79 127.02)" fill="#26595d"/><path d="M220.114-101.438a1.176,1.176,0,0,1-1-.367,2.418,2.418,0,0,1-.273-1.361,3.09,3.09,0,0,1,.255-1.508,1.117,1.117,0,0,1,1.019-.4h4.369a1.4,1.4,0,0,1,1.092.4,2.1,2.1,0,0,1,.364,1.4,2.223,2.223,0,0,1-.346,1.489,1.513,1.513,0,0,1-1.111.349Z" transform="translate(-165.025 127.02)" fill="#26595d"/><path d="M237.166-80.321a1.523,1.523,0,0,1-1.092-.349,2,2,0,0,1-.364-1.416,2.336,2.336,0,0,1,.346-1.452,1.353,1.353,0,0,1,1.111-.423h1.784a1.819,1.819,0,0,0,1.329-.418,2.12,2.12,0,0,0,.419-1.509v-18.827a.32.32,0,0,1,.361-.364h3.356a.321.321,0,0,1,.361.364v19.807a5.178,5.178,0,0,1-.975,3.477,4.129,4.129,0,0,1-3.249,1.111Z" transform="translate(-177.708 105.903)" fill="#26595d"/><path d="M295.535-80.685a.32.32,0,0,1-.361.364h-3.357a.32.32,0,0,1-.361-.364v-24.03a.32.32,0,0,1,.361-.364h3.357a.321.321,0,0,1,.361.364Z" transform="translate(-219.62 105.903)" fill="#26595d"/><path d="M15.933-264.972l-3.277-9.612h-.109l-3.313,9.612Zm-5.425-15.4a.457.457,0,0,1,.473-.364h3.35a.458.458,0,0,1,.473.364l8.374,24.03q.109.364-.255.364H19.356a.457.457,0,0,1-.473-.364l-1.638-4.806H7.923l-1.638,4.806a.457.457,0,0,1-.473.364H2.28q-.364,0-.255-.364Z" transform="translate(-2 325.156)" fill="#26595d"/><path d="M101.092-256.641a4.759,4.759,0,0,1-3.7-1.238,5.532,5.532,0,0,1-1.11-3.787v-19.588a.322.322,0,0,1,.364-.364H100a.322.322,0,0,1,.364.364v19.37a1.706,1.706,0,0,0,.364,1.256,1.649,1.649,0,0,0,1.165.346h.8a.322.322,0,0,1,.364.364V-257a.322.322,0,0,1-.364.364Z" transform="translate(-72.886 326.036)" fill="#26595d"/><path d="M139.541-260.833a3.1,3.1,0,0,0,3.277-2.257,8.554,8.554,0,0,0,.273-1.347,16.334,16.334,0,0,0,.091-1.93,16.335,16.335,0,0,0-.091-1.93,8.579,8.579,0,0,0-.273-1.347,3.1,3.1,0,0,0-3.277-2.257,3.074,3.074,0,0,0-3.24,2.257,8.466,8.466,0,0,0-.273,1.347,16.231,16.231,0,0,0-.091,1.93,16.23,16.23,0,0,0,.091,1.93,8.442,8.442,0,0,0,.273,1.347,3.073,3.073,0,0,0,3.24,2.257m4.005,3.24a.322.322,0,0,1-.364-.364v-1.311h-.036a4.618,4.618,0,0,1-1.748,1.493,6.347,6.347,0,0,1-2.913.583,6.678,6.678,0,0,1-3.823-1.056,5.864,5.864,0,0,1-2.257-3.168,12.125,12.125,0,0,1-.473-2.093,22.2,22.2,0,0,1-.145-2.858,22.208,22.208,0,0,1,.145-2.858,12.16,12.16,0,0,1,.473-2.094,5.868,5.868,0,0,1,2.257-3.168,6.678,6.678,0,0,1,3.823-1.056,6.35,6.35,0,0,1,2.913.583,4.628,4.628,0,0,1,1.748,1.493h.036v-8.52a.322.322,0,0,1,.364-.364h3.35a.322.322,0,0,1,.364.364v24.03a.322.322,0,0,1-.364.364Z" transform="translate(-99.576 326.77)" fill="#26595d"/><path d="M215.575-267.314a4.876,4.876,0,0,0,2.894-.728,2.6,2.6,0,0,0,1-2.257v-1.347a.193.193,0,0,0-.218-.218h-2.913a5.634,5.634,0,0,0-2.876.564,1.963,1.963,0,0,0-.91,1.8q0,2.184,3.022,2.184m4.333,2.913a.322.322,0,0,1-.364-.364v-1.274h-.036a4.356,4.356,0,0,1-1.857,1.474,7.462,7.462,0,0,1-3.095.564,7.788,7.788,0,0,1-2.276-.327,5.414,5.414,0,0,1-1.875-.98,4.675,4.675,0,0,1-1.274-1.651,5.507,5.507,0,0,1-.473-2.378,4.823,4.823,0,0,1,1.875-4.209,8.707,8.707,0,0,1,5.152-1.343h3.568a.194.194,0,0,0,.218-.22v-.845a2.76,2.76,0,0,0-.837-2.241,4.932,4.932,0,0,0-3.058-.7,7.221,7.221,0,0,0-2.439.346,5.321,5.321,0,0,0-1.566.855q-.328.255-.51-.073l-1.347-2.4a.311.311,0,0,1,.073-.473,8.9,8.9,0,0,1,2.549-1.238,12.327,12.327,0,0,1,3.678-.473q4,0,5.661,1.456t1.657,4.66v11.469a.322.322,0,0,1-.364.364Z" transform="translate(-157.369 333.578)" fill="#26595d"/><path d="M289.456-256.641a4.759,4.759,0,0,1-3.7-1.238,5.532,5.532,0,0,1-1.11-3.787v-19.588a.322.322,0,0,1,.364-.364h3.35a.322.322,0,0,1,.364.364v19.37a1.706,1.706,0,0,0,.364,1.256,1.649,1.649,0,0,0,1.165.346h.8a.322.322,0,0,1,.364.364V-257a.322.322,0,0,1-.364.364Z" transform="translate(-214.503 326.036)" fill="#26595d"/></g></svg>