<svg xmlns="http://www.w3.org/2000/svg" width="148.098" height="149.708" viewBox="0 0 148.098 149.708"><g transform="translate(-0.273)"><path d="M58.006,82.705,42.259,73.526V55.137l15.747,9.195V82.705m0-55.137L42.259,36.763V55.137l15.747-9.179V27.568M73.753,0,58.006,9.195V27.568l15.747-9.195V0M26.513,27.568,10.766,36.763V55.137l15.747-9.179V27.568" transform="translate(5.254)" fill="#1e1656"/><path d="M37.006,45.939,21.259,36.76V18.37l15.747,9.195V45.939" transform="translate(10.508 9.198)" fill="#722ea5"/><path d="M78.977,45.939,63.23,36.76V18.37l15.747,9.195V45.939" transform="translate(31.523 9.198)" fill="#2a6ebb"/><path d="M.273,58.174,16.02,67.368l15.747-9.195L16.02,48.994Zm31.493,0,15.747,9.195L63.26,58.174,47.513,48.994Z" transform="translate(0 24.531)" fill="#952d98"/><path d="M31.752,39.8,47.5,49,63.245,39.8,47.5,30.624Zm31.493,0L78.992,49,94.739,39.8,78.992,30.624Z" transform="translate(15.761 15.333)" fill="#44c8f5"/><path d="M49.274,69.449V92.934H33.421a.528.528,0,0,0-.38.154l-4.692,8.059c-.137.261-.182.384-.106.568a.516.516,0,0,0,.486.322h54.21a7.837,7.837,0,0,0,6.074-3.07,7.807,7.807,0,0,0,6.074,3.07h38.782a.519.519,0,0,0,.516-.507V93.472a.525.525,0,0,0-.152-.353.544.544,0,0,0-.364-.153H113.141V80.225a2.062,2.062,0,0,1,1.989-2.1h13.849a.528.528,0,0,0,.38-.154l4.738-8.12c.137-.261.2-.384.106-.568a.516.516,0,0,0-.486-.322H112.761a8.6,8.6,0,0,0-8.716,8.258V92.95h-7.8v-40a.522.522,0,0,0-.319-.476c-.2-.077-.3,0-.562.107l-7.972,4.758a.54.54,0,0,0-.152.384v35.3h-7.8v-15.9a8.528,8.528,0,0,0-8.61-8.212H49.79a.514.514,0,0,0-.371.158.525.525,0,0,0-.146.379ZM70.533,92.934H60.389a2.045,2.045,0,0,1-2.035-2.011v-12.8h10.2a2.047,2.047,0,0,1,1.974,2.057V92.934ZM99,108.284a.216.216,0,0,1,.062-.168.211.211,0,0,1,.166-.062H108.9a.211.211,0,0,1,.166.062.216.216,0,0,1,.062.168v2.395a.216.216,0,0,1-.062.168.211.211,0,0,1-.166.062h-6.484a.121.121,0,0,0-.1.035.124.124,0,0,0-.034.1v3.07a.124.124,0,0,0,.034.1.121.121,0,0,0,.1.035h5.406a.211.211,0,0,1,.166.062.216.216,0,0,1,.062.168V116.8a.216.216,0,0,1-.062.168.211.211,0,0,1-.166.062h-5.406a.121.121,0,0,0-.1.035.124.124,0,0,0-.034.1v3.162a.124.124,0,0,0,.034.1.121.121,0,0,0,.1.035h6.5a.211.211,0,0,1,.166.062.216.216,0,0,1,.062.168V123.1a.216.216,0,0,1-.062.168.211.211,0,0,1-.166.062H99.232a.211.211,0,0,1-.166-.062A.216.216,0,0,1,99,123.1V108.284Zm15.777,15.166c-2.369,0-3.325-1.059-3.325-3.454V108.284a.216.216,0,0,1,.062-.168.211.211,0,0,1,.166-.062h2.657a.211.211,0,0,1,.166.062.216.216,0,0,1,.062.168v11.451c0,.737.289,1.028.926,1.028h.471a.211.211,0,0,1,.166.062.216.216,0,0,1,.062.168v2.226a.216.216,0,0,1-.062.168.211.211,0,0,1-.166.062Zm16.582-.138a.211.211,0,0,1-.166-.062.216.216,0,0,1-.062-.168V116.85c0-1.182-.577-1.98-1.686-1.98s-1.67.783-1.67,1.98v6.232a.216.216,0,0,1-.062.168.211.211,0,0,1-.166.062h-2.657a.211.211,0,0,1-.166-.062.216.216,0,0,1-.062-.168V116.85c0-1.182-.562-1.98-1.67-1.98s-1.686.783-1.686,1.98v6.232a.216.216,0,0,1-.062.168.211.211,0,0,1-.166.062h-2.657a.211.211,0,0,1-.166-.062.216.216,0,0,1-.062-.168V112.69a.216.216,0,0,1,.062-.168.211.211,0,0,1,.166-.062h2.657a.211.211,0,0,1,.166.062.216.216,0,0,1,.062.168v.737a3.724,3.724,0,0,1,5.664.138,4.364,4.364,0,0,1,3.371-1.366,3.576,3.576,0,0,1,2.95,1.059,3.662,3.662,0,0,1,1.014,2.994V123.1a.216.216,0,0,1-.062.168.211.211,0,0,1-.166.062l-2.718-.015Z" transform="translate(13.986 26.257)" fill="#808285"/></g></svg>