<svg xmlns="http://www.w3.org/2000/svg" width="264.164" height="91.879" viewBox="0 0 264.164 91.879"><g transform="translate(0)"><path d="M878.331,373.062A4.331,4.331,0,1,0,874,368.731a4.325,4.325,0,0,0,4.331,4.331m0-7.836a3.4,3.4,0,0,1,3.438,3.471,3.455,3.455,0,1,1-3.438-3.471" transform="translate(-618.498 -363.276)" fill="#264285"/><path d="M882.827,374.929v-1.785h1.091l.893,1.785h.926l-.992-1.951a1.346,1.346,0,0,0,.793-1.289,1.326,1.326,0,0,0-1.422-1.389h-1.422c-.463,0-.694.231-.694.628V374.9h.827Zm.033-3.9h1.19a.6.6,0,0,1,.628.661.659.659,0,0,1-.694.694h-1.157v-1.356Z" transform="translate(-623.853 -367.225)" fill="#264285"/><path d="M347.346,370.821c9.092,0,10.216,9.356,10.216,9.356l10.811-2.546c-.066-.264-1.951-16.432-21.027-16.432-11.8,0-22.846,7.207-22.846,25.623,0,18.283,11.6,25.292,23.639,25.292a33.435,33.435,0,0,0,15.969-3.868c2.612-1.521,4.067-3.009,4.067-6.149V390.823c0-2.942-1.951-4.728-5.125-4.728H348.238v8.332h9.29v6.48a17.115,17.115,0,0,1-9.026,2.215c-6.083,0-12.431-3.67-12.431-16.3,0-12.332,5.521-16,11.274-16" transform="translate(-250.673 -361.134)" fill="#264285"/><path d="M491.876,361c-4.529,0-7.274,1.951-8.6,5.951l-14.679,44.4h11.6a3.675,3.675,0,0,0,2.347-1.058l13.985-13.82c.3-.3.2-.43-.132-.43H494.52a4.366,4.366,0,0,0-2.215.6l-9.39,5.389,8.927-30.152s10.613,36.5,11.472,39.443H515.25l-14.481-44.468c-1.223-3.7-4.3-5.852-8.894-5.852" transform="translate(-347.131 -361)" fill="#264285"/><path d="M637.946,370.689c9.092,0,10.282,10.018,10.282,10.018l10.811-2.281s-1.62-17.225-21.093-17.225c-11.8,0-22.846,7.009-22.846,25.425,0,18.283,10.943,25.557,22.78,25.557,19.077,0,21.16-16.828,21.16-16.828l-10.811-2.347s-.86,9.687-10.15,9.687c-5.753,0-11.34-3.67-11.34-16.1-.033-12.3,5.455-15.9,11.208-15.9" transform="translate(-445.195 -361.134)" fill="#264285"/><path d="M779.509,361c-4.529,0-7.274,1.951-8.629,5.951l-14.679,44.4h11.6a3.675,3.675,0,0,0,2.347-1.058l13.985-13.82c.3-.3.2-.43-.132-.43H782.12a4.279,4.279,0,0,0-2.215.6l-9.39,5.389,8.927-30.152s10.613,36.5,11.472,39.443h11.968L788.4,366.852c-1.223-3.7-4.265-5.852-8.894-5.852" transform="translate(-539.645 -361)" fill="#264285"/><path d="M171.39,412.69h0a.337.337,0,0,0,.3-.364.427.427,0,0,0-.165-.364c-5.852-1.918-10.414-6.877-11.439-14.184l-2.744-19.54c-1.289-9.092-7.968-15.275-15.77-15.44H101.5a.3.3,0,0,0-.3.3c0,.165.066.331.165.331,5.852,1.918,10.414,6.91,11.439,14.25l2.744,19.54c1.289,9.059,7.968,15.275,15.77,15.473Z" transform="translate(-101.2 -362.205)" fill="#2980c3"/><path d="M190.523,462.4H188.7a2.05,2.05,0,0,0-.76.132l-21.887,8.332c-.165.066-.165.132.033.132h7.141a4.228,4.228,0,0,0,2.314-.463l15.01-7.968c.165-.1.165-.165-.033-.165" transform="translate(-144.533 -428.875)" fill="#fff"/><path d="M189.5,462.174l4.364,1.719-2.281.86-4.728-2.513c-.165-.1-.165-.165.033-.165h1.818a1.552,1.552,0,0,1,.793.1" transform="translate(-158.457 -428.649)" fill="#fff"/><path d="M232.749,479.229h-7.141a4.228,4.228,0,0,1-2.314-.463l-4.893-2.579,2.81-1.488,11.539,4.4c.2.066.2.132,0,.132" transform="translate(-179.651 -437.109)" fill="#fff"/><path d="M193.49,412.612c-.793,0-1.554-6.282-1.719-14.349h0c-.4.1-.827.231-1.157.331a40.089,40.089,0,0,0-7.108,3.141.082.082,0,0,1-.132-.033c0-.033-.033-.033-.033-.066a2.69,2.69,0,0,1,.694-2.347,15.194,15.194,0,0,1,2.314-1.752,25.71,25.71,0,0,1,3.108-1.719c.3-.132.628-.3.926-.43a31.887,31.887,0,0,0-5.62-2.447c-.033,0-.066-.066-.066-.1s0-.033.033-.033a2.244,2.244,0,0,1,1.818-.76,18.93,18.93,0,0,1,1.885.364c.694.165,1.356.364,2.05.6.4.132.76.264,1.157.4.066.033.132.033.2.066.231-2.182.893-3.769,1.686-3.769s1.455,1.587,1.686,3.769a.47.47,0,0,1,.2-.066,11.886,11.886,0,0,1,1.157-.4c.661-.231,1.356-.4,2.05-.6a9.481,9.481,0,0,1,1.885-.364,2.244,2.244,0,0,1,1.818.76l.033.033c0,.033,0,.1-.066.1a31.887,31.887,0,0,0-5.621,2.447c.3.132.628.264.926.43a25.707,25.707,0,0,1,3.108,1.719,14.69,14.69,0,0,1,2.314,1.752,2.634,2.634,0,0,1,.694,2.347c0,.033,0,.033-.033.066s-.1.066-.132.033a40.089,40.089,0,0,0-7.108-3.141c-.3-.1-.727-.231-1.157-.331h0c-.231,8.067-.992,14.349-1.785,14.349" transform="translate(-156.163 -380.211)" fill="#fff"/><path d="M329.3,607.161c0-2.843,1.488-4.761,3.8-4.761a3.167,3.167,0,0,1,2.942,1.951l-1.256.562a1.911,1.911,0,0,0-1.686-1.19c-1.323,0-2.215,1.322-2.215,3.405s.893,3.405,2.215,3.405a2.134,2.134,0,0,0,1.554-.661v-1.653h-1.951V606.9h3.405v3.637a3.816,3.816,0,0,1-3.009,1.422c-2.281,0-3.8-1.951-3.8-4.794" transform="translate(-253.886 -522.589)" fill="#58595b"/><path d="M354.2,613.5c0-1.918,1.091-3.5,2.876-3.5,1.818,0,2.81,1.521,2.81,3.538v.4h-4.265c.066,1.091.661,1.918,1.752,1.918a2.083,2.083,0,0,0,1.521-.727l.661.827a3.03,3.03,0,0,1-2.314,1.025c-1.851.033-3.042-1.389-3.042-3.471m2.876-2.38c-1.058,0-1.422,1.058-1.488,1.852h2.943c0-.827-.364-1.852-1.455-1.852" transform="translate(-270.553 -527.676)" fill="#58595b"/><path d="M379.8,616.978v-4.529c0-.793-.364-1.058-.959-1.058a1.639,1.639,0,0,0-1.356.926v4.695H376.1v-6.645h1.389v.893a2.517,2.517,0,0,1,1.951-1.058c1.223,0,1.752.661,1.752,1.818v5.025H379.8Z" transform="translate(-285.213 -527.81)" fill="#58595b"/><path d="M396.3,613.5c0-1.918,1.091-3.5,2.876-3.5,1.818,0,2.81,1.521,2.81,3.538v.4h-4.265c.066,1.091.661,1.918,1.752,1.918a2.083,2.083,0,0,0,1.521-.727l.661.827a3.03,3.03,0,0,1-2.314,1.025c-1.885.033-3.042-1.389-3.042-3.471m2.876-2.38c-1.058,0-1.422,1.058-1.488,1.852h2.943c0-.827-.4-1.852-1.455-1.852" transform="translate(-298.734 -527.676)" fill="#58595b"/><path d="M418.1,616.978v-6.645h1.389v.992a2.291,2.291,0,0,1,1.851-1.124v1.356a1.239,1.239,0,0,0-.364-.033,1.878,1.878,0,0,0-1.488.926v4.563H418.1Z" transform="translate(-313.327 -527.81)" fill="#58595b"/><path d="M434.735,616.978v-.661a2.151,2.151,0,0,1-1.785.827,2.044,2.044,0,0,1-2.05-2.215,1.987,1.987,0,0,1,2.05-2.149,2.218,2.218,0,0,1,1.785.793v-.959a1.168,1.168,0,0,0-1.322-1.256,2.326,2.326,0,0,0-1.686.76l-.529-.959a3.53,3.53,0,0,1,2.447-.959c1.422,0,2.447.661,2.447,2.281v4.563h-1.356Zm0-1.521v-.992a1.457,1.457,0,0,0-1.256-.727,1.243,1.243,0,0,0,0,2.48,1.615,1.615,0,0,0,1.256-.76" transform="translate(-321.895 -527.81)" fill="#58595b"/><rect width="1.389" height="9.191" transform="translate(116.113 79.977)" fill="#58595b"/><path d="M475.52,612.091l-.5-1.818h-3.042l-.5,1.818H469.8l2.777-9.191h1.851l2.777,9.191ZM473.5,604.52l-1.223,4.4h2.414Z" transform="translate(-347.934 -522.923)" fill="#58595b"/><path d="M499.1,617.245v-.893a2.377,2.377,0,0,1-1.951,1.058,1.568,1.568,0,0,1-1.752-1.785V610.6h1.389v4.563c0,.76.364,1.058.959,1.058a1.651,1.651,0,0,0,1.356-.893v-4.695h1.389v6.645H499.1Z" transform="translate(-365.07 -528.078)" fill="#58595b"/><path d="M515.593,612.076v-3.967H514.7v-1.19h.893V605.1h1.389v1.818h1.124v1.19h-1.124v3.67c0,.463.165.727.529.727a.666.666,0,0,0,.529-.231l.331,1.025a1.74,1.74,0,0,1-1.223.4c-1.058.033-1.554-.529-1.554-1.62" transform="translate(-377.989 -524.396)" fill="#58595b"/><path d="M533.136,612.091v-4.562c0-.76-.364-1.058-.992-1.058a1.686,1.686,0,0,0-1.356.926v4.695H529.4V602.9h1.389v3.438a2.517,2.517,0,0,1,1.951-1.058,1.568,1.568,0,0,1,1.752,1.785v5.025Z" transform="translate(-387.829 -522.923)" fill="#58595b"/><path d="M549.6,613.5c0-1.885.992-3.5,2.909-3.5s2.909,1.62,2.909,3.5-.992,3.5-2.909,3.5c-1.885,0-2.909-1.62-2.909-3.5m4.4,0c0-1.19-.463-2.281-1.488-2.281s-1.488,1.058-1.488,2.281c0,1.19.463,2.281,1.488,2.281S554,614.728,554,613.5" transform="translate(-401.351 -527.676)" fill="#58595b"/><path d="M572,616.978v-6.645h1.389v.992a2.291,2.291,0,0,1,1.851-1.124v1.356a1.239,1.239,0,0,0-.364-.033,1.878,1.878,0,0,0-1.488.926v4.563H572Z" transform="translate(-416.345 -527.81)" fill="#58595b"/><path d="M585.3,603.66a.861.861,0,0,1,.893-.86.86.86,0,0,1,0,1.719.861.861,0,0,1-.893-.86m.165,1.719h1.389v6.645h-1.389Z" transform="translate(-425.248 -522.857)" fill="#58595b"/><path d="M594.86,612.076v-3.967H594v-1.19h.893V605.1h1.389v1.818h1.124v1.19h-1.124v3.67c0,.463.165.727.529.727a.666.666,0,0,0,.529-.231l.331,1.025a1.74,1.74,0,0,1-1.223.4c-1.091.033-1.587-.529-1.587-1.62" transform="translate(-431.071 -524.396)" fill="#58595b"/><path d="M606.893,618.634a1.142,1.142,0,0,0,.43.1.706.706,0,0,0,.76-.562l.264-.794L606.1,610.6h1.488l1.488,4.992L610.6,610.6h1.488l-2.645,7.9a1.835,1.835,0,0,1-1.984,1.455,3,3,0,0,1-.76-.1Z" transform="translate(-439.171 -528.078)" fill="#58595b"/><path d="M636.3,613.5c0-1.885.992-3.5,2.909-3.5s2.909,1.62,2.909,3.5-.992,3.5-2.909,3.5c-1.885,0-2.909-1.62-2.909-3.5m4.4,0c0-1.19-.463-2.281-1.488-2.281s-1.488,1.058-1.488,2.281c0,1.19.463,2.281,1.488,2.281s1.488-1.058,1.488-2.281" transform="translate(-459.386 -527.676)" fill="#58595b"/><path d="M657.86,611.823v-5.455H657v-1.19h.86v-.628a1.82,1.82,0,0,1,1.885-2.05,1.99,1.99,0,0,1,1.356.463l-.463.959a.9.9,0,0,0-.628-.265c-.5,0-.76.331-.76.893v.628h1.124v1.19h-1.124v5.455H657.86Z" transform="translate(-473.242 -522.656)" fill="#58595b"/><path d="M680.1,607.161c0-2.777,1.455-4.761,3.8-4.761a3.13,3.13,0,0,1,2.943,2.017l-1.289.562a1.834,1.834,0,0,0-1.653-1.223c-1.356,0-2.215,1.422-2.215,3.405,0,1.951.86,3.405,2.215,3.405a1.822,1.822,0,0,0,1.653-1.356l1.289.562a3.158,3.158,0,0,1-2.943,2.149c-2.347,0-3.8-1.984-3.8-4.761" transform="translate(-488.705 -522.589)" fill="#58595b"/><path d="M704.2,603.66a.861.861,0,0,1,.893-.86.86.86,0,1,1,0,1.719.861.861,0,0,1-.893-.86m.2,1.719h1.389v6.645H704.4Z" transform="translate(-504.837 -522.857)" fill="#58595b"/><path d="M714.615,617.245,712.4,610.6h1.488l1.488,5.025,1.488-5.025h1.488l-2.248,6.645Z" transform="translate(-510.326 -528.078)" fill="#58595b"/><path d="M733.2,603.66a.861.861,0,0,1,.893-.86.86.86,0,1,1,0,1.719.861.861,0,0,1-.893-.86m.165,1.719h1.389v6.645h-1.389Z" transform="translate(-524.249 -522.857)" fill="#58595b"/><rect width="1.389" height="9.191" transform="translate(212.455 79.977)" fill="#58595b"/><path d="M766.987,612.091l-.5-1.818h-3.042l-.5,1.818H761.3l2.777-9.191h1.851l2.777,9.191Zm-2.05-7.571-1.223,4.4h2.413Z" transform="translate(-543.059 -522.923)" fill="#58595b"/><path d="M786.115,617.245,783.9,610.6h1.488l1.488,5.025,1.488-5.025h1.488l-2.215,6.645Z" transform="translate(-558.187 -528.078)" fill="#58595b"/><path d="M804.7,603.66a.862.862,0,0,1,.893-.86.86.86,0,1,1-.893.86m.2,1.719h1.389v6.645H804.9Z" transform="translate(-572.11 -522.857)" fill="#58595b"/><path d="M818.035,616.978v-.661a2.151,2.151,0,0,1-1.785.827,2.044,2.044,0,0,1-2.05-2.215,2,2,0,0,1,2.05-2.149,2.218,2.218,0,0,1,1.785.793v-.959a1.168,1.168,0,0,0-1.323-1.256,2.326,2.326,0,0,0-1.686.76l-.529-.959a3.551,3.551,0,0,1,2.48-.959c1.422,0,2.447.661,2.447,2.281v4.563h-1.389Zm0-1.521v-.992a1.457,1.457,0,0,0-1.256-.727,1.243,1.243,0,0,0,0,2.48,1.566,1.566,0,0,0,1.256-.76" transform="translate(-578.469 -527.81)" fill="#58595b"/><path d="M834.86,612.076v-3.967H834v-1.19h.86V605.1h1.389v1.818h1.124v1.19h-1.124v3.67c0,.463.165.727.529.727a.666.666,0,0,0,.529-.231l.331,1.025a1.74,1.74,0,0,1-1.223.4c-1.058.033-1.554-.529-1.554-1.62" transform="translate(-591.723 -524.396)" fill="#58595b"/><path d="M848,603.66a.854.854,0,0,1,.86-.86.86.86,0,1,1-.86.86m.2,1.719h1.389v6.645H848.2Z" transform="translate(-601.094 -522.857)" fill="#58595b"/><path d="M857.6,613.5c0-1.885.992-3.5,2.909-3.5s2.909,1.62,2.909,3.5-.992,3.5-2.909,3.5-2.909-1.62-2.909-3.5m4.364,0c0-1.19-.463-2.281-1.488-2.281s-1.488,1.058-1.488,2.281c0,1.19.463,2.281,1.488,2.281,1.058,0,1.488-1.058,1.488-2.281" transform="translate(-607.52 -527.676)" fill="#58595b"/><path d="M883.7,616.978v-4.529c0-.793-.364-1.058-.959-1.058a1.639,1.639,0,0,0-1.356.926v4.695H880v-6.645h1.389v.893a2.517,2.517,0,0,1,1.951-1.058c1.223,0,1.752.661,1.752,1.818v5.025H883.7Z" transform="translate(-622.514 -527.81)" fill="#58595b"/><path d="M626.627,550.153a.827.827,0,1,0-.827-.827.818.818,0,0,0,.827.827" transform="translate(-452.358 -486.509)" fill="#58595b"/><path d="M634.627,550.153a.827.827,0,1,0-.827-.827.819.819,0,0,0,.827.827" transform="translate(-457.713 -486.509)" fill="#58595b"/><path d="M769.727,550.153a.827.827,0,1,0-.827-.827.818.818,0,0,0,.827.827" transform="translate(-548.146 -486.509)" fill="#58595b"/><path d="M777.727,550.153a.827.827,0,1,0-.827-.827.84.84,0,0,0,.827.827" transform="translate(-553.501 -486.509)" fill="#58595b"/><path d="M820.5,552.42l-.132-1.058c-.6.1-1.918.5-2.05-.4a.941.941,0,0,1,.727-1.025,2.076,2.076,0,0,1,1.091.2l.331-1.025a2.449,2.449,0,0,0-2.248.165,1.769,1.769,0,0,0-.529,2.314c-.661.033-1.19.033-1.19.033v.794c.793.033,1.554.066,2.347.066.132,0,1.091-.033,1.653-.066" transform="translate(-580.009 -486.792)" fill="#58595b"/><path d="M526.727,585.3a.827.827,0,1,0,.827.827.84.84,0,0,0-.827-.827" transform="translate(-385.486 -511.142)" fill="#58595b"/><path d="M534.727,585.3a.827.827,0,1,0,.827.827.84.84,0,0,0-.827-.827" transform="translate(-390.841 -511.142)" fill="#58595b"/><path d="M831.127,585.3a.827.827,0,1,0,.827.827.84.84,0,0,0-.827-.827" transform="translate(-589.246 -511.142)" fill="#58595b"/><path d="M839.127,585.3a.827.827,0,1,0,.827.827.84.84,0,0,0-.827-.827" transform="translate(-594.601 -511.142)" fill="#58595b"/><path d="M338.227,591.3a.827.827,0,1,0,.827.827.819.819,0,0,0-.827-.827" transform="translate(-259.308 -515.159)" fill="#58595b"/><path d="M346.227,591.3a.827.827,0,1,0,.827.827.819.819,0,0,0-.827-.827" transform="translate(-264.663 -515.159)" fill="#58595b"/><path d="M479.127,559.953a.827.827,0,1,0-.827-.827.819.819,0,0,0,.827.827" transform="translate(-353.624 -493.069)" fill="#58595b"/><path d="M365.427,555.153a.827.827,0,1,0-.827-.827.819.819,0,0,0,.827.827" transform="translate(-277.515 -489.856)" fill="#58595b"/><rect width="1.422" height="10.117" transform="translate(261.056 62.355)" fill="#58595b"/><rect width="1.422" height="10.117" transform="translate(213.15 62.355)" fill="#58595b"/><rect width="1.422" height="10.117" transform="translate(131.487 62.355)" fill="#58595b"/><path d="M800.381,557.5a.959.959,0,0,1-.959.959h-3.967c.033-.033.066-.066.066-.1a2.364,2.364,0,0,0,.331-2.149c-.165-.628-.727-2.579-2.116-2.612H793.7c-1.62,0-2.645,2.744-2.81,3.273-.1.331-.264.893-.4,1.554h-3.5a2.372,2.372,0,0,0,.2-.959V554h-1.422v3.471a.96.96,0,0,1-.959.959h-.86a.959.959,0,0,1-.959-.959V554h-1.422v3.471a.96.96,0,0,1-.959.959h-12.1a.959.959,0,0,1-.959-.959V552.21h-1.422v.661a18,18,0,0,0-1.951.727c-1.686.76-2.612,1.686-2.843,2.711a1.519,1.519,0,0,0,.364,1.356c.2.231.959.827,2.976.827a15.631,15.631,0,0,0,1.62-.1,2.389,2.389,0,0,0,2.182,1.455h12.1a2.395,2.395,0,0,1,3.372,0h.86a2.473,2.473,0,0,0,1.653-.661v.661H790.4a3.314,3.314,0,0,0,1.951,3.273,3.259,3.259,0,0,0,1.256.231,2.9,2.9,0,0,0,2.645-1.422,1.949,1.949,0,0,0-.3-2.116h3.471a2.371,2.371,0,0,0,2.38-2.38V549.4h-1.422Zm-37.624-.727c0-.033-.033-.033,0-.1.165-.86,1.918-1.752,3.372-2.215v2.612c-1.389.132-3.042.066-3.372-.3m29.491.6c.5-1.455,1.223-2.314,1.455-2.314h0s.364.132.794,1.554a.976.976,0,0,1-.1.893,3.816,3.816,0,0,1-2.447.86q.149-.446.3-.992m2.744,4a1.824,1.824,0,0,1-2.116.463,1.949,1.949,0,0,1-1.091-2.017,9.4,9.4,0,0,0,2.215-.43l-.265.5c.926.562,1.422,1.124,1.256,1.488" transform="translate(-543.061 -487.112)" fill="#58595b"/><rect width="1.422" height="10.117" transform="translate(114.692 62.355)" fill="#58595b"/><path d="M399.482,557.567a.959.959,0,0,1-.959.959h-2.81c.033-.066.033-.1.066-.165a4.284,4.284,0,0,0-.2-3.174,2.669,2.669,0,0,0-2.347-1.686h0a2.731,2.731,0,0,0-2.38,1.719,12.653,12.653,0,0,0-.6,1.488c-.43,1.289-.628,1.818-2.05,1.818h-1.356c-.331-3.438-3.5-5.125-3.637-5.224l-.661,1.256a5.735,5.735,0,0,1,2.876,3.934H381v1.422h7.241a3.237,3.237,0,0,0,2.182-.661,5.114,5.114,0,0,0,2.678.661,3.716,3.716,0,0,0,1.322-.2c.066-.033.165-.066.231-.1v.3h3.868a2.371,2.371,0,0,0,2.38-2.38V549.5h-1.422Zm-5.025.3a.867.867,0,0,1-.562.562,4.41,4.41,0,0,1-2.678-.3c.132-.331.264-.661.364-.992a10.321,10.321,0,0,1,.5-1.289c.3-.562.694-.926,1.124-.926h0c.4,0,.793.331,1.058.893a2.921,2.921,0,0,1,.2,2.05" transform="translate(-288.493 -487.179)" fill="#58595b"/><path d="M637.12,559.223h0a2.737,2.737,0,0,0-2.414,1.719,9.23,9.23,0,0,0-.562,1.455c-.43,1.289-.628,1.818-2.05,1.818h-5.786a.959.959,0,0,1-.959-.959V558h-1.422v.661a17.989,17.989,0,0,0-1.951.727c-1.686.76-2.612,1.686-2.843,2.711a1.519,1.519,0,0,0,.364,1.356c.2.231.959.827,2.976.827a15.63,15.63,0,0,0,1.62-.1,2.389,2.389,0,0,0,2.182,1.455h5.786a3.237,3.237,0,0,0,2.182-.661,5.418,5.418,0,0,0,4,.463,2.258,2.258,0,0,0,1.356-1.389,4.284,4.284,0,0,0-.2-3.174,2.53,2.53,0,0,0-2.281-1.653m-16.564,3.306s-.033-.033,0-.1c.165-.86,1.918-1.752,3.372-2.215v2.612c-1.389.132-3.009.066-3.372-.3m17.787,1.025a.867.867,0,0,1-.562.562,4.41,4.41,0,0,1-2.678-.3c.132-.331.264-.661.364-.992a10.322,10.322,0,0,1,.5-1.289c.3-.562.694-.926,1.124-.926h0c.4,0,.794.331,1.058.893a2.6,2.6,0,0,1,.2,2.05" transform="translate(-447.874 -492.868)" fill="#58595b"/><path d="M537.136,557.567a.96.96,0,0,1-.959.959h-.86a.959.959,0,0,1-.959-.959v-8.034h-1.422v8.034a.96.96,0,0,1-.959.959h-2.05c-.033-1.422-.3-3.174-1.455-4.166-1.356-1.124-3.207-.43-4.5.4a12.8,12.8,0,0,0-2.116,1.686V549.5H520.44v8.993h-5.819a2.372,2.372,0,0,0,.2-.959v-3.471H513.4v3.471a.96.96,0,0,1-.959.959H509.43a.959.959,0,0,1-.959-.959v-3.471h-1.488v5.521A1.99,1.99,0,0,1,505,561.568v1.422a3.418,3.418,0,0,0,3.405-3.273,2.372,2.372,0,0,0,.959.2h3.009a2.133,2.133,0,0,0,1.289-.4v.4h18.25a2.395,2.395,0,0,1,3.372,0h.86a2.371,2.371,0,0,0,2.38-2.38V549.5H537.1v8.067Zm-15.308.463a14.586,14.586,0,0,1,1.918-1.554,6.211,6.211,0,0,1,2.546-1.19,1.331,1.331,0,0,1,1.124.2,1.835,1.835,0,0,1,.6.827,6.464,6.464,0,0,1,.43,2.248H521.8v-.529Z" transform="translate(-371.496 -487.178)" fill="#58595b"/><path d="M343.509,566.382a.96.96,0,0,1-.959.959h-.628a1,1,0,0,1-1.025-.959V564.5a1.728,1.728,0,0,0-.661-1.422,2.162,2.162,0,0,0-1.885-.331,2.831,2.831,0,0,0-2.281,2.645v3.24c0,.4-.364.628-.661.76a3.453,3.453,0,0,1-3.5-.694c-.926-.893-1.058-2.314-.364-4.133l-1.322-.5c-1.223,3.174-.066,4.893.694,5.654a4.89,4.89,0,0,0,3.339,1.289,4.683,4.683,0,0,0,1.719-.331,2.234,2.234,0,0,0,1.521-2.05v-3.24a1.424,1.424,0,0,1,1.19-1.256,1.03,1.03,0,0,1,.694.066.377.377,0,0,1,.132.331v1.885a2.45,2.45,0,0,0,2.447,2.38h.628a2.371,2.371,0,0,0,2.38-2.38v-3.471h-1.422v3.438Z" transform="translate(-254.143 -495.993)" fill="#58595b"/><path d="M475.1,569.187c0,.4-.364.628-.661.76a3.522,3.522,0,0,1-3.538-.694c-.926-.893-1.058-2.314-.364-4.133l-1.322-.5c-1.223,3.174-.066,4.893.694,5.654a4.889,4.889,0,0,0,3.339,1.289,4.683,4.683,0,0,0,1.719-.331,2.234,2.234,0,0,0,1.521-2.05V563.5H475.07v5.687Z" transform="translate(-347.187 -496.55)" fill="#58595b"/><path d="M703.741,557.567a.96.96,0,0,1-.959.959h-.529a13.83,13.83,0,0,1-3.538-.331l.1-.1c.3-.264,1.818-1.62,1.587-3.009a1.868,1.868,0,0,0-1.356-1.422l-.066-.033h-.066a16.532,16.532,0,0,0-3.835-.033h-.066l-.066.033a1.614,1.614,0,0,0-1.157,1.19c-.264,1.223.992,2.612,1.554,3.174a1.658,1.658,0,0,0,.264.231,10.862,10.862,0,0,1-2.645.264H690.88a.96.96,0,0,1-.959-.959V549.5H688.5v8.034a2.371,2.371,0,0,0,2.38,2.38h2.083a9.281,9.281,0,0,0,4.265-.76,13.888,13.888,0,0,0,5.092.76h.5a2.371,2.371,0,0,0,2.38-2.38V549.5h-1.422v8.067Zm-5.819-.529a3.9,3.9,0,0,1-.794.562,3.114,3.114,0,0,1-.827-.6c-.794-.794-1.223-1.554-1.157-1.851,0-.033.1-.1.165-.132a16.1,16.1,0,0,1,3.339.033c.165.066.331.165.364.3.066.4-.43,1.124-1.091,1.686" transform="translate(-494.328 -487.179)" fill="#58595b"/></g></svg>