<svg xmlns="http://www.w3.org/2000/svg" xmlns:xlink="http://www.w3.org/1999/xlink" width="311.879" height="75.174" viewBox="0 0 311.879 75.174"><defs><linearGradient id="a" x1="0.42" y1="2.989" x2="0.75" y2="2.016" gradientUnits="objectBoundingBox"><stop offset="0" stop-color="#007e3d"/><stop offset="0.008" stop-color="#00803e"/><stop offset="0.066" stop-color="#008e45"/><stop offset="0.13" stop-color="#00984a"/><stop offset="0.201" stop-color="#009f4d"/><stop offset="0.284" stop-color="#00a34f"/><stop offset="0.41" stop-color="#00a651"/></linearGradient><linearGradient id="b" x1="0.471" y1="2.19" x2="0.542" y2="3.198" gradientUnits="objectBoundingBox"><stop offset="0" stop-color="#00ade3"/><stop offset="0.097" stop-color="#00a9e0"/><stop offset="0.22" stop-color="#00a1d9"/><stop offset="0.356" stop-color="#0094d0"/><stop offset="0.502" stop-color="#0083c2"/><stop offset="0.655" stop-color="#006db3"/><stop offset="0.736" stop-color="#0061ab"/><stop offset="0.994" stop-color="#463889"/><stop offset="1" stop-color="#473788"/></linearGradient><linearGradient id="c" x1="0.204" y1="5.138" x2="0.846" y2="3.925" gradientUnits="objectBoundingBox"><stop offset="0.045" stop-color="#008d46"/><stop offset="0.236" stop-color="#00a150"/><stop offset="0.44" stop-color="#00aa52"/><stop offset="0.692" stop-color="#3cb455"/><stop offset="0.828" stop-color="#52b957"/></linearGradient></defs><g transform="translate(0)"><g transform="translate(230.064)"><path d="M25.834,37.69a.853.853,0,0,1-.123-.8L40.1,1.069A.77.77,0,0,0,39.356,0H17.84a3.02,3.02,0,0,0-2.425,1.295L-.614,36.045A2.288,2.288,0,0,0-.45,38.82l28.3,35.552a2.093,2.093,0,0,0,1.644.8H53.6a.79.79,0,0,0,.617-1.295Z" transform="translate(1.008)" fill="#009549"/><path d="M25.834,37.69a.853.853,0,0,1-.123-.8L40.1,1.069A.77.77,0,0,0,39.356,0H17.84a3.02,3.02,0,0,0-2.425,1.295L-.614,36.045A2.288,2.288,0,0,0-.45,38.82l28.3,35.552a2.093,2.093,0,0,0,1.644.8H53.6a.79.79,0,0,0,.617-1.295Z" transform="translate(1.008)" fill="url(#a)"/><path d="M197.114,35.856,183.3,40.274a1.355,1.355,0,0,1-1.418-.39L162.63,16a1.272,1.272,0,0,0-2.2.349l-12.8,32.408a1.33,1.33,0,0,0,.164,1.295l26.962,33.806a1.329,1.329,0,0,0,1.973.062L198.47,59.139a1.164,1.164,0,0,0,.349-.843V37.171A1.369,1.369,0,0,0,197.114,35.856Z" transform="translate(-117.005 -12.325)" fill="url(#b)"/><path d="M25.828,37.69a.853.853,0,0,1-.123-.8L40.09,1.069A.77.77,0,0,0,39.35,0H17.834a3.02,3.02,0,0,0-2.425,1.295L-.62,36.045a3.072,3.072,0,0,0-.39,1.48Z" transform="translate(1.014)" opacity="0.54" fill="url(#c)"/></g><g transform="translate(0 18.761)"><path d="M188.652,272.195a1.23,1.23,0,0,0-.372.891,1.264,1.264,0,1,0,.372-.891Z" transform="translate(-184.528 -270.401)" fill="#242024"/><path d="M184.3,272.192a1.2,1.2,0,0,0-.372.891,1.184,1.184,0,0,0,.372.885,1.231,1.231,0,0,0,1.776,0,1.184,1.184,0,0,0,.372-.885,1.2,1.2,0,0,0-.372-.891,1.244,1.244,0,0,0-1.776,0Z" transform="translate(-183.072 -270.398)" fill="#242024"/><path d="M188.63,277.867a3.213,3.213,0,0,0-1.064-.811,3.326,3.326,0,0,0-1.377-.286,2.86,2.86,0,0,0-1.457.372,3.784,3.784,0,0,0-1.091.964,4.257,4.257,0,0,0-.665,1.33,4.489,4.489,0,0,0-.246,1.45,3.931,3.931,0,0,0,.253,1.457,2.661,2.661,0,0,0,.665,1.018,2.92,2.92,0,0,0,1.084.6,4.656,4.656,0,0,0,1.4.193,4.151,4.151,0,0,0,1.61-.279,3.22,3.22,0,0,0,1.091-.738,2.847,2.847,0,0,0,.625-1.044,3.679,3.679,0,0,0,.193-1.2,5.189,5.189,0,0,0-.266-1.729,3.758,3.758,0,0,0-.752-1.29Zm-1.51,3.911a1.23,1.23,0,0,1-.925.346,1.191,1.191,0,0,1-1.031-.386,1.609,1.609,0,0,1-.286-1,2.852,2.852,0,0,1,.073-.665,2.062,2.062,0,0,1,.219-.6,1.33,1.33,0,0,1,.392-.439,1,1,0,0,1,.592-.166,1.031,1.031,0,0,1,.951.565,2.7,2.7,0,0,1,.333,1.37,1.39,1.39,0,0,1-.319.978Z" transform="translate(-182.67 -272.056)" fill="#242024"/><path d="M198.233,282.491a.811.811,0,0,1-.339-.765c0-.665.386-1.031,1.157-1.031a2.789,2.789,0,0,1,.452.047,4.189,4.189,0,0,1,.738.146v-1.862c-.213-.073-.459-.14-.738-.206a3.992,3.992,0,0,0-.918-.1,3.1,3.1,0,0,0-1.038.18,2.487,2.487,0,0,0-.9.545,2.727,2.727,0,0,0-.632.9,3.059,3.059,0,0,0-.239,1.25,2.573,2.573,0,0,0,.073.532,2.135,2.135,0,0,0,.193.552h-.9v2.049h5.74v-2.049h-1.756a1.736,1.736,0,0,1-.891-.193Z" transform="translate(-186.825 -272.709)" fill="#242024"/><path d="M209.71,287.76Z" transform="translate(-191.704 -275.736)" fill="#242024"/><path d="M215.329,270.272a1.25,1.25,0,1,0,.891-.372,1.217,1.217,0,0,0-.891.372Z" transform="translate(-193.465 -269.756)" fill="#242024"/><path d="M227.33,279.731h-2.042a1.563,1.563,0,0,1-1.131-.4,3.08,3.08,0,0,1-.705-1.2,7.789,7.789,0,0,0-3.326-3.991v-.073l3.991-1.7v-2.421l-6.592,2.86a1.251,1.251,0,0,0-.239.18,1.158,1.158,0,0,0-.226.319,3.327,3.327,0,0,0-.193.572,7.637,7.637,0,0,0-.16.925,16.294,16.294,0,0,1,2.1,1.2,10.207,10.207,0,0,1,1.417,1.144,5.082,5.082,0,0,1,.8,1.024,1.749,1.749,0,0,1,.259.812.665.665,0,0,1-.259.592,1.5,1.5,0,0,1-.865.186h-3.665v-1.4a6.227,6.227,0,0,0-.153-1.33,3.565,3.565,0,0,0-.525-1.244,2.907,2.907,0,0,0-1.031-.925,3.446,3.446,0,0,0-1.67-.366,3.525,3.525,0,0,0-1.537.319,3.4,3.4,0,0,0-1.117.845,3.691,3.691,0,0,0-.7,1.2,4.037,4.037,0,0,0-.239,1.364,5.119,5.119,0,0,0,.067.811,2.322,2.322,0,0,0,.2.718h-1.277a.865.865,0,0,1-.439-.16c-.146-.113-.219-.379-.219-.792v-8.9h-2.308v9.193a3.592,3.592,0,0,0,.2,1.284,2.082,2.082,0,0,0,.572.825,2.208,2.208,0,0,0,.871.446,4.389,4.389,0,0,0,1.058.126h12.5a3.329,3.329,0,0,0,.792-.146,2.269,2.269,0,0,0,.665-.339,2.662,2.662,0,0,0,.619-.612,2.534,2.534,0,0,0,.559.612,2.213,2.213,0,0,0,.605.339,2.355,2.355,0,0,0,.632.146h5V269.9h-2.328Zm-13.11,0H213.2a1.55,1.55,0,0,1-1.031-.353,1.623,1.623,0,0,1-.426-1.284,2.288,2.288,0,0,1,.067-.559,1.33,1.33,0,0,1,.213-.486,1.1,1.1,0,0,1,.392-.346,1.191,1.191,0,0,1,.612-.133,1.118,1.118,0,0,1,.605.146,1.144,1.144,0,0,1,.359.4,1.556,1.556,0,0,1,.18.579,4.617,4.617,0,0,1,.047.665Z" transform="translate(-190.307 -269.756)" fill="#242024"/><rect width="2.295" height="11.88" transform="translate(41.479 0.144)" fill="#242024"/><path d="M322.862,270.362a1.244,1.244,0,0,0,0,1.776,1.2,1.2,0,0,0,.891.372,1.184,1.184,0,0,0,.885-.372,1.264,1.264,0,0,0-.885-2.148A1.231,1.231,0,0,0,322.862,270.362Z" transform="translate(-229.467 -269.786)" fill="#242024"/><path d="M332.218,288.82a1.264,1.264,0,1,0,1.158.784A1.264,1.264,0,0,0,332.218,288.82Z" transform="translate(-232.298 -276.091)" fill="#242024"/><path d="M336.574,288.82a1.264,1.264,0,1,0,1.264,1.264A1.264,1.264,0,0,0,336.574,288.82Z" transform="translate(-233.76 -276.091)" fill="#242024"/><path d="M347.668,288.82a1.264,1.264,0,1,0,1.158.784,1.264,1.264,0,0,0-1.158-.784Z" transform="translate(-237.471 -276.091)" fill="#242024"/><path d="M343.357,288.82a1.271,1.271,0,1,0,.891.372A1.231,1.231,0,0,0,343.357,288.82Z" transform="translate(-236.026 -276.091)" fill="#242024"/><path d="M366.484,272.505a1.269,1.269,0,1,0-.891-.372,1.2,1.2,0,0,0,.891.372Z" transform="translate(-243.775 -269.78)" fill="#242024"/><path d="M370.825,272.492a1.324,1.324,0,1,0-.891-.372A1.2,1.2,0,0,0,370.825,272.492Z" transform="translate(-245.216 -269.767)" fill="#242024"/><path d="M353.376,279.731h-2.049a1.51,1.51,0,0,1-1.1-.279,1.43,1.43,0,0,1-.253-.945v-3.8h-2.308v3.991c0,.439-.08.725-.239.845a1.417,1.417,0,0,1-.845.186H345.5a1.563,1.563,0,0,1-1.131-.4,3,3,0,0,1-.7-1.2,7.849,7.849,0,0,0-3.326-3.991v-.073l3.991-1.7V269.94l-6.592,2.86a1.251,1.251,0,0,0-.239.18,1.157,1.157,0,0,0-.226.319,3.327,3.327,0,0,0-.193.572,7.636,7.636,0,0,0-.16.925,16.3,16.3,0,0,1,2.1,1.2,9.822,9.822,0,0,1,1.417,1.144,5.083,5.083,0,0,1,.8,1.024,1.75,1.75,0,0,1,.259.812.665.665,0,0,1-.259.592,1.5,1.5,0,0,1-.865.186h-3.9a2,2,0,0,1-1.2-.279,1.157,1.157,0,0,1-.346-.945v-3.8h-2.308v3.991c0,.439-.08.725-.239.845a1.43,1.43,0,0,1-.845.186H330.1a2,2,0,0,1-1.2-.279,1.177,1.177,0,0,1-.346-.945v-3.8h-2.308v3.991c0,.439-.08.725-.239.845a1.417,1.417,0,0,1-.845.186h-2.827v-1.4a6.227,6.227,0,0,0-.153-1.33,3.578,3.578,0,0,0-.532-1.244,2.987,2.987,0,0,0-1.038-.925,3.466,3.466,0,0,0-1.67-.366,3.532,3.532,0,0,0-1.543.319,3.473,3.473,0,0,0-1.117.845,3.792,3.792,0,0,0-.665,1.2,4.038,4.038,0,0,0-.239,1.364,5.988,5.988,0,0,0,.06.812,2.307,2.307,0,0,0,.206.718h-3.605a8.685,8.685,0,0,1-1-.033,1.736,1.736,0,0,1-.619-.16.718.718,0,0,1-.319-.326,1.451,1.451,0,0,1-.093-.565v-2.614H307.7v2.933a3.944,3.944,0,0,0,.186,1.33,1.889,1.889,0,0,0,.612.865,2.715,2.715,0,0,0,1.137.492,8.768,8.768,0,0,0,1.763.153h14.88a3.991,3.991,0,0,0,.705-.12,2.255,2.255,0,0,0,.665-.273,1.823,1.823,0,0,0,.519-.492,1.437,1.437,0,0,0,.4.466,1.783,1.783,0,0,0,.505.273,2.227,2.227,0,0,0,.552.133,3.786,3.786,0,0,0,.532.04h2.514a4.114,4.114,0,0,0,.705-.12,2.437,2.437,0,0,0,.665-.273,1.716,1.716,0,0,0,.512-.492,1.438,1.438,0,0,0,.4.466,1.817,1.817,0,0,0,.512.273,2.179,2.179,0,0,0,.545.133,3.862,3.862,0,0,0,.532.04h4.53a3.464,3.464,0,0,0,.792-.146,2.31,2.31,0,0,0,.665-.339,2.662,2.662,0,0,0,.619-.612,2.421,2.421,0,0,0,.565.612,2.088,2.088,0,0,0,.6.339,2.414,2.414,0,0,0,.632.146h2.8a3.99,3.99,0,0,0,.705-.12,2.341,2.341,0,0,0,.665-.273,1.715,1.715,0,0,0,.512-.492,1.53,1.53,0,0,0,.8.738,2.933,2.933,0,0,0,.991.173H355.8V269.9h-2.328Zm-33.351,0h-1.011a1.5,1.5,0,0,1-1.011-.353,1.6,1.6,0,0,1-.432-1.284,2.661,2.661,0,0,1,.067-.559,1.329,1.329,0,0,1,.206-.486.978.978,0,0,1,.386-.346,1.23,1.23,0,0,1,.605-.133,1.091,1.091,0,0,1,.605.146,1.236,1.236,0,0,1,.366.4,1.847,1.847,0,0,1,.18.579,5.728,5.728,0,0,1,.04.665Z" transform="translate(-224.514 -269.756)" fill="#242024"/><rect width="2.295" height="11.88" transform="translate(133.318 0.144)" fill="#242024"/><path d="M453.184,273.981a1.27,1.27,0,1,0-.891-.372,1.191,1.191,0,0,0,.891.372Z" transform="translate(-272.806 -270.271)" fill="#242024"/><path d="M457.534,273.991a1.2,1.2,0,0,0,.891-.372,1.244,1.244,0,0,0,0-1.776,1.2,1.2,0,0,0-.891-.372,1.184,1.184,0,0,0-.885.372,1.231,1.231,0,0,0,0,1.776,1.184,1.184,0,0,0,.885.373Z" transform="translate(-274.262 -270.281)" fill="#242024"/><path d="M456.606,277.867a3.213,3.213,0,0,0-1.1-.811,3.326,3.326,0,0,0-1.377-.286,2.86,2.86,0,0,0-1.457.372,3.784,3.784,0,0,0-1.091.964,4.258,4.258,0,0,0-.665,1.33,4.657,4.657,0,0,0-.239,1.45,3.933,3.933,0,0,0,.246,1.457,2.661,2.661,0,0,0,.7,1.018,2.92,2.92,0,0,0,1.084.6,4.656,4.656,0,0,0,1.4.193,4.151,4.151,0,0,0,1.61-.279,3.22,3.22,0,0,0,1.091-.738,2.847,2.847,0,0,0,.625-1.044,3.678,3.678,0,0,0,.193-1.2,5.188,5.188,0,0,0-.266-1.729,3.758,3.758,0,0,0-.752-1.29Zm-1.51,3.911a1.217,1.217,0,0,1-.925.346,1.19,1.19,0,0,1-1.031-.386,1.61,1.61,0,0,1-.286-1,2.854,2.854,0,0,1,.073-.665,2.063,2.063,0,0,1,.219-.6,1.331,1.331,0,0,1,.392-.439,1,1,0,0,1,.592-.166,1.031,1.031,0,0,1,.951.565,2.7,2.7,0,0,1,.333,1.37,1.39,1.39,0,0,1-.319.978Z" transform="translate(-272.39 -272.056)" fill="#242024"/><path d="M463.262,283.581a9.132,9.132,0,0,1-.06,1.131,1.717,1.717,0,0,1-.279.772,1.257,1.257,0,0,1-.665.452,3.865,3.865,0,0,1-1.137.173v2.168a8.167,8.167,0,0,0,2.2-.279,2.874,2.874,0,0,0,1.33-.8,3.212,3.212,0,0,0,.665-1.443,10.118,10.118,0,0,0,.193-2.168V278.26H463.2Z" transform="translate(-275.886 -272.555)" fill="#242024"/><path d="M475.491,278.741l-1.543-2.5-1.058.665c-.339.219-.665.446-1.038.665l1.4,2.1c.226.333.406.6.539.8a4.994,4.994,0,0,1,.313.486,1.037,1.037,0,0,1,.133.293.812.812,0,0,1,0,.213.286.286,0,0,1-.226.293,2.1,2.1,0,0,1-.665.08H469.87v2.049h4.3a3.241,3.241,0,0,0,1.137-.18,2.182,2.182,0,0,0,.785-.479,1.942,1.942,0,0,0,.452-.712,2.527,2.527,0,0,0,.153-.871,2.973,2.973,0,0,0-.313-1.224,16.415,16.415,0,0,0-.891-1.676Z" transform="translate(-278.816 -271.879)" fill="#242024"/><path d="M492.458,288.74a1.264,1.264,0,1,0,1.158.784,1.264,1.264,0,0,0-1.158-.784Z" transform="translate(-285.952 -276.064)" fill="#242024"/><path d="M500.286,275.893a3.066,3.066,0,0,0-1.038-.745,3.2,3.2,0,0,0-2.275-.106,3.027,3.027,0,0,0-.984.559,5.224,5.224,0,0,0-.951,1.064,7.759,7.759,0,0,0-.858,1.683,3.326,3.326,0,0,1-.559,1.031c-.206.239-.379.353-.525.353h-.925a1.51,1.51,0,0,1-1.1-.279,1.43,1.43,0,0,1-.253-.945v-3.8h-2.308v3.991c0,.439-.08.725-.239.845a1.416,1.416,0,0,1-.845.186h-1.4a1.024,1.024,0,0,1-.632-.166c-.146-.113-.226-.379-.226-.792V269.9h-2.308v9.193a3.44,3.44,0,0,0,.206,1.284,2.075,2.075,0,0,0,.565.825,2.255,2.255,0,0,0,.871.446,4.5,4.5,0,0,0,1.111.133h2.907a3.993,3.993,0,0,0,.705-.12,2.254,2.254,0,0,0,.665-.273,1.717,1.717,0,0,0,.512-.492,1.55,1.55,0,0,0,.8.738,2.933,2.933,0,0,0,.991.173h.945a5.158,5.158,0,0,0,1.051-.106,1.836,1.836,0,0,0,.938-.625,6.079,6.079,0,0,0,1.523.732,5.1,5.1,0,0,0,1.43.213,2.92,2.92,0,0,0,2.381-.938,3.818,3.818,0,0,0,.785-2.528,4.224,4.224,0,0,0-.253-1.477A3.446,3.446,0,0,0,500.286,275.893Zm-1.636,3.585a1.071,1.071,0,0,1-.878.379,2.169,2.169,0,0,1-.858-.166,6.067,6.067,0,0,1-.845-.439,4.761,4.761,0,0,1,.346-1.064,2.88,2.88,0,0,1,.432-.665,1.477,1.477,0,0,1,.479-.386,1.2,1.2,0,0,1,.479-.113.991.991,0,0,1,.545.133,1.011,1.011,0,0,1,.353.339,1.33,1.33,0,0,1,.2.466,2.473,2.473,0,0,1,.06.539,1.523,1.523,0,0,1-.313.978Z" transform="translate(-283.165 -269.756)" fill="#242024"/><path d="M398.684,274.061a1.26,1.26,0,1,0,0-2.521,1.26,1.26,0,1,0,0,2.521Z" transform="translate(-254.557 -270.305)" fill="#242024"/><path d="M394.364,274.061a1.26,1.26,0,1,0,0-2.521,1.26,1.26,0,1,0,0,2.521Z" transform="translate(-253.11 -270.305)" fill="#242024"/><path d="M397.986,277.94a3.187,3.187,0,0,0-1.091-.811,3.373,3.373,0,0,0-1.377-.279,2.794,2.794,0,0,0-1.457.372,3.692,3.692,0,0,0-1.1.958,4.4,4.4,0,0,0-.665,1.33,4.694,4.694,0,0,0-.3,1.43,3.885,3.885,0,0,0,.246,1.457,2.661,2.661,0,0,0,.705,1.024,2.86,2.86,0,0,0,1.084.592,4.6,4.6,0,0,0,1.4.2,4.111,4.111,0,0,0,1.6-.286,3.325,3.325,0,0,0,1.1-.738,2.714,2.714,0,0,0,.619-1.038,3.758,3.758,0,0,0,.2-1.211,5.32,5.32,0,0,0-.266-1.723,3.851,3.851,0,0,0-.7-1.277Zm-1.51,3.911a1.184,1.184,0,0,1-.925.346,1.211,1.211,0,0,1-1.031-.379,1.637,1.637,0,0,1-.286-1,3.174,3.174,0,0,1,.073-.665,2.107,2.107,0,0,1,.22-.605,1.33,1.33,0,0,1,.392-.439,1.011,1.011,0,0,1,.6-.166,1.038,1.038,0,0,1,.951.565,2.694,2.694,0,0,1,.326,1.37,1.377,1.377,0,0,1-.326.978Z" transform="translate(-252.741 -272.083)" fill="#242024"/><path d="M406.843,272.468a1.284,1.284,0,0,0,1.264-1.264,1.27,1.27,0,0,0-1.264-1.264,1.25,1.25,0,0,0-.885,2.148,1.191,1.191,0,0,0,.885.379Z" transform="translate(-257.288 -269.769)" fill="#242024"/><path d="M425.535,278.241A4.256,4.256,0,0,0,424,276.964a5.1,5.1,0,0,0-2.341-.486,6.543,6.543,0,0,0-1.45.16,11.336,11.336,0,0,0-1.111.306v2.062a8.544,8.544,0,0,1,1.237-.259,7.923,7.923,0,0,1,.9-.08,3.678,3.678,0,0,1,1.423.239,2.474,2.474,0,0,1,.931.665,2.754,2.754,0,0,1,.545,1.024,6.417,6.417,0,0,1,.226,1.33h-8.334v-.066a2.934,2.934,0,0,0,.5-1.024,4.422,4.422,0,0,0,.14-1.111,3.325,3.325,0,0,0-.166-1,3.154,3.154,0,0,0-.532-.984,2.927,2.927,0,0,0-.951-.752,3.02,3.02,0,0,0-1.423-.306,2.953,2.953,0,0,0-2.514,1.2,5.481,5.481,0,0,0-.9,3.326v.665h-1.882a1.6,1.6,0,0,1-.9-.266,1.038,1.038,0,0,1-.419-.958v-3.02h-2.295v5.321a9.126,9.126,0,0,1-.06,1.131,1.716,1.716,0,0,1-.279.772,1.257,1.257,0,0,1-.665.452,3.937,3.937,0,0,1-1.157.173v2.168a8.56,8.56,0,0,0,1.956-.233,2.907,2.907,0,0,0,2.155-2,6.891,6.891,0,0,0,.279-2,1.4,1.4,0,0,0,.712.466,3.53,3.53,0,0,0,.432.086,1.051,1.051,0,0,0,.213,0h1.889v.126a7.487,7.487,0,0,0,.186,1.756,3.658,3.658,0,0,0,.585,1.33,2.66,2.66,0,0,0,1.038.838,3.824,3.824,0,0,0,1.57.293,3.724,3.724,0,0,0,1.377-.233,2.76,2.76,0,0,0,.951-.612,2.5,2.5,0,0,0,.559-.9,3.119,3.119,0,0,0,.186-1.084,2.661,2.661,0,0,0,0-.286,2.155,2.155,0,0,0-.08-.379,2.2,2.2,0,0,0-.166-.419,1.332,1.332,0,0,0-.286-.372v-.053h10.556v-1.656a9.179,9.179,0,0,0-.253-2.2A5.156,5.156,0,0,0,425.535,278.241Zm-13.3,2.7a3.279,3.279,0,0,1,.333-1.536,1.044,1.044,0,0,1,.964-.632.785.785,0,0,1,.665.319,1.37,1.37,0,0,1,.233.818,2.746,2.746,0,0,1-.1.738,1.788,1.788,0,0,1-.313.665,1.53,1.53,0,0,1-.552.446,1.763,1.763,0,0,1-.8.166h-.446Zm2,5a.765.765,0,0,1-.665.286,1.058,1.058,0,0,1-1.024-.632,3.744,3.744,0,0,1-.313-1.643h.9a1.27,1.27,0,0,1,.665.16,1.331,1.331,0,0,1,.4.366,1.224,1.224,0,0,1,.193.412,1.283,1.283,0,0,1,.053.326,1.184,1.184,0,0,1-.206.725Z" transform="translate(-256.264 -271.958)" fill="#242024"/><path d="M431.237,288.74a1.27,1.27,0,1,0,.891.372A1.231,1.231,0,0,0,431.237,288.74Z" transform="translate(-265.452 -276.064)" fill="#242024"/><rect width="2.295" height="7.816" transform="translate(172.323 4.175)" fill="#242024"/><path d="M443.281,272.2a.791.791,0,0,1-.579-.166.612.612,0,0,1-.153-.419.559.559,0,0,1,.153-.392.665.665,0,0,1,.486-.16,3.193,3.193,0,0,1,.665.106V270a2.374,2.374,0,0,0-.925-.18,1.664,1.664,0,0,0-.592.106,1.556,1.556,0,0,0-.525.313,1.464,1.464,0,0,0-.366.512,1.843,1.843,0,0,0-.133.718,3.057,3.057,0,0,0,.033.372.865.865,0,0,0,.126.359h-.712v1.244h3.485V272.2Z" transform="translate(-269.069 -269.729)" fill="#242024"/><path d="M257.42,272.222a1.277,1.277,0,1,0-.891-.373,1.231,1.231,0,0,0,.891.372Z" transform="translate(-207.254 -269.683)" fill="#242024"/><path d="M261.77,272.237a1.257,1.257,0,1,0-.885-.372,1.2,1.2,0,0,0,.885.372Z" transform="translate(-208.717 -269.698)" fill="#242024"/><path d="M272.368,288.21a1.191,1.191,0,0,0-.885.372,1.257,1.257,0,0,0,.885,2.148,1.231,1.231,0,0,0,.891-.372,1.257,1.257,0,0,0-.891-2.142Z" transform="translate(-212.264 -275.887)" fill="#242024"/><path d="M268.03,288.21a1.184,1.184,0,0,0-.885.372,1.242,1.242,0,1,0,.885-.372Z" transform="translate(-210.813 -275.887)" fill="#242024"/><path d="M270.529,279.691h-2.042a1.915,1.915,0,0,1-1.191-.279,1.157,1.157,0,0,1-.346-.945v-3.791h-2.308v3.991c0,.432-.08.718-.239.838a1.39,1.39,0,0,1-.838.186h-1.842c-.259,0-.426-.047-.5-.153a1,1,0,0,1-.106-.552v-5.321H258.1a4.75,4.75,0,0,0-1.33.186,3.326,3.326,0,0,0-1.2.612,3.159,3.159,0,0,0-.885,1.1,3.539,3.539,0,0,0-.346,1.65,3.259,3.259,0,0,0,.359,1.623,2.893,2.893,0,0,0,.891.978,3.28,3.28,0,0,0,1.1.492,4.863,4.863,0,0,0,1.031.133,4.119,4.119,0,0,0,.665-.047,5.988,5.988,0,0,0,.619-.113,1.869,1.869,0,0,0,.4.718,2,2,0,0,0,.592.432,2.66,2.66,0,0,0,.738.22,5.521,5.521,0,0,0,.825.066h3.093a4.029,4.029,0,0,0,.665-.12,2.257,2.257,0,0,0,.665-.273,1.775,1.775,0,0,0,.512-.486,1.483,1.483,0,0,0,.4.459,1.782,1.782,0,0,0,.505.273,2.227,2.227,0,0,0,.552.133,3.693,3.693,0,0,0,.525.04h4.363V269.9h-2.321Zm-11.713-1.384a1.677,1.677,0,0,1-.492.106h-.466a1.27,1.27,0,0,1-.612-.126,1.064,1.064,0,0,1-.579-.732,2.256,2.256,0,0,1-.053-.452,1.177,1.177,0,0,1,1.33-1.257h.891Z" transform="translate(-206.647 -269.756)" fill="#242024"/><path d="M293.823,279.691a2.115,2.115,0,0,1-1.5-.426,1.517,1.517,0,0,1-.432-1.131,1.47,1.47,0,0,1,.446-1.084,2.069,2.069,0,0,1,1.49-.439,6.08,6.08,0,0,1,.811.086l1.137.173v-2.089a5.4,5.4,0,0,0-.878-.246,5.194,5.194,0,0,0-1.144-.126,4.658,4.658,0,0,0-1.41.22,3.871,3.871,0,0,0-1.264.665,3.419,3.419,0,0,0-.925,1.144,3.565,3.565,0,0,0-.353,1.63,4.378,4.378,0,0,0,.086.8,2.861,2.861,0,0,0,.266.8h-1.63a1.038,1.038,0,0,1-.632-.166c-.146-.113-.219-.379-.219-.792V269.9h-2.3v9.153a3.525,3.525,0,0,0,.2,1.277,2.035,2.035,0,0,0,.572.825,2.228,2.228,0,0,0,.865.446,4.462,4.462,0,0,0,1.111.133h8.507v-2.042Z" transform="translate(-217.037 -269.756)" fill="#242024"/><path d="M7.456,38.286H2.627V33.71H0V45.643H2.627V40.495H7.456v5.148h2.621V33.71H7.456Z" transform="translate(0 -11.263)" fill="#242024"/><rect width="2.375" height="1.956" transform="translate(12.206 22.447)" fill="#242024"/><rect width="2.375" height="8.64" transform="translate(12.206 25.74)" fill="#242024"/><path d="M213.289,309.41h-.033a2.66,2.66,0,0,0-1.078-1.071,3.326,3.326,0,0,0-1.5-.319,3.406,3.406,0,0,0-2.76,1.33,4.185,4.185,0,0,0-.705,1.37,5.262,5.262,0,0,0-.246,1.616,6.5,6.5,0,0,0,.213,1.676,3.845,3.845,0,0,0,.665,1.39,3.252,3.252,0,0,0,1.151.938,3.825,3.825,0,0,0,1.676.339,3.5,3.5,0,0,0,1.49-.326,2.315,2.315,0,0,0,1.1-1.011h.033v1.137a2.361,2.361,0,0,1-.439,1.523,1.743,1.743,0,0,1-1.463.6,2.355,2.355,0,0,1-1.124-.259,1.364,1.364,0,0,1-.665-.925h-2.348a2.474,2.474,0,0,0,.4,1.231,3.033,3.033,0,0,0,.9.865,4.283,4.283,0,0,0,1.2.492,5.5,5.5,0,0,0,1.3.16,5.873,5.873,0,0,0,2.375-.4,3.731,3.731,0,0,0,1.33-.978,2.934,2.934,0,0,0,.612-1.251,5.858,5.858,0,0,0,.14-1.184v-8.095h-2.255Zm-.126,3.951a2.341,2.341,0,0,1-.372.765,1.849,1.849,0,0,1-.665.532,1.883,1.883,0,0,1-.885.2,1.65,1.65,0,0,1-.918-.233,1.816,1.816,0,0,1-.592-.6,2.461,2.461,0,0,1-.319-.831,4.792,4.792,0,0,1-.093-.925,3.879,3.879,0,0,1,.106-.931,2.341,2.341,0,0,1,.353-.785,1.9,1.9,0,0,1,.605-.545,1.743,1.743,0,0,1,.858-.2,1.943,1.943,0,0,1,.971.22,1.8,1.8,0,0,1,.619.585,2.58,2.58,0,0,1,.333.845,4.914,4.914,0,0,1,.1,1.011A3.005,3.005,0,0,1,213.163,313.361Z" transform="translate(-190.787 -282.519)" fill="#242024"/><path d="M230.24,307.458a2.308,2.308,0,0,0-.958-.718,4.038,4.038,0,0,0-1.563-.259,3.14,3.14,0,0,0-1.37.346,2.714,2.714,0,0,0-1.157,1.091h-.047v-4.5H222.77v11.94h2.375v-4.53a3.16,3.16,0,0,1,.432-1.9,1.643,1.643,0,0,1,1.4-.579,1.33,1.33,0,0,1,1.191.526,3.073,3.073,0,0,1,.333,1.6v4.882h2.375v-5.321a6.613,6.613,0,0,0-.146-1.463A2.8,2.8,0,0,0,230.24,307.458Z" transform="translate(-196.077 -280.98)" fill="#242024"/><path d="M64.977,40.515h5.78V38.473h-5.78V35.912h6.3v-2.2H62.35V45.643h9.059V43.435H64.977Z" transform="translate(-20.877 -11.263)" fill="#242024"/><path d="M268.905,303.416a2.9,2.9,0,0,0-2.168.738,2.588,2.588,0,0,0-.718,1.889v.665h-2.694v-.519a1.091,1.091,0,0,1,.206-.752.938.938,0,0,1,.7-.22,7.531,7.531,0,0,1,.865.047v-1.789l-.619-.04h-.665a2.907,2.907,0,0,0-2.175.738,2.588,2.588,0,0,0-.718,1.889v.665H259.5v1.583h1.417v7.057h2.375V308.3h2.694v7.057h2.375V308.3H270v-1.583H268.36V306.2a1.091,1.091,0,0,1,.206-.752.931.931,0,0,1,.665-.22,7.647,7.647,0,0,1,.871.047v-1.789l-.619-.04C269.331,303.429,269.145,303.416,268.905,303.416Z" transform="translate(-208.376 -280.975)" fill="#242024"/><rect width="2.375" height="8.64" transform="translate(62.751 25.74)" fill="#242024"/><rect width="2.375" height="1.942" transform="translate(62.751 22.447)" fill="#242024"/><path d="M288.63,314.854a1.749,1.749,0,0,1-1.33.479,1.649,1.649,0,0,1-.938-.253,1.855,1.855,0,0,1-.605-.665,2.952,2.952,0,0,1-.326-.878,4.788,4.788,0,0,1-.1-.958,4.978,4.978,0,0,1,.1-.978,2.921,2.921,0,0,1,.339-.9,2.109,2.109,0,0,1,.632-.665,1.649,1.649,0,0,1,.951-.259,1.6,1.6,0,0,1,1.756,1.49h2.321a3.246,3.246,0,0,0-.4-1.443,3.326,3.326,0,0,0-.911-1.024,4.09,4.09,0,0,0-1.27-.612,5.507,5.507,0,0,0-1.483-.2,4.729,4.729,0,0,0-1.869.353,3.931,3.931,0,0,0-1.377.984,4.19,4.19,0,0,0-.858,1.49,5.608,5.608,0,0,0-.293,1.862,4.855,4.855,0,0,0,.319,1.783,3.991,3.991,0,0,0,.885,1.39,3.865,3.865,0,0,0,1.377.911,4.7,4.7,0,0,0,1.783.326,4.317,4.317,0,0,0,2.82-.9,3.931,3.931,0,0,0,1.33-2.627h-2.295a2.235,2.235,0,0,1-.559,1.29Z" transform="translate(-216.234 -282.509)" fill="#242024"/><rect width="2.375" height="8.64" transform="translate(76.66 25.74)" fill="#242024"/><rect width="2.375" height="1.956" transform="translate(76.66 22.447)" fill="#242024"/><path d="M311.339,309.6a3.884,3.884,0,0,0-1.33-1.151,4.2,4.2,0,0,0-1.922-.426,4.537,4.537,0,0,0-1.8.353,4.111,4.111,0,0,0-1.39.965,4.184,4.184,0,0,0-.9,1.443,5.015,5.015,0,0,0-.319,1.8,5.273,5.273,0,0,0,.313,1.842,4.137,4.137,0,0,0,.878,1.437,3.725,3.725,0,0,0,1.384.925,4.889,4.889,0,0,0,1.842.326,4.536,4.536,0,0,0,2.508-.665,3.991,3.991,0,0,0,1.537-2.222h-2.089a1.51,1.51,0,0,1-.665.758,2.435,2.435,0,0,1-2.774-.16,2.388,2.388,0,0,1-.585-1.67h6.233a5.933,5.933,0,0,0-.166-1.922,4.615,4.615,0,0,0-.745-1.636Zm-5.321,2.055a3.024,3.024,0,0,1,.106-.572,1.637,1.637,0,0,1,.319-.6,1.763,1.763,0,0,1,.605-.479,2.075,2.075,0,0,1,.945-.193,1.65,1.65,0,0,1,1.29.472,2.727,2.727,0,0,1,.6,1.37Z" transform="translate(-223.165 -282.519)" fill="#242024"/><path d="M326.176,309a2.335,2.335,0,0,0-.964-.718,3.991,3.991,0,0,0-1.563-.259,3.426,3.426,0,0,0-1.47.346,2.747,2.747,0,0,0-1.171,1.091h-.047v-1.2H318.7v8.647h2.375v-4.53a3.153,3.153,0,0,1,.439-1.9,1.636,1.636,0,0,1,1.4-.579,1.284,1.284,0,0,1,1.184.525,3.007,3.007,0,0,1,.333,1.6v4.882h2.375v-5.321a7.052,7.052,0,0,0-.14-1.463A2.8,2.8,0,0,0,326.176,309Z" transform="translate(-228.198 -282.519)" fill="#242024"/><path d="M338.874,314.854a1.736,1.736,0,0,1-1.33.479,1.649,1.649,0,0,1-.938-.253,1.936,1.936,0,0,1-.612-.665,3.371,3.371,0,0,1-.326-.878,4.782,4.782,0,0,1-.1-.958,4.978,4.978,0,0,1,.1-.978,3.113,3.113,0,0,1,.346-.9,2.089,2.089,0,0,1,.625-.665,1.669,1.669,0,0,1,.951-.259,1.59,1.59,0,0,1,1.756,1.49h2.381a3.193,3.193,0,0,0-1.33-2.468,3.991,3.991,0,0,0-1.27-.612,5.42,5.42,0,0,0-1.477-.2,4.709,4.709,0,0,0-1.869.352,3.872,3.872,0,0,0-1.39.978,4.3,4.3,0,0,0-.865,1.49,5.786,5.786,0,0,0-.286,1.862,4.85,4.85,0,0,0,.313,1.783,4.111,4.111,0,0,0,.885,1.39,3.891,3.891,0,0,0,1.384.911,4.656,4.656,0,0,0,1.776.326,4.324,4.324,0,0,0,2.827-.9,3.9,3.9,0,0,0,1.33-2.627h-2.288A2.235,2.235,0,0,1,338.874,314.854Z" transform="translate(-233.067 -282.509)" fill="#242024"/><path d="M351.066,314.29h-.04l-1.956-5.913H346.55l3.026,8.1a1.463,1.463,0,0,1,.1.539,1.151,1.151,0,0,1-.226.7.925.925,0,0,1-.665.372,6.232,6.232,0,0,1-.705,0l-.665-.067v1.956l.725.06h.732a3.439,3.439,0,0,0,1.9-.452,2.9,2.9,0,0,0,1.071-1.5l3.612-9.711H353Z" transform="translate(-237.523 -282.637)" fill="#242024"/><path d="M371.066,303.42l-4.516,11.94h2.661l.938-2.661h4.463l.9,2.661h2.727l-4.463-11.94Zm-.253,7.317,1.556-4.377h.033l1.5,4.377Z" transform="translate(-244.22 -280.98)" fill="#242024"/><path d="M392.619,312.558a2.421,2.421,0,0,1-1.876.738,3.033,3.033,0,0,1-1.51-.346,2.8,2.8,0,0,1-1-.911,3.992,3.992,0,0,1-.565-1.277,6.25,6.25,0,0,1-.173-1.463,6.773,6.773,0,0,1,.173-1.523,4.078,4.078,0,0,1,.565-1.33,2.76,2.76,0,0,1,1-.918,3.106,3.106,0,0,1,1.51-.346,2.7,2.7,0,0,1,.925.16,2.661,2.661,0,0,1,.792.446,2.4,2.4,0,0,1,.585.665,2.122,2.122,0,0,1,.306.831h2.541a4.91,4.91,0,0,0-.572-1.842,4.39,4.39,0,0,0-1.144-1.33,5,5,0,0,0-1.57-.831,6.125,6.125,0,0,0-1.862-.279,5.986,5.986,0,0,0-2.468.486,5.208,5.208,0,0,0-1.849,1.33,5.926,5.926,0,0,0-1.151,2,7.5,7.5,0,0,0-.406,2.481,7.244,7.244,0,0,0,.406,2.434,5.834,5.834,0,0,0,1.151,1.962,5.228,5.228,0,0,0,1.849,1.33,6.093,6.093,0,0,0,2.468.479,5.987,5.987,0,0,0,2-.333,4.73,4.73,0,0,0,1.6-.971,4.882,4.882,0,0,0,1.1-1.537,6.073,6.073,0,0,0,.519-2h-2.541A3.379,3.379,0,0,1,392.619,312.558Z" transform="translate(-250.354 -280.838)" fill="#242024"/><rect width="2.627" height="11.933" transform="translate(152.069 22.447)" fill="#242024"/><path d="M425.77,309a2.307,2.307,0,0,0-.958-.718,4.037,4.037,0,0,0-1.563-.259,3.4,3.4,0,0,0-1.47.346,2.708,2.708,0,0,0-1.171,1.091h-.053v-1.2H418.3v8.647h2.375v-4.53a3.212,3.212,0,0,1,.432-1.9,1.643,1.643,0,0,1,1.4-.579,1.33,1.33,0,0,1,1.191.526,3.073,3.073,0,0,1,.333,1.6v4.882h2.375v-5.321a6.609,6.609,0,0,0-.146-1.463A2.706,2.706,0,0,0,425.77,309Z" transform="translate(-261.548 -282.519)" fill="#242024"/><rect width="2.375" height="1.956" transform="translate(166.729 22.447)" fill="#242024"/><rect width="2.375" height="8.64" transform="translate(166.729 25.74)" fill="#242024"/><path d="M442.291,304.48h-2.375v2.594H438.48v1.583h1.437v5.1a2.181,2.181,0,0,0,.239,1.044,1.563,1.563,0,0,0,.592.619,2.368,2.368,0,0,0,.871.293,6.494,6.494,0,0,0,1.044.073h.718a6.076,6.076,0,0,0,.665-.067v-1.849a2.657,2.657,0,0,1-.346.053,3.664,3.664,0,0,1-.386,0,.8.8,0,0,1-1-1v-4.284h1.736v-1.583h-1.736Z" transform="translate(-268.305 -281.334)" fill="#242024"/><rect width="2.375" height="1.956" transform="translate(176.926 22.447)" fill="#242024"/><rect width="2.375" height="8.64" transform="translate(176.926 25.74)" fill="#242024"/><path d="M462.587,314.978v-4.5a2.1,2.1,0,0,0-.353-1.264,2.415,2.415,0,0,0-.9-.745,3.93,3.93,0,0,0-1.217-.359,9.912,9.912,0,0,0-1.33-.093,6.957,6.957,0,0,0-1.43.146,4.125,4.125,0,0,0-1.277.472,2.907,2.907,0,0,0-.938.885,2.767,2.767,0,0,0-.412,1.39h2.368a1.33,1.33,0,0,1,.472-1,1.8,1.8,0,0,1,1.1-.3,4.2,4.2,0,0,1,.592.04,1.549,1.549,0,0,1,.486.166,1,1,0,0,1,.333.353,1.231,1.231,0,0,1,.126.612.665.665,0,0,1-.219.559,1.6,1.6,0,0,1-.632.293,6.531,6.531,0,0,1-.925.153c-.346.033-.665.08-1.051.133a9.316,9.316,0,0,0-1.058.226,2.88,2.88,0,0,0-.938.426,2.128,2.128,0,0,0-.665.758,2.527,2.527,0,0,0-.259,1.211,2.807,2.807,0,0,0,.226,1.157,2.188,2.188,0,0,0,.625.8,2.707,2.707,0,0,0,.938.472,4.311,4.311,0,0,0,1.157.146,5.248,5.248,0,0,0,1.57-.233,3.046,3.046,0,0,0,1.33-.818,2.988,2.988,0,0,0,.06.426,2.886,2.886,0,0,0,.106.412h2.408a1.936,1.936,0,0,1-.233-.8,8.654,8.654,0,0,1-.06-1.117Zm-2.375-1.423a4.88,4.88,0,0,1-.04.539,2,2,0,0,1-.226.665,1.543,1.543,0,0,1-.572.559,2.048,2.048,0,0,1-1.084.233,3,3,0,0,1-.552-.047,1.33,1.33,0,0,1-.472-.18.811.811,0,0,1-.313-.339,1.111,1.111,0,0,1-.12-.539,1.151,1.151,0,0,1,.12-.552,1.132,1.132,0,0,1,.306-.359,1.688,1.688,0,0,1,.452-.226,4.651,4.651,0,0,1,.526-.133c.193-.033.379-.06.572-.08l.539-.086a3.233,3.233,0,0,0,.486-.126,1.038,1.038,0,0,0,.379-.206Z" transform="translate(-273.655 -282.52)" fill="#242024"/><path d="M472.068,304.48h-2.395v2.594H468.23v1.583h1.443v5.1a2.188,2.188,0,0,0,.213,1.051,1.577,1.577,0,0,0,.6.619,2.335,2.335,0,0,0,.865.293,6.6,6.6,0,0,0,1.044.073h.718a6.2,6.2,0,0,0,.665-.066v-1.856a3,3,0,0,1-.353.053,3.615,3.615,0,0,1-.386,0,.8.8,0,0,1-1-1v-4.284h1.743v-1.583h-1.709Z" transform="translate(-278.267 -281.334)" fill="#242024"/><rect width="2.375" height="8.64" transform="translate(196.715 25.74)" fill="#242024"/><rect width="2.375" height="1.956" transform="translate(196.715 22.447)" fill="#242024"/><path d="M305.24,44.56h-.033l-1.823-5.9H300.89l2.96,8.64h2.641l2.927-8.64h-2.355Z" transform="translate(-100.75 -12.92)" fill="#242024"/><path d="M505.657,311.232a4.616,4.616,0,0,0-.758-1.636,3.884,3.884,0,0,0-1.33-1.151,4.2,4.2,0,0,0-1.922-.426,4.537,4.537,0,0,0-1.8.353,4.111,4.111,0,0,0-1.39.965,4.184,4.184,0,0,0-.9,1.443,5.016,5.016,0,0,0-.319,1.8,5.274,5.274,0,0,0,.313,1.842,4.138,4.138,0,0,0,.878,1.437,3.725,3.725,0,0,0,1.384.925,4.889,4.889,0,0,0,1.842.326,4.536,4.536,0,0,0,2.508-.665,3.991,3.991,0,0,0,1.537-2.222H503.6a1.51,1.51,0,0,1-.665.758,2.435,2.435,0,0,1-2.774-.16,2.388,2.388,0,0,1-.585-1.67h6.233A5.935,5.935,0,0,0,505.657,311.232Zm-6.066.419a3.022,3.022,0,0,1,.106-.572,1.637,1.637,0,0,1,.319-.6,1.8,1.8,0,0,1,.6-.479,2.115,2.115,0,0,1,.945-.193,1.656,1.656,0,0,1,1.3.472,2.661,2.661,0,0,1,.592,1.37Z" transform="translate(-287.977 -282.519)" fill="#242024"/></g></g></svg>