<svg xmlns="http://www.w3.org/2000/svg" width="263.931" height="71.1" viewBox="0 0 263.931 71.1"><g transform="translate(0)"><rect width="71.016" height="71.016" transform="translate(35.592)" fill="#fff"/><path d="M163.108,35.592,127.6,0V71.1Z" transform="translate(-20.992)" fill="#db0011"/><path d="M78.108,35.592,113.616,0H42.6Z" transform="translate(-7.008)" fill="#db0011"/><path d="M0,35.592,35.592,71.1V0Z" transform="translate(0)" fill="#db0011"/><path d="M78.108,42.6,42.6,78.108h71.016Z" transform="translate(-7.008 -7.008)" fill="#db0011"/><path d="M203.6,41.744H190.733v12.7H184.3V24.7h6.433V36.9H203.6V24.7h6.433V54.443H203.6Z" transform="translate(-30.319 -4.063)"/><path d="M231.38,54.929c-6.433,0-11.7-2.59-11.78-9.692h6.433c.084,3.175,1.922,5.1,5.431,5.1,2.59,0,5.6-1.337,5.6-4.261,0-2.339-2.005-3.008-5.347-4.01l-2.172-.585c-4.679-1.337-9.357-3.175-9.357-8.522,0-6.6,6.183-8.856,11.78-8.856,5.765,0,10.778,2.005,10.861,8.606h-6.433c-.251-2.674-1.838-4.261-4.846-4.261-2.423,0-4.762,1.253-4.762,3.927,0,2.172,2.005,2.841,6.183,4.177l2.506.752c5.1,1.587,8.355,3.342,8.355,8.355C243.746,52.339,237.229,54.929,231.38,54.929Z" transform="translate(-36.127 -3.965)"/><path d="M252.9,24.794h10.36a27.5,27.5,0,0,1,5.848.334c3.593.835,6.35,3.175,6.35,7.185,0,3.843-2.423,5.765-5.932,6.684,4.01.752,7.018,2.757,7.018,7.185,0,6.767-6.684,8.271-11.864,8.271h-11.7Zm10.36,12.365c2.841,0,5.765-.585,5.765-4.01,0-3.091-2.674-3.927-5.347-3.927h-4.512v7.937Zm.585,12.867c3.008,0,5.932-.668,5.932-4.345s-2.506-4.345-5.6-4.345h-5.1v8.689Z" transform="translate(-41.605 -4.074)"/><path d="M298.469,54.913c-9.608,0-13.869-6.1-13.869-15.206S289.362,24,298.8,24c5.932,0,11.7,2.674,11.864,9.357h-6.684c-.334-3.008-2.339-4.512-5.18-4.512-5.848,0-7.6,6.266-7.6,11.028s1.755,10.277,7.352,10.277c2.924,0,5.1-1.587,5.514-4.6h6.684C310.082,52.407,304.652,54.913,298.469,54.913Z" transform="translate(-46.82 -3.948)"/></g></svg>