<svg xmlns="http://www.w3.org/2000/svg" width="307.99" height="89.503" viewBox="0 0 307.99 89.503"><g transform="translate(-1.18 -1.72)"><g transform="translate(120.123 27.319)"><path d="M391.961,86.73v36.115H387.3V86.73Z" transform="translate(-387.3 -86.142)" fill="#02438e"/><path d="M426.455,90.7H415.47V86.73h26.738v3.965h-11.04v32.151h-4.716V90.7Z" transform="translate(-406.792 -86.142)" fill="#02438e"/><path d="M520.821,122.848,511.66,86.73h4.929L520.877,105c1.072,4.5,2.036,9,2.68,12.485h.108c.591-3.589,1.716-7.877,2.948-12.537l4.824-18.218h4.876l4.393,18.326c1.016,4.288,1.981,8.573,2.517,12.377h.108c.749-3.965,1.768-7.985,2.893-12.485l4.768-18.218h4.769l-10.233,36.115H540.65l-4.556-18.809a108.506,108.506,0,0,1-2.357-11.789h-.108a113.712,113.712,0,0,1-2.785,11.789L525.7,122.848Z" transform="translate(-473.352 -86.142)" fill="#02438e"/><path d="M695.47,103.093c0,12.43-7.556,19.022-16.773,19.022-9.537,0-16.237-7.393-16.237-18.326,0-11.469,7.128-18.969,16.773-18.969C689.094,84.82,695.47,92.376,695.47,103.093Zm-28.026.588c0,7.717,4.18,14.629,11.521,14.629,7.4,0,11.576-6.8,11.576-15,0-7.181-3.752-14.681-11.521-14.681C671.3,88.624,667.444,95.753,667.444,103.682Z" transform="translate(-577.698 -84.82)" fill="#02438e"/><path d="M789.27,86.619a48.7,48.7,0,0,1,8.949-.749c4.984,0,8.2.912,10.449,2.948a9,9,0,0,1,2.84,6.86,9.482,9.482,0,0,1-6.8,9.217v.16c2.785.964,4.448,3.536,5.3,7.288,1.18,5.037,2.036,8.521,2.785,9.913h-4.824c-.588-1.017-1.392-4.125-2.412-8.628-1.072-4.984-3-6.86-7.233-7.02h-4.393v15.646H789.27Zm4.661,16.45H798.7c4.984,0,8.145-2.732,8.145-6.86,0-4.661-3.376-6.7-8.3-6.752a19.3,19.3,0,0,0-4.608.428Z" transform="translate(-665.445 -85.547)" fill="#02438e"/><path d="M897.339,122.848l-4.608-7.985c-1.876-3.053-3.053-5.037-4.18-7.128h-.108c-1.017,2.089-2.036,4.02-3.912,7.181l-4.34,7.932h-5.36l11.037-18.273L875.258,86.73h5.412l4.769,8.468c1.34,2.357,2.356,4.18,3.321,6.109h.16c1.02-2.144,1.931-3.8,3.268-6.109l4.929-8.468h5.36l-10.985,17.577,11.253,18.541Z" transform="translate(-724.648 -86.142)" fill="#02438e"/></g><path d="M978.53,49.484a.4.4,0,0,1-.3.151,4.752,4.752,0,0,1-.739.028V48.5h.33c.533,0,.8.194.8.564a.769.769,0,0,1-.089.419m1.047-.45c0-.921-.576-1.383-1.756-1.383h-1.3v4.756h.97V50.494h.385L979,52.407h1.069l-1.278-2.095a1.347,1.347,0,0,0,.789-1.278m.7,3.281a3.146,3.146,0,0,1-4.467,0,3.135,3.135,0,0,1-.019-4.47,3.122,3.122,0,0,1,2.255-.921,3.15,3.15,0,0,1,2.23,5.391M981,47.131a4.225,4.225,0,0,0-5.921,0,4.177,4.177,0,1,0,5.921,0" transform="translate(-673.05 -30.584)" fill="#02438e"/><g transform="translate(1.18 1.72)"><path d="M80.53,20.19l-.536-.564C69.123,8.257,52.676,1.723,38.58,1.72h-.025C13.52,1.726,1.18,24.648,1.18,48.084A74.3,74.3,0,0,0,1.938,58.94l.136.863h0c.006.043.015.083.022.126l.012.086h0C5.354,79.56,17.128,91.223,36.827,91.223a60.442,60.442,0,0,0,8.795-.668h0l.043-.006c.009,0,.018,0,.028,0h0l.81-.123c21.606-3.484,45.428-18.2,45.44-42.322v-.028C91.946,37.081,87.427,27.633,80.53,20.19ZM57.907,69.25A38.394,38.394,0,0,1,53.218,68,107.882,107.882,0,0,1,20.211,47.317l-3.133-3.348C27.367,35.38,42.353,25.541,60.4,21.481c.33,1.2.884,4.608.884,4.608C63.458,44.631,61.237,58.9,57.907,69.25Z" transform="translate(-1.18 -1.72)" fill="#ac2225"/><path d="M3.6,153.761l.136.866s15.47-10.976,18.1-12.467l-3.08-3.29S7.87,147.954,3.6,153.761Z" transform="translate(-2.855 -96.622)" fill="#7f1923"/><path d="M194.3,66l-.872-4.531a72.785,72.785,0,0,1,19.527-1.922l.542.573A112.373,112.373,0,0,0,194.3,66Z" transform="translate(-134.208 -41.712)" fill="#7f1923"/><path d="M153.027,216.83l4.732,1.266a57.193,57.193,0,0,1-11.45,21.184l-.829.126S148.428,232.18,153.027,216.83Z" transform="translate(-101.029 -150.566)" fill="#7f1923"/></g></g></svg>