<svg xmlns="http://www.w3.org/2000/svg" width="220.319" height="63.873"><g data-name="Group 74286"><path fill="#025c5d" d="M9.37 14.591h5.288l-2.644-3.056Z" data-name="Path 224725"/><path fill="#025c5d" d="M14.657 14.591h5.288l-2.644-3.056Z" data-name="Path 224726"/><path fill="#025c5d" d="M19.945 14.591h5.288l-2.644-3.056Z" data-name="Path 224727"/><path fill="#025c5d" d="m27.875 11.535-2.648 3.056h5.288Z" data-name="Path 224728"/><path fill="#025c5d" d="m27.876 11.534-2.643-3.057-2.644 3.056Z" data-name="Path 224729"/><path fill="#025c5d" d="m22.588 11.534-2.643-3.057-2.644 3.056Z" data-name="Path 224730"/><path fill="#025c5d" d="m17.301 5.425-2.644 3.056h5.287Z" data-name="Path 224731"/><path fill="#025c5d" d="m22.588 5.425-2.644 3.056h5.287Z" data-name="Path 224732"/><path fill="#025c5d" d="m14.658 8.477-2.644 3.056h5.288Z" data-name="Path 224733"/><path fill="#025c5d" d="M9.37 1.725h21.15v2.537H9.37z" data-name="Rectangle 24196"/><path fill="#025c5d" d="M30.52 49.28h-5.292l2.644 3.056Z" data-name="Path 224734"/><path fill="#025c5d" d="M25.233 49.28h-5.288l2.644 3.056Z" data-name="Path 224735"/><path fill="#025c5d" d="M19.944 49.28h-5.288l2.644 3.056Z" data-name="Path 224736"/><path fill="#025c5d" d="M14.657 49.28H9.369l2.644 3.056Z" data-name="Path 224737"/><path fill="#025c5d" d="m12.013 52.336 2.644 3.056 2.644-3.056Z" data-name="Path 224738"/><path fill="#025c5d" d="m17.301 52.336 2.644 3.056 2.644-3.056Z" data-name="Path 224739"/><path fill="#025c5d" d="m22.588 58.448 2.644-3.056h-5.287Z" data-name="Path 224740"/><path fill="#025c5d" d="m17.301 58.448 2.644-3.056h-5.287Z" data-name="Path 224741"/><path fill="#025c5d" d="m25.232 55.392 2.644-3.056h-5.287Z" data-name="Path 224742"/><path fill="#025c5d" d="M9.37 59.609h21.15v2.537H9.37z" data-name="Rectangle 24197"/><path fill="#025c5d" d="M37.335 0h2.537v63.873h-2.537z" data-name="Rectangle 24198"/><path fill="#025c5d" d="M0 0h2.537v63.873H0z" data-name="Rectangle 24199"/><path fill="#c09862" d="M29.627 34.634c-1.54-.279-4.117-.747-8.392 1.72l-1.3.75-1.3-.75c-4.275-2.468-6.852-2-8.392-1.72l-.205.037-1.47.259 1.49.1a15.484 15.484 0 0 1 7.509 2.126l1.137.657-4.438 2.562-.506-.6a.252.252 0 0 1-.058-.186.259.259 0 0 1 .092-.175 1.049 1.049 0 0 0 .374-.714 1.036 1.036 0 0 0-.24-.767 1.056 1.056 0 0 0-1.856.589 1.037 1.037 0 0 0 .24.767l1.254 1.493-1.212.7a1.554 1.554 0 0 1-1.188.156l-.121-.032a1.062 1.062 0 0 0-1.3.688 1.051 1.051 0 0 0 .729 1.337 1.064 1.064 0 0 0 .274.036 1.05 1.05 0 0 0 .524-.141l3.095-1.787.456.544a.25.25 0 0 1 .058.186.257.257 0 0 1-.092.175 1.052 1.052 0 0 0-.374.714 1.043 1.043 0 0 0 1.043 1.139 1.058 1.058 0 0 0 1.053-.962 1.037 1.037 0 0 0-.24-.767l-1.2-1.434 4.865-2.809 4.865 2.809-1.2 1.434a1.04 1.04 0 0 0-.24.767 1.056 1.056 0 0 0 1.856.59 1.041 1.041 0 0 0 .24-.767 1.052 1.052 0 0 0-.374-.714.257.257 0 0 1-.092-.175.249.249 0 0 1 .058-.186l.457-.544 3.095 1.787a1.047 1.047 0 0 0 .524.141 1.064 1.064 0 0 0 .274-.036 1.052 1.052 0 0 0 .729-1.337 1.063 1.063 0 0 0-1.3-.688l-.121.032a1.554 1.554 0 0 1-1.188-.156l-1.212-.7 1.255-1.493a1.038 1.038 0 0 0 .24-.767 1.056 1.056 0 0 0-1.856-.589 1.036 1.036 0 0 0-.24.767 1.049 1.049 0 0 0 .374.714.256.256 0 0 1 .092.175.252.252 0 0 1-.058.186l-.506.6-4.441-2.559 1.137-.657a15.484 15.484 0 0 1 7.509-2.133l1.49-.1-1.47-.259-.206-.037" data-name="Path 224743"/><path fill="#c09862" d="M27.605 25.805a4.85 4.85 0 0 0-5.681-4.425s1.436-1.289 4.2-.124a4.553 4.553 0 0 0-5.317-1.354 2.921 2.921 0 0 0-.873-2.135 2.923 2.923 0 0 0-.872 2.135 4.552 4.552 0 0 0-5.319 1.356c2.764-1.165 4.2.124 4.2.124a4.85 4.85 0 0 0-5.681 4.425c2.858-3.6 5.185-2.194 5.185-2.194a6 6 0 0 0-3.181 1.345 4.1 4.1 0 0 0-.969 1.453 5.477 5.477 0 0 0 .153 3.527c1.054-3.887 3.318-4.049 3.772-4.041a.7.7 0 0 1 .081 0c-2.059 1.507-.732 5.164-.732 5.164.782-3.536 2.13-4.2 2.507-4.322.017.319.181 4.98-.061 7.946a11.946 11.946 0 0 0-2.922-.282 15.655 15.655 0 0 1 3.833 1.77 15.64 15.64 0 0 1 3.833-1.77 11.648 11.648 0 0 0-3 .305l-.012.006c-.258-3.125-.062-8-.062-8s1.692.208 2.607 4.347c0 0 1.328-3.656-.731-5.164a.889.889 0 0 1 .106 0c.441-.009 2.719.137 3.778 4.041a5.731 5.731 0 0 0 .3-3 4.17 4.17 0 0 0-1.653-2.4 6.643 6.643 0 0 0-2.517-.909c-.052-.007-.1-.016-.158-.022 0 0 2.327-1.4 5.185 2.194" data-name="Path 224744"/><path fill="#025c5d" d="M35.1 5.5V.212l-3.053 2.647Z" data-name="Path 224745"/><path fill="#025c5d" d="M35.1 10.79V5.5l-3.056 2.644Z" data-name="Path 224746"/><path fill="#025c5d" d="M35.1 16.075v-5.288l-3.056 2.644Z" data-name="Path 224747"/><path fill="#025c5d" d="M35.1 21.363v-5.288l-3.056 2.644Z" data-name="Path 224748"/><path fill="#025c5d" d="M35.1 26.649v-5.288l-3.056 2.644Z" data-name="Path 224749"/><path fill="#025c5d" d="M35.1 31.937v-5.288l-3.056 2.644Z" data-name="Path 224750"/><path fill="#025c5d" d="M35.1 37.223v-5.288l-3.056 2.644Z" data-name="Path 224751"/><path fill="#025c5d" d="M35.1 42.513v-5.288l-3.056 2.644Z" data-name="Path 224752"/><path fill="#025c5d" d="M35.1 47.803v-5.288l-3.056 2.644Z" data-name="Path 224753"/><path fill="#025c5d" d="M35.1 53.088V47.8l-3.056 2.644Z" data-name="Path 224754"/><path fill="#025c5d" d="M35.1 58.375v-5.288l-3.056 2.644Z" data-name="Path 224755"/><path fill="#025c5d" d="M35.1 63.663v-5.288l-3.056 2.644Z" data-name="Path 224756"/><path fill="#025c5d" d="M4.769.212V5.5l3.056-2.641Z" data-name="Path 224757"/><path fill="#025c5d" d="M7.825 8.144 4.769 5.5v5.29Z" data-name="Path 224758"/><path fill="#025c5d" d="m7.825 13.431-3.056-2.644v5.287Z" data-name="Path 224759"/><path fill="#025c5d" d="m7.825 18.719-3.056-2.644v5.288Z" data-name="Path 224760"/><path fill="#025c5d" d="m7.825 24.005-3.056-2.644v5.287Z" data-name="Path 224761"/><path fill="#025c5d" d="m7.825 29.293-3.056-2.644v5.288Z" data-name="Path 224762"/><path fill="#025c5d" d="m7.825 34.58-3.056-2.644v5.287Z" data-name="Path 224763"/><path fill="#025c5d" d="M7.825 39.874 4.769 37.23v5.288Z" data-name="Path 224764"/><path fill="#025c5d" d="m7.825 45.156-3.056-2.644v5.291Z" data-name="Path 224765"/><path fill="#025c5d" d="m7.825 50.443-3.056-2.644v5.288Z" data-name="Path 224766"/><path fill="#025c5d" d="m7.825 55.731-3.056-2.644v5.288Z" data-name="Path 224767"/><path fill="#025c5d" d="m7.825 61.017-3.056-2.644v5.288Z" data-name="Path 224768"/><path fill="#c09862" d="M61.702 41.067v.017c0 2.385-1.4 4.4-4.786 4.4h-3.519v4.886h-2.6V36.848h6.12c3.536 0 4.786 2.034 4.786 4.219m-2.668.184c0-1.351-.851-1.968-2.385-1.968h-3.252v3.9h3.252c1.518 0 2.385-.584 2.385-1.918Z" data-name="Path 224769"/><path fill="#c09862" d="M62.885 41.166a20.549 20.549 0 0 1 3.919-.367h1.868v2.435h-1.433a15 15 0 0 0-1.7.133v7h-2.651Z" data-name="Path 224770"/><path fill="#c09862" d="M79.311 46.136H72.14a2.63 2.63 0 0 0 2.668 2.168 5.032 5.032 0 0 0 2.885-.917l1.151 2.051a7.588 7.588 0 0 1-4.152 1.184c-3.219 0-5.3-2.068-5.3-5.1v-.017a4.771 4.771 0 0 1 4.986-5.087c3.069 0 4.936 2.068 4.936 5.487Zm-7.154-1.634h4.453a2.193 2.193 0 0 0-2.251-1.934 2.28 2.28 0 0 0-2.2 1.934" data-name="Path 224771"/><path fill="#c09862" d="M80.732 40.899a28.511 28.511 0 0 1 4.2-.5 3.213 3.213 0 0 1 2.885 1.284 3.774 3.774 0 0 1 3.185-1.284c2.485 0 4 .967 4 3.719v6.254h-2.651v-5.954c0-1-.3-1.651-1.6-1.651s-1.6.65-1.6 1.651v5.954h-2.635v-5.954c0-1.218-.667-1.651-1.7-1.651a6.764 6.764 0 0 0-1.435.167v7.438h-2.649Z" data-name="Path 224772"/><path fill="#c09862" d="M96.636 38.381a1.33 1.33 0 0 1 2.635 0c0 .8-.584 1.167-1.317 1.167a1.162 1.162 0 0 1-1.318-1.167m0 2.418h2.651v9.572h-2.651Z" data-name="Path 224773"/><path fill="#c09862" d="M100.922 46.937V40.8h2.651v5.92c0 1.217.651 1.651 1.9 1.651a9.376 9.376 0 0 0 1.684-.167v-7.4h2.635v9.339a30.932 30.932 0 0 1-4.436.5c-2.368 0-4.436-.834-4.436-3.7" data-name="Path 224774"/><path fill="#c09862" d="M111.44 40.899a28.512 28.512 0 0 1 4.2-.5 3.213 3.213 0 0 1 2.885 1.284 3.773 3.773 0 0 1 3.185-1.284c2.485 0 4 .967 4 3.719v6.254h-2.651v-5.954c0-1-.3-1.651-1.6-1.651s-1.6.65-1.6 1.651v5.954h-2.635v-5.954c0-1.218-.667-1.651-1.7-1.651a6.764 6.764 0 0 0-1.435.167v7.438h-2.649Z" data-name="Path 224775"/><path fill="#c09862" d="M138.693 45.07h-2.735v5.3h-2.6V36.848h5.9c3.536 0 4.786 1.818 4.786 4v.017a3.8 3.8 0 0 1-2.768 3.936l3.369 5.57h-2.785Zm-2.735-2.035h3.169c1.367 0 2.251-.5 2.251-1.918v-.012c0-1.351-.884-1.818-2.251-1.818h-3.169Z" data-name="Path 224776"/><path fill="#c09862" d="M154.585 46.136h-7.17a2.63 2.63 0 0 0 2.668 2.168 5.032 5.032 0 0 0 2.885-.917l1.151 2.051a7.588 7.588 0 0 1-4.152 1.184c-3.219 0-5.3-2.068-5.3-5.1v-.017a4.771 4.771 0 0 1 4.986-5.087c3.069 0 4.937 2.068 4.937 5.487Zm-7.154-1.634h4.453a2.193 2.193 0 0 0-2.251-1.934 2.28 2.28 0 0 0-2.2 1.934" data-name="Path 224777"/><path fill="#c09862" d="m155.234 49.755.717-1.918a8.417 8.417 0 0 0 3.252.7c1.134 0 1.9-.15 1.9-.851 0-.517-.317-.734-1.718-1.117l-.9-.233c-2-.534-2.9-1.468-2.9-3.052 0-1.768 1.4-2.852 3.886-2.852a8.879 8.879 0 0 1 3.9.834l-.767 1.851a6.514 6.514 0 0 0-2.818-.633c-.967 0-1.534.183-1.534.717 0 .484.467.717 1.617 1.051l.684.184c2.151.6 3.152 1.534 3.152 3.052 0 2.068-1.418 3.1-4.27 3.1a10.62 10.62 0 0 1-4.2-.834" data-name="Path 224778"/><path fill="#c09862" d="M165.106 38.381a1.33 1.33 0 0 1 2.635 0c0 .8-.584 1.167-1.317 1.167a1.163 1.163 0 0 1-1.318-1.167m0 2.418h2.651v9.572h-2.651Z" data-name="Path 224779"/><path fill="#c09862" d="M169.175 45.536v-.031a4.854 4.854 0 0 1 5.2-5.087 8.1 8.1 0 0 1 1.818.25v-3.819h2.652v12.856a9.056 9.056 0 0 1-4.353.934 4.953 4.953 0 0 1-5.32-5.1m7.021 2.518v-5.02a8.036 8.036 0 0 0-1.7-.25 2.511 2.511 0 0 0-2.651 2.719v.033a2.524 2.524 0 0 0 2.651 2.735 6.774 6.774 0 0 0 1.7-.217" data-name="Path 224780"/><path fill="#c09862" d="M190.171 46.136H183a2.629 2.629 0 0 0 2.668 2.168 5.031 5.031 0 0 0 2.885-.917l1.151 2.051a7.586 7.586 0 0 1-4.152 1.184c-3.219 0-5.3-2.068-5.3-5.1v-.017a4.771 4.771 0 0 1 4.986-5.087c3.069 0 4.936 2.068 4.936 5.487Zm-7.154-1.634h4.453a2.193 2.193 0 0 0-2.251-1.934 2.28 2.28 0 0 0-2.2 1.934" data-name="Path 224781"/><path fill="#c09862" d="M191.588 40.917a31.373 31.373 0 0 1 4.453-.5c2.368 0 4.419.834 4.419 3.7v6.254h-2.634v-5.937c0-1.2-.667-1.651-1.9-1.651a11.244 11.244 0 0 0-1.684.167v7.421h-2.651Z" data-name="Path 224782"/><path fill="#c09862" d="M201.876 45.537v-.034a4.881 4.881 0 0 1 5.2-5.086 7.082 7.082 0 0 1 3.319.817l-1.051 1.968a4.431 4.431 0 0 0-2.135-.567 2.594 2.594 0 0 0-2.668 2.868v.034a2.616 2.616 0 0 0 2.668 2.885 4.467 4.467 0 0 0 2.135-.55l1.034 1.968a7.147 7.147 0 0 1-3.3.784 4.881 4.881 0 0 1-5.2-5.087" data-name="Path 224783"/><path fill="#c09862" d="M220.303 40.9v9.539c0 2.868-2.018 3.785-4.369 3.785a9.13 9.13 0 0 1-3.119-.517l-.584-2.518a9.063 9.063 0 0 0 3.335.7c1.585 0 2.1-.517 2.1-1.7v-.35c-.717.067-1.351.117-1.8.117-2.368 0-4.419-.817-4.419-3.7v-5.453h2.635v5.436c0 1.218.667 1.651 1.885 1.651a14.085 14.085 0 0 0 1.7-.116v-6.871Z" data-name="Path 224784"/><path fill="#c09862" d="M58.671 16.621v10.406h-3.2c-3.119 0-5.2-1.9-5.2-4.753v-.017c0-2.885 2.2-4.8 5.554-4.8h.233v-.834Zm-6.287-2.568a1.39 1.39 0 1 1 1.384 1.267 1.274 1.274 0 0 1-1.384-1.267m3.669 6h-.817a2.247 2.247 0 0 0-2.518 2.2v.017a2.238 2.238 0 0 0 2.518 2.135h.817Zm-.267-6a1.284 1.284 0 0 1 1.384-1.251 1.265 1.265 0 1 1-1.384 1.251" data-name="Path 224785"/><path fill="#c09862" d="M66.637 27.027h-1.818c-.2 2.852-1.451 3.669-3.752 3.669a6.339 6.339 0 0 1-1.4-.15l-.267-2.268c.567.034.951.051 1.4.051.834 0 1.434-.434 1.434-1.7v-9.172h2.618v6.954h1.784Zm-4.469-12.541a1.41 1.41 0 0 1 2.8 0 1.406 1.406 0 0 1-2.8 0" data-name="Path 224786"/><path fill="#c09862" d="M66.303 24.408h2.918v2.618h-2.918z" data-name="Rectangle 24200"/><path fill="#c09862" d="M68.888 24.408h2.918v2.618h-2.918z" data-name="Rectangle 24201"/><path fill="#c09862" d="M71.472 24.408h2.918v2.618h-2.918z" data-name="Rectangle 24202"/><path fill="#c09862" d="M74.057 24.408h6.254v2.618h-6.254z" data-name="Rectangle 24203"/><path fill="#c09862" d="M72.956 24.408h2.918v2.618h-2.918z" data-name="Rectangle 24204"/><path fill="#c09862" d="M75.541 24.408h6.254v2.618h-6.254z" data-name="Rectangle 24205"/><path fill="#c09862" d="M81.461 24.408h2.6v-6.954h2.618v6.954h2.917v2.618h-8.138Zm.9 5.487a1.39 1.39 0 1 1 1.384 1.267 1.274 1.274 0 0 1-1.384-1.267m3.4 0a1.284 1.284 0 0 1 1.384-1.251 1.265 1.265 0 1 1-1.384 1.251" data-name="Path 224787"/><path fill="#c09862" d="M89.265 24.408h7.254v2.618h-7.254z" data-name="Rectangle 24206"/><path fill="#c09862" d="M95.419 24.408h.117v2.618h-.117z" data-name="Rectangle 24207"/><path fill="#c09862" d="M95.085 24.408h2.918v2.618h-2.918z" data-name="Rectangle 24208"/><path fill="#c09862" d="M109.811 27.027h-2.335a4.608 4.608 0 0 1-3.886 1.851h-.017a4.66 4.66 0 0 1-3.9-1.851h-2v-2.618h1.067c-.017-.183-.017-.367-.017-.567v-.017c0-3.135 1.951-5.22 4.853-5.22h.017c2.9 0 4.836 2.085 4.836 5.22v.017c0 .2 0 .384-.017.567h1.4Zm-4-3.269a2.265 2.265 0 0 0-2.218-2.552h-.017a2.277 2.277 0 0 0-2.235 2.552v.017a2.251 2.251 0 0 0 2.235 2.5h.017a2.239 2.239 0 0 0 2.218-2.5Z" data-name="Path 224788"/><path fill="#c09862" d="M109.476 24.408h2.918v2.618h-2.918z" data-name="Rectangle 24209"/><path fill="#c09862" d="M124.202 27.027h-2.333a4.608 4.608 0 0 1-3.886 1.851h-.014a4.66 4.66 0 0 1-3.9-1.851h-2v-2.618h1.067c-.017-.183-.017-.367-.017-.567v-.017c0-3.135 1.951-5.22 4.853-5.22h.017c2.9 0 4.836 2.085 4.836 5.22v.017c0 .2 0 .384-.017.567h1.4Zm-4-3.269a2.265 2.265 0 0 0-2.218-2.552h-.015a2.277 2.277 0 0 0-2.235 2.552v.017a2.251 2.251 0 0 0 2.235 2.5h.017a2.239 2.239 0 0 0 2.218-2.5Z" data-name="Path 224789"/><path fill="#c09862" d="M123.867 24.408h2.918v2.618h-2.918z" data-name="Rectangle 24210"/><path fill="#c09862" d="M130.755 13.502v13.525h-4.3v-2.618h1.685V13.502Z" data-name="Path 224790"/><path fill="#c09862" d="M133.356 13.502h2.618v13.525h-2.618z" data-name="Rectangle 24211"/><path fill="#c09862" d="M154.234 24.409v2.618h-5.1c-3.118 0-5.2-1.9-5.2-4.753v-.017c0-2.885 2.2-4.8 5.554-4.8h.233v-.834h2.618v7.788Zm-8.189-10.356a1.39 1.39 0 1 1 1.384 1.267 1.274 1.274 0 0 1-1.384-1.267m3.669 6h-.817a2.248 2.248 0 0 0-2.518 2.2v.017a2.238 2.238 0 0 0 2.518 2.135h.817Zm-.267-6a1.284 1.284 0 0 1 1.384-1.251 1.265 1.265 0 1 1-1.384 1.251" data-name="Path 224791"/><path fill="#c09862" d="M153.9 24.408h2.918v2.618H153.9z" data-name="Rectangle 24212"/><path fill="#c09862" d="M156.485 24.408h2.918v2.618h-2.918z" data-name="Rectangle 24213"/><path fill="#c09862" d="M159.07 24.408h2.918v2.618h-2.918z" data-name="Rectangle 24214"/><path fill="#c09862" d="M161.655 24.408h2.918v2.618h-2.918z" data-name="Rectangle 24215"/><path fill="#c09862" d="M164.239 24.408h2.918v2.618h-2.918z" data-name="Rectangle 24216"/><path fill="#c09862" d="M177.581 23.825v.017a4.668 4.668 0 0 1-4.836 5.036h-.017a4.66 4.66 0 0 1-3.9-1.851h-2v-2.618h1.067c-.017-.183-.017-.367-.017-.567v-.017c0-3.135 1.951-5.22 4.853-5.22h.017c2.9 0 4.836 2.085 4.836 5.22m-2.618-.067a2.265 2.265 0 0 0-2.218-2.552h-.017a2.277 2.277 0 0 0-2.235 2.552v.017a2.251 2.251 0 0 0 2.235 2.5h.017a2.239 2.239 0 0 0 2.218-2.5Z" data-name="Path 224792"/><path fill="#c09862" d="M184.667 24.409v2.618h-4.52V13.502h2.618v10.907Z" data-name="Path 224793"/><path fill="#c09862" d="M184.334 24.408h2.251v2.618h-2.251z" data-name="Rectangle 24217"/><path fill="#c09862" d="M186.251 24.408h2.918v2.618h-2.918z" data-name="Rectangle 24218"/><path fill="#c09862" d="M188.836 24.408h2.918v2.618h-2.918z" data-name="Rectangle 24219"/><path fill="#c09862" d="M191.421 24.408h2.251v2.618h-2.251z" data-name="Rectangle 24220"/><path fill="#c09862" d="M200.259 17.454h2.852v9.572h-9.773v-2.618h1.814a4.9 4.9 0 0 1-.467-2.135v-.017c0-2.885 2.218-4.8 5.57-4.8m.233 2.6h-.817a2.239 2.239 0 0 0-2.518 2.2v.017a2.229 2.229 0 0 0 2.518 2.135h.817Zm-3.269-5.486a1.39 1.39 0 1 1 1.384 1.267 1.274 1.274 0 0 1-1.384-1.267m3.4 0a1.283 1.283 0 0 1 1.384-1.25 1.264 1.264 0 1 1-1.384 1.25" data-name="Path 224794"/><path fill="#c09862" d="M205.195 24.408h4.853c1.551 0 2.435-.767 2.435-2.168v-9.973h2.62v9.773c0 3.318-1.751 4.987-5.353 4.987h-4.036Zm1.934-9.522h2.6v8.488h-2.6Zm.017 14.959a1.725 1.725 0 0 1 1.951-1.8h.734v1.117h-.8a.433.433 0 0 0-.451.467v.167h1.684v1.267h-3.119Z" data-name="Path 224795"/><path fill="#c09862" d="M217.701 13.502h2.618v13.525h-2.618z" data-name="Rectangle 24221"/></g></svg>