<svg xmlns="http://www.w3.org/2000/svg" width="137.894" height="137.894" viewBox="0 0 137.894 137.894"><g transform="translate(0)"><g transform="translate(13.339 22.391)"><path d="M289.033,280.834c.31,3.528-2.151,6.385-4.6,7.969a25.789,25.789,0,0,1-.964,4.6,47.258,47.258,0,0,0,5.559-6.282c.207,5.129-5.938,5.972-6.764,10.86,1.824-1.153,4.182-3.855,6.282-5.559a11.116,11.116,0,0,1-6.764,7.487c-.413.637-.568,1.532-.964,2.169,2.788-1.48,4.767-3.752,7.969-4.836-1.291,3.373-4.165,5.163-7.969,6.041a6.308,6.308,0,0,0-1.446,3.132c2.685-.774,5.146-3.872,8.932-4.354a11.562,11.562,0,0,1-5.318,4.836c-2.289,1.153-5.439,1.015-6.041,3.855,3.2-1.136,5.7-2.995,9.9-3.132-1.687,3.391-5.37,4.767-10.619,4.6-.654,1.2-1.859,1.842-2.41,3.132,3.27-.964,6.678-2.909,10.86-2.169-1.687,3.408-6.747,5.4-11.824,3.855-1.256.585-1.7,2-2.65,2.891,3.218-.6,7.315-1.5,10.378-.241-1.618,3.115-8.5,3.459-11.1.964-1.411,1.17-2.582,2.564-4.1,3.614,3.236.344,8.244-.4,10.378,1.687-2.857,1.962-9.9,1.532-12.306-.482a22.785,22.785,0,0,1-4.6,2.41c1.652.775,5.628.843,8.451,1.2a15.126,15.126,0,0,1-7,.723c-1.136-.138-2.341-.964-3.373-.964-2.685,0-5.955,1.979-8.692,2.891-3.012,1.015-5.817,2-8.692,2.891,5.748,3.184,12.34,5.525,18.588,8.21-2.547,1.635-5.662,2.7-8.21,4.354-4.578-4.6-11.6-6.764-17.865-9.655-6.041,2.737-12.943,4.613-16.9,9.414-2.891-1.446-5.8-2.891-8.691-4.354,5.921-2.84,13.029-5.146,17.865-7.728-2.547-1-5.06-1.738-7.728-2.651-2.341-.809-5.2-2.564-7.487-2.65-2.633-.12-6.368,2.22-10.137.482,1.928-1.136,5.886-.224,7.728-1.446a12.005,12.005,0,0,1-3.855-2.169,18.256,18.256,0,0,1-12.547.723c1.36-2.513,6.936-2.048,10.378-1.687-1.015-1.566-2.909-2.237-3.855-3.855-2.909,2.255-8.932,2.1-11.1-.723,2.564-1.755,7.16-.585,10.137,0a21.685,21.685,0,0,0-2.41-2.891c-4.922,1.377-10.258-.138-11.583-3.855,4.492-.224,7.383,1.136,10.378,2.41-.31-1.549-1.807-1.893-2.169-3.373-5.232.482-9.38-1.394-10.378-4.354,3.907.275,6.506,1.876,9.414,3.132.224-.809-1.033-1.945-1.687-2.65a11.593,11.593,0,0,1-9.173-5.8c3.632.637,5.766,2.771,8.451,4.354.293-.947-.671-2.5-1.2-3.373-3.821-.671-6.523-2.5-7.728-5.8,2.96,1.067,4.888,3.167,7.487,4.6.12-.757-.344-.947-.482-1.446-2.995-1.91-5.783-4.027-7-7.728,2.427,1.532,4.148,3.735,6.282,5.559-.62-5.163-6.23-5.353-6.764-10.619,2.169,1.687,3.511,4.2,5.559,6.041-.017-5.938-5.507-6.4-5.559-12.306,1.876,1.669,2.891,4.182,4.354,6.282,1.222-5.645-3.941-7-3.614-12.547,1.6,1.7,2.289,4.3,3.373,6.523,1.532-6.85-3.322-9.4-3.373-15.455,1.721,2.151,2.53,5.18,3.614,7.969,2.031-4.836-2.547-7.865-1.687-13.769,1.48,2.306,1.635,5.921,2.65,8.692,2.926-4.337-1.446-8.5-.241-13.769a17.181,17.181,0,0,1,1.928,7.246c2.909-2.513-.069-7.16.964-11.1a14.681,14.681,0,0,1,.964,6.282c2.823-1.669.172-7.5,1.687-10.619a14.111,14.111,0,0,1,.482,6.282c2.788-.981,1.377-6.179,2.65-8.691.551,1.05.086,3.132.241,4.6a2.319,2.319,0,0,0,1.067-.723,2.128,2.128,0,0,0-.344.964c.792.275,2.668-.207,3.855.241-1.532,2.014-6.506.568-6.523,4.1,1.532-.4,3.425-.447,5.077-.723-1,1.325-3.081,1.583-5.559,1.446a6.558,6.558,0,0,0-1.446,2.891c.878-.327,3.236-1.446,5.318-.723-.637,1.945-3.115,2.031-5.8,1.928a7.885,7.885,0,0,0-1.446,3.614c2.014-.568,3.907-1.256,5.8-1.928-.6,1.566-3.769,2.668-6.282,3.132-.895,1.119-.929,3.1-1.446,4.6,2.186-1.446,3.7-3.545,6.523-4.354-1.291,2.719-4.113,3.941-6.764,5.318-.069,1.463-.361,2.685-.482,4.1,1.859-1.669,4.01-3.081,6.041-4.6-.585,2.478-3.666,4.544-6.282,5.8-.1,1.1.241,2.65-.241,3.373,1.188-.017,1.1-1.325,1.687-1.928a45.875,45.875,0,0,1,4.6-3.132c-.671,2.392-3.425,4.785-6.041,6.041.155,1.618-.327,3.855.241,5.077a22.4,22.4,0,0,1,5.559-6.764c-.413,2.891-3.167,5.525-5.559,7.246.017,1.6-.138,3.356.482,4.354,1.515-2.5,2.616-5.439,5.077-7-.379,2.909-3.115,5.576-5.077,7.728.31,1.79.534,3.649,1.446,4.836a28.241,28.241,0,0,1,4.354-8.932c.12,4.526-6.075,8.864-2.891,13.528a38.87,38.87,0,0,1,3.855-8.932c-.224,3.236-2.255,6.764-3.614,9.655a7.977,7.977,0,0,0,1.446,3.132c.637-3.3,2-5.886,3.132-8.691.1,4.045-4.423,9.518-.723,13.046,1.222-2.719,1.463-6.437,2.169-9.655.981,5.3-3.494,11.445.964,14.251.5-1.428.258-3.6.723-5.077v-1.446c-.034-.6.293-.413.241,0-.052,4.389-.568,9.259,2.41,10.619.534-1.945.241-4.75.723-6.764v-1.446c.534,1.876.241,6.678.723,9.414.826.878,1.428,1.945,2.65,2.41a52.055,52.055,0,0,1-.482-9.414c2.1,3.941-.224,12.306,4.836,13.287a35.7,35.7,0,0,1-1.446-9.173c1.669,1.876,2.22,6.161,1.928,9.173.826,1.256,2.375,1.807,3.855,2.41-.413-1.428-1.566-4.234-1.687-6.764,1.91.344,2.513,4.1,2.65,7,6.4,1.962,14.044,4.681,21.737,4.6,7.59-.086,16.023-3.545,22.7-5.077.275-2.289.585-6.23,2.41-7.728.688,2.53-.706,5.077-1.446,7,1.015.12,2.754-1.1,3.855-1.687.017-3.924.482-7.4,1.928-9.9.5,2.995-.516,6.557-1.2,9.173a9.07,9.07,0,0,0,3.373-2.65,47.149,47.149,0,0,1,1.446-11.1c.671,3.167-.017,7.056-.482,9.9.688-.12,2.151-1.532,2.891-2.41.12-3.1.413-6.024.482-9.173-.034-.275.052-.43.241-.482v2.65a43.184,43.184,0,0,1,.482,5.8c1.222-.62,1.669-2.031,2.651-2.891.017-1.015-.017-3.442,0-5.318.017-1.669.086-4.75.241-1.687.379,1.79.327,4.027.723,5.8,4.268-3.184.482-9.07.723-14.973.895,3.132,1.515,6.54,2.169,9.9,4.354-2.874-.138-8.313-.482-12.8a21.765,21.765,0,0,1,3.132,8.451c1.119-.413,1.033-2.031,1.687-2.891-1.463-3.115-3.046-6.127-3.855-9.9,1.945,2.323,3.029,5.507,3.855,8.932,3.511-4.526-2.547-9.087-3.132-14.01,2.014,2.65,4.045,5.3,4.6,9.414,1.308-.861,1.239-3.1,1.687-4.836-1.842-2.582-4.337-4.509-5.318-7.969,2.6,1.411,3.907,4.148,5.077,7,3.545-5.215-4.509-7.194-5.077-11.342,2.564.568,4.372,3.993,5.8,6.523.568-1.2.086-3.459.241-5.077a19,19,0,0,1-6.282-6.041c.861-.947,2.186,1.463,2.169,1.446.482.293,1.033-.086,1.446.241.981.774,1.566,2.117,2.65,3.132.637-.809-.344-2.065,0-3.373a16.943,16.943,0,0,1-6.523-5.559c2.151.258,4.217,2.7,6.041,4.1.534-.947-.224-2.668-.241-3.855-2.5-1.687-5.525-2.857-7-5.559,2.22.448,4.8,2.6,6.523,4.354.327-1.377-.654-3.528-1.2-4.836a11.564,11.564,0,0,1-6.523-2.65c1.773-.327,3.855,1.136,5.8,1.446.448-1.1-.809-2.564-1.2-3.614-2.754.086-5.318.017-6.041-1.928a7.579,7.579,0,0,1,5.559.723,10.115,10.115,0,0,0-1.446-2.891c-2.392.138-4.372-.12-5.559-1.2,1.394-.585,3.442.241,4.836.482-.034-1.411-1.1-1.79-1.446-2.891-2.014,0-3.855-.155-5.077-.964.585-.929,2.478-.774,3.614-.482.465-.792-1.05-1.687-1.446-2.41-1.7.447-4.7.447-5.318-.964a17.6,17.6,0,0,1,4.354.241c.482-.189.568-2.151.482-3.614.534,2.6.878,5.4,2.891,6.523a34.283,34.283,0,0,1,.241-5.077c1.411,3.046-.069,7.487,2.651,9.173a32.023,32.023,0,0,1,.482-6.764c1.876,3.253-.826,8.485,1.446,10.86.671-1.824.706-4.285,1.2-6.282,1.583,4.062-1.824,8.347.964,11.342.826-2.392.981-5.456,2.169-7.487,1.411,5.645-3.184,9.638-.241,14.251.947-2.754,1.394-6.024,2.41-8.692,1.377,5.886-3.167,8.554-1.687,14.01,1.48-2.53,2.2-5.835,3.855-8.21.224,5.7-4.423,8.623-3.614,15.7,1.549-1.91,2.22-4.7,3.614-6.764.688,5.353-4.354,7.074-3.855,13.046C286.279,285.481,287.329,282.831,289.033,280.834Z" transform="translate(-177.3 -239.786)" fill="#259146"/><path d="M694.6,230.1c2.169.895,3.408,2.719,4.836,4.354C698.163,233.611,695.409,232.2,694.6,230.1Z" transform="translate(-605.568 -230.1)" fill="#259146"/><path d="M284.9,246.9c.034,1.876-3.064,2.737-4.1,4.354C280.886,250.428,283.21,247.726,284.9,246.9Z" transform="translate(-262.987 -244.009)" fill="#259146"/><path d="M267.659,261.573c1.515,0,3.218-.585,4.6,0-1.6,1.583-5.077.31-6.454,1.687a8.426,8.426,0,0,0,1.377-5.06C267.538,259.043,267.487,261.315,267.659,261.573Z" transform="translate(-250.568 -253.364)" fill="#259146"/><path d="M264.789,287.6c-.069.086-.12.155-.189.241A1.3,1.3,0,0,1,264.789,287.6Z" transform="translate(-249.575 -277.704)" fill="#259146"/></g><path d="M455.132,190.3l-3.924,2.84-3.924-2.84h2.96s-.912-2.169.12-2.41c0,0-1.2-2-.31-2.237,0,0-1.325-1.566.12-2.289,0,0-1.033-1.756.069-2.289,0,0-1.274-2.048,0-2.41,0,0-1.084-2,.069-2.289V170.83s-1.5-.929-1.033,4.1l-.361.361.12,1.446s-1.325-.671-.843-1.635l-.912.361a3.365,3.365,0,0,1,0-2.169s-.172-.361-.516.482c0,0-1.79-1.446.086-3.373v-.43s-.843-1.033.792-1.807c0,0,1.033-1.515-.878-1.566,0,0-.465,1.807-1.067,1.807,0,0-.069,1.325-.706,1.325,0,0,.086,1.36-.843,1.687,0,0,.241.964-.207,1.084,0,0-.086.843.207,1a4.058,4.058,0,0,1-1-4.63l1.325-2.737s.361-.809-1-.568l-.086.929s-.379.6-.568-.155c0,0-.878-.688-.792,1.411l.155,1.17s-.327.637-.6-.4c0,0-1.446.034,0,2.823a3.841,3.841,0,0,1-1-4.991l3.425-3.666s-.155-1.532-2.616-.361a6.06,6.06,0,0,0-1.36,1.119s1.2-3.425,4.492-3.941h2.341s.809-1.928-2.582-1c0,0-.568-2.616,2.857-1.979l2.289,1.979.207.034v-2.5l1.377-1.446,1.618,1.411v2.53l2.341-2.048s3.184-.843,3.3,1.859c0,0-3.459-.843-2.943,1.119h2.943a5.056,5.056,0,0,1,4.268,3.735s-2.375-2.375-4.268-.878l4.062,4.182a3.677,3.677,0,0,1-.929,4.716s1.084-2.341-.207-2.857c0,0-.275-.086-.6.516,0,0,.361-2.1-.327-2.582a.8.8,0,0,0-1,.327.936.936,0,0,0-1.325-1s-.155.809,1.36,2.943c0,0,1.291,3.253-.723,4.871,0,0,.207-2.1-.964-2.7a1.109,1.109,0,0,0-.723-1.566s.4-.568-.688-1.084c0,0-.482-.207-.4-1.119,0,0-1.239-1.05-1.2.757,0,0,1.773,1.36.878,2.134,0,0,1.859,1.687.688,2.771,0,0,.275,1.566-.688.929,0,0-.568-.964-.447.964,0,0,.6,1.239-.637.723a2.13,2.13,0,0,1-.878,1.5v-1.5h-.361V171.88a.856.856,0,0,0-1.05-.964v5.232s1.05.516.034,2.461c0,0,1.2.241.034,2.341,0,0,1.084.241.086,2.289,0,0,1.411.086.206,2.5,0,0,1.05,0-.327,2.134,0,0,1.2-.12.121,2.289Z" transform="translate(-381.469 -145.203)" fill="#259146"/><path d="M393.208,349.5l-1.36,1.084c-2.289.964-4.63-1.291-4.63-1.291-.843-.688.568-1.084.568-1.084,2.1-.757.4-2.014.4-2.014-2.048-.361-1.411,1.2-1.411,1.2.482,1.17-.637,1-.637,1l-3.838-3.632c2.375-2.272,7.125-6.592,10.86-8.433,0,0,3.425-2.5,13.166-2.891a17.546,17.546,0,0,0-16.264,2.134s-6.643,4.234-9.294,7.366l-.1.1-.1-.1c-2.65-3.132-9.294-7.366-9.294-7.366A17.546,17.546,0,0,0,355,333.442c9.741.4,13.166,2.891,13.166,2.891,3.735,1.859,8.5,6.161,10.86,8.433l-3.838,3.632s-1.119.155-.637-1c0,0,.637-1.566-1.411-1.2,0,0-1.687,1.239.4,2.014,0,0,1.411.4.568,1.084,0,0-2.341,2.255-4.63,1.291l-1.36-1.084a1.625,1.625,0,0,0-2.289,1.325s1.618,4.148,6.953,2.169a8.769,8.769,0,0,0,3.545-2.5l.757.688s-.086,1.566,1.2,1.652a1.145,1.145,0,0,0,.843-1.291,1.556,1.556,0,0,0-1.532-.964l-.637-.568s2.427-2.237,3.683-3.631c1.256,1.394,3.683,3.631,3.683,3.631l-.637.568a1.556,1.556,0,0,0-1.532.964,1.163,1.163,0,0,0,.843,1.291c1.291-.086,1.2-1.652,1.2-1.652l.757-.688a8.654,8.654,0,0,0,3.545,2.5c5.353,1.979,6.953-2.169,6.953-2.169A1.6,1.6,0,0,0,393.208,349.5Z" transform="translate(-311.078 -292.359)" fill="#259146"/><path d="M399.364,465.4h10.258s-2.65,21.858-25.834,21.858c0,0-19.431.241-24.388-21.858h10.017a18.008,18.008,0,0,0,15.094,10.258C384.511,475.675,395.508,475.675,399.364,465.4Z" transform="translate(-314.72 -402.511)" fill="#259146"/><path d="M343.122,461.9h11.824s-3.253,32.116-37.9,35.127c0,0-33.441,2.891-41.048-34.525h11.583s4.1,23.183,27.882,23.183C315.465,485.685,337.443,487.131,343.122,461.9Z" transform="translate(-245.674 -399.614)" fill="#259146"/><g transform="translate(0 0)"><path d="M168.747,237.894a69.384,69.384,0,0,1-13.889-1.394,68.338,68.338,0,0,1-12.943-4.027,70.16,70.16,0,0,1-11.721-6.351A69.132,69.132,0,0,1,111.572,207.5a67.651,67.651,0,0,1-6.351-11.721,69.367,69.367,0,0,1-4.027-40.721,68.338,68.338,0,0,1,4.027-12.943,70.159,70.159,0,0,1,6.351-11.721,69.131,69.131,0,0,1,18.622-18.622,67.651,67.651,0,0,1,11.721-6.351,69.367,69.367,0,0,1,40.721-4.027,68.339,68.339,0,0,1,12.943,4.027,70.159,70.159,0,0,1,11.721,6.351,69.131,69.131,0,0,1,18.622,18.622,67.651,67.651,0,0,1,6.351,11.721,69.367,69.367,0,0,1,4.027,40.721,68.337,68.337,0,0,1-4.027,12.943,70.158,70.158,0,0,1-6.351,11.721A69.132,69.132,0,0,1,207.3,226.121a67.652,67.652,0,0,1-11.721,6.351,68.342,68.342,0,0,1-26.832,5.421Zm0-134.968a66.04,66.04,0,0,0-25.7,5.18,65.4,65.4,0,0,0-11.2,6.093,67.373,67.373,0,0,0-9.776,8.055,66.606,66.606,0,0,0-14.147,20.98,64.975,64.975,0,0,0-3.838,12.392,66.228,66.228,0,0,0,3.838,39,65.4,65.4,0,0,0,6.093,11.2,67.373,67.373,0,0,0,8.055,9.776,66.606,66.606,0,0,0,20.98,14.147,64.974,64.974,0,0,0,12.392,3.838,66.229,66.229,0,0,0,39-3.838,65.4,65.4,0,0,0,11.2-6.093,67.374,67.374,0,0,0,9.776-8.055,66.605,66.605,0,0,0,14.147-20.98,64.973,64.973,0,0,0,3.838-12.392,66.228,66.228,0,0,0-3.838-39,65.4,65.4,0,0,0-6.093-11.2,67.375,67.375,0,0,0-8.055-9.776,66.606,66.606,0,0,0-20.98-14.147,64.976,64.976,0,0,0-12.392-3.838A66.2,66.2,0,0,0,168.747,102.926Z" transform="translate(-99.8 -100)" fill="#259146"/></g><g transform="translate(34.863 66.14)"><path d="M601.684,492.663s-.878,1.084-1.084-.6c0,0,1.532-1.291,2.7,1.687,0,0,.155,2.289-1.17,2.375a3.466,3.466,0,0,0,.361-2.7S602.545,492.491,601.684,492.663Z" transform="translate(-549.271 -490.494)" fill="#fff"/><path d="M590.466,504.015a3.31,3.31,0,0,0,1.17,2.771s.809,2.341-1.187,3.373c0,0-.723.189,0-.964,0,0,1.17-1-.155-3.408,0,0-1.153-1.428-.516-2.031C589.795,503.774,590.466,503.361,590.466,504.015Z" transform="translate(-540.152 -500.313)" fill="#fff"/><path d="M562.315,516.536A5.241,5.241,0,0,1,559.2,513.3a6.6,6.6,0,0,1,4.44,3.236s.878,2.513-1.394,3.132a4.813,4.813,0,0,1,.6-1.652s.447-1.291-.207-1.962a5.456,5.456,0,0,0-2.272-1.652S561.609,515.882,562.315,516.536Z" transform="translate(-514.996 -508.308)" fill="#fff"/><path d="M671.692,486.739a5.9,5.9,0,0,1-4.492-2.392,7.422,7.422,0,0,1,5.9,1.91s1.859,2.41-.293,3.924a5.824,5.824,0,0,1,.017-2.031s0-1.583-.947-2.065a6.283,6.283,0,0,0-3.012-1A30.657,30.657,0,0,0,671.692,486.739Z" transform="translate(-604.408 -484.294)" fill="#fff"/><path d="M505.51,539.44a5.192,5.192,0,0,1-.6-4.44,6.572,6.572,0,0,1,1.669,5.232s-.775,2.547-2.977,1.721c0,0,.138-.241,1.463-.981,0,0,1.136-.774.981-1.7a5.417,5.417,0,0,0-.843-2.668C505.2,536.566,505.338,538.494,505.51,539.44Z" transform="translate(-468.965 -526.273)" fill="#fff"/><path d="M580.227,594.217A5.29,5.29,0,0,1,578.351,590a6.51,6.51,0,0,1,3.15,4.613s-.017,2.823-2.375,2.788a5.9,5.9,0,0,1,1.136-1.515s.878-1.187.465-2.065a5.474,5.474,0,0,0-1.6-2.375C579.108,591.446,579.8,593.322,580.227,594.217Z" transform="translate(-530.842 -571.807)" fill="#fff"/><path d="M402.532,592.882a5.25,5.25,0,0,1,1.979-4.182,6.479,6.479,0,0,1-1.446,5.4s-2.134,1.824-3.666.017a5.847,5.847,0,0,1,1.893-.12s1.463-.12,1.859-1a5.583,5.583,0,0,0,.757-2.754A29,29,0,0,0,402.532,592.882Z" transform="translate(-382.699 -570.731)" fill="#fff"/><path d="M455.782,535.423a5.216,5.216,0,0,1,.757-4.423,6.62,6.62,0,0,1,.017,5.49s-1.5,2.186-3.356.74a5.033,5.033,0,0,1,1.7-.5s1.308-.4,1.463-1.325a5.633,5.633,0,0,0,0-2.805C456.367,532.583,455.9,534.459,455.782,535.423Z" transform="translate(-427.24 -522.961)" fill="#fff"/><path d="M558.985,532.729s-.516-.207-.189,1.6c0,0,1.05,3.287-1.928,3.89,0,0-.568.155.241-.757a3.213,3.213,0,0,0,1.17-3.2s-.637-2.186.31-2.461C558.589,531.817,559.243,531.748,558.985,532.729Z" transform="translate(-512.905 -523.624)" fill="#fff"/><g transform="translate(41.054 10.534)"><path d="M542.69,545.982a3.53,3.53,0,0,1-1.48-.482l-.31.843c.6.275.31,1,.31,1,0,1.842,1.48,1.084,1.48,1.084C543.895,546.911,542.69,545.982,542.69,545.982Zm-.069,1.6s-.809.43-1-.241a4.459,4.459,0,0,1,0-.964C541.64,546.361,543.172,546.584,542.621,547.583Z" transform="translate(-540.9 -545.5)" fill="#fff"/></g><path d="M475.194,541.865a7.14,7.14,0,0,1,0-4.165,5.824,5.824,0,0,1,1.084,4.853s-.327,1.755-1.721,1.394c0,0-.964.155-1.2-1.153,0,0-1.084,3.408-3.253,1.325,0,0,2.513.189,2.874-2.014l.6-1.325a5.05,5.05,0,0,1,.275,1.755s.757,1.325,2.014-.069a5.531,5.531,0,0,0-.516-3.287A8.66,8.66,0,0,0,475.194,541.865Z" transform="translate(-441.231 -528.508)" fill="#fff"/><g transform="translate(14.393 1.741)"><path d="M431.5,559.6Z" transform="translate(-423.667 -548.38)" fill="#fff"/><path d="M398.451,504.939a14.352,14.352,0,0,1-1.17-1.756c-.843-1.119-2.633.878-2.633.878-1.325-.241-1-1.084-1-1.084l2.805-3.735-.757.12-2.478,3.253c-1.411.361-1.635-1.222-1.635-1.222.671-.447.207-.706.207-.706a1.967,1.967,0,0,1-2.014-.482c-.637-.757.6-1.652.6-1.652.964-1.153-.447-1.274-.447-1.274l-2.96-.034c-.361-1.033,1.274-2.237,1.274-2.237a2.451,2.451,0,0,1,2.719.964c1.05,1.153,1.084.757,1.084.757l-1.755-2.083c-2.083-.964-3.838,1.291-3.838,1.291-1.05,1.48,0,2,0,2h2.874c.878.31-.43,1.291-.43,1.291-.361,2.014,2.014,2.151,2.014,2.151-.241,2.031,2.014,1.807,2.014,1.807a1.413,1.413,0,0,0,1.153,1.549,4.289,4.289,0,0,1-.275.895l.654-.688c2.41.034,2.754.327,2.754.327C399.054,505.662,398.451,504.939,398.451,504.939Zm-3.064-.654a.8.8,0,0,1,.688-.723c1.015-.086,1.033.723,1.033.723Z" transform="translate(-385.989 -494.408)" fill="#fff"/></g><path d="M419.812,499.523V498.8H418.9v.723l.62.155v.6l.792.189V499.8Z" transform="translate(-398.843 -496.303)" fill="#fff"/><g transform="translate(53.514 1.955)"><path d="M626.322,500.479c1.119-1.842-.413-2-.413-2l-.121.843c-.688.688-.516-1.342-.516-1.342a3.356,3.356,0,0,0-3.528-2.323c.069,1.325,2.392,2.719,2.392,2.719-.069-.448-1.325-1.721-1.325-1.721,1.652.4,2,1.084,2,1.084l.069.964c-.172,1.36.723,1.6.723,1.6a2.462,2.462,0,0,1-.878,2.909l-.964.069.069.31a1.546,1.546,0,0,1-1.2,2.082l-3.614-3.2-.12.637,3.408,3.132c.155,1.807-1.756,1.842-1.756,1.842l-2.564-2.668.327-1.429,1.411,1.807a37.482,37.482,0,0,0-1.807-3.408,12.258,12.258,0,0,1-1.635,5.4,4.465,4.465,0,0,0,1.515-1.773l2.255,2.478c.637,1.033-1.2,2.2-1.2,2.2l-.723-.447c-1.222-1.239-1.635.189-1.635.189l.034,3.373-.207.43c-2.874-.189-2.461-3.236-2.461-3.236,2.031-1.893,1.893-2.65,1.893-2.65l-2.186,2.323a2.983,2.983,0,0,0,1.2,3.718c1.394,1.411,2.358.327,2.358.327l-.086-2.513c-.275-1.962.516-1.652.516-1.652.723,1.033,1.274.912,1.274.912,2.151.086,2-2.513,2-2.513a1.929,1.929,0,0,0,2.014-2.53c1.239.379,1.532-1.377,1.532-1.377.671,1.274,1.411.568,1.411.568.671-1.05-.4-2.082-.4-2.082C626.7,503.232,626.322,500.479,626.322,500.479Zm-1.635,3.752a.55.55,0,0,1,.671.6C625.341,504.833,624.687,505.246,624.687,504.231Z" transform="translate(-613.292 -495.651)" fill="#fff"/></g><path d="M529,599.375s-2.151-2.358-1.394-4.475a5.725,5.725,0,0,1,2.685,4.475s.688,3.2-2.6,2.237a3.687,3.687,0,0,1-3.322,1.36,2.11,2.11,0,0,0-1.153,1.515s-.413,1.756-3.218,1.2c0,0-1.016-.12,1.222-.516a5.016,5.016,0,0,0,2.169-2.513,2.564,2.564,0,0,1,1.842-.6s1.6-.516,1.876-.929c0,0-.121-.43-1.015-.241,0,0-.224-1.033,1.188-1.446,0,0,.878-.207.843.637l.034.843s1.928.207,1.6-1.962a7.173,7.173,0,0,0-1.566-2.478Z" transform="translate(-482.348 -575.864)" fill="#fff"/><path d="M458.445,615.745s1.515.878.224,3.167c0,0-2.41,1.48-3.821,0,0,0,.034-.31-.551-.069a2.709,2.709,0,0,1-3.8-.43,1.629,1.629,0,0,1-.189-1.274s-.516-.809-1.377.361l-1.7,1.755s-1.36.774-1.446-1.618c0,0-.878-3.786,2.358-3.838a12.18,12.18,0,0,0,2.633.361s-.792.568-3.012.155c0,0-1.446-.12-1.239,2.151,0,0,.069,2.031.912,1.893l2.272-2.375s1.136-.826,1.222.929a1.473,1.473,0,0,0,.947,1.566s2.513.671,3.132-1.119l.637,1.05s1.807.671,2.805-.275c0,0,.6-.568-.275-.929C458.169,617.225,457.206,616.433,458.445,615.745Z" transform="translate(-421.005 -591.511)" fill="#fff"/><path d="M348.339,574.975s1.084-3.855,2.409-4.01a5.784,5.784,0,0,1-1.876,5.68s-.843.6-2.41-.327l-3.528-2.926v-.757l-.912-.12-1.36-1.05v-.6s-2.805,1.6-3.563-1.962c0,0,1.394,2.151,3.236,1.635v-.344s-.757-.6-.189-1.067c0,0,1.05-.189,1.05.241l.086,1.6,1.274,1.05h.327v-.6l-.241-.034.12-.482,1.222.12.189,1.36-.482.189.034.551.878.688.671-.4-.241.637.671.568.843-.207-.4.482.31.207.878-.275-.568.671s1.325,1.5,2.53.189a4.8,4.8,0,0,0,.688-3.287C350.008,572.342,348.7,574.924,348.339,574.975Z" transform="translate(-331.121 -554.339)" fill="#fff"/><path d="M328.244,539.9a1.815,1.815,0,0,1,1.807-2.2h.809s.964,3.012-1.05,3.769c0,0-2.6,1.308-4.01-2.083v-.379a20.508,20.508,0,0,0,2.65,2.255,1.494,1.494,0,0,0,1.79-1.532s.448-1.291-.516-1.532c0,0-.551-.155-.43,1.394A.842.842,0,0,1,328.244,539.9Z" transform="translate(-321.766 -528.508)" fill="#fff"/><path d="M309.167,497.211h-1l-.43,1h-.482l-1.274-1.652v-.981l.929-.912s.809-.671-.929-1.239c0,0-2.323-.482-2.444-.447a1.526,1.526,0,0,1,.361-1.928s1.962-1.893,3.115.275a3.577,3.577,0,0,0,1.532,2.014,13.972,13.972,0,0,1-1.239-2.478s-1.377-2.392-3.959-.086c0,0-1.583,1.17-.74,2.564.034.189.792.671,2.719.516,0,0,1.721.31.275,1.411,0,0-.809.155-.6,1.583l1.807,2.134s1.033.809,2.358-1.153v-.62Z" transform="translate(-302.363 -488.829)" fill="#fff"/><path d="M579.5,499.9h1.1v.929l-.947-.155Z" transform="translate(-531.802 -497.214)" fill="#fff"/><path d="M534.217,534.968V534.4l.878.1v.809l-.878-.12-.155.757-.809-.43s-.069-.671,0-.688A7.2,7.2,0,0,1,534.217,534.968Z" transform="translate(-493.489 -525.776)" fill="#fff"/><path d="M617.3,562.4v-.6h.947v.809H617.3v.878h-1l.189-.843Z" transform="translate(-562.269 -548.461)" fill="#fff"/><path d="M511.616,650.5l.706.809-.706.6-.516-.568Z" transform="translate(-475.174 -621.894)" fill="#fff"/><path d="M490.465,653.1l.74.637-.74.878-.654-.757-.568.757-.843-.757.774-.757.62.465Z" transform="translate(-456.381 -624.047)" fill="#fff"/><path d="M467.26,605.323l.637-.344.654.809-.878.6-.568-.6-.637.258-.568-.843.723-.6Z" transform="translate(-437.754 -583.894)" fill="#fff"/><path d="M451.306,533.5l.241.929H450.6v-.774Z" transform="translate(-425.087 -525.031)" fill="#fff"/><path d="M401,539.675v.706h-.775v-.706h-.706l-.12-.775h.947l.086.74Z" transform="translate(-382.699 -529.502)" fill="#fff"/><path d="M315.515,536.66s.12.74,0,.74H314.4l.189-1.05H314V535.3l1.033.155-.034.895Z" transform="translate(-311.997 -526.521)" fill="#fff"/><path d="M338.732,499.328l-.258.964-.585-.275v-.895l-.688-.344V497.9l1.119.155-.31.947Z" transform="translate(-331.204 -495.558)" fill="#fff"/></g></g></svg>