<svg xmlns="http://www.w3.org/2000/svg" width="174.08" height="137.894" viewBox="0 0 174.08 137.894"><g transform="translate(0)"><path d="M692.409,523.3l-.109.087v1.631l.109.109h1.631l.109-.109v-1.631l-.109-.087h-1.631" transform="translate(-563.409 -449.297)" fill="#006a3b"/><path d="M675.645,539.57l-.174.043v9.547a2.311,2.311,0,0,1-2.283,2.61,2.525,2.525,0,0,1-2.175-.87l-.087-.044-.283.152-.044.109a2.854,2.854,0,0,0,2.653,1.87c1.827,0,3.827-.826,3.827-4.219v-9.46l-.087-.109-1.348.37" transform="translate(-546.428 -461.739)" fill="#006a3b"/><path d="M600.94,525.127l.109-.109v-1.631l-.109-.087h-1.631l-.109.087v1.631l.109.109h1.631" transform="translate(-490.555 -449.297)" fill="#006a3b"/><path d="M587.04,525.127l.109-.109v-1.631l-.109-.087h-1.631l-.109.087v1.631l.109.109h1.631" transform="translate(-479.678 -449.297)" fill="#006a3b"/><path d="M586.668,541.414c0-2.2-1.609-3.414-3.784-3.414s-3.784,1.2-3.784,3.414v3.392c0,2.2,1.609,3.414,3.784,3.414s3.784-1.2,3.784-3.414v-3.392m-1.588,3.066a2.2,2.2,0,1,1-4.393,0v-2.74a2.2,2.2,0,1,1,4.393,0Z" transform="translate(-474.826 -460.8)" fill="#006a3b"/><path d="M661.374,514.048l-.087.022-.087.087v15.048a3.439,3.439,0,0,0,1.588-2.544V513.787l-.13-.087-1.283.348" transform="translate(-539.073 -441.785)" fill="#006a3b"/><path d="M618.489,539.548l-.174.043v9.568c0,1.479-.8,2.631-2.283,2.631a2.525,2.525,0,0,1-2.175-.892l-.109-.044-.3.152-.043.109a2.854,2.854,0,0,0,2.653,1.87c1.827,0,3.827-.826,3.827-4.219v-9.46l-.087-.109-1.3.348" transform="translate(-501.667 -461.739)" fill="#006a3b"/><path d="M722.781,538.261l-1.3.348a5.4,5.4,0,0,0-2.262-.609c-2.022,0-3.893,1.2-3.914,3.414v3.349a3.245,3.245,0,0,0,3.349,3.458,2.656,2.656,0,0,0,2.74-1.544l-.109.87v.674A2.311,2.311,0,0,1,719,550.83a2.5,2.5,0,0,1-2.175-.87l-.109-.044-.283.152-.043.109a2.854,2.854,0,0,0,2.653,1.87c1.827,0,3.827-.826,3.827-4.219v-9.46l-.087-.109m-1.479,8.09a3.268,3.268,0,0,1-1.979.457,2.215,2.215,0,0,1-2.436-2.305v-2.74a2.257,2.257,0,0,1,2.37-2.327,1.835,1.835,0,0,1,2.022,2.088v4.828Z" transform="translate(-581.408 -460.8)" fill="#006a3b"/><path d="M543.474,514.048l-.087.022-.087.087v15.048a3.439,3.439,0,0,0,1.587-2.544V513.787l-.13-.087-1.283.348" transform="translate(-446.811 -441.785)" fill="#006a3b"/><path d="M375.842,513.631l-.087-.087-1.3.348-.087.022-.087.087v12.874l.174.587H363.555a1.016,1.016,0,0,1-.522-.783v-4.11c0-1.522.848-2.327,2.066-2.327h1.8a4.505,4.505,0,0,1,2.24.544l.109-.065.065-.261a2.5,2.5,0,0,0-2.61-1.653h-1.631a3.287,3.287,0,0,0-3.588,3.414v3.5a2.014,2.014,0,0,0,.739,1.718h-6.393v-2.653c0-2.218-1.609-3.414-3.784-3.414s-3.784,1.2-3.784,3.414v2.653h-6.176V513.609l-.109-.109-1.3.37-.087.022-.087.087v14.266c0,1.5-.457,3.153-3.131,3.153-3.414,0-3.2-2.849-3.2-2.849a4.608,4.608,0,0,1,.087-1.022,3.694,3.694,0,0,1,.413-1.153l-.043-.13-.2-.087-.13.043a4.681,4.681,0,0,0-1.022,2.87s-.3,3.806,4.132,3.806c4.632,0,4.632-3.827,4.632-3.827h6.459a4.1,4.1,0,0,0,7.046,0h19.333l1.327-.3.109-.109-.5-1.74.022-13.265m-21.572,13.678a2.059,2.059,0,0,1-2.218,2.327,2.034,2.034,0,0,1-2.2-2.327v-2.175a2.018,2.018,0,0,1,2.2-2.305,2.042,2.042,0,0,1,2.218,2.305Z" transform="translate(-282.463 -441.628)" fill="#006a3b"/><path d="M393.665,812.1l-.065.065v.957l.065.065h.957l.044-.065v-.957l-.044-.065h-.957" transform="translate(-329.666 -675.294)" fill="#8a6d43"/><path d="M129.465,812.1l-.065.065v.957l.065.065h.957l.065-.065v-.957l-.065-.065h-.957" transform="translate(-122.92 -675.294)" fill="#8a6d43"/><path d="M385.565,812.1l-.065.065v.957l.065.065h.957l.043-.065v-.957l-.043-.065h-.957" transform="translate(-323.327 -675.294)" fill="#8a6d43"/><path d="M137.565,812.1l-.065.065v.957l.065.065h.957l.043-.065v-.957l-.043-.065h-.957" transform="translate(-129.258 -675.294)" fill="#8a6d43"/><path d="M424.944,812.1l-.044.065v.957l.044.065h.957l.065-.065v-.957l-.065-.065h-.957" transform="translate(-354.159 -675.294)" fill="#8a6d43"/><path d="M454.919,765.044l-.065-.044-.761.2-.043.022-.044.044v7.5l.109.348h-6.763a.646.646,0,0,1-.3-.457v-2.392a1.182,1.182,0,0,1,1.218-1.348h1.044a2.788,2.788,0,0,1,1.3.3l.065-.022.043-.152a1.441,1.441,0,0,0-1.522-.957h-.957a1.912,1.912,0,0,0-2.088,1.979v2.044a1.17,1.17,0,0,0,.435,1h-4.806v-4.828l-.065-.044-.761.2-.109.022v5.567c0,.87-.457,1.522-1.327,1.522a1.433,1.433,0,0,1-1.261-.522L438.2,775l-.174.087-.022.065a1.992,1.992,0,0,0,1.783,1.087c1.022,0,1.914-.457,2-2.24h12.635l.783-.2.065-.065-.283-1-.065-7.7" transform="translate(-364.41 -638.436)" fill="#8a6d43"/><path d="M524.109,765.2l-.043.022-.065.044v8.764a1.966,1.966,0,0,0,.913-1.479v-7.5L524.87,765l-.761.2" transform="translate(-431.709 -638.436)" fill="#8a6d43"/><path d="M370.371,777.909l-.065-.044-.761.2-.043.022-.065.065v4.262l.109.348h-4.719a1.091,1.091,0,0,1-1.24-1.24v-3.588l-.065-.044-.761.2-.043.022-.065.065v3.371a1.091,1.091,0,0,1-1.24,1.24h-3.436a1.091,1.091,0,0,1-1.24-1.24v-4.023l-.065-.065-.761.2a3.24,3.24,0,0,0-1.327-.348,2.088,2.088,0,0,0-2.283,1.979v1.957a1.881,1.881,0,0,0,1.957,2,1.609,1.609,0,0,0,1.609-.892h0a1.648,1.648,0,0,0,1.674,1.348H361.8a1.694,1.694,0,0,0,1.3-.565,1.662,1.662,0,0,0,1.3.565h5.393l.783-.2.065-.065-.283-1v-4.523m-14.548,4.2a1.953,1.953,0,0,1-1.153.261,1.288,1.288,0,0,1-1.414-1.348v-1.588a1.311,1.311,0,0,1,1.392-1.348,1.069,1.069,0,0,1,1.174,1.218Z" transform="translate(-297.347 -648.061)" fill="#8a6d43"/><path d="M366.8,768.466l.065-.065v-.935l-.065-.065h-.957l-.043.065v.935l.043.065h.957" transform="translate(-307.911 -640.314)" fill="#8a6d43"/><path d="M358.7,768.466l.065-.065v-.935l-.065-.065h-.957l-.044.065v.935l.044.065h.957" transform="translate(-301.573 -640.314)" fill="#8a6d43"/><path d="M106,768.466l.065-.065v-.935L106,767.4h-.957l-.044.065v.935l.044.065H106" transform="translate(-103.826 -640.314)" fill="#8a6d43"/><path d="M114.1,768.466l.065-.065v-.935l-.065-.065h-.957l-.044.065v.935l.044.065h.957" transform="translate(-110.164 -640.314)" fill="#8a6d43"/><path d="M218.814,765.044l-.065-.044-.761.2-.043.022-.065.044v7.5l.087.348h-2.479a5.554,5.554,0,0,1-1.522-.217,2.483,2.483,0,0,0,.13-.848v-3.088h-.022l-.087-.065-.739.2-.043.022-.022.022v2.718a1.152,1.152,0,0,1-1.218,1.327,5.9,5.9,0,0,1-1.2-.261,2.968,2.968,0,0,0,.13-.8v-3.2l-.065-.065-.739.2-.043.022-.043.044h0v2.7c0,.979-.457,1.348-1.109,1.348a7.07,7.07,0,0,1-1.174-.261v-3.98l-.087-.065-.739.2-.044.022-.044.044v3.523l-.109.413h-6.524a.587.587,0,0,1-.3-.457V770.2a1.182,1.182,0,0,1,1.218-1.348h1.044a2.786,2.786,0,0,1,1.3.3l.065-.022.022-.152a1.468,1.468,0,0,0-1.522-.957h-.957A1.9,1.9,0,0,0,198.959,770v2.044a1.2,1.2,0,0,0,.435,1h-3.806c-.413,0-.565-.065-.674-.174v-4.654l-.044-.043-.761.2a3.1,3.1,0,0,0-1.327-.37,2.088,2.088,0,0,0-2.283,1.979v1.957a1.911,1.911,0,0,0,1.957,2.022,1.569,1.569,0,0,0,1.587-.891l-.065.5v.391a1.341,1.341,0,0,1-1.348,1.522,1.433,1.433,0,0,1-1.261-.522l-.065-.022-.174.087-.022.065a1.969,1.969,0,0,0,1.783,1.087c1.044,0,1.957-.478,2-2.37a2.209,2.209,0,0,0,.8.152h11.526l.065-.043.326-.892a1.522,1.522,0,0,0,1.609.935,1.448,1.448,0,0,0,1.413-.848,1.771,1.771,0,0,0,1.674.848,1.657,1.657,0,0,0,1.5-.848,1.738,1.738,0,0,0,1.587.848h2.827l.783-.2.065-.065-.283-1v-7.655M194,772.937a1.954,1.954,0,0,1-1.153.261,1.3,1.3,0,0,1-1.414-1.348v-1.609a1.311,1.311,0,0,1,1.392-1.348A1.069,1.069,0,0,1,194,770.11v2.827Z" transform="translate(-170.733 -638.436)" fill="#8a6d43"/><path d="M110.234,777.831l-.065-.043-.761.2-.043.022-.065.065v4.262l.087.348h-4.132a1.091,1.091,0,0,1-1.24-1.24v-4.023l-.065-.065-.761.2a3.24,3.24,0,0,0-1.327-.348,2.057,2.057,0,0,0-2.262,1.979v1.957a1.881,1.881,0,0,0,1.957,2,1.679,1.679,0,0,0,1.631-.892h0a1.647,1.647,0,0,0,1.674,1.348h4.784l.783-.2.043-.065-.283-1,.044-4.5m-7.111,1.783v2.436a1.894,1.894,0,0,1-1.153.261,1.288,1.288,0,0,1-1.414-1.348v-1.609A1.311,1.311,0,0,1,101.949,778a1.069,1.069,0,0,1,1.174,1.218Z" transform="translate(-99.6 -647.983)" fill="#8a6d43"/><path d="M161.067,781.179a1.912,1.912,0,0,0-2.088-1.979h-.957a1.441,1.441,0,0,0-1.522.957l.044.152.065.022a2.607,2.607,0,0,1,1.3-.3h1.044c.718,0,1.2.478,1.2,1.348v2.5l.109.348H157.24a4.84,4.84,0,0,1-1.653-.261l-.087.174a1.742,1.742,0,0,0,1.631,1h3.392l.783-.2.065-.065-.283-1v-2.7" transform="translate(-143.344 -649.548)" fill="#8a6d43"/><path d="M329.009,765.2l-.044.022-.065.044v8.764a1.966,1.966,0,0,0,.913-1.479v-7.5l-.087-.044-.718.2" transform="translate(-279.036 -638.436)" fill="#8a6d43"/><path d="M553.822,768.466l.044-.065v-.935l-.044-.065h-.957l-.065.065v.935l.065.065h.957" transform="translate(-454.246 -640.314)" fill="#8a6d43"/><path d="M561.922,768.466l.065-.065v-.935l-.065-.065h-.957l-.065.065v.935l.065.065h.957" transform="translate(-460.584 -640.314)" fill="#8a6d43"/><path d="M746.648,765l-.739.2-.044.022-.065.044v8.764a1.966,1.966,0,0,0,.913-1.479v-7.5l-.065-.044" transform="translate(-605.275 -638.436)" fill="#8a6d43"/><path d="M588.9,765.044l-.065-.044-.761.2-.043.022-.044.044v7.5l.087.348h-3.523v-1.544a2.206,2.206,0,0,0-4.393,0v1.544h-3.5v-1.544a2.206,2.206,0,0,0-4.393,0v1.544h-2.414c-.674,0-1.24-.261-1.24-1.261v-6.807l-.043-.044-.761.2-.043.022-.065.044v6.589a1.107,1.107,0,0,1-1.24,1.261h-3.262a1.17,1.17,0,0,0,.435-1v-1.283a1.912,1.912,0,0,0-2.088-1.979h-4.262c-.739,0-1.066-.348-1.066-1.131v-.5c.022-.739.348-1.066,1.066-1.066h.631a2.788,2.788,0,0,1,1.3.3l.065-.022.022-.152a1.468,1.468,0,0,0-1.522-.957h-.5a1.768,1.768,0,0,0-1.979,1.783v.783a1.768,1.768,0,0,0,1.979,1.783H561.5c.718,0,1.2.478,1.2,1.348v1.631a.646.646,0,0,1-.3.457h-9.112c-.674,0-1.24-.261-1.24-1.261v-1.587h0v-2.414l-.065-.065-.761.217a3.113,3.113,0,0,0-1.326-.348,2.088,2.088,0,0,0-2.283,1.979v1.957a1.893,1.893,0,0,0,1.957,2,1.61,1.61,0,0,0,1.609-.892h0a1.649,1.649,0,0,0,1.674,1.327H566.78a1.631,1.631,0,0,0,1.3-.565,1.7,1.7,0,0,0,1.3.565h2.958a2.366,2.366,0,0,0,4.088,0h3.871a2.366,2.366,0,0,0,4.088,0h3.958l.783-.174.065-.065-.283-1v-7.742M551.1,770.067V772.5a1.894,1.894,0,0,1-1.153.261,1.288,1.288,0,0,1-1.413-1.348v-1.609a1.311,1.311,0,0,1,1.392-1.348,1.069,1.069,0,0,1,1.174,1.218Zm24.617,2.958a1.285,1.285,0,1,1-2.566,0v-1.261a1.285,1.285,0,1,1,2.566,0Zm7.916,0a1.285,1.285,0,1,1-2.566,0v-1.261a1.285,1.285,0,1,1,2.566,0Z" transform="translate(-450.177 -638.436)" fill="#8a6d43"/><path d="M722.781,665.361l-1.3.348a5.4,5.4,0,0,0-2.262-.609c-2.022,0-3.893,1.2-3.914,3.414v3.349a3.245,3.245,0,0,0,3.349,3.458,2.656,2.656,0,0,0,2.74-1.544l-.109.87v.674A2.311,2.311,0,0,1,719,677.93a2.5,2.5,0,0,1-2.175-.87l-.109-.044-.283.152-.043.109a2.854,2.854,0,0,0,2.653,1.87c1.827,0,3.827-.826,3.827-4.219v-9.46l-.087-.109m-1.479,8.09a3.268,3.268,0,0,1-1.979.457,2.215,2.215,0,0,1-2.436-2.305v-2.74a2.257,2.257,0,0,1,2.37-2.327,1.835,1.835,0,0,1,2.022,2.088v4.828Z" transform="translate(-581.408 -560.261)" fill="#006a3b"/><path d="M120.318,647.505l.109-.087v-1.631l-.109-.087h-1.609l-.109.087v1.631l.109.087h1.609" transform="translate(-114.468 -545.08)" fill="#006a3b"/><path d="M107.518,647.505l.087-.087v-1.631l-.087-.087h-1.631l-.087.087v1.631l.087.087h1.631" transform="translate(-104.452 -545.08)" fill="#006a3b"/><path d="M124.874,671.042a6.08,6.08,0,0,1-.674.174,1.837,1.837,0,0,1-.522.087h-2.24a2.2,2.2,0,0,1-1.631-.587,2.4,2.4,0,0,1-.565-1.718v-2.479a2.4,2.4,0,0,1,.565-1.718,2.138,2.138,0,0,1,1.631-.587,2.212,2.212,0,0,1,1.587.565,2.325,2.325,0,0,1,.609,1.631l.087.109h1.392l.087-.109v-.218a3.418,3.418,0,0,0-.283-1.457,3.227,3.227,0,0,0-.783-1.066,3.526,3.526,0,0,0-1.2-.652,5.287,5.287,0,0,0-3,0,3.525,3.525,0,0,0-1.2.652,3.018,3.018,0,0,0-.783,1.066,3.417,3.417,0,0,0-.283,1.457v3.132a3.281,3.281,0,0,0,.587,1.979h-5.132v-8.264l-.087-.087-1.37.2-.087.13v8.046H107v-8.133l-.087-.109-1.283.348c-.217-.109-.457-.2-.674-.283a5.61,5.61,0,0,0-.718-.217,3.748,3.748,0,0,0-.848-.087,4.276,4.276,0,0,0-1.413.217,3.425,3.425,0,0,0-1.131.652,2.971,2.971,0,0,0-.761,1.066,3.782,3.782,0,0,0-.283,1.457v3.327a3.461,3.461,0,0,0,.87,2.566,2.934,2.934,0,0,0,2.153.87,3.953,3.953,0,0,0,1.24-.174,3.426,3.426,0,0,0,.8-.435,3.072,3.072,0,0,0,.457-.5,4.383,4.383,0,0,0,.217-.391l-.087,1.044v.435h17.658a3.336,3.336,0,0,0,1.109-.152,3.29,3.29,0,0,0,.783-.391,1.543,1.543,0,0,0,.478-.522,5.141,5.141,0,0,0,.283-.739l-.087-.326a3.121,3.121,0,0,0-.8.2m-19.441.065c-.087.022-.217.065-.391.109s-.37.109-.565.152-.391.087-.565.13a1.919,1.919,0,0,1-.435.065,3.13,3.13,0,0,1-.8-.109,1.893,1.893,0,0,1-.674-.391,1.7,1.7,0,0,1-.457-.718,3.125,3.125,0,0,1-.174-1.066v-2.74a2.4,2.4,0,0,1,.565-1.718,1.949,1.949,0,0,1,1.479-.587,1.81,1.81,0,0,1,2.022,2.066v4.806Z" transform="translate(-99.757 -558.461)" fill="#006a3b"/><path d="M303.218,647.4l.109-.087v-1.631l-.109-.087h-1.609l-.109.087v1.631l.109.087h1.609" transform="translate(-257.594 -545.001)" fill="#006a3b"/><path d="M316.118,647.4l.087-.087v-1.631l-.087-.087h-1.631l-.087.087v1.631l.087.087h1.631" transform="translate(-267.689 -545.001)" fill="#006a3b"/><path d="M348.787,720.7l-.087.109v1.609l.087.109h1.631l.087-.109v-1.609l-.087-.109h-1.631" transform="translate(-294.53 -603.77)" fill="#006a3b"/><path d="M258.05,650.817v-4.067a3.418,3.418,0,0,0-.283-1.457,3.23,3.23,0,0,0-.783-1.066,3.526,3.526,0,0,0-1.2-.652,4.724,4.724,0,0,0-1.5-.217h-1.435a3.467,3.467,0,0,0-1.131.152,2.918,2.918,0,0,0-.783.391,1.981,1.981,0,0,0-.522.522,2.289,2.289,0,0,0-.283.565l.087.326c.283-.109.544-.2.8-.283l.652-.2a1.856,1.856,0,0,1,.544-.087h2.088a2.285,2.285,0,0,1,1.631.565,2.4,2.4,0,0,1,.565,1.718v4.719l.022.087H245.763v-8.264l-.087-.087-1.37.2-.087.109v8.046h-4.393v-2.653c0-2.218-1.609-3.414-3.784-3.414s-3.784,1.2-3.784,3.414v2.653h-2.479a1.613,1.613,0,0,1-1.348-.587,2.317,2.317,0,0,1-.587-1.718V637.987l-.087-.087-1.37.2-.087.109v11.808a3.418,3.418,0,0,0,.283,1.457,2.934,2.934,0,0,0,.783,1.044,3.329,3.329,0,0,0,1.2.652,3.453,3.453,0,0,0,1.283.218h2.7a4.1,4.1,0,0,0,7.046,0h17.745l1.174-.174.087-.109-.478-1.718v-.565m-19.9.87A2.059,2.059,0,0,1,236,654.014a2.034,2.034,0,0,1-2.2-2.327v-2.175a2.018,2.018,0,0,1,2.2-2.305,2.042,2.042,0,0,1,2.218,2.305Z" transform="translate(-198.748 -538.976)" fill="#006a3b"/><path d="M389.742,638.117l-.109.109v11.286a2.317,2.317,0,0,1-.587,1.718,2.152,2.152,0,0,1-1.609.587h-.674l-.174-.609V637.987l-.087-.087-1.37.2-.087.109v13.526l.044.087h-1.5a1.858,1.858,0,0,1-.544-.087c-.217-.065-.435-.13-.652-.174-.239-.087-.522-.174-.8-.283l-.087.326a2.39,2.39,0,0,0,.261.718,2.178,2.178,0,0,0,.5.5,3.291,3.291,0,0,0,.783.391,3.256,3.256,0,0,0,1.087.174h3.305a4.722,4.722,0,0,0,1.5-.218,3.524,3.524,0,0,0,1.2-.652,3.14,3.14,0,0,0,.783-1.044,3.417,3.417,0,0,0,.283-1.457V637.987l-.087-.087-1.37.217" transform="translate(-320.197 -538.976)" fill="#006a3b"/><path d="M440.509,638.2l-.109.109v14.918l.087.087h1.392l.087-.087V638.065l-.087-.065-1.37.2" transform="translate(-366.289 -539.054)" fill="#006a3b"/><path d="M483.818,647.505l.087-.087v-1.631l-.087-.087h-1.631l-.087.087v1.631l.087.087h1.631" transform="translate(-398.92 -545.08)" fill="#006a3b"/><path d="M496.64,647.505l.087-.087v-1.631l-.087-.087h-1.631l-.109.087v1.631l.109.087h1.631" transform="translate(-408.937 -545.08)" fill="#006a3b"/><path d="M523.387,720.7l-.087.109v1.609l.087.109h1.631l.109-.109v-1.609l-.109-.109h-1.631" transform="translate(-431.161 -603.77)" fill="#006a3b"/><path d="M536.287,720.7l-.087.109v1.609l.087.109h1.631l.087-.109v-1.609l-.087-.109h-1.631" transform="translate(-441.256 -603.77)" fill="#006a3b"/><path d="M147.109,720.7l-.109.109v1.609l.109.109h1.609l.109-.109v-1.609l-.109-.109h-1.609" transform="translate(-136.692 -603.77)" fill="#006a3b"/><path d="M159.987,720.7l-.087.109v1.609l.087.109h1.631l.087-.109v-1.609l-.087-.109h-1.631" transform="translate(-146.787 -603.77)" fill="#006a3b"/><path d="M615.818,647.505l.109-.087v-1.631l-.109-.087h-1.631l-.087.087v1.631l.087.087h1.631" transform="translate(-502.215 -545.08)" fill="#006a3b"/><path d="M637.818,647.4l.087-.087v-1.631l-.087-.087h-1.631l-.087.087v1.631l.087.087h1.631" transform="translate(-519.431 -545.001)" fill="#006a3b"/><path d="M650.618,647.4l.109-.087v-1.631l-.109-.087h-1.609l-.109.087v1.631l.109.087h1.609" transform="translate(-529.447 -545.001)" fill="#006a3b"/><path d="M693.074,638.348l-.087.022-.087.087v15.049a3.439,3.439,0,0,0,1.588-2.544V638.087l-.13-.087-1.283.348" transform="translate(-563.879 -539.054)" fill="#006a3b"/><path d="M520.058,638.087l-.087-.087-1.3.348-.087.022-.087.087v12.874l.174.587H513.9v-8.264l-.087-.087-1.37.2-.109.109v8.046h-4.61v-8.264l-.109-.087-1.37.2-.087.109v8.046H501.53v-2.653c0-2.218-1.609-3.414-3.784-3.414s-3.784,1.2-3.784,3.414v2.653h-4.588v-8.264l-.109-.087-1.37.2-.087.109v8.046H483.22v-8.133l-.109-.087-1.283.348c-.217-.109-.457-.2-.674-.283a5.572,5.572,0,0,0-.718-.217,3.619,3.619,0,0,0-.848-.087,4.279,4.279,0,0,0-1.414.217,3.426,3.426,0,0,0-1.131.652,2.971,2.971,0,0,0-.761,1.066,3.781,3.781,0,0,0-.283,1.457v3.327a3.461,3.461,0,0,0,.87,2.566,2.934,2.934,0,0,0,2.153.87,3.366,3.366,0,0,0,1.24-.2,2.783,2.783,0,0,0,.8-.435,3.07,3.07,0,0,0,.457-.5,2.572,2.572,0,0,0,.217-.37l-.087.848v.609h12.569a4.1,4.1,0,0,0,7.046,0h17.854l1.348-.3.109-.109-.5-1.74-.022-13.33M481.676,651.7c-.087.022-.217.065-.391.109s-.37.109-.565.152-.391.087-.565.13a1.914,1.914,0,0,1-.435.065,3.13,3.13,0,0,1-.8-.109,1.9,1.9,0,0,1-.674-.391,1.7,1.7,0,0,1-.457-.718,3.124,3.124,0,0,1-.174-1.066v-2.74a2.4,2.4,0,0,1,.565-1.718,1.949,1.949,0,0,1,1.479-.587,1.81,1.81,0,0,1,2.022,2.066Zm18.289.065a2.059,2.059,0,0,1-2.218,2.327,2.034,2.034,0,0,1-2.2-2.327v-2.175a2.018,2.018,0,0,1,2.2-2.305,2.042,2.042,0,0,1,2.218,2.305Z" transform="translate(-394.147 -539.054)" fill="#006a3b"/><path d="M805.116,255.668c4.958.391,9.612.87,13.94,1.24-4.067-3.7-10.069-6.807-16.7-8.807-1.7.631-3.414,1.327-5.154,2.066a50.7,50.7,0,0,1,7.916,5.5" transform="translate(-645.498 -233.943)" fill="#c0932d"/><path d="M618.7,248.1c-6.633,2-12.613,5.11-16.7,8.807,4.284-.37,8.894-.783,13.787-1.131a50.308,50.308,0,0,1,8.068-5.632c-1.761-.718-3.479-1.392-5.154-2.044" transform="translate(-492.746 -233.943)" fill="#c0932d"/><path d="M651.714,227.516a40.716,40.716,0,0,0-17.114.979c3.11.87,6.328,1.914,9.59,3.153a56.955,56.955,0,0,1,9.221-1.957c-.544-.761-1.109-1.479-1.7-2.175" transform="translate(-518.257 -217.469)" fill="#fcb615"/><path d="M800.766,285.232q1.207,2.088,2.218,4.241a171.227,171.227,0,0,1,16.984,13.156c-1.979-7.133-6.959-15.157-14.461-21.529-2.544-.2-5.132-.391-7.807-.5a50.254,50.254,0,0,1,3.066,4.632" transform="translate(-645.889 -259.376)" fill="#fcb615"/><path d="M787.721,231.583c3.284-1.24,6.48-2.305,9.59-3.153a41.051,41.051,0,0,0-17.115-.979c-.565.7-1.131,1.435-1.7,2.175a57.957,57.957,0,0,1,9.221,1.957" transform="translate(-630.864 -217.426)" fill="#8a6d43"/><path d="M621.66,281.3c-2.675.13-5.306.3-7.85.478-7.415,6.35-12.352,14.309-14.309,21.4a164.954,164.954,0,0,1,16.984-13.156,46.524,46.524,0,0,1,2.218-4.241,49.873,49.873,0,0,1,2.958-4.48" transform="translate(-490.79 -259.923)" fill="#8a6d43"/><path d="M771.422,290.783c-.174-.087-.348-.2-.522-.283.152,1.761.261,3.523.326,5.328,5.458,8.807,12.743,23.812,15.114,32.663a55.758,55.758,0,0,0-4.328-31.315c-3.349-2.218-6.872-4.371-10.59-6.393" transform="translate(-624.917 -267.123)" fill="#619b42"/><path d="M695.474,203.824c0-.043.044-.174.065-.283h0A42.923,42.923,0,0,0,683.6,197.8a54.929,54.929,0,0,1,6.459,6.85c1.653.239,3.349.565,5.045.979.13-.631.239-1.218.37-1.8" transform="translate(-556.601 -194.582)" fill="#619b42"/><path d="M761.1,203.363a.852.852,0,0,1,.065.283h0c.13.587.261,1.2.37,1.783,1.7-.413,3.392-.739,5.045-.979a54.994,54.994,0,0,1,6.48-6.85,43.46,43.46,0,0,0-11.961,5.763h0" transform="translate(-617.248 -194.425)" fill="#619b42"/><path d="M670.414,290.783c-3.719,2.022-7.242,4.175-10.591,6.415a55.927,55.927,0,0,0-4.328,31.315c2.37-8.851,9.655-23.878,15.114-32.685.065-1.8.174-3.588.326-5.328a2.95,2.95,0,0,1-.522.283" transform="translate(-534.129 -267.123)" fill="#619b42"/><path d="M743.415,191.938A81.412,81.412,0,0,0,740.957,183a83.23,83.23,0,0,0-2.457,8.959c.826.544,1.653,1.131,2.457,1.761.826-.652,1.653-1.24,2.457-1.783" transform="translate(-599.563 -183)" fill="#006a3b"/><path d="M731.724,279.7c-1.718,2.588-3.349,5.2-4.849,7.633l-.043.044h0c-.087,1.718-.13,3.479-.13,5.241,0,12.939,1.892,24.769,5.023,33.968,3.131-9.2,5.023-21.029,5.023-33.968,0-1.761-.043-3.5-.109-5.2l-.022-.022-.044-.065c-1.5-2.436-3.131-5.045-4.849-7.633" transform="translate(-590.329 -258.671)" fill="#006a3b"/><path d="M684.628,242.753c1.5-.8,3-1.522,4.5-2.175-.37-.5-.739-.979-1.109-1.479a56.955,56.955,0,0,0-9.22,1.957c1.7.631,3.414,1.327,5.154,2.066.217-.109.435-.261.674-.37" transform="translate(-552.845 -226.9)" fill="#bf7529"/><path d="M783.8,258.883c1.044,1.174,2.066,2.414,3.023,3.719,2.675.13,5.284.3,7.807.5a49.267,49.267,0,0,0-7.916-5.5c-.979.413-1.957.848-2.914,1.283" transform="translate(-635.011 -241.377)" fill="#bf7529"/><path d="M773.4,240.657c1.5.652,3,1.37,4.5,2.175.218.13.435.261.674.391,1.74-.739,3.458-1.414,5.154-2.066a56.962,56.962,0,0,0-9.22-1.957c-.391.478-.761.957-1.109,1.457" transform="translate(-626.873 -226.979)" fill="#6d461b"/><path d="M676.382,258.961c-.979-.435-1.935-.87-2.914-1.261a48.954,48.954,0,0,0-8.068,5.632c2.544-.174,5.154-.348,7.85-.478a39.52,39.52,0,0,1,3.131-3.893" transform="translate(-542.359 -241.455)" fill="#6d461b"/><path d="M708.306,246.748c-.217-.283-.413-.565-.631-.848-1.5.652-3,1.37-4.5,2.175-.217.13-.435.261-.674.391.957.413,1.935.826,2.914,1.261.913-1.044,1.892-2.044,2.892-2.979" transform="translate(-571.391 -232.222)" fill="#6a3515"/><path d="M773.392,249.727c.979-.435,1.935-.87,2.914-1.261-.218-.13-.435-.261-.674-.391-1.5-.8-3-1.522-4.5-2.175-.218.283-.413.565-.631.848.979.935,1.957,1.935,2.892,2.979" transform="translate(-624.604 -232.222)" fill="#6a3515"/><path d="M718.271,231.07c.044-.3.109-.587.174-.892-1.7-.413-3.392-.739-5.045-.979.587.7,1.131,1.435,1.718,2.175,1.022-.152,2.088-.239,3.153-.3" transform="translate(-579.921 -219.153)" fill="#5c7233"/><path d="M775.945,279.9c-1.979-.087-4-.174-6.045-.2.065.783.152,1.566.218,2.37.174.087.348.2.522.283,3.719,2.022,7.242,4.175,10.591,6.415a43.842,43.842,0,0,0-2.218-4.241,46.156,46.156,0,0,0-3.066-4.632" transform="translate(-624.134 -258.671)" fill="#5c7233"/><path d="M769.117,267.023c2.044.022,4.067.109,6.046.2-.957-1.3-1.979-2.544-3.023-3.719-1.066.478-2.153.979-3.24,1.5.065.652.152,1.327.218,2.022" transform="translate(-623.352 -245.994)" fill="#544f21"/><path d="M724.375,237.8c-1.066.065-2.109.174-3.175.3.37.478.74.979,1.109,1.479.631-.261,1.24-.5,1.87-.739.065-.37.109-.718.2-1.044" transform="translate(-586.025 -225.883)" fill="#544f21"/><path d="M728.083,243.022c.022-.174.065-.348.087-.522-.631.239-1.239.478-1.87.739.218.283.413.565.631.848.37-.37.761-.718,1.152-1.066" transform="translate(-590.016 -229.561)" fill="#302b13"/><path d="M767.6,249.8c-.261.37-.544.739-.8,1.109.174,1.109.326,2.218.457,3.349,1.087-.522,2.175-1.022,3.24-1.5-.935-1.022-1.914-2.022-2.892-2.957" transform="translate(-621.708 -235.273)" fill="#302b13"/><path d="M688.812,282.362c.065-.761.13-1.522.217-2.262-2.088.065-4.132.152-6.154.261a53.163,53.163,0,0,0-2.958,4.48c-.826,1.392-1.544,2.805-2.218,4.241,3.349-2.24,6.872-4.393,10.591-6.415.174-.109.348-.2.522-.3" transform="translate(-551.984 -258.984)" fill="#3b4e26"/><path d="M763.2,231.07c1.066.065,2.109.174,3.153.3.565-.739,1.131-1.457,1.7-2.175-1.653.239-3.327.565-5.045.979.087.283.13.587.2.892" transform="translate(-618.735 -219.153)" fill="#3b4e26"/><path d="M704.553,263.5a49.88,49.88,0,0,0-3.153,3.871c2.022-.109,4.067-.2,6.154-.261.065-.718.152-1.414.239-2.131-1.087-.5-2.175-1-3.24-1.479" transform="translate(-570.531 -245.994)" fill="#30351b"/><path d="M766.044,239.483c.37-.5.739-.979,1.109-1.479-1.066-.13-2.109-.239-3.153-.3.065.348.13.674.174,1.022.609.261,1.24.5,1.87.761" transform="translate(-619.517 -225.805)" fill="#30351b"/><path d="M764.887,243.022c.391.348.783.7,1.152,1.066.217-.283.413-.565.631-.848-.631-.261-1.261-.5-1.87-.739a4.359,4.359,0,0,0,.087.522" transform="translate(-620.143 -229.561)" fill="#302814"/><path d="M719.6,250.931c-.261-.37-.544-.761-.8-1.131-1,.935-1.957,1.935-2.892,2.979q1.6.718,3.262,1.5c.109-1.131.261-2.262.435-3.349" transform="translate(-581.877 -235.273)" fill="#302814"/><path d="M766.353,245.966c-.37-.37-.761-.718-1.152-1.066.13.718.239,1.435.348,2.175.261-.37.522-.739.8-1.109" transform="translate(-620.456 -231.439)" fill="#162213"/><path d="M729.2,245.966c.261.37.544.739.8,1.131.109-.739.217-1.479.348-2.2-.391.348-.783.7-1.153,1.066" transform="translate(-592.285 -231.439)" fill="#162213"/><path d="M736.935,224.1a1.16,1.16,0,0,0-.065.283c-.13.587-.239,1.2-.37,1.783.609.152,1.24.326,1.848.5.348-.283.7-.544,1.022-.8-.8-.631-1.609-1.218-2.436-1.761h0" transform="translate(-597.998 -215.162)" fill="#01542c"/><path d="M749.9,279.7h0c1.7,2.61,3.327,5.2,4.849,7.633l.044.065c-.065-1.8-.174-3.588-.326-5.328-1.544-.826-3.066-1.609-4.567-2.37" transform="translate(-608.484 -258.671)" fill="#01542c"/><path d="M737.723,234.1c-.609-.174-1.24-.348-1.849-.5-.065.3-.109.587-.174.892.544-.043,1.066-.065,1.609-.065.152-.109.283-.217.413-.326" transform="translate(-597.372 -222.596)" fill="#064321"/><path d="M749.9,279.641c1.5.761,3.023,1.544,4.567,2.37-.065-.8-.13-1.588-.217-2.37-1.435-.022-2.892-.022-4.349,0" transform="translate(-608.484 -258.613)" fill="#064321"/><path d="M735.77,238.261c.3-.261.631-.522.935-.761l-1.609.065c-.065.348-.13.674-.2,1.022.283-.109.587-.239.87-.326" transform="translate(-596.745 -225.648)" fill="#0e2b17"/><path d="M754.249,272.422c-.065-.674-.152-1.348-.217-2.022-1.37.652-2.74,1.3-4.132,2.022v.022h0c1.457-.044,2.914-.044,4.349-.022" transform="translate(-608.484 -251.394)" fill="#0b2c19"/><path d="M734.587,241.326a4.345,4.345,0,0,0-.087.522c.326-.283.631-.587.957-.848-.283.087-.587.217-.87.326" transform="translate(-596.432 -228.387)" fill="#0c1c0f"/><path d="M749.9,260.271c1.392-.7,2.762-1.37,4.132-2.022-.13-1.131-.283-2.262-.457-3.349-1.261,1.761-2.5,3.566-3.675,5.371" transform="translate(-608.484 -239.264)" fill="#0a1d11"/><path d="M732.193,279.7h0q-2.283,1.142-4.567,2.349c-.152,1.74-.261,3.523-.326,5.328l.043-.044c1.5-2.436,3.131-5.045,4.849-7.633" transform="translate(-590.798 -258.671)" fill="#01542c"/><path d="M750.844,226.666c.631-.174,1.24-.348,1.848-.5-.109-.609-.239-1.2-.37-1.783h0a2.837,2.837,0,0,1-.065-.283h0c-.826.565-1.631,1.131-2.457,1.762.348.261.7.522,1.044.8" transform="translate(-608.405 -215.162)" fill="#01542c"/><path d="M728.8,281.97c1.544-.826,3.045-1.609,4.567-2.37-1.457.022-2.914.065-4.349.109-.087.761-.152,1.5-.217,2.262" transform="translate(-591.972 -258.593)" fill="#0d2d19"/><path d="M756.622,234.592c-.065-.3-.109-.609-.174-.892-.609.152-1.24.3-1.848.5.13.109.261.217.413.326.522,0,1.066.022,1.609.065" transform="translate(-612.161 -222.675)" fill="#0d2d19"/><path d="M757.335,238.183c.283.109.587.217.892.326-.065-.348-.13-.674-.2-1.022-.544-.043-1.087-.065-1.631-.087.326.261.631.5.935.783" transform="translate(-613.57 -225.57)" fill="#0d1f12"/><path d="M734.149,272.4c-1.392-.7-2.762-1.37-4.11-2-.087.7-.174,1.414-.239,2.131,1.414-.065,2.871-.087,4.349-.13h0" transform="translate(-592.755 -251.394)" fill="#0b1f12"/><path d="M730.8,258.349c1.37.652,2.74,1.3,4.11,2-1.2-1.8-2.414-3.61-3.675-5.35-.152,1.087-.3,2.218-.435,3.349" transform="translate(-593.537 -239.343)" fill="#0c190f"/><path d="M761.592,241.326c-.283-.109-.587-.217-.891-.326.326.283.652.565.979.87-.043-.2-.065-.37-.087-.544" transform="translate(-616.935 -228.387)" fill="#0e190e"/><path d="M746.122,233.387h.044c.326-.109.674-.2,1-.283-.348-.283-.7-.544-1.044-.8-.348.261-.7.544-1.022.8.326.087.674.2,1,.283h.022" transform="translate(-604.727 -221.579)" fill="#094722"/><path d="M744.614,236.283c-.326-.109-.674-.2-1-.283-.152.109-.283.217-.413.326.478-.022.935-.044,1.414-.044" transform="translate(-603.241 -224.474)" fill="#0c311b"/><path d="M741.249,237.3c-.478,0-.935.022-1.413.044-.3.261-.631.5-.935.761.8-.283,1.588-.544,2.37-.8h-.022" transform="translate(-599.876 -225.492)" fill="#0e2113"/><path d="M751.313,236.226c-.13-.109-.261-.217-.413-.326-.326.087-.674.2-1,.283.478.022.957.044,1.413.044" transform="translate(-608.484 -224.396)" fill="#122314"/><path d="M752.092,238.1c-.3-.261-.609-.522-.935-.761-.478-.022-.935-.044-1.413-.044H749.7c.826.239,1.609.5,2.392.8" transform="translate(-608.327 -225.492)" fill="#0e1b0f"/><path d="M739.924,238.874c-.326-.283-.652-.587-.979-.87-.783-.283-1.566-.565-2.37-.8-.783.239-1.587.522-2.37.8-.326.283-.631.565-.957.848-.13.718-.239,1.457-.348,2.2,1.261,1.761,2.479,3.566,3.675,5.35h.022c1.2-1.8,2.414-3.61,3.675-5.371-.109-.7-.217-1.435-.348-2.153" transform="translate(-595.18 -225.413)" fill="#090e0a"/></g></svg>