<svg xmlns="http://www.w3.org/2000/svg" width="330.591" height="92.09" viewBox="0 0 330.591 92.09"><g transform="translate(0)"><path d="M107.69,400.716a1.878,1.878,0,0,1,1.9-1.816,1.8,1.8,0,0,1,1.775,1.816,1.871,1.871,0,0,1-1.775,1.9,2.009,2.009,0,0,1-1.9-1.9m8.379,5.572h3.055v16.47c0,5.283-5.077,7.471-9.783,7.471-4.417,0-9.741-2.146-9.741-7.471v-7.925l3.055-1.981v9.618c0,3.55,3.467,4.747,6.687,4.747,3.426,0,6.728-1.362,6.728-4.706Z" transform="translate(-99.476 -394.69)" fill="#006b68"/><path d="M165.655,419.813h-3.013c-1.61,0-2.146.7-2.146,2.312v4.995c0,2.064.949,2.312,2.807,2.312h2.353Zm-6.77,18.162h.454c3.591,0,6.315-1.073,6.315-4.582v-.949h-2.6c-3.343,0-5.655-1.61-5.655-5.325v-4.995c0-3.261,1.94-5.325,5.325-5.325h5.985v16.016c0,4.995-2.188,7.471-7.8,7.884Z" transform="translate(-133.418 -405.201)" fill="#006b68"/><path d="M203.555,407.482h-3.013c-1.61,0-2.146.7-2.146,2.312v4.995c0,2.064.949,2.312,2.807,2.312h2.353Zm-5.49-6.728v-1.238h1.362a2.529,2.529,0,0,1-.372-1.28,2.292,2.292,0,0,1,2.435-2.435h1.321v1.238h-.867c-1.032,0-1.569.413-1.569,1.238,0,.908.66,1.28,1.569,1.28h1.775v1.238h-5.655Zm8.544,19.359v.371c0,4.995-2.188,7.471-7.8,7.884l-2.023-2.724h.454c3.591,0,6.315-1.073,6.315-4.582v-.949h-2.6c-3.343,0-5.655-1.61-5.655-5.325v-4.995c0-3.261,1.94-5.325,5.325-5.325h5.985V417.1h1.857v3.013Z" transform="translate(-155.674 -392.869)" fill="#006b68"/><rect width="8.255" height="3.013" transform="translate(52.588 24.23)" fill="#006b68"/><rect width="5.077" height="3.013" transform="translate(60.595 24.23)" fill="#006b68"/><rect width="5.077" height="3.013" transform="translate(65.425 24.23)" fill="#006b68"/><rect width="5.077" height="3.013" transform="translate(70.296 24.23)" fill="#006b68"/><rect width="5.077" height="3.013" transform="translate(75.125 24.23)" fill="#006b68"/><rect width="5.077" height="3.013" transform="translate(79.996 24.23)" fill="#006b68"/><rect width="5.077" height="3.013" transform="translate(84.825 24.23)" fill="#006b68"/><path d="M335.092,392.456a1.879,1.879,0,1,1,1.816-1.857,1.868,1.868,0,0,1-1.816,1.857m2.435,4.128a1.857,1.857,0,1,1,0-3.715,1.826,1.826,0,0,1,1.816,1.9,1.806,1.806,0,0,1-1.816,1.816m-4.664,0a1.858,1.858,0,1,1,0-3.715,1.851,1.851,0,0,1,1.816,1.9,1.806,1.806,0,0,1-1.816,1.816M316.6,415.943V412.93h8.833V400.3h2.972V412.93h5.283V400.3H336.7V412.93h5.242V400.3h3.013V412.93h1.28v3.013Z" transform="translate(-226.904 -388.7)" fill="#006b68"/><path d="M387.9,423.4v-3.013h1.2c1.651,0,2.394-.537,2.394-2.312V401.4H394.5v16.924c0,2.972-1.61,5.077-5.325,5.077Z" transform="translate(-268.773 -396.158)" fill="#006b68"/><path d="M414.5,425.093V401.4h3.055v22Z" transform="translate(-284.393 -396.158)" fill="#006b68"/><path d="M452.892,400.716a1.816,1.816,0,0,1,3.632,0,1.818,1.818,0,1,1-3.632,0m2.064,8.586h-3.013c-1.28,0-2.188.454-2.188,2.312v5.077c0,1.775,1.2,2.27,2.6,2.27,1.445,0,2.6-.454,2.6-2.27Zm-6.728-8.586a1.878,1.878,0,0,1,1.9-1.816,1.9,1.9,0,0,1,1.857,1.816,1.878,1.878,0,1,1-3.756,0m9.783,15.892c0,4.045-2.807,5.325-5.655,5.325-3.137,0-5.655-1.61-5.655-5.407v-4.912c0-3.385,2.064-5.325,5.242-5.325h6.068Z" transform="translate(-303.302 -394.69)" fill="#006b68"/><path d="M481.3,438.075c3.1-.991,3.756-2.229,3.756-5.118V416.9h3.013v16.965a7.116,7.116,0,0,1-4.664,6.893Z" transform="translate(-323.62 -405.26)" fill="#006b68"/><path d="M508.3,425.093V401.4h3.1v22Z" transform="translate(-339.475 -396.158)" fill="#006b68"/><path d="M526.367,400.657a1.8,1.8,0,1,1,3.591,0,1.871,1.871,0,0,1-1.775,1.9,1.933,1.933,0,0,1-1.816-1.9M522.9,427.447c3.1-.991,3.756-2.229,3.756-5.118V406.271h3.013v16.965a7.116,7.116,0,0,1-4.664,6.893Z" transform="translate(-348.049 -394.631)" fill="#006b68"/><path d="M558.2,419.813h-3.013c-1.61,0-2.146.7-2.146,2.312v4.995c0,2.064.949,2.312,2.807,2.312H558.2Zm-6.811,18.162h.454c3.591,0,6.315-1.073,6.315-4.582v-.949h-2.6c-3.343,0-5.655-1.61-5.655-5.325v-4.995c0-3.261,1.94-5.325,5.325-5.325h5.985v16.016c0,4.995-2.146,7.471-7.8,7.884Z" transform="translate(-363.904 -405.201)" fill="#006b68"/><path d="M105.45,488.516a1.858,1.858,0,0,1,3.715,0,1.858,1.858,0,1,1-3.715,0m2.064,8.627H104.5c-1.28,0-2.146.454-2.146,2.229v5.118c0,1.362.371,2.27,2.353,2.27h2.807Zm-6.728-8.627a1.878,1.878,0,0,1,1.9-1.816,1.832,1.832,0,0,1,1.816,1.816,1.858,1.858,0,1,1-3.715,0m6.728,21.217v-1.981l-1.445,1.981h-1.114c-3.756,0-5.655-1.981-5.655-5.325v-4.995c0-3.591,2.353-5.325,5.325-5.325h5.985V506.72h1.857v3.013Z" transform="translate(-99.3 -446.248)" fill="#006b68"/><rect width="5.077" height="3.013" transform="translate(12.92 60.472)" fill="#006b68"/><path d="M147.931,526.683a1.815,1.815,0,0,1,1.857-1.816,1.8,1.8,0,0,1,1.775,1.816,1.771,1.771,0,0,1-1.775,1.816,1.815,1.815,0,0,1-1.857-1.816m-2.807,1.816a1.817,1.817,0,1,1,0-3.632,1.817,1.817,0,1,1,0,3.632m-2.724-8.256v-3.013h3.674c1.527,0,2.229-.7,2.229-2.064V504.6h3.013V515c0,3.715-2.518,5.242-5.449,5.242Z" transform="translate(-124.609 -456.759)" fill="#006b68"/><path d="M182.656,507.655h-3.013c-1.61,0-2.146.7-2.146,2.312v4.995c0,2.064.949,2.312,2.807,2.312h2.353Zm-6.77,18.121h.454c3.591,0,6.315-1.073,6.315-4.582v-.949h-2.6c-3.343,0-5.655-1.61-5.655-5.325v-4.995c0-3.261,1.94-5.325,5.325-5.325h5.985v16.016c0,4.995-2.188,7.471-7.8,7.884Z" transform="translate(-143.401 -456.759)" fill="#006b68"/><path d="M209,525.875c3.1-.991,3.756-2.229,3.756-5.118V504.7h3.013v12.631h1.9v3.013h-1.9v1.362a7.117,7.117,0,0,1-4.664,6.893Z" transform="translate(-163.719 -456.818)" fill="#006b68"/><rect width="5.077" height="3.013" transform="translate(53.702 60.472)" fill="#006b68"/><path d="M250.776,488.516a1.906,1.906,0,0,1,1.9-1.816,1.868,1.868,0,0,1,1.857,1.816,1.941,1.941,0,0,1-1.857,1.9,2.009,2.009,0,0,1-1.9-1.9m2.146,8.627H249.91c-1.28,0-2.188.454-2.188,2.311v7.306h5.2v-9.618Zm-6.77-8.627a1.878,1.878,0,0,1,1.9-1.816,1.8,1.8,0,0,1,1.775,1.816,1.871,1.871,0,0,1-1.775,1.9,1.978,1.978,0,0,1-1.9-1.9M241.2,509.733V506.72h3.467v-7.306c0-3.385,2.064-5.325,5.242-5.325h6.068V506.72h1.857v3.013Z" transform="translate(-182.627 -446.248)" fill="#006b68"/><path d="M281,511.2v-3.013h1.156c1.651,0,2.394-.537,2.394-2.312V489.2h3.013v16.924c0,2.972-1.61,5.077-5.325,5.077Z" transform="translate(-205.999 -447.716)" fill="#006b68"/><path d="M307.6,512.993V489.3h3.055v21.96Z" transform="translate(-221.619 -447.775)" fill="#006b68"/><path d="M333.655,507.655h-3.013c-1.61,0-2.188.7-2.188,2.312v4.995c0,2.064.949,2.312,2.807,2.312h2.353v-9.618Zm-6.77,18.121h.454c3.591,0,6.315-1.073,6.315-4.582v-.949h-2.6c-3.343,0-5.655-1.61-5.655-5.325v-4.995c0-3.261,1.94-5.325,5.325-5.325h5.985v16.016c0,4.995-2.146,7.471-7.8,7.884Z" transform="translate(-232.072 -456.759)" fill="#006b68"/><path d="M383.95,488.516a1.858,1.858,0,0,1,3.715,0,1.858,1.858,0,1,1-3.715,0m2.064,8.627H383c-1.28,0-2.146.454-2.146,2.229v5.118c0,1.362.371,2.27,2.353,2.27h2.807Zm-6.728-8.627a1.879,1.879,0,0,1,3.756,0,1.878,1.878,0,1,1-3.756,0m6.728,21.217v-1.981l-1.445,1.981h-1.115c-3.756,0-5.655-1.981-5.655-5.325v-4.995c0-3.591,2.353-5.325,5.325-5.325h5.985V506.72h1.816v3.013Z" transform="translate(-262.842 -446.248)" fill="#006b68"/><rect width="4.788" height="3.013" transform="translate(127.878 60.472)" fill="#006b68"/><path d="M425.731,526.683a1.815,1.815,0,0,1,1.857-1.816,1.8,1.8,0,0,1,1.775,1.816,1.771,1.771,0,0,1-1.775,1.816,1.815,1.815,0,0,1-1.857-1.816m-2.807,1.816a1.816,1.816,0,1,1,1.816-1.816,1.815,1.815,0,0,1-1.816,1.816m-2.724-8.256v-3.013h3.674c1.527,0,2.229-.7,2.229-2.064V504.6h3.013V515c0,3.715-2.477,5.242-5.449,5.242Z" transform="translate(-287.741 -456.759)" fill="#006b68"/><path d="M452.2,520.244v-3.013h9.081v-5.077c0-3.344-1.94-4.541-4.417-4.541h-2.023V504.6h2.229a6.946,6.946,0,0,1,7.224,7.224v5.407h1.9v3.013Z" transform="translate(-306.532 -456.759)" fill="#006b68"/><rect width="5.077" height="3.013" transform="translate(159.372 60.472)" fill="#006b68"/><path d="M497.2,511.2v-3.013h3.55V489.2h2.972v18.988h1.9V511.2Z" transform="translate(-332.957 -447.716)" fill="#006b68"/><path d="M522.672,526.683a1.815,1.815,0,0,1,1.857-1.816,1.8,1.8,0,0,1,1.775,1.816,1.772,1.772,0,0,1-1.775,1.816,1.791,1.791,0,0,1-1.857-1.816m-5.573-6.439v-3.013H523V504.6h3.013v12.631h1.9v3.013Z" transform="translate(-344.643 -456.759)" fill="#006b68"/><path d="M542.7,511.2v-3.013h1.2c1.651,0,2.394-.537,2.394-2.312V489.2H549.3v16.924c0,2.972-1.61,5.077-5.325,5.077Z" transform="translate(-359.676 -447.716)" fill="#006b68"/><path d="M569.3,512.993V489.3h3.055v21.96Z" transform="translate(-375.296 -447.775)" fill="#006b68"/><path d="M107.371,592.657v-7.43l-2.353,7.43H103.45l-2.353-7.43v7.43H99.9V583.7h1.94l2.394,7.843,2.435-7.843h1.9v8.957Z" transform="translate(-99.652 -503.209)" fill="#80bc00"/><path d="M127.17,592.164a2.344,2.344,0,0,1-1.073.206.929.929,0,0,1-1.032-.949v-5.531h1.28v5.242c0,.206.083.33.289.33a1.025,1.025,0,0,0,.33-.041Zm-1.445-7.554a.805.805,0,1,1,0-1.61.828.828,0,0,1,.826.826.794.794,0,0,1-.826.784" transform="translate(-114.333 -502.798)" fill="#80bc00"/><path d="M138.974,596.157a2.275,2.275,0,0,1-1.032.206.96.96,0,0,1-1.073-.949v-3.467c0-.826-.206-1.032-.826-1.032a3.7,3.7,0,0,0-2.064.908v4.417H132.7v-6.357h1.28v.867a3.792,3.792,0,0,1,2.27-.949c1.2,0,1.9.289,1.9,2.064v3.261c0,.206.083.33.289.33a1.025,1.025,0,0,0,.33-.041Z" transform="translate(-118.913 -506.791)" fill="#80bc00"/><path d="M152.07,592.164a2.344,2.344,0,0,1-1.073.206.929.929,0,0,1-1.032-.949v-5.531h1.28v5.242c0,.206.083.33.289.33a1.025,1.025,0,0,0,.33-.041Zm-1.445-7.554a.805.805,0,1,1,0-1.61.828.828,0,0,1,.826.826.77.77,0,0,1-.826.784" transform="translate(-128.955 -502.798)" fill="#80bc00"/><path d="M157.448,594.9a4.67,4.67,0,0,0,1.692.372c.908,0,1.527-.206,1.527-.908,0-1.156-3.3-.867-3.3-2.889,0-1.4,1.321-1.775,2.518-1.775a4.324,4.324,0,0,1,1.816.33l-.206,1.032a3.578,3.578,0,0,0-1.569-.33c-.867,0-1.28.206-1.28.66,0,1.032,3.3.743,3.3,2.972,0,1.2-1.156,1.94-2.559,1.94a7.162,7.162,0,0,1-2.188-.289Z" transform="translate(-133.3 -506.732)" fill="#80bc00"/><path d="M174.1,593.179a3.367,3.367,0,0,1-1.445.248c-.867,0-1.321-.372-1.321-1.651v-3.839H170.3l.206-1.032h.826v-1.692l1.28-.413v2.146h1.321v1.032h-1.321v3.674c0,.66.165.743.66.743a1.531,1.531,0,0,0,.619-.165Z" transform="translate(-140.993 -503.855)" fill="#80bc00"/><path d="M182.2,596.181v-6.357h1.28v.826a1.437,1.437,0,0,1,1.2-.949,2.557,2.557,0,0,1,1.2.33l-.248,1.073a2.922,2.922,0,0,0-1.073-.206c-.578,0-.949.578-1.115.867v4.458H182.2Z" transform="translate(-147.981 -506.732)" fill="#80bc00"/><path d="M191.806,590h1.362l1.651,4.582,1.4-4.582h1.4l-2.27,6.6c-.66,1.9-1.28,2.394-2.435,2.394a3.681,3.681,0,0,1-1.321-.248l.248-1.073a2.924,2.924,0,0,0,1.073.206c.33,0,.826,0,1.362-1.692Z" transform="translate(-153.501 -506.908)" fill="#80bc00"/><path d="M218.771,593.043c0-1.981-.743-2.353-1.734-2.353-1.032,0-1.734.372-1.734,2.353s.7,2.27,1.734,2.27c.991,0,1.734-.33,1.734-2.27m-4.871,0c0-2.642,1.445-3.344,3.1-3.344s3.1.7,3.1,3.344-1.445,3.261-3.1,3.261c-1.61,0-3.1-.619-3.1-3.261" transform="translate(-166.596 -506.732)" fill="#80bc00"/><path d="M231.932,592.07V586.7H230.9l.206-1.032h.826v-.908c0-1.115.206-2.064,1.775-2.064a3.416,3.416,0,0,1,1.321.206l-.248,1.073a3.214,3.214,0,0,0-.867-.165c-.578,0-.743.124-.743.784v1.073h1.4V586.7h-1.4v5.366Z" transform="translate(-176.579 -502.622)" fill="#80bc00"/><path d="M256.313,592.657v-7.43l-2.353,7.43h-1.569l-2.353-7.43v7.43H248.8V583.7h1.981l2.394,7.843,2.435-7.843h1.9v8.957Z" transform="translate(-187.09 -503.209)" fill="#80bc00"/><path d="M280.292,596.274a2.406,2.406,0,0,1-1.032.206.948.948,0,0,1-1.073-.949,3.582,3.582,0,0,1-2.146.949c-1.2,0-1.94-.289-1.94-2.064V590h1.28v4.252c0,.867.248,1.032.826,1.032a2.98,2.98,0,0,0,1.981-.908V590h1.28v5.242a.3.3,0,0,0,.33.33,1.025,1.025,0,0,0,.33-.041Z" transform="translate(-201.947 -506.908)" fill="#80bc00"/><path d="M297.674,596.157a2.276,2.276,0,0,1-1.032.206.96.96,0,0,1-1.073-.949v-3.467c0-.826-.206-1.032-.826-1.032a3.7,3.7,0,0,0-2.064.908v4.417H291.4v-6.357h1.28v.867a3.792,3.792,0,0,1,2.27-.949c1.2,0,1.9.289,1.9,2.064v3.261c0,.206.083.33.289.33a1.025,1.025,0,0,0,.33-.041Z" transform="translate(-212.106 -506.791)" fill="#80bc00"/><path d="M310.77,592.164a2.344,2.344,0,0,1-1.073.206.929.929,0,0,1-1.032-.949v-5.531h1.28v5.242c0,.206.083.33.289.33a1.025,1.025,0,0,0,.33-.041Zm-1.445-7.554a.805.805,0,1,1,0-1.61.828.828,0,0,1,.826.826.82.82,0,0,1-.826.784" transform="translate(-222.147 -502.798)" fill="#80bc00"/><path d="M320.547,596.015a5.925,5.925,0,0,1-1.9.289c-1.2,0-2.848-.826-2.848-3.343a3.072,3.072,0,0,1,3.055-3.261,4.911,4.911,0,0,1,1.981.33l-.206,1.073a5.064,5.064,0,0,0-1.61-.289c-1.692,0-1.858,1.362-1.858,2.229,0,1.692.867,2.188,2.064,2.188a5.022,5.022,0,0,0,1.569-.289Z" transform="translate(-226.434 -506.732)" fill="#80bc00"/><path d="M332.87,592.164a2.343,2.343,0,0,1-1.073.206.929.929,0,0,1-1.032-.949v-5.531h1.28v5.242c0,.206.083.33.289.33a1.025,1.025,0,0,0,.33-.041Zm-1.445-7.554a.805.805,0,1,1,0-1.61.828.828,0,0,1,.826.826.82.82,0,0,1-.826.784" transform="translate(-235.125 -502.798)" fill="#80bc00"/><path d="M339.68,594.653a2.524,2.524,0,0,0,1.486.578c1.156,0,1.775-.454,1.775-2.188,0-1.527-.371-2.229-1.569-2.229a1.613,1.613,0,0,0-1.692,1.651Zm-1.28,4.086v-8.916h1.28v.826a2.538,2.538,0,0,1,2.105-.949c1.2,0,2.518.743,2.518,3.3,0,1.857-.826,3.3-2.848,3.3a2.717,2.717,0,0,1-1.775-.537v2.972H338.4Z" transform="translate(-239.706 -506.732)" fill="#80bc00"/><path d="M359.421,593.267c-.206,0-.66-.041-.908-.041-1.032,0-1.61.289-1.61,1.156,0,.908.826.949,1.156.949a1.367,1.367,0,0,0,1.4-1.4v-.66Zm2.064,2.889a2.01,2.01,0,0,1-1.032.206c-.949,0-1.073-.66-1.073-.908a1.842,1.842,0,0,1-1.857.908c-1.4,0-2.023-.7-2.023-1.857,0-1.692,1.362-2.188,2.848-2.188a6.493,6.493,0,0,1,1.032.083v-.578c0-.908-.784-.949-1.527-.949a5.616,5.616,0,0,0-1.9.33l.206-1.073a6.441,6.441,0,0,1,2.023-.33c1.651,0,2.435.5,2.435,2.353v2.972c0,.248.083.33.33.33a.908.908,0,0,0,.33-.041Z" transform="translate(-249.747 -506.791)" fill="#80bc00"/><path d="M374.405,592.575a2.274,2.274,0,0,1-1.032.206.96.96,0,0,1-1.073-.949V583.7h1.28v7.843c0,.206.083.33.289.33a1.026,1.026,0,0,0,.33-.041Z" transform="translate(-259.612 -503.209)" fill="#80bc00"/><path d="M387.512,588.253a1.56,1.56,0,0,0-.991,1.692c0,1.2.867,1.486,1.651,1.486a2.429,2.429,0,0,0,1.61-.66,26.58,26.58,0,0,1-2.27-2.518m5.449,4.21a3.092,3.092,0,0,1-.867.083,2.23,2.23,0,0,1-1.569-.949,3.313,3.313,0,0,1-2.435.949c-1.61,0-2.889-.7-2.889-2.435a2.631,2.631,0,0,1,1.734-2.724,3.625,3.625,0,0,1-.784-2.064,2,2,0,0,1,2.188-2.023,5.083,5.083,0,0,1,2.105.413l-.206,1.156a4.038,4.038,0,0,0-1.692-.372c-.66,0-1.073.206-1.073.867,0,1.032.7,1.9,3.013,4.417a5.294,5.294,0,0,0,.413-2.6h2.353l-.206,1.115H391.97a4.927,4.927,0,0,1-.66,2.435c.5.578.7.784,1.2.784a2.809,2.809,0,0,0,.619-.083Z" transform="translate(-267.188 -502.974)" fill="#80bc00"/><path d="M417.278,588.141c.66,0,1.4-.33,1.4-1.651,0-1.032-.578-1.692-1.4-1.692H415.5v3.344Zm1.569,4.458-1.734-3.3h-1.651v3.3H414.1v-9h2.848c2.188,0,3.1,1.156,3.1,2.848a2.584,2.584,0,0,1-1.61,2.6l1.9,3.55Z" transform="translate(-284.158 -503.15)" fill="#80bc00"/><path d="M438.592,596.274a2.406,2.406,0,0,1-1.032.206.948.948,0,0,1-1.073-.949,3.582,3.582,0,0,1-2.146.949c-1.2,0-1.94-.289-1.94-2.064V590h1.28v4.252c0,.867.248,1.032.826,1.032a2.98,2.98,0,0,0,1.981-.908V590h1.28v5.242a.3.3,0,0,0,.33.33,1.025,1.025,0,0,0,.33-.041Z" transform="translate(-294.905 -506.908)" fill="#80bc00"/><path d="M449.6,596.181v-6.357h1.28v.826a1.437,1.437,0,0,1,1.2-.949,2.558,2.558,0,0,1,1.2.33l-.248,1.073a2.922,2.922,0,0,0-1.073-.206c-.537,0-.949.578-1.115.867v4.458H449.6Z" transform="translate(-305.005 -506.732)" fill="#80bc00"/><path d="M464.221,593.267c-.206,0-.66-.041-.908-.041-1.032,0-1.61.289-1.61,1.156,0,.908.826.949,1.156.949a1.367,1.367,0,0,0,1.4-1.4v-.66Zm2.064,2.889a2.01,2.01,0,0,1-1.032.206c-.949,0-1.073-.66-1.073-.908a1.842,1.842,0,0,1-1.857.908c-1.4,0-2.023-.7-2.023-1.857,0-1.692,1.362-2.188,2.848-2.188a6.494,6.494,0,0,1,1.032.083v-.578c0-.908-.784-.949-1.527-.949a5.616,5.616,0,0,0-1.9.33l.206-1.073a6.441,6.441,0,0,1,2.023-.33c1.651,0,2.435.5,2.435,2.353v2.972c0,.248.083.33.33.33a.908.908,0,0,0,.33-.041Z" transform="translate(-311.288 -506.791)" fill="#80bc00"/><path d="M479.205,592.575a2.274,2.274,0,0,1-1.032.206.96.96,0,0,1-1.073-.949V583.7h1.28v7.843c0,.206.083.33.289.33a1.026,1.026,0,0,0,.33-.041Z" transform="translate(-321.154 -503.209)" fill="#80bc00"/><path d="M492.756,585.375l-1.321,4.045h2.559Zm2.312,7.224-.66-2.064h-3.3l-.66,2.064H489l3.055-9h1.486l3.055,9Z" transform="translate(-328.142 -503.15)" fill="#80bc00"/><path d="M513.749,592.07V586.7h-1.032l.206-1.032h.826v-.908c0-1.115.206-2.064,1.775-2.064a3.416,3.416,0,0,1,1.321.206l-.248,1.073a3.542,3.542,0,0,0-.867-.165c-.578,0-.743.124-.743.784v1.073h1.4V586.7h-1.4v5.366Zm-4.417,0V586.7H508.3l.206-1.032h.826v-.908c0-1.115.206-2.064,1.775-2.064a3.416,3.416,0,0,1,1.321.206l-.248,1.073a3.543,3.543,0,0,0-.867-.165c-.578,0-.743.124-.743.784v1.073h1.4V586.7h-1.4v5.366Z" transform="translate(-339.475 -502.622)" fill="#80bc00"/><path d="M533.921,593.267c-.206,0-.66-.041-.908-.041-1.032,0-1.61.289-1.61,1.156,0,.908.826.949,1.156.949a1.367,1.367,0,0,0,1.4-1.4v-.66Zm2.064,2.889a2.01,2.01,0,0,1-1.032.206c-.949,0-1.073-.66-1.073-.908a1.842,1.842,0,0,1-1.857.908c-1.4,0-2.023-.7-2.023-1.857,0-1.692,1.362-2.188,2.848-2.188a6.493,6.493,0,0,1,1.032.083v-.578c0-.908-.784-.949-1.527-.949a5.616,5.616,0,0,0-1.9.33l.206-1.073a6.441,6.441,0,0,1,2.023-.33c1.651,0,2.435.5,2.435,2.353v2.972c0,.248.083.33.33.33a.908.908,0,0,0,.33-.041Z" transform="translate(-352.218 -506.791)" fill="#80bc00"/><path d="M548.67,592.164a2.344,2.344,0,0,1-1.073.206.929.929,0,0,1-1.032-.949v-5.531h1.28v5.242c0,.206.083.33.289.33a1.025,1.025,0,0,0,.33-.041Zm-1.445-7.554a.805.805,0,1,1,0-1.61.828.828,0,0,1,.826.826.77.77,0,0,1-.826.784" transform="translate(-361.848 -502.798)" fill="#80bc00"/><path d="M554.3,596.181v-6.357h1.28v.826a1.437,1.437,0,0,1,1.2-.949,2.558,2.558,0,0,1,1.2.33l-.248,1.073a2.922,2.922,0,0,0-1.073-.206c-.578,0-.949.578-1.115.867v4.458H554.3Z" transform="translate(-366.487 -506.732)" fill="#80bc00"/><path d="M565.548,594.9a4.671,4.671,0,0,0,1.692.372c.908,0,1.527-.206,1.527-.908,0-1.156-3.3-.867-3.3-2.889,0-1.4,1.321-1.775,2.518-1.775a4.324,4.324,0,0,1,1.816.33l-.206,1.032a3.578,3.578,0,0,0-1.569-.33c-.867,0-1.28.206-1.28.66,0,1.032,3.3.743,3.3,2.972,0,1.2-1.115,1.94-2.559,1.94a7.162,7.162,0,0,1-2.188-.289Z" transform="translate(-372.947 -506.732)" fill="#80bc00"/><path d="M707.77,513.381a50.118,50.118,0,0,1-50.07-50.07l.372-6.935h7.843V445.892h.867V444.2h3.756l1.073,1.816h1.94V459.39h1.569v1.858h.578V450.515h6.315v2.766h2.105v5.16h3.509v-4.995h4.706l1.692,2.146v5.7h9.659v1.445h-11.1v-6.646l-.949-1.2h-2.559v6.728h-1.94v-1.734h-4.458v-5.16h-2.105V451.96h-3.426v10.773h-3.467v-1.9h-1.569V447.461h-1.321l-1.073-1.816h-1.486v1.692h-.867v10.484h-7.884l-.289,5.49a48.584,48.584,0,0,0,97.167.165H751.4v-8.544h-2.931v-4.375h-3.426V448.7h-4.169v1.321l-.826.949v7.925H735.8v-5.9l-1.073-1.2h-2.353v-1.981h-2.683v12.92h-4.334v-4.788h-3.839v4.788h-10.2v-1.445h8.751V456.5h6.687v4.788H728.2v-12.92h5.572v1.981h1.568l1.858,2.105v4.995h1.362v-7.017l.826-.949v-2.229h7.1v1.9h3.426v4.375h2.931v8.544H757.8v1.28a50.074,50.074,0,0,1-50.028,50.028" transform="translate(-427.207 -421.291)" fill="#80bc00"/><path d="M697.338,527.513a2.317,2.317,0,0,0-1.94,3.591,2.181,2.181,0,0,0,1.569,1.073c.206,0,.454.041.743.041,3.1,0,5.738-1.9,8.008-3.674l.413-.33.289.454a7.19,7.19,0,0,0,4.706,3.344h.413a3,3,0,0,0,3.137-2.064,2.614,2.614,0,0,0-1.445-2.642,3.148,3.148,0,0,0-2.394.206c-.248.083-.33.413-.454.867-.124.5-.289,1.2-1.032,1.2a2.3,2.3,0,0,1-1.734-1.073.948.948,0,0,1,.041-.991,25.688,25.688,0,0,1,5.572-5.614c.908-.743,1.857-1.486,2.724-2.312l.33-.289.33.289c.867.784,1.775,1.527,2.683,2.27,2.105,1.651,4.252,3.343,5.614,5.9a.615.615,0,0,1,.041.619,2.426,2.426,0,0,1-1.692,1.238.779.779,0,0,1-.743-.165,1.011,1.011,0,0,1-.206-.826,1.56,1.56,0,0,0-.041-.5c-.289-.619-.908-.743-1.569-.908a2.413,2.413,0,0,0-2.766,1.9,2.116,2.116,0,0,0,.289,1.651,3.189,3.189,0,0,0,2.6,1.321c2.064,0,4.293-1.734,5.366-3.385l.289-.454.413.33c2.064,1.651,4.747,3.55,7.471,3.55a5.179,5.179,0,0,0,2.105-.413,1.852,1.852,0,0,0,1.032-1.238,2.064,2.064,0,0,0-.289-1.775,2.47,2.47,0,0,0-4.045-.041l-.206.33-.372-.124a7.4,7.4,0,0,1-4-2.848,2.021,2.021,0,0,1,.083-1.816c.289-.5.578-.619.826-.619a.766.766,0,0,1,.289.083,3.912,3.912,0,0,0,2.023.66,2.318,2.318,0,0,0,2.353-1.816,2.089,2.089,0,0,0-.372-1.692,2.686,2.686,0,0,0-1.527-1.073c-.083,0-.248-.041-.372-.041a3.841,3.841,0,0,0-2.848,1.362,5,5,0,0,0-.867,1.9,7.8,7.8,0,0,1-.784,1.816l-.33.454-8.709-8.132.372-.372c9.37-9,21.877-12.177,32.155-13.126-1.321-.124-2.642-.165-3.963-.165a45.8,45.8,0,0,0-30.174,10.98l-.289.248-.33-.248c-4.252-3.137-9.948-6.976-16.47-8.916a49.849,49.849,0,0,0-18.08-1.981c10.278.908,22.826,4.086,32.2,13.126l.371.372-8.627,8.008-.33-.454a7.8,7.8,0,0,1-.784-1.816,5,5,0,0,0-.867-1.9,6.161,6.161,0,0,0-2.188-1.362,2.386,2.386,0,0,0-2.931,1.9,2.614,2.614,0,0,0,1.445,2.642,1.914,1.914,0,0,0,.578.083,4.54,4.54,0,0,0,1.9-.537l.289-.124a.806.806,0,0,1,.289-.041,1.185,1.185,0,0,1,.991.7,1.844,1.844,0,0,1,.041,1.734c-.826,1.486-2.559,2.27-3.963,2.807l-.33.124-.206-.289a2.99,2.99,0,0,0-2.105-.991m.33,5.655a6.988,6.988,0,0,1-.908-.041,3.28,3.28,0,0,1-2.27-1.568,3.479,3.479,0,0,1,1.073-4.541,3.515,3.515,0,0,1,4.375.743,6.146,6.146,0,0,0,3.178-2.27.738.738,0,0,0,0-.537,1.093,1.093,0,0,0-.248-.454l-.206.083a5.758,5.758,0,0,1-2.27.578,2.559,2.559,0,0,1-.949-.165,3.669,3.669,0,0,1-2.023-3.715,3.349,3.349,0,0,1,3.3-2.724,5.588,5.588,0,0,1,.826.083l.083.041a7.072,7.072,0,0,1,2.6,1.61,5.218,5.218,0,0,1,1.073,2.27c.124.372.248.7.371,1.032l7.017-6.522c-10.691-10.03-25.509-12.466-36.118-12.8l-4.375-.124,4.293-.826a49.881,49.881,0,0,1,23.4,1.321c6.563,1.9,12.218,5.7,16.47,8.833a46.456,46.456,0,0,1,30.5-10.98,50.789,50.789,0,0,1,9.04.826l4.417.826-4.458.124c-10.608.289-25.427,2.766-36.118,12.8l7.017,6.522c.124-.33.248-.7.372-1.032a6.519,6.519,0,0,1,1.073-2.229,4.678,4.678,0,0,1,4.169-1.651,3.486,3.486,0,0,1,2.146,1.486,3.022,3.022,0,0,1,.5,2.477,3.273,3.273,0,0,1-3.261,2.559,4.7,4.7,0,0,1-2.27-.619c-.124.248-.248.7-.124.867a6,6,0,0,0,3.178,2.312,3.487,3.487,0,0,1,5.449.33,2.9,2.9,0,0,1,.413,2.6,2.852,2.852,0,0,1-1.569,1.857,6.317,6.317,0,0,1-2.477.5c-2.848,0-5.572-1.775-7.677-3.426-1.321,1.734-3.633,3.385-5.861,3.385a4.244,4.244,0,0,1-3.385-1.734,3.129,3.129,0,0,1-.454-2.477,3.5,3.5,0,0,1,3.261-2.683,4.069,4.069,0,0,1,.7.083,2.968,2.968,0,0,1,2.188,1.362,1.793,1.793,0,0,1,.206,1.032h0a2.268,2.268,0,0,0,.743-.537c-1.238-2.27-3.22-3.839-5.283-5.449-.826-.619-1.651-1.28-2.435-1.981-.784.743-1.651,1.4-2.435,2.064a24.7,24.7,0,0,0-5.366,5.407,1.321,1.321,0,0,0,.867.537,3.453,3.453,0,0,0,.165-.5,1.946,1.946,0,0,1,1.032-1.527,4.11,4.11,0,0,1,3.178-.165,3.675,3.675,0,0,1,1.981,3.674c-.454,2.229-2.766,3.055-4.664,2.848a8.124,8.124,0,0,1-5.118-3.343c-2.435,1.775-5.16,3.55-8.338,3.55" transform="translate(-435.721 -455.525)" fill="#80bc00"/><path d="M769.486,401.885l1.2.908-.867-1.238c-5.614-8.008-11.888-8.255-13.869-8.09a5.983,5.983,0,0,1,2.105-1.445l.7-.248-.7-.206a5.722,5.722,0,0,0-5.407.743c-.289-1.527-.949-3.137-1.4-3.426a.508.508,0,0,0-.289-.083c-.5.124-1.321,1.4-1.734,3.509a5.1,5.1,0,0,0-5.284-.578l-.537.248.578.206a4.223,4.223,0,0,1,1.9,1.445c-8.173.206-11.145,4.21-13.539,7.43a7.946,7.946,0,0,1-.537.7l.371.33c3.344-3.1,8.5-4.169,10.98-3.509-2.972,1.2-8.709,4.706-10.65,14.53l-.248,1.28.7-1.115c3.261-5.16,6.481-8.3,10.237-10.03-2.435,3.715-5.82,10.154-4.5,15.933l.248,1.073.248-1.073A26.658,26.658,0,0,1,746,406.591c-1.775,6.315-1.073,12.424-.165,14.9l.413,1.073.083-1.156a51.023,51.023,0,0,1,2.848-13.58l.743,5.2-.454.124.33,7.141h-.578l.537,7.347-.66.165.041.206c0,.041.454,4.623.619,7.182a8.088,8.088,0,0,0-1.981,1.61v.5h6.4v-.454l.041-.041a7.2,7.2,0,0,0-1.94-1.527l.7-7.678-.7.041.5-7.513-.5.083.33-7.141h-.537c.124-.619.372-2.353.619-5.284,1.4,2.353,2.6,7.265,3.22,13.415l.206,1.816.289-1.816a38.5,38.5,0,0,0-.454-15.108c1.9,1.858,5.7,8.379,6.976,13.044l.371,1.4.124-1.445a21.509,21.509,0,0,0-4.912-16.057,14.565,14.565,0,0,1,5.655,3.88,28.78,28.78,0,0,1,4.829,6.274l.578,1.115-.124-1.238a18.583,18.583,0,0,0-10.526-14.612c3.55-.7,8.916,2.188,10.567,3.426" transform="translate(-470.72 -388.759)" fill="#80bc00"/></g></svg>