<svg xmlns="http://www.w3.org/2000/svg" width="163.066" height="70.355" viewBox="0 0 163.066 70.355">
  <g id="Logo" transform="translate(-60.109 -51.707)">
    <path id="Path_154" data-name="Path 154" d="M66.67,119.889a.809.809,0,0,0-.58.237.773.773,0,0,0-.249.578.842.842,0,0,0,.829.829.782.782,0,0,0,.579-.249.815.815,0,0,0,.236-.58.814.814,0,0,0-.815-.815" fill="#2e5893"/>
    <path id="Path_155" data-name="Path 155" d="M68.922,119.889a.809.809,0,0,0-.58.237.773.773,0,0,0-.249.578.842.842,0,0,0,.829.829.782.782,0,0,0,.579-.249.815.815,0,0,0,.236-.58.814.814,0,0,0-.815-.815" fill="#2e5893"/>
    <path id="Path_156" data-name="Path 156" d="M139.846,109.083l.05,8.126H125.7l2.09-1.948v-.39a4.031,4.031,0,0,0-1.988-3.508,4,4,0,0,0-4.028,0,4.057,4.057,0,0,0-1.989,3.508l.016.426,2.062,1.913-16.489.049-.051-6.44H102.76a5.612,5.612,0,0,0-2.633.547,3.533,3.533,0,0,0-1.512,1.449,4.226,4.226,0,0,0-.191,3.447,3.236,3.236,0,0,0,.574.948l-13.131.049-.05-8.225-1.369.049.05,9.5H122.77a1.472,1.472,0,0,0,.619-.106.715.715,0,0,0,.355-.395,1.268,1.268,0,0,0,.424.386,1.442,1.442,0,0,0,.63.115h16.466l-.049-9.551Zm-37.086,8.126a3.565,3.565,0,0,1-2.467-.7,2.328,2.328,0,0,1-.743-1.765,2.393,2.393,0,0,1,.744-1.786,3.447,3.447,0,0,1,2.438-.72l1.226-.05.05,5.021Zm21.058-.087-2.621-2.448a2.752,2.752,0,0,1,.406-1.22,2.6,2.6,0,0,1,.933-.893,2.571,2.571,0,0,1,2.495,0,2.592,2.592,0,0,1,.933.893,3.019,3.019,0,0,1,.423,1.179Z" fill="#2e5893"/>
    <path id="Path_157" data-name="Path 157" d="M100.649,109.957a.781.781,0,0,0,.579-.248.817.817,0,0,0,.236-.581.816.816,0,0,0-.815-.815.81.81,0,0,0-.58.237.775.775,0,0,0-.249.578.842.842,0,0,0,.829.829" fill="#2e5893"/>
    <path id="Path_158" data-name="Path 158" d="M102.9,109.957a.781.781,0,0,0,.579-.248.817.817,0,0,0,.236-.581.816.816,0,0,0-.815-.815.81.81,0,0,0-.58.237.776.776,0,0,0-.249.578.842.842,0,0,0,.829.829" fill="#2e5893"/>
    <path id="Path_159" data-name="Path 159" d="M143.155,109.083l.05,9.5h1.369l-.051-9.552Z" fill="#2e5893"/>
    <path id="Path_160" data-name="Path 160" d="M174.945,119.517a.806.806,0,0,0-.58.237.773.773,0,0,0-.249.578.791.791,0,0,0,.249.592.81.81,0,0,0,.58.237.782.782,0,0,0,.579-.249.815.815,0,0,0,.236-.58.816.816,0,0,0-.815-.815" fill="#2e5893"/>
    <path id="Path_161" data-name="Path 161" d="M217.856,109.083l.05,8.126-14.512.05-.05-6.44-1.369.05.05,6.34h-1.459a1.69,1.69,0,0,1-1.35-.532,2.444,2.444,0,0,1-.467-1.623l-.05-3.8-1.368.049v3.749a2.68,2.68,0,0,1-.416,1.636,1.337,1.337,0,0,1-1.134.519l-1.677.05-.05-6-1.368.049.05,5.9h-13.6a.943.943,0,0,1-.517-.111.733.733,0,0,1-.244-.4c-.069-.231-.155-.622-.256-1.163a8.205,8.205,0,0,0-.72-2.342,3.9,3.9,0,0,0-1.265-1.47,4.965,4.965,0,0,0-1.5-.671,6.612,6.612,0,0,0-1.675-.216,6.758,6.758,0,0,0-1.689.2l-.143.086.3,1.33.125-.037a4.726,4.726,0,0,1,1.333-.177,5.383,5.383,0,0,1,1.289.158,3.492,3.492,0,0,1,1.109.476,2.62,2.62,0,0,1,.886,1.034,7.041,7.041,0,0,1,.549,1.857c.036.186.058.323.069.433a3.334,3.334,0,0,0,.274,1.014l-18.288.05-.049-8.226-1.369.05v8.138c0,2.341-1.023,3.478-3.127,3.478a3.563,3.563,0,0,1-2.254-.7,2.84,2.84,0,0,1-.872-2.359,9.369,9.369,0,0,1,.417-2.53l0-.213-1.379.036-.024.087a10.455,10.455,0,0,0-.414,2.7,3.977,3.977,0,0,0,1.317,3.321,5.09,5.09,0,0,0,3.214,1.013,4.774,4.774,0,0,0,3-.9,3.812,3.812,0,0,0,1.4-2.576h37.155a2.882,2.882,0,0,0,1.493-.382,1.963,1.963,0,0,0,.836-.9,2.419,2.419,0,0,0,.9.908,3.072,3.072,0,0,0,1.554.374l18.709-.049-.051-9.5Z" fill="#2e5893"/>
    <path id="Path_162" data-name="Path 162" d="M221.163,109.083l.05,9.5h1.369l-.051-9.552Z" fill="#2e5893"/>
    <path id="Path_163" data-name="Path 163" d="M74.756,110.958a2.343,2.343,0,0,0-2.606,2.678l.006,3.058.05.562H63.015a1.567,1.567,0,0,1-1.133-.351,1.46,1.46,0,0,1-.353-1.076l-.05-3.547-1.37.05v3.576a2.342,2.342,0,0,0,2.606,2.677H73.57v-4.871a1.46,1.46,0,0,1,.354-1.076,1.561,1.561,0,0,1,1.132-.351l1.769-.049.049,5.374,1.365-.05-.05-6.6Z" fill="#2e5893"/>
    <rect id="Rectangle_42" data-name="Rectangle 42" width="1.402" height="9.757" transform="translate(80.836 111.776)" fill="#2e5893"/>
    <path id="Path_164" data-name="Path 164" d="M99.237,81.4H89.881v9.355h4.066V85.468h5.29Z" fill="#2e5893"/>
    <rect id="Rectangle_43" data-name="Rectangle 43" width="3.284" height="3.284" transform="translate(97.225 88.731)" fill="#2e5893"/>
    <rect id="Rectangle_44" data-name="Rectangle 44" width="2.343" height="2.343" transform="translate(95.586 95.735)" fill="#2e5893"/>
    <rect id="Rectangle_45" data-name="Rectangle 45" width="2.342" height="4.099" transform="translate(83.596 96.915)" fill="#2e5893"/>
    <rect id="Rectangle_46" data-name="Rectangle 46" width="2.342" height="2.342" transform="translate(71.881 95.595)" fill="#2e5893"/>
    <rect id="Rectangle_47" data-name="Rectangle 47" width="2.342" height="2.342" transform="translate(63.156 86.87)" fill="#2e5893"/>
    <rect id="Rectangle_48" data-name="Rectangle 48" width="3.747" height="2.342" transform="translate(60.109 75.186)" fill="#2e5893"/>
    <rect id="Rectangle_49" data-name="Rectangle 49" width="2.342" height="2.343" transform="translate(63.329 63.47)" fill="#2e5893"/>
    <rect id="Rectangle_50" data-name="Rectangle 50" width="2.342" height="2.342" transform="translate(71.955 54.844)" fill="#2e5893"/>
    <rect id="Rectangle_51" data-name="Rectangle 51" width="2.343" height="4.099" transform="translate(83.744 51.707)" fill="#2e5893"/>
    <rect id="Rectangle_52" data-name="Rectangle 52" width="2.342" height="2.342" transform="translate(95.456 54.786)" fill="#2e5893"/>
    <rect id="Rectangle_53" data-name="Rectangle 53" width="2.342" height="2.342" transform="translate(104.075 63.407)" fill="#2e5893"/>
    <rect id="Rectangle_54" data-name="Rectangle 54" width="4.098" height="2.342" transform="translate(105.467 75.207)" fill="#2e5893"/>
    <rect id="Rectangle_55" data-name="Rectangle 55" width="2.342" height="2.342" transform="translate(104.076 86.974)" fill="#2e5893"/>
    <rect id="Rectangle_56" data-name="Rectangle 56" width="3.284" height="3.986" transform="translate(88.166 93.7)" fill="#2e5893"/>
    <rect id="Rectangle_57" data-name="Rectangle 57" width="3.986" height="3.284" transform="translate(102.35 79.851)" fill="#2e5893"/>
    <rect id="Rectangle_58" data-name="Rectangle 58" width="3.986" height="3.284" transform="translate(102.35 69.587)" fill="#2e5893"/>
    <rect id="Rectangle_59" data-name="Rectangle 59" width="3.284" height="3.986" transform="translate(78.243 93.7)" fill="#2e5893"/>
    <rect id="Rectangle_60" data-name="Rectangle 60" width="3.284" height="3.284" transform="translate(69.186 88.744)" fill="#2e5893"/>
    <rect id="Rectangle_61" data-name="Rectangle 61" width="3.284" height="3.284" transform="translate(97.225 60.705)" fill="#2e5893"/>
    <rect id="Rectangle_62" data-name="Rectangle 62" width="3.284" height="3.986" transform="translate(88.492 55.025)" fill="#2e5893"/>
    <rect id="Rectangle_63" data-name="Rectangle 63" width="3.986" height="3.284" transform="translate(63.503 80.014)" fill="#2e5893"/>
    <rect id="Rectangle_64" data-name="Rectangle 64" width="3.986" height="3.284" transform="translate(63.503 69.584)" fill="#2e5893"/>
    <rect id="Rectangle_65" data-name="Rectangle 65" width="3.284" height="3.986" transform="translate(78.229 55.025)" fill="#2e5893"/>
    <rect id="Rectangle_66" data-name="Rectangle 66" width="3.284" height="3.284" transform="translate(69.186 60.71)" fill="#2e5893"/>
    <path id="Path_165" data-name="Path 165" d="M70.441,71.317H79.8V61.962H75.731v5.289h-5.29Z" fill="#2e5893"/>
    <rect id="Rectangle_67" data-name="Rectangle 67" width="4.066" height="6.68" transform="translate(82.811 86.065)" fill="#2e5893"/>
    <rect id="Rectangle_68" data-name="Rectangle 68" width="6.677" height="4.066" transform="translate(68.456 74.324)" fill="#2e5893"/>
    <rect id="Rectangle_69" data-name="Rectangle 69" width="6.678" height="4.066" transform="translate(94.548 74.33)" fill="#2e5893"/>
    <rect id="Rectangle_70" data-name="Rectangle 70" width="4.066" height="6.678" transform="translate(82.805 59.975)" fill="#2e5893"/>
    <path id="Path_166" data-name="Path 166" d="M89.884,61.96v4.992l0,.3v4.065H99.24V67.251H93.95V61.96Z" fill="#2e5893"/>
    <path id="Path_167" data-name="Path 167" d="M79.706,90.851V81.5H70.35V85.56h5.29v5.291Z" fill="#2e5893"/>
    <path id="Path_168" data-name="Path 168" d="M148.477,81.819l.52-.2a11.564,11.564,0,0,0,3.01-1.658,9.335,9.335,0,0,0,3.351-5.046,12.461,12.461,0,0,0,.409-3.22,11.62,11.62,0,0,0-.824-4.485,8.418,8.418,0,0,0-2.48-3.314,11.737,11.737,0,0,0-4.255-2.1,22.834,22.834,0,0,0-6.165-.739H126.465V91.665h5.505V82.7l10.531.021,5.923,8.945h6.749Zm-.541-5.474a7,7,0,0,1-2.428,1.272,11.23,11.23,0,0,1-3.3.443H131.97V65.734H142.2a9.132,9.132,0,0,1,5.734,1.537,5.352,5.352,0,0,1,1.979,4.425,6.835,6.835,0,0,1-.486,2.615,5.227,5.227,0,0,1-1.495,2.034" fill="#2e5893"/>
    <path id="Path_169" data-name="Path 169" d="M187.454,86.966H166.6V77.321h18.093V72.943H166.6V65.776h20.43V61.055H161.095V91.666h26.359Z" fill="#2e5893"/>
    <path id="Path_170" data-name="Path 170" d="M222.352,67.21a8.412,8.412,0,0,0-2.481-3.313,11.74,11.74,0,0,0-4.254-2.1,22.847,22.847,0,0,0-6.166-.739H193.874V91.665h5.505V82.7l10.53.021,5.924,8.946h6.748l-6.695-9.846.52-.2a11.623,11.623,0,0,0,3.01-1.658,9.326,9.326,0,0,0,3.35-5.046,12.461,12.461,0,0,0,.409-3.22,11.618,11.618,0,0,0-.823-4.486m-5.513,7.1a5.219,5.219,0,0,1-1.5,2.034,6.993,6.993,0,0,1-2.427,1.272,11.232,11.232,0,0,1-3.3.442H199.379V65.734h10.234a9.125,9.125,0,0,1,5.734,1.537,5.352,5.352,0,0,1,1.979,4.425,6.813,6.813,0,0,1-.487,2.615" fill="#2e5893"/>
  </g>
</svg>
