<svg xmlns="http://www.w3.org/2000/svg" xmlns:xlink="http://www.w3.org/1999/xlink" width="275.471" height="114.409" viewBox="0 0 275.471 114.409"><defs><linearGradient id="a" x1="7.607" y1="0.6" x2="8.144" y2="0.43" gradientUnits="objectBoundingBox"><stop offset="0" stop-color="#00aeef"/><stop offset="1" stop-color="#00447c"/></linearGradient><linearGradient id="b" x1="16.188" y1="0.593" x2="16.594" y2="0.454" gradientUnits="objectBoundingBox"><stop offset="0" stop-color="#7ac143"/><stop offset="1" stop-color="#006225"/></linearGradient><linearGradient id="c" x1="4.086" y1="1.566" x2="4.289" y2="1.158" gradientUnits="objectBoundingBox"><stop offset="0" stop-color="#a39161"/><stop offset="1" stop-color="#794400"/></linearGradient></defs><g transform="translate(-74.661 84.1)"><g transform="translate(74.661)"><rect width="1.31" height="1.552" transform="translate(1.69 1.379)" fill="#5f6062"/><path d="M104.572,596.365a2.938,2.938,0,0,0,2.345-1.034,4.156,4.156,0,0,0,.034-4.931,2.865,2.865,0,0,0-2.345-1,2.938,2.938,0,0,0-2.345,1.034,3.485,3.485,0,0,0-.862,2.448,3.6,3.6,0,0,0,.828,2.483A3.021,3.021,0,0,0,104.572,596.365Zm-1.31-5.138a1.5,1.5,0,0,1,1.379-.69,1.4,1.4,0,0,1,1.276.655,2.877,2.877,0,0,1,.345,1.552c0,1.621-.552,2.414-1.724,2.414a1.462,1.462,0,0,1-1.31-.655,2.779,2.779,0,0,1-.414-1.586A4.3,4.3,0,0,1,103.262,591.228Z" transform="translate(-101.4 -585.848)" fill="#5f6062"/><rect width="1.31" height="1.552" transform="translate(3.517 1.379)" fill="#5f6062"/><path d="M124.49,589.6h-.172v1.276h.552a2.96,2.96,0,0,1,2.483,1.414,5.667,5.667,0,0,1,.655,2.862H122.8V596.5h6.586v-.172a11.049,11.049,0,0,0-.655-4.207A4.293,4.293,0,0,0,124.49,589.6Z" transform="translate(-115.421 -585.979)" fill="#5f6062"/><rect width="1.31" height="1.517" transform="translate(26.826 11.137)" fill="#5f6062"/><path d="M165.337,588.148a2.922,2.922,0,0,1-.207,1.31,1.043,1.043,0,0,1-1.034.517h-2V589.7c0-3.069-1.9-5.069-4.793-5.069a4.289,4.289,0,0,0-3.621,1.586l-.069.1.138.172c.414.414.655.69.828.828l.138.172.1-.172a2.653,2.653,0,0,1,2.483-1.345c2.138,0,3.31,1.31,3.31,3.655v.345h-9.724v-2.517c0-1.931-.965-3.034-2.69-3.034a2.747,2.747,0,0,0-2.138,1,3.715,3.715,0,0,0-.862,2.448,3.861,3.861,0,0,0,.793,2.448,2.564,2.564,0,0,0,2.069,1h1.31a1.457,1.457,0,0,1-1.517,1.069h-.31v1.31h.172a2.872,2.872,0,0,0,2.965-2.345h13.689c1.483,0,2.241-.931,2.241-2.69V581.7H165.3v6.448Zm-15.792,1.828h-1.483a1.353,1.353,0,0,1-1.172-.724,2.815,2.815,0,0,1-.345-1.448,2.517,2.517,0,0,1,.414-1.414,1.316,1.316,0,0,1,1.172-.69,1.246,1.246,0,0,1,1.069.448,1.5,1.5,0,0,1,.345.965Z" transform="translate(-130.097 -580.803)" fill="#5f6062"/><rect width="1.31" height="9.655" transform="translate(38.102 0.862)" fill="#5f6062"/><path d="M222.362,596.189a2.253,2.253,0,0,0,1.483-.483c-.138,1.172-.724,1.759-1.793,1.759h-.172v1.31h.172c2.138-.138,3.138-1.31,3.138-3.758v-2.138c0-1.931-1.172-3.379-2.827-3.379-1.69,0-2.862,1.379-2.862,3.345C219.5,594.776,220.707,596.189,222.362,596.189Zm-.069-5.483c.931,0,1.586.9,1.586,2.172,0,1.241-.621,2.1-1.517,2.1-.931,0-1.586-.931-1.586-2.172C220.81,591.569,221.431,590.707,222.293,590.707Z" transform="translate(-178.778 -585.914)" fill="#5f6062"/><rect width="1.31" height="1.552" transform="translate(69.238 11.172)" fill="#5f6062"/><rect width="1.31" height="1.552" transform="translate(67.411 11.172)" fill="#5f6062"/><rect width="1.31" height="1.552" transform="translate(73.928 11.172)" fill="#5f6062"/><rect width="1.31" height="1.552" transform="translate(72.066 11.172)" fill="#5f6062"/><path d="M268.778,596.562c1.483,0,2.241-.931,2.241-2.69V589.7h-1.31v3.724a2.922,2.922,0,0,1-.207,1.31,1.066,1.066,0,0,1-1.069.517h-2.345a4.007,4.007,0,0,0,.207-1.379V589.7h-1.31v3.724a2.922,2.922,0,0,1-.207,1.31,1.043,1.043,0,0,1-1.034.517h-2.655a4.148,4.148,0,0,0,.207-1.379V589.7h-1.31v3.724c0,1.552-.379,1.828-1.276,1.828h-1.448a4.007,4.007,0,0,0,.207-1.379V589.7h-1.31v3.724c0,1.552-.31,1.828-1.034,1.828h-1.586a8.9,8.9,0,0,0,.138-1.379v-4.138h-1.345v4.483c-.172,2.207-1.207,3.448-2.793,3.448-1.724,0-2.827-1.586-2.827-4.034V589.7H245.4v4.138c0,2.9,1.793,5.1,4.138,5.1a3.879,3.879,0,0,0,3.552-2.379h15.689Z" transform="translate(-195.747 -586.045)" fill="#5f6062"/><rect width="1.31" height="1.552" transform="translate(85.031 0.241)" fill="#5f6062"/><rect width="1.31" height="1.552" transform="translate(83.169 0.241)" fill="#5f6062"/><path d="M347.923,588.017a2.921,2.921,0,0,1-.207,1.31,1.042,1.042,0,0,1-1.034.517h-2.138a3.5,3.5,0,0,0,.069-.862,3.632,3.632,0,0,0-.793-2.414,3.207,3.207,0,0,0-4.621-.034,3.691,3.691,0,0,0-.828,2.448,3.4,3.4,0,0,0,.1.828h-3.345a2.687,2.687,0,0,1-1.069-.207,3.4,3.4,0,0,0,1.276-1.241,3.647,3.647,0,0,0,.517-1.9,3.207,3.207,0,1,0-6.414,0,3.646,3.646,0,0,0,.517,1.9,3.4,3.4,0,0,0,1.276,1.241,2.81,2.81,0,0,1-1.069.207H327.51a.967.967,0,0,1-.69-.379,2.612,2.612,0,0,1-.276-1.345V581.5H325.2v7.207a2.456,2.456,0,0,0,.655,1.862,1.838,1.838,0,0,0,1.379.621H329.3a8.854,8.854,0,0,0,1.655-.1,5.325,5.325,0,0,0,1.655-.655,5.508,5.508,0,0,0,1.621.655,8.854,8.854,0,0,0,1.655.1h3.034a2.844,2.844,0,0,0,2.517,1.241,2.8,2.8,0,0,0,2.448-1.241h3c1.483,0,2.241-.931,2.241-2.69v-6.965h-1.31v6.482Zm-15.172.862a3.438,3.438,0,0,1-1.379-1.1,2.374,2.374,0,0,1-.448-1.414,1.7,1.7,0,0,1,1.793-1.793,1.766,1.766,0,0,1,1.345.517,1.806,1.806,0,0,1,.448,1.276,2.449,2.449,0,0,1-.448,1.414A3.41,3.41,0,0,1,332.751,588.879Zm8.827,2.31a1.494,1.494,0,0,1-1.276-.621,2.821,2.821,0,0,1-.379-1.517,2.638,2.638,0,0,1,.379-1.586,1.45,1.45,0,0,1,1.31-.69,1.294,1.294,0,0,1,1.207.655,2.576,2.576,0,0,1,.345,1.448C343.165,590.431,342.648,591.189,341.579,591.189Z" transform="translate(-248.031 -580.672)" fill="#5f6062"/><rect width="1.31" height="9.655" transform="translate(102.789 0.862)" fill="#5f6062"/><path d="M411.345,595.707c-.138,1.172-.724,1.759-1.793,1.759h-.172v1.31h.172c2.138-.138,3.138-1.31,3.138-3.758v-2.138c0-1.931-1.207-3.379-2.827-3.379-1.69,0-2.862,1.379-2.862,3.345s1.207,3.345,2.862,3.345A2.127,2.127,0,0,0,411.345,595.707Zm-3.034-2.9c0-1.241.621-2.1,1.517-2.1.931,0,1.586.931,1.586,2.172s-.621,2.1-1.517,2.1C408.965,594.982,408.31,594.086,408.31,592.81Z" transform="translate(-301.625 -585.914)" fill="#5f6062"/><path d="M443.593,593.772V589.6h-1.31v3.724c0,1.552-.379,1.828-1.241,1.828h-4.1c-1.9,0-2.827-1-2.827-3.034V589.6H432.8v2.517q0,4.345,4.241,4.345h4.31C442.386,596.5,443.593,596.014,443.593,593.772Z" transform="translate(-318.529 -585.979)" fill="#5f6062"/><rect width="1.31" height="1.552" transform="translate(119.995 2.379)" fill="#5f6062"/><rect width="1.345" height="1.552" transform="translate(118.167 2.379)" fill="#5f6062"/><path d="M478.034,591.282a8.6,8.6,0,0,0,1.655.1H492.24v-.138a15.637,15.637,0,0,0,.069-1.69c0-3.345-1.172-5.034-3.552-5.034a5.277,5.277,0,0,0-4.172,2.793v-2.069h-1.31v2.759c0,1.414-.448,2.1-1.345,2.1h-3.1a3.124,3.124,0,0,1-1.1-.207A3.4,3.4,0,0,0,479,588.662a3.647,3.647,0,0,0,.517-1.9,3.178,3.178,0,0,0-.793-2.172,3.457,3.457,0,0,0-4.793,0,3.2,3.2,0,0,0-.828,2.172,3.646,3.646,0,0,0,.517,1.9A3.4,3.4,0,0,0,474.9,589.9a2.81,2.81,0,0,1-1.069.207h-2.621a.968.968,0,0,1-.69-.379,2.667,2.667,0,0,1-.241-1.345V581.8H469v7.207a2.456,2.456,0,0,0,.655,1.862,1.838,1.838,0,0,0,1.379.621H473.1a8.852,8.852,0,0,0,1.655-.1,5.321,5.321,0,0,0,1.655-.655A15.077,15.077,0,0,0,478.034,591.282Zm6.345-1.276c.759-2.31,2.724-4.276,4.345-4.276,1.414,0,2.31,1.379,2.31,3.552a5.844,5.844,0,0,1-.034.759h-6.586v-.035Zm-9.344-2.034a2.374,2.374,0,0,1-.448-1.414,1.7,1.7,0,0,1,1.793-1.793,1.665,1.665,0,0,1,1.793,1.793,2.731,2.731,0,0,1-.448,1.414,3.278,3.278,0,0,1-1.345,1.1A3.572,3.572,0,0,1,475.034,587.972Z" transform="translate(-342.247 -580.869)" fill="#5f6062"/><rect width="1.31" height="1.552" transform="translate(133.511 0.207)" fill="#5f6062"/><rect width="1.31" height="9.655" transform="translate(151.614 0.862)" fill="#5f6062"/><path d="M572.365,588.465V581.5h-1.31v6.517a2.921,2.921,0,0,1-.207,1.31,1.042,1.042,0,0,1-1.034.517h-2.276a5.178,5.178,0,0,0,.172-1.379V581.5H566.4v6.517a2.922,2.922,0,0,1-.207,1.31,1.065,1.065,0,0,1-1.069.517h-2.138a3.474,3.474,0,0,0,.1-.862,3.631,3.631,0,0,0-.793-2.414,2.852,2.852,0,0,0-2.31-1,2.922,2.922,0,0,0-2.31.966,3.691,3.691,0,0,0-.828,2.448,6.7,6.7,0,0,0,.069.828h-2.827v-2.517c0-1.931-.966-3.034-2.69-3.034a2.747,2.747,0,0,0-2.138,1,3.715,3.715,0,0,0-.862,2.448,3.861,3.861,0,0,0,.793,2.448,2.517,2.517,0,0,0,2.069,1h1.31a1.457,1.457,0,0,1-1.517,1.069h-.276v1.31h.172a2.932,2.932,0,0,0,3-2.379h3.483a2.871,2.871,0,0,0,2.517,1.276,2.719,2.719,0,0,0,2.448-1.276h7.586C571.606,591.189,572.365,590.258,572.365,588.465Zm-21,1.379a1.353,1.353,0,0,1-1.172-.724,2.83,2.83,0,0,1-.379-1.448,2.516,2.516,0,0,1,.414-1.414,1.316,1.316,0,0,1,1.172-.69,1.289,1.289,0,0,1,1.069.448,1.33,1.33,0,0,1,.345.966v2.9h0Zm8.689,1.345a1.494,1.494,0,0,1-1.276-.621,2.821,2.821,0,0,1-.379-1.517,2.91,2.91,0,0,1,.379-1.586,1.531,1.531,0,0,1,1.31-.69,1.334,1.334,0,0,1,1.207.621,2.576,2.576,0,0,1,.345,1.448C561.675,590.431,561.124,591.189,560.055,591.189Z" transform="translate(-394.269 -580.672)" fill="#5f6062"/><rect width="1.31" height="1.552" transform="translate(185.337)" fill="#5f6062"/><rect width="1.31" height="1.552" transform="translate(183.509)" fill="#5f6062"/><rect width="1.31" height="1.552" transform="translate(189.612 11.172)" fill="#5f6062"/><rect width="1.31" height="1.552" transform="translate(191.44 11.172)" fill="#5f6062"/><path d="M636.507,593.941c1.483,0,2.241-.931,2.241-2.69v-4.172h-1.31V590.8a2.921,2.921,0,0,1-.207,1.31,1.042,1.042,0,0,1-1.034.517H634.92c-1.034,0-1.655-.759-1.655-2.138V585.7h-3.138c-1.69,0-2.828,1.517-2.828,3.655,0,2.034,1.138,3.586,2.69,3.586a2.518,2.518,0,0,0,2.1-.9,2.715,2.715,0,0,0,2.758,1.9h1.655Zm-4.552-4.793q-.052,2.69-1.655,2.69c-.965,0-1.69-1.1-1.69-2.517,0-1.483.724-2.517,1.724-2.517h1.655v2.345Z" transform="translate(-445.963 -583.424)" fill="#5f6062"/><path d="M666.19,589.6h-.138v1.276h.517a2.914,2.914,0,0,1,2.483,1.414,5.667,5.667,0,0,1,.655,2.862H664.5V596.5h6.551v-.172a10.409,10.409,0,0,0-.655-4.207A4.184,4.184,0,0,0,666.19,589.6Z" transform="translate(-470.336 -585.979)" fill="#5f6062"/><path d="M720.512,588.465V581.5H719.2v6.517a2.922,2.922,0,0,1-.207,1.31,1.042,1.042,0,0,1-1.034.517h-2.655a4.194,4.194,0,0,0,.172-1.379v-4.172H714.2v3.724c0,1.552-.379,1.828-1.241,1.828h-1.448a5.178,5.178,0,0,0,.172-1.379v-4.172h-1.31v3.724c0,1.552-.31,1.828-1.034,1.828h-1.655a4.147,4.147,0,0,0,.207-1.379v-4.172h-1.31v3.862c0,1.069-.448,1.69-1.31,1.69h-2.827a3.926,3.926,0,0,1-1.1-.069,1.935,1.935,0,0,1-.827-.552,9.129,9.129,0,0,0,1.758-1.9,16.2,16.2,0,0,0,.9-1.586l.069-.1-.1-.1a5.886,5.886,0,0,0-3.793-1.414,6.811,6.811,0,0,0-3.621,1.172l-.069.034v1.345l.1.034a6.243,6.243,0,0,1,2.862,2.345,4.582,4.582,0,0,1-1.069.621,3.378,3.378,0,0,1-1.241.172h-3.517v-2.517c0-1.931-.966-3.034-2.69-3.034a2.8,2.8,0,0,0-2.138,1,3.986,3.986,0,0,0-.069,4.862,2.612,2.612,0,0,0,2.069,1h1.31a1.444,1.444,0,0,1-1.483,1.069h-.31v1.31h.172a2.872,2.872,0,0,0,2.965-2.345h3.69a4.746,4.746,0,0,0,3.138-1.069,2.662,2.662,0,0,0,2.138,1.069H718.34C719.788,591.189,720.512,590.258,720.512,588.465Zm-29.1,1.379h-1.483a1.314,1.314,0,0,1-1.172-.724,2.83,2.83,0,0,1-.379-1.448,2.516,2.516,0,0,1,.414-1.414,1.316,1.316,0,0,1,1.172-.69,1.247,1.247,0,0,1,1.069.448,1.5,1.5,0,0,1,.345.966v2.862Zm8.172-1.621a7.4,7.4,0,0,0-1.207-1.379,6.208,6.208,0,0,0-1.379-.862,4.22,4.22,0,0,1,3.689-.379,9.473,9.473,0,0,1,.9.448A6.579,6.579,0,0,1,699.582,588.224Z" transform="translate(-485.143 -580.672)" fill="#5f6062"/><rect width="1.31" height="9.655" transform="translate(236.955 0.862)" fill="#5f6062"/><rect width="1.31" height="1.552" transform="translate(243.817)" fill="#5f6062"/><rect width="1.31" height="1.552" transform="translate(245.679)" fill="#5f6062"/><path d="M828.321,583.472H826.39a1,1,0,0,1-.1-.483c0-.724.31-.828.552-.828.172,0,.414.069.517.517v.172l1.034-.138-.034-.172a1.438,1.438,0,0,0-1.517-1.241,1.469,1.469,0,0,0-1.207.517,1.909,1.909,0,0,0-.379,1.172,2.323,2.323,0,0,0,.069.483H824.7v1.034h3.62Z" transform="translate(-575.297 -580.541)" fill="#5f6062"/><rect width="1.345" height="1.552" transform="translate(256.334 11.172)" fill="#5f6062"/><rect width="1.31" height="1.552" transform="translate(254.472 11.172)" fill="#5f6062"/><path d="M831.885,588.017a3.471,3.471,0,0,1-.172,1.31,1.065,1.065,0,0,1-1.069.517h-1.758v-.793a6.741,6.741,0,0,0-1-3.724,5.877,5.877,0,0,0-3.379-2.379l-.172-.034v1.345l.1.034a4.84,4.84,0,0,1,3.1,5.552H825.92a3.224,3.224,0,0,0,.483-1.828,2.681,2.681,0,0,0-2.655-2.965,2.731,2.731,0,0,0-2.724,2.965,3.522,3.522,0,0,0,.483,1.828h-3.448a4.008,4.008,0,0,0,.207-1.379v-4.172h-1.31v3.724a3.7,3.7,0,0,1-.172,1.31,1.1,1.1,0,0,1-1.069.517h-2.241a4.008,4.008,0,0,0,.207-1.379v-3.448h-1.31v3a2.921,2.921,0,0,1-.207,1.31,1.065,1.065,0,0,1-1.069.517H809.92c-1.034,0-1.655-.759-1.655-2.138v-4.793h-3.138c-1.69,0-2.827,1.517-2.827,3.655,0,2.034,1.138,3.586,2.655,3.586a2.49,2.49,0,0,0,2.1-.931,2.674,2.674,0,0,0,2.724,1.9h21.171c1.034,0,2.207-.483,2.207-2.69V581.5h-1.31v6.517ZM806.921,586.4q-.052,2.69-1.655,2.69c-.966,0-1.69-1.1-1.69-2.517,0-1.483.724-2.517,1.724-2.517h1.621Zm16.827,3.448c-.828,0-1.345-.69-1.345-1.759,0-.69.172-1.9,1.414-1.9,1.069,0,1.276.965,1.276,1.758C825.058,589.638,824.3,589.844,823.747,589.844Z" transform="translate(-560.621 -580.672)" fill="#5f6062"/><rect width="1.31" height="9.655" transform="translate(274.16 0.862)" fill="#5f6062"/></g><g transform="translate(0 16.137)"><path d="M105.252,631.945a4.672,4.672,0,0,1-1.552-.828,1.188,1.188,0,0,1-.345-.793c0-.828.724-1.414,1.759-1.414a2.809,2.809,0,0,1,1.862.69l.241.207.655-.759.138-.172-.172-.172a3.817,3.817,0,0,0-2.793-1.1,2.765,2.765,0,0,0-3.069,2.724,2.416,2.416,0,0,0,.655,1.758,5.641,5.641,0,0,0,1.965,1.138,6.017,6.017,0,0,1,1.621.9,1.286,1.286,0,0,1,.414.931c0,1.069-.69,1.655-1.9,1.655a3.416,3.416,0,0,1-2.1-.828l-.207-.138-.621.862-.1.207.172.172a4.558,4.558,0,0,0,2.931,1.069,3.009,3.009,0,0,0,3.31-3.1,2.665,2.665,0,0,0-.828-1.931A7.658,7.658,0,0,0,105.252,631.945Z" transform="translate(-26.935 -627.014)" fill="#5f6062"/><path d="M126.9,635.4a4.514,4.514,0,0,0-2.552.759l-.138.172.483.793.172.207.207-.138a3.59,3.59,0,0,1,1.759-.517,1.413,1.413,0,0,1,1.1.345c.241.241.276.586.276,1.276h-.1c-1.034,0-4.207,0-4.207,2.517a2.318,2.318,0,0,0,2.448,2.379,4.583,4.583,0,0,0,1.965-.483v.345h1.31v-4.689A2.508,2.508,0,0,0,126.9,635.4Zm1.31,6a3.669,3.669,0,0,1-1.655.448c-1.138,0-1.241-.759-1.241-1.069,0-.862.965-1.31,2.793-1.31h.138V641.4Z" transform="translate(-41.48 -632.124)" fill="#5f6062"/><path d="M149.648,641.558a3.992,3.992,0,0,1-1.827.586,1.17,1.17,0,0,1-.9-.345c-.345-.345-.345-.9-.345-1.586v-4.379H145.2v4.414a3.365,3.365,0,0,0,.69,2.483,2.581,2.581,0,0,0,1.862.69,4.3,4.3,0,0,0,1.965-.517v.345h1.31V635.8h-1.379Z" transform="translate(-55.436 -632.386)" fill="#5f6062"/><path d="M171.265,629.417a4.034,4.034,0,0,0-1.31-.241c-2.172,0-3.655,1.655-3.655,4,0,2.241,1.31,3.758,3.276,3.758a3.725,3.725,0,0,0,1.759-.448v.31h1.31V625.9h-1.414v3.517Zm0,5.689a2.556,2.556,0,0,1-1.586.552c-1.172,0-1.965-.965-1.965-2.414,0-1.69.9-2.758,2.241-2.758a2.735,2.735,0,0,1,1.31.345Z" transform="translate(-69.26 -625.9)" fill="#5f6062"/><rect width="1.379" height="7.448" transform="translate(105.281 3.448)" fill="#5f6062"/><path d="M213.086,631.945a4.477,4.477,0,0,1-1.517-.828,1.048,1.048,0,0,1-.345-.793c0-.828.724-1.414,1.759-1.414a2.809,2.809,0,0,1,1.862.69l.276.207.621-.759.138-.172-.172-.172a3.875,3.875,0,0,0-2.793-1.1,2.765,2.765,0,0,0-3.069,2.724,2.6,2.6,0,0,0,.621,1.758,5.641,5.641,0,0,0,1.965,1.138,5.317,5.317,0,0,1,1.586.9,1.286,1.286,0,0,1,.414.931c0,1.069-.69,1.655-1.9,1.655a3.416,3.416,0,0,1-2.1-.828l-.207-.138-.621.862-.1.207.172.172a4.648,4.648,0,0,0,2.931,1.069,2.992,2.992,0,0,0,3.31-3.1,2.665,2.665,0,0,0-.828-1.931A5.835,5.835,0,0,0,213.086,631.945Z" transform="translate(-97.564 -627.014)" fill="#5f6062"/><path d="M234.879,638.169c0,.034-.034.034-.1.069a3.069,3.069,0,0,1-.862.172.888.888,0,0,1-.621-.172c-.207-.207-.207-.621-.207-1.1v-3.827h2.207v-1.241h-2.207V630.1h-1.379v1.965H230.5v1.241h1.207v3.827c0,.862,0,1.483.483,1.966a2.164,2.164,0,0,0,1.621.586,3.009,3.009,0,0,0,1.483-.379l.207-.1-.379-1.1Z" transform="translate(-111.323 -628.652)" fill="#5f6062"/><path d="M250.069,635.4a4.514,4.514,0,0,0-2.552.759l-.172.138.448.793.172.207.207-.138a3.7,3.7,0,0,1,1.759-.517,1.552,1.552,0,0,1,1.138.345,1.876,1.876,0,0,1,.276,1.276h-.1c-1.034,0-4.241,0-4.241,2.517a2.318,2.318,0,0,0,2.448,2.379,4.324,4.324,0,0,0,1.931-.483v.345h1.31v-4.689a2.7,2.7,0,0,0-.621-2.172A2.526,2.526,0,0,0,250.069,635.4Zm1.276,6a3.669,3.669,0,0,1-1.655.448c-1.138,0-1.241-.759-1.241-1.069,0-.862.931-1.31,2.793-1.31h.1V641.4Z" transform="translate(-122.134 -632.124)" fill="#5f6062"/><path d="M272.045,635.4a4.338,4.338,0,0,0-2,.517v-.345H268.7v7.448h1.379v-5.758a4.217,4.217,0,0,1,1.862-.586,1.4,1.4,0,0,1,.9.31c.345.31.345.828.345,1.621v4.379h1.379v-4.414c0-1.276-.1-1.931-.724-2.517A2.517,2.517,0,0,0,272.045,635.4Z" transform="translate(-136.351 -632.124)" fill="#5f6062"/><path d="M294.465,629.417a3.851,3.851,0,0,0-1.31-.241,3.686,3.686,0,0,0-3.655,4c0,2.241,1.31,3.758,3.276,3.758a3.725,3.725,0,0,0,1.759-.448v.31h1.31V625.9h-1.379Zm0,5.689a2.527,2.527,0,0,1-1.552.552c-1.207,0-1.965-.965-1.965-2.414,0-1.69.9-2.758,2.241-2.758a2.618,2.618,0,0,1,1.31.345v4.276Z" transform="translate(-149.979 -625.9)" fill="#5f6062"/><path d="M315.2,635.4a4.514,4.514,0,0,0-2.552.759l-.138.172.483.793.138.207.241-.138a3.487,3.487,0,0,1,1.759-.517,1.413,1.413,0,0,1,1.1.345c.241.241.276.586.276,1.276h-.1c-1.034,0-4.207,0-4.207,2.517a2.318,2.318,0,0,0,2.448,2.379,4.439,4.439,0,0,0,1.931-.483v.345h1.31v-4.689c0-1.069-.069-1.655-.621-2.172A2.629,2.629,0,0,0,315.2,635.4Zm1.276,6a3.669,3.669,0,0,1-1.655.448c-1.138,0-1.241-.759-1.241-1.069,0-.862.965-1.31,2.793-1.31h.1Z" transform="translate(-164.852 -632.124)" fill="#5f6062"/><path d="M336.976,635.4a3,3,0,0,0-1.931.69v-.517H333.7v7.448h1.379v-5.276a2.053,2.053,0,0,1,1.827-1.034c.207,0,.379.034.517.034l.241.034.241-.931.034-.241-.207-.1A1.572,1.572,0,0,0,336.976,635.4Z" transform="translate(-178.939 -632.124)" fill="#5f6062"/><path d="M351.765,629.417a4.034,4.034,0,0,0-1.31-.241,3.686,3.686,0,0,0-3.655,4c0,2.241,1.31,3.758,3.276,3.758a3.725,3.725,0,0,0,1.759-.448v.31h1.31V625.9h-1.379Zm0,5.689a2.556,2.556,0,0,1-1.586.552c-1.172,0-1.965-.965-1.965-2.414,0-1.69.862-2.758,2.241-2.758a2.618,2.618,0,0,1,1.31.345Z" transform="translate(-187.522 -625.9)" fill="#5f6062"/><path d="M372.041,638.507l-.414-.172c-.69-.276-1.069-.448-1.069-.966,0-.483.621-.793,1.241-.793a3.321,3.321,0,0,1,1.552.448l.241.138.552-1.034-.138-.138a3.64,3.64,0,0,0-2.276-.69c-1.517,0-2.552.862-2.552,2.069,0,1.414,1.034,1.828,2.069,2.207l.207.069c.793.276,1.345.552,1.345,1.172,0,.862-.965.931-1.414.931a3.718,3.718,0,0,1-1.724-.517l-.241-.138-.621,1.069.172.138a4.311,4.311,0,0,0,2.483.759c1.69,0,2.724-.9,2.724-2.31C374.179,639.369,372.938,638.886,372.041,638.507Z" transform="translate(-201.936 -632.059)" fill="#5f6062"/><path d="M388.362,653.214a3.754,3.754,0,0,1-.724,2.207l-.138.207.759.586.207.1.172-.138a4.1,4.1,0,0,0,1.31-3.034V652.8h-1.586Z" transform="translate(-214.188 -643.525)" fill="#5f6062"/><path d="M419.375,628.1l-2.793,7.793-2.862-7.793h-1.448L411.1,638.237h1.379l.793-7.413,2.69,7.413h1.1l2.655-7.413.828,7.413h1.483L420.824,628.1Z" transform="translate(-229.65 -627.341)" fill="#5f6062"/><path d="M450.414,635.4c-2.069,0-3.414,1.552-3.414,3.931,0,2.31,1.345,3.827,3.448,3.827a4.536,4.536,0,0,0,2.69-.828l.1-.138-.483-.793-.172-.207-.241.138a3.808,3.808,0,0,1-1.828.483,2.008,2.008,0,0,1-2.1-2.1h4.931v-.552a1.5,1.5,0,0,1,.034-.172C453.414,636.814,452.241,635.4,450.414,635.4Zm-1.931,3.069a1.981,1.981,0,0,1,1.965-1.828c1.1,0,1.483,1.034,1.552,1.828Z" transform="translate(-253.171 -632.124)" fill="#5f6062"/><path d="M471.779,638.169c-.034.034-.069.034-.138.069a3.057,3.057,0,0,1-.828.172,1.066,1.066,0,0,1-.655-.172,1.941,1.941,0,0,1-.172-1.1v-3.827h2.207v-1.241h-2.207V630.1h-1.379v1.965H467.4v1.241h1.207v3.827c0,.862,0,1.483.483,1.966a2.164,2.164,0,0,0,1.621.586,2.884,2.884,0,0,0,1.483-.379l.207-.1-.379-1.1Z" transform="translate(-266.537 -628.652)" fill="#5f6062"/><path d="M489.141,635.4a3.079,3.079,0,0,0-1.931.69v-.517H485.9v7.448h1.379v-5.276a2.092,2.092,0,0,1,1.828-1.034c.207,0,.379.034.517.034l.241.034.241-.931.035-.241-.207-.1A1.944,1.944,0,0,0,489.141,635.4Z" transform="translate(-278.658 -632.124)" fill="#5f6062"/><path d="M502.348,635.4c-2.069,0-3.448,1.517-3.448,3.9,0,2.345,1.31,3.9,3.379,3.9s3.414-1.483,3.414-3.827C505.693,636.952,504.383,635.4,502.348,635.4Zm-.035,6.482c-1.172,0-2-1.1-2-2.621,0-1.621.759-2.586,1.965-2.586,1.172,0,2,1.1,2,2.655C504.279,640.917,503.555,641.883,502.314,641.883Z" transform="translate(-287.176 -632.124)" fill="#5f6062"/><path d="M534.548,635.4c-2.1,0-3.448,1.517-3.448,3.9,0,2.345,1.31,3.9,3.379,3.9s3.414-1.483,3.414-3.827C537.893,636.952,536.583,635.4,534.548,635.4Zm-.034,6.482c-1.172,0-2-1.1-2-2.621,0-1.621.759-2.586,2-2.586,1.172,0,2,1.1,2,2.655C536.479,640.917,535.755,641.883,534.514,641.883Z" transform="translate(-308.273 -632.124)" fill="#5f6062"/><path d="M560.038,635.986a6.173,6.173,0,0,0-2.448-.586,3.7,3.7,0,0,0-3.689,3.965c0,2.138,1.345,3.655,3.207,3.655a4.1,4.1,0,0,0,1.759-.414v.1c0,1.1,0,1.483-.379,1.828a1.83,1.83,0,0,1-1.448.448,3.462,3.462,0,0,1-1.931-.621l-.276-.172-.621,1,.138.172a4.5,4.5,0,0,0,2.724.931,3.213,3.213,0,0,0,2.448-.862,3.421,3.421,0,0,0,.69-2.586v-6.586l-.034-.207Zm-1.138,5.207h0a3.306,3.306,0,0,1-1.69.517c-1.138,0-1.9-.966-1.9-2.414,0-1.621.862-2.655,2.241-2.655a3.519,3.519,0,0,1,1.31.241v4.31Z" transform="translate(-323.211 -632.124)" fill="#5f6062"/><path d="M579.4,641.252l-2.172-5.483h-1.517l2.931,7.344a4.856,4.856,0,0,1-.931,1.724,1.27,1.27,0,0,1-.931.31,2.579,2.579,0,0,1-.828-.138l-.31-.1-.31.931-.034.241.241.069a3.054,3.054,0,0,0,1.31.276,2.6,2.6,0,0,0,1.862-.724,5.806,5.806,0,0,0,1.276-2.241l2.862-7.758H581.4Z" transform="translate(-337.232 -632.321)" fill="#5f6062"/><path d="M613,635.4a4.514,4.514,0,0,0-2.552.759l-.172.138.448.793.138.207.207-.138a3.488,3.488,0,0,1,1.759-.517,1.552,1.552,0,0,1,1.138.345c.241.241.276.586.276,1.276h-.1c-1.069,0-4.241,0-4.241,2.517a2.318,2.318,0,0,0,2.448,2.379,4.324,4.324,0,0,0,1.931-.483v.345h1.31v-4.689c0-1.069-.069-1.655-.621-2.172A2.4,2.4,0,0,0,613,635.4Zm1.276,6a3.809,3.809,0,0,1-1.655.448c-1.138,0-1.276-.759-1.276-1.069,0-.862.966-1.31,2.793-1.31h.138Z" transform="translate(-359.901 -632.124)" fill="#5f6062"/><path d="M634.979,635.4a4.989,4.989,0,0,0-2.034.517v-.345H631.6v7.448h1.379v-5.758a4.217,4.217,0,0,1,1.862-.586,1.477,1.477,0,0,1,.9.31c.31.31.31.828.31,1.621v4.379h1.379v-4.414c0-1.276-.1-1.931-.724-2.552A2.374,2.374,0,0,0,634.979,635.4Z" transform="translate(-374.119 -632.124)" fill="#5f6062"/><path d="M657.565,629.417a4.034,4.034,0,0,0-1.31-.241,3.686,3.686,0,0,0-3.655,4c0,2.241,1.345,3.758,3.31,3.758a3.46,3.46,0,0,0,1.724-.448v.31h1.31V625.9h-1.379Zm0,5.689a2.556,2.556,0,0,1-1.586.552c-1.172,0-1.965-.965-1.965-2.414,0-1.69.862-2.758,2.241-2.758a2.735,2.735,0,0,1,1.31.345Z" transform="translate(-387.878 -625.9)" fill="#5f6062"/><path d="M695.289,638.534h-.138c-.138,0-.379.034-.724.034a3.508,3.508,0,0,1-2.448-.724c2.517-.448,3.655-2.827,3.655-5.138,0-3-1.862-5.207-4.448-5.207-2.69,0-4.586,2.207-4.586,5.31,0,2.931,1.793,4.724,3.586,5.034a4.3,4.3,0,0,0,3.862,1.965,5.2,5.2,0,0,0,1.345-.138l.241-.069-.172-1.138h-.172Zm-7.138-5.827c0-2.345,1.172-3.9,2.965-3.9s3.034,1.586,3.034,3.827c0,2.483-1.138,4.034-3,4.034C689.427,636.672,688.152,635.017,688.152,632.707Z" transform="translate(-410.154 -626.948)" fill="#5f6062"/><path d="M721.782,641.558c-1.138.655-2.207.793-2.759.241-.345-.345-.345-.9-.345-1.586v-4.379H717.3v4.414a3.221,3.221,0,0,0,.69,2.483,2.582,2.582,0,0,0,1.862.69,4.183,4.183,0,0,0,1.965-.517v.345h1.31V635.8h-1.379v5.758Z" transform="translate(-430.268 -632.386)" fill="#5f6062"/><path d="M741.434,635.4a4.262,4.262,0,0,0-2.552.759l-.138.138.448.793.172.207.241-.138a3.488,3.488,0,0,1,1.759-.517,1.413,1.413,0,0,1,1.1.345c.241.241.276.586.276,1.276h-.1c-1.034,0-4.241,0-4.241,2.517a2.347,2.347,0,0,0,2.483,2.379,4.439,4.439,0,0,0,1.931-.483v.345h1.31v-4.689a2.7,2.7,0,0,0-.621-2.172A2.733,2.733,0,0,0,741.434,635.4Zm1.31,6a3.98,3.98,0,0,1-1.69.448c-1.138,0-1.241-.759-1.241-1.069,0-.862.931-1.31,2.793-1.31h.138Z" transform="translate(-444.093 -632.124)" fill="#5f6062"/><rect width="1.379" height="10.896" transform="translate(301.79)" fill="#5f6062"/><rect width="1.379" height="7.448" transform="translate(304.996 3.448)" fill="#5f6062"/><path d="M781.179,638.169c-.034.034-.069.034-.138.069a3.069,3.069,0,0,1-.862.172.888.888,0,0,1-.621-.172,1.942,1.942,0,0,1-.172-1.1v-3.827h2.207v-1.241h-2.207V630.1h-1.379v1.965H776.8v1.241h1.207v3.827c0,.862,0,1.483.483,1.966a2.164,2.164,0,0,0,1.621.586,2.884,2.884,0,0,0,1.483-.379l.207-.1-.379-1.1Z" transform="translate(-469.252 -628.652)" fill="#5f6062"/><path d="M796.269,641.252l-2.172-5.483h-1.483l2.931,7.344a4.559,4.559,0,0,1-.931,1.724,1.271,1.271,0,0,1-.931.31,2.579,2.579,0,0,1-.828-.138l-.31-.1-.31.931-.035.241.241.069a3,3,0,0,0,1.276.276,2.6,2.6,0,0,0,1.862-.724,5.807,5.807,0,0,0,1.276-2.241l2.862-7.758h-1.448Z" transform="translate(-479.342 -632.321)" fill="#5f6062"/><path d="M831.986,627.6c-2.69,0-4.586,2.207-4.586,5.31,0,3,1.862,5.138,4.448,5.138,2.69,0,4.552-2.172,4.552-5.276C836.434,629.772,834.572,627.6,831.986,627.6Zm-.035,9.138c-1.758,0-3.034-1.655-3.034-3.965,0-2.345,1.172-3.9,3-3.9,1.793,0,3.034,1.586,3.034,3.827C834.917,635.22,833.814,636.738,831.951,636.738Z" transform="translate(-502.405 -627.014)" fill="#5f6062"/><path d="M861.641,635.4a3,3,0,0,0-1.931.69v-.517H858.4v7.448h1.379v-5.276a2.092,2.092,0,0,1,1.828-1.034c.207,0,.379.034.517.034l.241.034.241-.931.034-.241-.207-.1A1.944,1.944,0,0,0,861.641,635.4Z" transform="translate(-522.715 -632.124)" fill="#5f6062"/><path d="M875.189,635.4a3.7,3.7,0,0,0-3.689,3.965c0,2.138,1.345,3.655,3.207,3.655a4.061,4.061,0,0,0,1.759-.414v.1c0,1.1,0,1.483-.379,1.828a1.87,1.87,0,0,1-1.448.448,3.461,3.461,0,0,1-1.931-.621l-.276-.172-.621,1,.138.172a4.391,4.391,0,0,0,2.724.931,3.315,3.315,0,0,0,2.448-.828,3.423,3.423,0,0,0,.724-2.586v-6.758l-.241-.1A5.571,5.571,0,0,0,875.189,635.4Zm1.241,5.793a3.29,3.29,0,0,1-1.655.517c-1.1,0-1.862-.965-1.862-2.414,0-1.621.862-2.655,2.241-2.655a3.52,3.52,0,0,1,1.31.241v4.31Z" transform="translate(-531.298 -632.124)" fill="#5f6062"/><rect width="1.379" height="1.621" transform="translate(105.281 0.586)" fill="#5f6062"/><rect width="1.379" height="1.621" transform="translate(304.996 0.586)" fill="#5f6062"/><rect width="1.552" height="1.793" transform="translate(348.546 9.172)" fill="#5f6062"/></g></g><g transform="translate(102.513 0)"><g transform="translate(36.343)"><path d="M504.169,361.613a71.5,71.5,0,0,1,6.551,9.172h0a68.8,68.8,0,0,1,4.689,10.275L538.2,394.2a86.527,86.527,0,0,0-4-17.241,83.454,83.454,0,0,0-5.069-11.862c-.655-1.276-1.379-2.552-2.1-3.793s-1.448-2.483-2.241-3.724a83.678,83.678,0,0,0-7.724-10.31A88.133,88.133,0,0,0,504.1,335.2v26.413Z" transform="translate(-504.1 -335.2)" fill="url(#a)"/></g><path d="M432.733,361.613a71.5,71.5,0,0,0-6.551,9.172h0a68.8,68.8,0,0,0-4.689,10.275L398.7,394.2a86.531,86.531,0,0,1,4-17.241,83.458,83.458,0,0,1,5.069-11.862c.69-1.276,1.379-2.552,2.1-3.793s1.448-2.483,2.207-3.724a83.678,83.678,0,0,1,7.724-10.31A88.13,88.13,0,0,1,432.767,335.2v26.413Z" transform="translate(-398.7 -335.2)" fill="url(#b)"/><g transform="translate(1.241 47.894)"><path d="M425.092,474.134a76.132,76.132,0,0,0,11.241,1.069h0a67.856,67.856,0,0,0,11.241-1.1L470.4,487.237a87.067,87.067,0,0,1-16.93,5.207,88.222,88.222,0,0,1-12.793,1.586c-1.448.069-2.9.1-4.31.069-1.414,0-2.862,0-4.31-.069a83.587,83.587,0,0,1-12.793-1.517,89.7,89.7,0,0,1-16.965-5.172Z" transform="translate(-402.3 -474.1)" fill="url(#c)"/></g><g transform="translate(17.827 52.935)"><path d="M453.331,498.4a4.356,4.356,0,0,1-2.931-1.586l1.069-1.207a3.835,3.835,0,0,0,2.034,1.1c.9.138,1.552-.207,1.655-.862a1.083,1.083,0,0,0-.138-.69c-.483-.69-2.1-1.172-2.9-2.31a2.406,2.406,0,0,1-.448-1.862c.276-1.655,1.793-2.517,3.655-2.207a4.265,4.265,0,0,1,2.724,1.483l-1.1,1.1a3.573,3.573,0,0,0-1.793-1c-.828-.138-1.448.172-1.552.724a.664.664,0,0,0,.138.586c.379.517,2.207,1.241,3,2.379a2.342,2.342,0,0,1,.414,1.931C456.882,497.781,455.331,498.746,453.331,498.4Z" transform="translate(-450.4 -488.719)" fill="#fff"/><path d="M479.889,501.551l-.552-2-3.345-.207-.793,1.9-2-.1L477.165,492l2,.138,2.827,9.551Zm-1.931-7.379-1.414,3.689,2.345.138Z" transform="translate(-465.338 -490.869)" fill="#fff"/><path d="M505.307,501.586a4.792,4.792,0,0,1-3.207-.965l.828-1.379a4.239,4.239,0,0,0,2.207.69c.9-.034,1.483-.517,1.448-1.207a.961.961,0,0,0-.276-.655c-.621-.552-2.276-.724-3.31-1.655a2.468,2.468,0,0,1-.793-1.724c-.069-1.69,1.241-2.827,3.138-2.9a4.274,4.274,0,0,1,2.965.9l-.862,1.31a3.526,3.526,0,0,0-1.965-.621c-.828.034-1.414.448-1.379,1.034a.7.7,0,0,0,.241.552c.483.414,2.414.793,3.414,1.724a2.286,2.286,0,0,1,.793,1.828C508.651,500.241,507.341,501.482,505.307,501.586Z" transform="translate(-484.273 -490.73)" fill="#fff"/><path d="M530.047,499.073c-2.69.414-4.827-1.31-5.276-4.241-.414-2.862,1.1-5.034,3.793-5.448a4.479,4.479,0,0,1,5.241,4.1C534.254,496.487,532.668,498.694,530.047,499.073ZM528.737,491c-1.483.241-2.241,1.724-1.965,3.655s1.586,3,3.034,2.759c1.9-.276,2.207-2.172,2-3.655C531.53,491.936,530.289,490.763,528.737,491Z" transform="translate(-499.083 -489.115)" fill="#fff"/></g><g transform="translate(17.827 52.935)"><path d="M453.331,498.4a4.356,4.356,0,0,1-2.931-1.586l1.069-1.207a3.835,3.835,0,0,0,2.034,1.1c.9.138,1.552-.207,1.655-.862a1.083,1.083,0,0,0-.138-.69c-.483-.69-2.1-1.172-2.9-2.31a2.406,2.406,0,0,1-.448-1.862c.276-1.655,1.793-2.517,3.655-2.207a4.265,4.265,0,0,1,2.724,1.483l-1.1,1.1a3.573,3.573,0,0,0-1.793-1c-.828-.138-1.448.172-1.552.724a.664.664,0,0,0,.138.586c.379.517,2.207,1.241,3,2.379a2.342,2.342,0,0,1,.414,1.931C456.882,497.781,455.331,498.746,453.331,498.4Z" transform="translate(-450.4 -488.719)" fill="#fff"/><path d="M479.889,501.551l-.552-2-3.345-.207-.793,1.9-2-.1L477.165,492l2,.138,2.827,9.551Zm-1.931-7.379-1.414,3.689,2.345.138Z" transform="translate(-465.338 -490.869)" fill="#fff"/><path d="M505.307,501.586a4.792,4.792,0,0,1-3.207-.965l.828-1.379a4.239,4.239,0,0,0,2.207.69c.9-.034,1.483-.517,1.448-1.207a.961.961,0,0,0-.276-.655c-.621-.552-2.276-.724-3.31-1.655a2.468,2.468,0,0,1-.793-1.724c-.069-1.69,1.241-2.827,3.138-2.9a4.274,4.274,0,0,1,2.965.9l-.862,1.31a3.526,3.526,0,0,0-1.965-.621c-.828.034-1.414.448-1.379,1.034a.7.7,0,0,0,.241.552c.483.414,2.414.793,3.414,1.724a2.286,2.286,0,0,1,.793,1.828C508.651,500.241,507.341,501.482,505.307,501.586Z" transform="translate(-484.273 -490.73)" fill="#fff"/><path d="M530.047,499.073c-2.69.414-4.827-1.31-5.276-4.241-.414-2.862,1.1-5.034,3.793-5.448a4.479,4.479,0,0,1,5.241,4.1C534.254,496.487,532.668,498.694,530.047,499.073ZM528.737,491c-1.483.241-2.241,1.724-1.965,3.655s1.586,3,3.034,2.759c1.9-.276,2.207-2.172,2-3.655C531.53,491.936,530.289,490.763,528.737,491Z" transform="translate(-499.083 -489.115)" fill="#fff"/></g></g></svg>