<svg xmlns="http://www.w3.org/2000/svg" width="270.234" height="82.269" viewBox="0 0 270.234 82.269"><g transform="translate(0)"><g transform="translate(0 0.825)"><g transform="translate(10.322 0.977)"><path d="M105.87,28.262a38.238,38.238,0,0,1-4.06-.026,3.11,3.11,0,0,1-3.011-3.77,6.75,6.75,0,0,1,.218-1.224,10.154,10.154,0,0,1,2.122-4.1,1.666,1.666,0,0,1,2.75-.1,11.823,11.823,0,0,1,2.708,4.578.579.579,0,0,0,.685.47,10.8,10.8,0,0,0,5.226-1.4c.2-.117.386-.248.587-.376-1.092-1.277-1.911-1.486-3.344-.8.028-.437.028-.822.081-1.2a4.46,4.46,0,0,1,4.188-4.18,7.4,7.4,0,0,1,4.936.754,2.265,2.265,0,0,1,1.236,3.162,19.786,19.786,0,0,1-1.141,2.272c.695.262,1.441.6,2.222.822a26.52,26.52,0,0,0,7.41.788,41.213,41.213,0,0,0,10.425-1.079,8.334,8.334,0,0,0,4.715-2.779,3.016,3.016,0,0,1,.863-.534,4.46,4.46,0,0,1,.026,1.026,13.653,13.653,0,0,1-.469,1.489,9.682,9.682,0,0,0,4.728-.526,4.194,4.194,0,0,0,1.862-1.971c.284-.5.506-1.039.8-1.534.09-.153.326-.219.5-.326.072.173.216.352.2.518-.048.5-.17.993-.235,1.492-.018.131.016.363.1.4a7.319,7.319,0,0,0,3.439,1.016,2.711,2.711,0,0,0,.387-.089c-.932-2,.235-3.56,1.146-5.231a11.669,11.669,0,0,1,.277,1.31,11.816,11.816,0,0,1-.906,5.933c-.7,1.616-1.278,1.86-2.855,1.094-.946-.461-1.811-1.087-2.754-1.664-.02.032-.117.188-.217.352a6.534,6.534,0,0,1-6.067,3.478,16.355,16.355,0,0,1-1.729-.086c-.768-.093-.914-.265-1.039-1.039a2.065,2.065,0,0,0-.289.1,25.372,25.372,0,0,1-9.01,2.553,39.874,39.874,0,0,1-8.436.1,15.222,15.222,0,0,1-7.974-2.779.683.683,0,0,0-.6.019,24.251,24.251,0,0,1-6.053,2.582c-.7.173-1.42.254-2.122.416-.158.036-.39.224-.4.36-.421,4.21-2.8,7.3-5.736,10.073-.3.284-.626.547-.954.8a4.328,4.328,0,0,1-2.806.946,36.1,36.1,0,0,1-8.023-.7,10.075,10.075,0,0,1-1.19-.358,3.083,3.083,0,0,1-.56-.358l.031-.153c.722-.07,1.447-.117,2.164-.217a44.333,44.333,0,0,0,5.764-.9,16.491,16.491,0,0,0,9.676-7.864,7.878,7.878,0,0,0,.519-1.545ZM103.9,24.34a4.6,4.6,0,0,0-2.113-1.933.874.874,0,0,0-1.1.541c-.173.5.14.725.525.911a6.09,6.09,0,0,0,2.684.481Z" transform="translate(4.918 0.949)" fill="#202322"/><path d="M43.848,23.061c-.082.4-.135.66-.191.92a5.663,5.663,0,0,1-3.034,3.946,13.139,13.139,0,0,1-7.051,1.548c-1.278-.076-1.894-.575-1.933-1.863-.041-1.345.133-2.7.222-4.044a2.762,2.762,0,0,1,.2-.553,5.585,5.585,0,0,1,.306.693,1.715,1.715,0,0,0,1.351,1.328A8.411,8.411,0,0,0,37.69,24.9a13.347,13.347,0,0,0,4.42-1.986,1.468,1.468,0,0,0,.717-1.682c-.533-2.782-1.085-5.569-1.409-8.381a24.913,24.913,0,0,1,.242-4.414c0-.043.062-.082.178-.228.128.424.251.766.335,1.119.728,3.09,1.4,6.2,2.189,9.273a49.991,49.991,0,0,0,1.63,4.984c.994,2.663,2.785,3.179,4.99,3.154a5.451,5.451,0,0,0,4.254-1.813c.248-.284.447-.61.669-.917a.493.493,0,0,1,.778-.151c2.43,1.662,5.223,1.963,8.052,2.166a28.64,28.64,0,0,0,10.848-1.313,6.057,6.057,0,0,0,2.721-1.5,14.209,14.209,0,0,0,1.027-1.4c.475.156.352.538.32.851-.117,1-.138,1.031.745,1.506a7.168,7.168,0,0,0,6.758-.09.806.806,0,0,0,.407-1.141c-.352-.847-.79-1.655-1.151-2.5a2.247,2.247,0,0,1-.223-1.056c.1-.986.283-1.964.448-2.943.025-.147.126-.39.2-.394a.758.758,0,0,1,.46.2,1.611,1.611,0,0,1,.336.421,9.844,9.844,0,0,1,1.131,8.413,5.992,5.992,0,0,1-5.15,3.972,11.034,11.034,0,0,1-1.185.062,3.991,3.991,0,0,1-3.723-2.824c-.087-.218-.168-.438-.257-.67-.046.012-.117.009-.137.04a11.738,11.738,0,0,1-6.825,3.8A29.872,29.872,0,0,1,62.921,30a10.574,10.574,0,0,1-4.166-1.083,5.751,5.751,0,0,1-2.393-2.214c-.126-.214-.295-.4-.549-.747-.235.478-.448.836-.6,1.218a5.829,5.829,0,0,1-7.589,3.287,5.075,5.075,0,0,1-2.511-2.655,17.061,17.061,0,0,1-1.2-4.425l-.067-.323Z" transform="translate(-4.827 -0.373)" fill="#202322"/><path d="M37.753,3.92c-.11.221-.214.446-.335.662a.516.516,0,0,1-.343.235c-2.95.789-25.546,9.315-28.17,10.585-.027.013-.055.023-.11.047a1.074,1.074,0,0,1,.043-.185,1.95,1.95,0,0,1,.9-1.016c1.345-.7,22.137-8.712,25.523-9.676.792-.225,1.588-.44,2.383-.661l.073-.018Z" transform="translate(-8.795 -1.122)" fill="#202322"/><path d="M83.8,23.849a.84.84,0,0,1,.085.149c.325,1.081,1.185,1.326,2.161,1.36a15.427,15.427,0,0,0,7.8-1.643.52.52,0,0,0,.329-.685,5.762,5.762,0,0,0-.337-1.021,13.118,13.118,0,0,0-3.37-4.328,5.831,5.831,0,0,0-1.685-.93,2.6,2.6,0,0,0-1.262.036c-.327.061-.536.028-.628-.3a4.484,4.484,0,0,1,.3-3.367,1.743,1.743,0,0,1,2.254-.62,7.384,7.384,0,0,1,3.311,2.623A12.517,12.517,0,0,1,94.914,25.45a3.436,3.436,0,0,1-2.089,2.64,17.222,17.222,0,0,1-7.618,1.576,1.9,1.9,0,0,1-2.063-1.987A9.451,9.451,0,0,1,83.66,24c.011-.046.063-.075.138-.154Z" transform="translate(4.121 0.341)" fill="#202322"/><path d="M53.747,8.007a15.43,15.43,0,0,0-4.674-.418,2.272,2.272,0,0,1,.149-.285c.44-.593.878-1.189,1.333-1.77a.63.63,0,0,1,.369-.207,8.641,8.641,0,0,1,3.373.235,10.288,10.288,0,0,1,1.018.288.73.73,0,0,1,.508.961,1.067,1.067,0,0,1-.107.3,5.076,5.076,0,0,1-3.364,2.8q-1.2.207-2.412.352c-.1.013-.209-.063-.315-.1.075-.089.133-.216.228-.261,1.211-.568,2.427-1.123,3.639-1.684.087-.04.168-.089.252-.134Z" transform="translate(-1.797 -0.885)" fill="#202322"/><path d="M75.276,36.841l-3.756-2.45,2-3.521,3.076,1.863,1.59-2.759,3.756,2.377-1.967,3.639-3.086-1.924Z" transform="translate(2.104 3.409)" fill="#202322"/><path d="M50.482,30.059l3.756,2.379-1.963,3.639-3.085-1.932-1.6,2.779-3.765-2.445,1.988-3.521,3.074,1.867Z" transform="translate(-2.708 3.424)" fill="#202322"/><path d="M11.626,34.452l2-3.521,3.052,1.863,1.589-2.763,3.756,2.376-1.974,3.65-3.081-1.939-1.6,2.777Z" transform="translate(-8.303 3.419)" fill="#202322"/><path d="M132.271,16.474c.587-.344,1.174-.7,1.77-1.027a39.555,39.555,0,0,0,6.4-4.091c.469-.389.9-.822,1.376-1.271-.3-.177-.555-.315-.8-.47a1.656,1.656,0,0,1-.533-2.632,4.912,4.912,0,0,1,1.073-1.123c.649-.481,1.207-.246,1.4.533a4.747,4.747,0,0,1-.128,2.632c.345.127.684.261,1.031.374.278.092.3.243.2.494-.311.758-.363.792-1.147.569-.243-.069-.482-.149-.694-.215a20.287,20.287,0,0,1-9.871,6.357ZM142.314,8.9l.117-.088a8.029,8.029,0,0,0,.068-.9c-.023-.722-.438-1-1.123-.783a.619.619,0,0,0-.235,1.1,10.046,10.046,0,0,0,1.173.675Z" transform="translate(12.659 -0.824)" fill="#202322"/><path d="M20.343,5.566c.141-.822.249-1.563.4-2.3a6.6,6.6,0,0,1,.381-1.218.738.738,0,0,1,1.155-.364,1.021,1.021,0,0,1,.311,1.654c-.094-.117-.182-.235-.275-.352-.394-.488-.822-.444-1.016.153a13.287,13.287,0,0,0-.374,1.693c-.117.65-.2,1.306-.316,1.958a.966.966,0,0,1-.157.278c-.089-.073-.215-.127-.259-.221a5.907,5.907,0,0,1-.311-.792,3.756,3.756,0,0,0-1.1-1.825l-.018.082a2.492,2.492,0,0,1-.469-.041,1.912,1.912,0,0,1-.408-.2A1.009,1.009,0,0,1,17.323,2.7a.434.434,0,0,1,.539-.329,1.563,1.563,0,0,1,.975.587,6.165,6.165,0,0,1,1.188,1.907C20.1,5.071,20.213,5.277,20.343,5.566Z" transform="translate(-7.33 -1.532)" fill="#202322"/><path d="M113.415,5.589c.141-.822.249-1.563.4-2.3a6.592,6.592,0,0,1,.381-1.218.738.738,0,0,1,1.155-.364,1.021,1.021,0,0,1,.311,1.654c-.094-.117-.182-.235-.275-.352-.394-.488-.822-.444-1.016.153A13.312,13.312,0,0,0,114,4.856c-.117.65-.2,1.306-.316,1.957a.965.965,0,0,1-.157.278c-.089-.073-.215-.127-.259-.221a5.912,5.912,0,0,1-.311-.792,3.756,3.756,0,0,0-1.1-1.825l-.018.082a2.474,2.474,0,0,1-.47-.041,1.9,1.9,0,0,1-.408-.2,1.009,1.009,0,0,1-.561-1.371.434.434,0,0,1,.539-.329,1.562,1.562,0,0,1,.975.587A6.16,6.16,0,0,1,113.1,4.885c.079.209.188.417.318.7Z" transform="translate(8.842 -1.528)" fill="#202322"/><path d="M64.974,32.934,63.02,36.462a14.853,14.853,0,0,1-3.74-2.425l1.954-3.468Z" transform="translate(-0.023 3.513)" fill="#202322"/></g><g transform="translate(1.52 49.579)"><path d="M12.7,49.982c-.562-2.184-1.487-4.335-4.6-4.335a3.3,3.3,0,0,0-3.471,3.607c0,2.283,1.454,3.441,4.2,4.864,3.967,2.052,5.686,3.574,5.686,6.717,0,3.474-3.008,6.122-7.277,6.122a13.776,13.776,0,0,1-5.058-1.092A45.09,45.09,0,0,1,1.3,60.9l1.025-.264c.661,2.217,2.113,5.1,5.554,5.1A3.639,3.639,0,0,0,11.71,61.93c0-2.548-1.356-3.574-4.264-5.165-3.471-1.886-5.422-3.474-5.422-6.552,0-2.945,2.446-5.724,6.808-5.724a21.127,21.127,0,0,1,4.364.629c.133,1.191.265,2.515.529,4.666Z" transform="translate(-1.296 -42.671)" fill="#202322"/><path d="M27.9,65.817a2.419,2.419,0,0,1-1.554-.629,3.106,3.106,0,0,1-.793-1.49c-1.322.893-2.943,2.113-3.967,2.113a4.056,4.056,0,0,1-4.033-4.071c0-1.621.892-2.681,2.71-3.309a26.033,26.033,0,0,0,5.223-2.151v-.662c0-2.348-1.19-3.707-2.91-3.707a1.918,1.918,0,0,0-1.554.762,7.1,7.1,0,0,0-.892,2.15.92.92,0,0,1-.959.762,1.59,1.59,0,0,1-1.454-1.457c0-.464.43-.86,1.092-1.324a13.877,13.877,0,0,1,4.761-2.317,4.345,4.345,0,0,1,4.463,4.731v6.386c0,1.526.562,1.986,1.157,1.986a2.626,2.626,0,0,0,1.19-.364l.331.926Zm-2.414-8.37c-.728.364-2.315,1.056-3.075,1.39-1.256.562-2.017,1.191-2.017,2.416a2.406,2.406,0,0,0,2.38,2.548,4.39,4.39,0,0,0,2.711-1.191Z" transform="translate(1.528 -41.629)" fill="#202322"/><path d="M48.292,64.633a38.07,38.07,0,0,0-5.058,1.158V63.243c-1.785,1.489-3.24,2.548-5.058,2.548-2.215,0-4.133-1.357-4.133-4.964V54.408c0-1.788-.264-1.986-1.09-2.151l-.926-.165v-.86a44.877,44.877,0,0,0,4.728-.6c-.1,1.056-.1,2.647-.1,4.831v4.5c0,2.912,1.526,3.74,3.008,3.74a5.22,5.22,0,0,0,3.571-1.588v-7.71c0-1.788-.4-2.019-1.526-2.184l-1.056-.133v-.86a46.74,46.74,0,0,0,5.19-.6V61.722c0,1.655.265,1.886,1.526,1.952l.926.033Z" transform="translate(4.044 -41.603)" fill="#202322"/><path d="M65.819,65.9a34.989,34.989,0,0,0-5.125,1.224V64.976c-.6.364-1.454.822-2.049,1.191a6.012,6.012,0,0,1-2.612.96c-2.644,0-6.149-2.647-6.149-7.277a8.334,8.334,0,0,1,8.563-8.041,6.723,6.723,0,0,1,2.248.364V47.309c0-2.113-.235-2.184-2.582-2.383v-.86A32.947,32.947,0,0,0,63.3,42.94V62.894c0,1.721.235,1.952,1.454,2.019l1.056.066ZM60.694,54.784A4.14,4.14,0,0,0,57.223,53.1c-1.587,0-4.4,1.056-4.4,5.824,0,4,2.479,6.122,4.6,6.155a5.938,5.938,0,0,0,3.272-1.191Z" transform="translate(7.146 -42.94)" fill="#202322"/><path d="M67.347,65.428V64.5c2.082-.2,2.313-.364,2.313-2.614V55.071c0-2.052-.1-2.184-2.083-2.515v-.795a21.626,21.626,0,0,0,4.7-1.324v11.45c0,2.25.235,2.416,2.38,2.614v.926Z" transform="translate(10.181 -41.637)" fill="#202322"/><path d="M77.351,51.635a21.416,21.416,0,0,0,4.794-1.423v2.647c.1-.066,2.744-1.588,2.876-1.655a4.667,4.667,0,0,1,1.917-.662c3.639,0,5.851,3.045,5.851,6.321,0,5.03-3.967,8.207-8.3,9a5.47,5.47,0,0,1-2.348-.6v4.467c0,2.448.264,2.647,2.81,2.879v.926H77.119v-.926c2.149-.235,2.413-.4,2.413-2.614V54.945c0-1.986-.066-2.113-2.182-2.416Zm4.794,11.317a4.788,4.788,0,0,0,3.141,1.291c2.876,0,4.728-2.416,4.728-6.122,0-3.574-2.083-5.593-4.43-5.593a6.609,6.609,0,0,0-3.438,1.423Z" transform="translate(11.879 -41.676)" fill="#202322"/><path d="M107.339,62.61a7.528,7.528,0,0,1-5.488,3.21c-4.033,0-6.479-3.309-6.479-7.115a8.5,8.5,0,0,1,2.149-5.791,6.78,6.78,0,0,1,4.93-2.416,5.164,5.164,0,0,1,5.058,5.129c-.033.662-.133.959-.661,1.092-.661.133-4.893.43-8.827.562-.1,4.434,2.612,6.254,4.959,6.254a5.587,5.587,0,0,0,3.835-1.688Zm-5.687-10.854c-1.526,0-3.008,1.423-3.471,4.108,1.851,0,3.7,0,5.653-.1.6,0,.793-.166.793-.662a3.075,3.075,0,0,0-2.975-3.352Z" transform="translate(15.05 -41.627)" fill="#202322"/><path d="M125.919,65.9a35,35,0,0,0-5.125,1.224V64.976c-.6.364-1.454.822-2.049,1.191a6.01,6.01,0,0,1-2.612.96c-2.644,0-6.149-2.647-6.149-7.277a8.334,8.334,0,0,1,8.563-8.041,6.722,6.722,0,0,1,2.248.364V47.309c0-2.113-.235-2.184-2.582-2.383v-.86a32.956,32.956,0,0,0,5.19-1.126V62.894c0,1.721.235,1.952,1.454,2.019l1.056.066Zm-5.125-11.119a4.14,4.14,0,0,0-3.471-1.688c-1.587,0-4.4,1.056-4.4,5.824,0,4,2.479,6.122,4.6,6.155a5.938,5.938,0,0,0,3.272-1.191Z" transform="translate(17.589 -42.94)" fill="#202322"/><path d="M127.816,65.428V64.5c2.083-.2,2.315-.364,2.315-2.614V55.071c0-2.052-.1-2.184-2.083-2.515v-.795a21.62,21.62,0,0,0,4.7-1.324v11.45c0,2.25.235,2.416,2.38,2.614v.926Z" transform="translate(20.687 -41.637)" fill="#202322"/><path d="M148.473,65.817a2.419,2.419,0,0,1-1.554-.629,3.1,3.1,0,0,1-.793-1.49c-1.323.893-2.943,2.113-3.967,2.113a4.058,4.058,0,0,1-4.033-4.071c0-1.621.892-2.681,2.711-3.309a26.026,26.026,0,0,0,5.223-2.151v-.662c0-2.348-1.19-3.707-2.909-3.707a1.917,1.917,0,0,0-1.554.762,7.1,7.1,0,0,0-.893,2.15.92.92,0,0,1-.959.762,1.59,1.59,0,0,1-1.454-1.457c0-.464.43-.86,1.092-1.324a13.88,13.88,0,0,1,4.761-2.317,4.345,4.345,0,0,1,4.463,4.731v6.386c0,1.526.562,1.986,1.157,1.986a2.626,2.626,0,0,0,1.19-.364l.331.926Zm-2.413-8.372c-.728.364-2.313,1.056-3.074,1.39-1.257.562-2.017,1.191-2.017,2.416a2.406,2.406,0,0,0,2.38,2.548,4.389,4.389,0,0,0,2.71-1.191Z" transform="translate(22.479 -41.629)" fill="#202322"/><path d="M72.6,45.966,70.976,48.9a12.354,12.354,0,0,1-3.113-2.019l1.627-2.886Z" transform="translate(10.27 -42.757)" fill="#202322"/><path d="M132.91,45.966,131.283,48.9a12.354,12.354,0,0,1-3.113-2.019l1.627-2.886Z" transform="translate(20.749 -42.757)" fill="#202322"/></g><path d="M1.111.713c.235,1.031.547,2.051.7,3.094.542,3.787.622,3.675,1.1,7.471.4,3.207.68,6.429,1.117,9.625.545,3.978,2.526,6.1,6.925,6.984a24.874,24.874,0,0,0,4.627.406A50.482,50.482,0,0,0,26.72,27.259c1.371-.3,2.718-.723,4.055-1.155.952-.308,1.081-.54.587-1.409a24.854,24.854,0,0,0-1.985-2.817,1.282,1.282,0,0,1-.331-1.022c.139-1.038.252-2.079.381-3.117.021-.174.073-.344.127-.587a3.8,3.8,0,0,1,.323.272,11.34,11.34,0,0,1,3.06,7.885,4.343,4.343,0,0,1-2.348,4.042,20.541,20.541,0,0,1-5.869,2,44.8,44.8,0,0,1-12.7,1.007A13.7,13.7,0,0,1,6.9,31.084,6.808,6.808,0,0,1,3.2,26.85,41.732,41.732,0,0,1,1.829,19.3C1.3,14.762,1.216,14.127.674,9.591.483,8,.232,6.408.016,4.816a1.562,1.562,0,0,1,.018-.538Q.386,2.721.755,1.17A3.086,3.086,0,0,1,.952.7Z" transform="translate(-0.001 -0.7)" fill="#202322"/></g><path d="M95.367,28.746c-.109.218-.211.44-.33.653a.508.508,0,0,1-.338.235c-4.355,1.427-10.9,4.108-10.9,4.108l-.108.047a1.082,1.082,0,0,1,.042-.183,1.924,1.924,0,0,1,.883-1c1.326-.688,9.85-3.653,10.633-3.873l.072-.016Z" transform="translate(14.541 4.992)" fill="#202322"/><g transform="translate(188.162)"><path d="M203.51,68.451c18.166-4.5,42.988-16.49,37.186-38.823.822,22.5-31.33,31.56-45.336,34.434,20.353-13.65,45.629-20.775,39.289-47.654,1.761,20.541-27.756,34.663-38.928,39.252a384.46,384.46,0,0,0,18.727-35.854c-12.671,17.4-18.823,26-22.925,32.532C190.337,39.7,189.381,8.307,207.9.364c-26.694,7.066-21.076,32.721-23.53,57.1-4.064-13.709-11.216-46.337,9.02-56.211-22.434,5.4-21.317,32.944-16.731,51.089-6.437-11.226-13.486-28.937-2.953-40.693-16.9,14.2-7.982,34.5-.873,44.713-5.876-4.784-12.591-12.677-10.657-22.866-5.71,12.944,2.817,23.569,10.58,29.318a13.565,13.565,0,0,1-8.746-7.125c.325,3.385,5.142,9.6,10.753,12.192a12.469,12.469,0,0,1-7.737-4.558c1.878,3.154,6,7.827,11.714,7.655a6.547,6.547,0,0,1-5.684-.678,41.9,41.9,0,0,0,7.257,5.7c.1.062.205.117.308.183s.2.124.306.185a41.9,41.9,0,0,0,8.451,3.717,6.547,6.547,0,0,1-3.276-4.7c2.539,5.119,8.6,6.551,12.27,6.728a12.47,12.47,0,0,1-7.665-4.679c4.93,3.728,12.677,5.047,15.82,3.742a13.565,13.565,0,0,1-10.4-4.359c8.727,4.139,22.117,6.658,30.845-4.477-8.074,6.5-18.2,4.3-25.19,1.371,12.363,1.46,34.464-.235,39.031-21.832-5.412,14.829-24.36,16.954-37.295,16.563Z" transform="translate(-160.309 0.067)" fill="#dbd7c7"/><path d="M239.77,54.064c-.1,1.106-.235,2.23-.439,3.385,7.3-14.268-.235-29.7-7.855-37.111a.127.127,0,0,1,.166-.19,26.839,26.839,0,0,1,9.4,11.48c-.167-6.823-5.382-12.969-11.223-16.306a.123.123,0,1,1,.1-.224,13.935,13.935,0,0,1,6.972,5.22c-1.426-3.315-5.72-8.224-11.086-9.005a.128.128,0,0,1,0-.252,8.2,8.2,0,0,1,5.115,1.066,16.085,16.085,0,0,0-1.669-1.316,31.613,31.613,0,0,0-6.589-4.835A31.608,31.608,0,0,0,215.3,2.442a16.1,16.1,0,0,0-1.947-.852A8.194,8.194,0,0,1,216.7,5.6a.128.128,0,0,1-.221.117c-3.217-4.366-10.408-5.986-14-5.684A17.019,17.019,0,0,1,211.2,3.87a.124.124,0,0,1-.149.2c-5.7-3.581-15.68-4.643-20.314-2,5.976-.788,12.09,1.283,15.2,2.671a.127.127,0,0,1-.09.235C195.722,1.74,178.562,2.363,169.413,15.52a38.679,38.679,0,0,1,3.683-2.553,27.762,27.762,0,0,0-.6,3.287,7.449,7.449,0,0,1-2.39,4.655,29.2,29.2,0,0,0-9.316,16.468,30.4,30.4,0,0,1,9.86-12.306,1.409,1.409,0,0,1,2.23.856,35.907,35.907,0,0,0,1.355,5,2.879,2.879,0,0,1-.634,2.947c-6.206,6.48-10.317,14.128-9.679,22.638,1.249-6.115,5.236-11.841,10.459-16.972a2.856,2.856,0,0,1,4.384.454q.69,1.04,1.448,2.055a4.353,4.353,0,0,1,.135,4.965c-5.449,8.429-8.463,16.69-7.385,23.344,1.092-5.524,5.369-12.315,10.787-19.091a3.493,3.493,0,0,1,4.9-.572,50.042,50.042,0,0,0,10.875,6.586,3.191,3.191,0,0,1,1.6,4.152c-3.444,8.054-7.451,15.113-11.844,18.707,6.315-2.163,12.131-8.606,16.971-17.254a4.343,4.343,0,0,1,4.5-2.189q1.27.217,2.533.359a2.855,2.855,0,0,1,2.409,3.663c-2.068,6.883-5.217,12.958-9.944,16.875,7.652-3.377,12.425-10.388,15.244-18.692a2.882,2.882,0,0,1,2.353-1.93,36.372,36.372,0,0,0,5.089-1.056,1.409,1.409,0,0,1,1.769,1.593,30.187,30.187,0,0,1-6.1,13.829,29.173,29.173,0,0,0,9.905-15.085,7.362,7.362,0,0,1,3.061-4.217,28.257,28.257,0,0,0,2.7-1.974Zm-.757-1.21a26.768,26.768,0,0,1-2.2,1.677,1.066,1.066,0,0,1-1.658-.961,44.449,44.449,0,0,0-.38-9.491,1.924,1.924,0,0,1,.928-1.936,13.429,13.429,0,0,0,1.409-.939,1.034,1.034,0,0,1,1.643.559,36,36,0,0,1,1.16,9.155,2.55,2.55,0,0,1-.9,1.936ZM236.54,39.845a11.336,11.336,0,0,1-.917.688A1.056,1.056,0,0,1,234,39.879a66.427,66.427,0,0,0-6.128-16.453.118.118,0,1,1,.19-.14,43.979,43.979,0,0,1,9.171,13.9,2.328,2.328,0,0,1-.69,2.656Zm-8.016,3.162a24.856,24.856,0,0,1-3.017.188,1.046,1.046,0,0,1-1.046-1.085,101.829,101.829,0,0,0-.842-17.159.127.127,0,0,1,.242-.07,90.953,90.953,0,0,1,5.54,16.892,1.029,1.029,0,0,1-.874,1.235Zm-10.564-.7q-.947-.215-1.907-.482a1.056,1.056,0,0,1-.736-1.315,130.376,130.376,0,0,0,3.535-16.035.126.126,0,1,1,.251.012,168.218,168.218,0,0,1,.135,16.84,1.049,1.049,0,0,1-1.272.984Zm-4.621-20.22c-.663,2.911-2.042,8.7-4.008,15.58a1.3,1.3,0,0,1-1.832.806q-1.627-.822-3.242-1.785t-3.112-2.026a1.3,1.3,0,0,1-.15-2c5.147-4.978,9.6-8.921,11.855-10.875a.3.3,0,0,1,.494.3Zm-5.193-4.032a130.344,130.344,0,0,0-12.477,10.671,1.056,1.056,0,0,1-1.506-.03q-.689-.723-1.325-1.458a1.045,1.045,0,0,1,.256-1.581,168.1,168.1,0,0,1,14.924-7.817.129.129,0,0,1,.134.221Zm-2.663-3.979a101.811,101.811,0,0,0-15.528,7.337A1.046,1.046,0,0,1,188.5,21a24.911,24.911,0,0,1-1.251-2.743,1.034,1.034,0,0,1,.68-1.362,90.972,90.972,0,0,1,17.5-3.066.129.129,0,0,1,.056.25ZM204.822,9.6a66.427,66.427,0,0,0-17.389,2.342,1.056,1.056,0,0,1-1.34-1.123,11.565,11.565,0,0,1,.2-1.243,2.276,2.276,0,0,1,2-1.751,43.972,43.972,0,0,1,16.573,1.542.121.121,0,0,1-.034.238Zm-28.953,1.833a35.955,35.955,0,0,1,7.7-2.8,1.028,1.028,0,0,1,1.241,1.185,13.379,13.379,0,0,0-.169,1.689,1.926,1.926,0,0,1-1.275,1.73,45.142,45.142,0,0,0-7.774,3.655,1.066,1.066,0,0,1-1.6-1.056,26.237,26.237,0,0,1,.549-2.758,2.545,2.545,0,0,1,1.337-1.643Zm-.977,10.836a54.6,54.6,0,0,1,9.692-4.334,1.041,1.041,0,0,1,1.309.627,26.757,26.757,0,0,0,1.493,3.265,1.025,1.025,0,0,1-.361,1.352,78.925,78.925,0,0,0-9.094,6.627,1.772,1.772,0,0,1-2.842-.829,33.254,33.254,0,0,1-1.082-4.9,1.8,1.8,0,0,1,.891-1.8Zm4.365,12.92a105.758,105.758,0,0,1,10.307-7.375,1.718,1.718,0,0,1,2.222.342q.685.8,1.431,1.58a1.043,1.043,0,0,1-.019,1.447A113.214,113.214,0,0,0,184.32,41.4a1.778,1.778,0,0,1-2.832,0,42.351,42.351,0,0,1-2.642-3.926,1.774,1.774,0,0,1,.417-2.275ZM194.8,53.24a48.383,48.383,0,0,1-4.97-3.417,3.558,3.558,0,0,1-.44-5.179c2.539-2.828,5.165-5.574,7.714-8.141a2.9,2.9,0,0,1,3.7-.352q1.317.908,2.725,1.754t2.825,1.575a2.893,2.893,0,0,1,1.428,3.42q-1.654,5.412-3.582,10.734a3.559,3.559,0,0,1-4.838,2.021,48.516,48.516,0,0,1-4.555-2.411Zm14.555,3.521a112.824,112.824,0,0,0,4.956-12.922,1.042,1.042,0,0,1,1.268-.7q1.043.29,2.074.52a1.717,1.717,0,0,1,1.342,1.806,104.93,104.93,0,0,1-1.725,12.927,1.781,1.781,0,0,1-1.855,1.432,42.73,42.73,0,0,1-4.762-.587,1.77,1.77,0,0,1-1.292-2.468Zm13.234.457a78.125,78.125,0,0,0,1.689-11.7,1.018,1.018,0,0,1,1.016-.95,26.752,26.752,0,0,0,3.593-.221,1.04,1.04,0,0,1,1.167.858,53.889,53.889,0,0,1,.713,11.293,1.792,1.792,0,0,1-1.217,1.613,33.831,33.831,0,0,1-4.93,1.248,1.774,1.774,0,0,1-2.025-2.126Z" transform="translate(-160.225 0.003)" fill="#104758"/></g></g></svg>