<svg xmlns="http://www.w3.org/2000/svg" xmlns:xlink="http://www.w3.org/1999/xlink" width="121.262" height="112.198" viewBox="0 0 121.262 112.198"><defs><linearGradient id="a" x1="-6.494" y1="64.989" x2="56.351" y2="-514.473" gradientUnits="objectBoundingBox"><stop offset="0.002" stop-color="#142156"/><stop offset="0.071" stop-color="#12275e"/><stop offset="0.49" stop-color="#084a8c"/><stop offset="0.813" stop-color="#025fa8"/><stop offset="0.999" stop-color="#0068b3"/></linearGradient><linearGradient id="b" x1="-0.748" y1="6.909" x2="13.833" y2="-67.946" xlink:href="#a"/><linearGradient id="c" x1="-0.112" y1="1.144" x2="0.873" y2="-0.137" xlink:href="#a"/><linearGradient id="d" x1="-0.01" y1="0.5" x2="1.01" y2="0.5" xlink:href="#a"/><linearGradient id="e" x1="-39.91" y1="0.501" x2="43.457" y2="0.501" xlink:href="#a"/><linearGradient id="f" x1="0.012" y1="1.013" x2="0.988" y2="-0.013" gradientUnits="objectBoundingBox"><stop offset="0.001" stop-color="#f36b19"/><stop offset="0.024" stop-color="#eb681b"/><stop offset="0.228" stop-color="#aa522c"/><stop offset="0.422" stop-color="#74413b"/><stop offset="0.601" stop-color="#4a3346"/><stop offset="0.762" stop-color="#2c294f"/><stop offset="0.9" stop-color="#1a2354"/><stop offset="0.998" stop-color="#142156"/></linearGradient><linearGradient id="j" x1="0.172" y1="1.678" x2="0.799" y2="-0.789" xlink:href="#f"/><linearGradient id="k" x1="0.155" y1="1.485" x2="0.814" y2="-0.584" xlink:href="#f"/><linearGradient id="l" x1="0.043" y1="0.703" x2="0.96" y2="-0.015" xlink:href="#a"/><linearGradient id="m" x1="0.03" y1="0.874" x2="1.001" y2="0.171" xlink:href="#a"/><linearGradient id="n" x1="-0.098" y1="0.886" x2="1.078" y2="0.113" xlink:href="#a"/><linearGradient id="o" x1="-0.444" y1="0.782" x2="1.139" y2="0.079" xlink:href="#a"/><linearGradient id="p" x1="0.112" y1="0.874" x2="0.977" y2="0.193" xlink:href="#a"/><linearGradient id="r" x1="-0.067" y1="0.929" x2="1.067" y2="0.071" xlink:href="#a"/><linearGradient id="s" y1="0.5" x2="1" y2="0.5" gradientUnits="objectBoundingBox"><stop offset="0.001" stop-color="#f36b19"/><stop offset="0.099" stop-color="#e6661c"/><stop offset="0.278" stop-color="#c65c25"/><stop offset="0.517" stop-color="#914a33"/><stop offset="0.805" stop-color="#483247"/><stop offset="1" stop-color="#142156"/></linearGradient></defs><g transform="translate(27.163 2.195)"><path d="M2577.675,3165.646c-.24-.026-.479-.047-.72-.078C2577.188,3165.592,2577.436,3165.614,2577.675,3165.646Z" transform="translate(-2548.982 -3101.78)" fill="url(#a)"/><path d="M2567.464,3163.9q-1.592-.24-3.1-.6Q2565.885,3163.668,2567.464,3163.9Z" transform="translate(-2540.352 -3100.227)" fill="url(#b)"/><path d="M2493.182,2992.94c2.271,1.337,4.428,2.873,6.666,4.271,1.913,1.19,3.95,1.683,5.88.15a14.909,14.909,0,0,0,2.9-3.084c2.488-3.546,4.8-7.207,7.28-10.758a57.546,57.546,0,0,1,12.626-13.287c1.775-1.332,3.646-2.553,5.569-3.868a32,32,0,0,0-45.971,24.252,2.018,2.018,0,0,0,.433.2,24.183,24.183,0,0,1,4.62,2.122Zm15.576-26.591-12.764,9.1c1.385-3.366,9.324-8.883,12.764-9.11Z" transform="translate(-2488.129 -2963.004)" fill="url(#c)"/><path d="M2493.182,2992.94c2.271,1.337,4.428,2.873,6.666,4.271,1.913,1.19,3.95,1.683,5.88.15a14.909,14.909,0,0,0,2.9-3.084c2.488-3.546,4.8-7.207,7.28-10.758a57.546,57.546,0,0,1,12.626-13.287c1.775-1.332,3.646-2.553,5.569-3.868a32,32,0,0,0-45.971,24.252,2.018,2.018,0,0,0,.433.2,24.183,24.183,0,0,1,4.62,2.122Zm15.576-26.591-12.764,9.1c1.385-3.366,9.324-8.883,12.764-9.11Z" transform="translate(-2488.129 -2963.004)" fill="url(#d)"/><path d="M2574.48,3165.263c.2.029.4.039.6.065-.289-.033-.576-.068-.865-.108C2574.307,3165.231,2574.393,3165.252,2574.48,3165.263Z" transform="translate(-2547.107 -3101.542)" fill="url(#e)"/></g><g transform="translate(0.07 76.178)"><rect width="2.295" height="2.183" transform="translate(114.687)" fill="url(#f)"/><rect width="2.295" height="2.183" transform="translate(118.897)" fill="url(#f)"/><rect width="2.295" height="2.183" transform="translate(44.605 17.603)" fill="url(#f)"/><rect width="2.295" height="2.183" transform="translate(48.815 17.603)" fill="url(#f)"/><path d="M2644.27,3219.55h-13.438v-9.244H2608.9v9.244h-6.735v-6.814h-2.3v6.814h-4.577l-10.844.007v-10.31h-2.3v16.216h2.3v-3.8h14.144l40.844-.007h7.139V3209.09h-2.3Zm-15.734,0h-17.382v-7.139h17.382Z" transform="translate(-2525.451 -3205.583)" fill="url(#j)"/><path d="M2453.157,3209.21h-2.295v10.46l-33.16-.038v-10.047h-15.5v4.628h2.069v-2.558h11.325v8.014h-13.521l.027,5.815h2.307v-3.708h48.75Z" transform="translate(-2402.073 -3205.664)" fill="url(#k)"/></g><g transform="translate(0 98.44)"><path d="M2412.124,3268.9h-9.75a.526.526,0,0,0-.344.121.394.394,0,0,0-.147.317v1.069a.325.325,0,0,0,.147.292.616.616,0,0,0,.344.1h3.759v11.273a.519.519,0,0,0,.123.345.394.394,0,0,0,.319.149h1.35a.4.4,0,0,0,.319-.148.53.53,0,0,0,.123-.345V3270.8h3.758q.467,0,.466-.388v-1.07Q2412.6,3268.9,2412.124,3268.9Z" transform="translate(-2401.882 -3268.823)" fill="url(#l)"/><path d="M2465.985,3268.914a20.414,20.414,0,0,0-2.147.1q-.9.1-1.656.216-.515.072-.515.461v.849c0,.161.045.266.135.315a.637.637,0,0,0,.307.072h.122q.736-.073,1.644-.133t2.11-.06a2.777,2.777,0,0,1,2.037.606,3.037,3.037,0,0,1,.589,2.133v.973H2466.8a13.434,13.434,0,0,0-2.772.242,4.925,4.925,0,0,0-1.828.739,2.831,2.831,0,0,0-1.005,1.236,4.412,4.412,0,0,0-.308,1.709v.291a4.694,4.694,0,0,0,.332,1.891,3.25,3.25,0,0,0,.882,1.212,3.175,3.175,0,0,0,1.275.642,6.191,6.191,0,0,0,1.514.182,5.721,5.721,0,0,0,1.963-.338,11.564,11.564,0,0,0,1.815-.848v.533a.463.463,0,0,0,.147.34.473.473,0,0,0,.344.145h1.128a.472.472,0,0,0,.343-.145.462.462,0,0,0,.147-.34v-8.459a4.123,4.123,0,0,0-4.784-4.557Zm2.625,10.955a9,9,0,0,1-1.668.727,5.542,5.542,0,0,1-1.644.243,2.7,2.7,0,0,1-1.668-.448,2.116,2.116,0,0,1-.589-1.758v-.291a3.1,3.1,0,0,1,.172-1.1,1.514,1.514,0,0,1,.588-.727,3.076,3.076,0,0,1,1.153-.413,10.565,10.565,0,0,1,1.839-.134h1.816Z" transform="translate(-2442.299 -3268.83)" fill="url(#m)"/><path d="M2529.014,3275.479l-2.429-1.427a6.5,6.5,0,0,1-1.276-.882,1.276,1.276,0,0,1-.416-.956,1.1,1.1,0,0,1,.626-1.161,4.69,4.69,0,0,1,1.656-.242q1.031,0,2.1.072t1.7.121h.074a.366.366,0,0,0,.417-.411v-.8q0-.411-.466-.484-.859-.145-1.828-.23t-2-.084a9.961,9.961,0,0,0-1.767.145,3.84,3.84,0,0,0-1.4.52,2.738,2.738,0,0,0-.933.992,3.179,3.179,0,0,0-.344,1.56,2.948,2.948,0,0,0,.687,1.971,7.212,7.212,0,0,0,1.816,1.487l2.478,1.45a7.341,7.341,0,0,1,1.448,1.039,1.356,1.356,0,0,1,.393.968,1.442,1.442,0,0,1-.613,1.354,3.633,3.633,0,0,1-1.815.362q-.344,0-.81-.024t-1.006-.06q-.541-.036-1.068-.084t-.973-.1h-.1a.5.5,0,0,0-.319.1.324.324,0,0,0-.122.266v.846q0,.363.515.484a6.447,6.447,0,0,0,.981.181q.541.06,1.068.108t1.006.061q.478.012.822.012a8,8,0,0,0,1.877-.206,4.239,4.239,0,0,0,1.447-.63,2.875,2.875,0,0,0,.933-1.088,3.517,3.517,0,0,0,.331-1.585,3.265,3.265,0,0,0-.588-1.91,6.673,6.673,0,0,0-2.106-1.74Z" transform="translate(-2484.676 -3268.889)" fill="url(#n)"/><path d="M2587.619,3269a5.438,5.438,0,0,0-1.681.273,6.884,6.884,0,0,0-1.78.918v-.523a.5.5,0,0,0-.135-.348.433.433,0,0,0-.331-.149h-1.158a.433.433,0,0,0-.331.146.493.493,0,0,0-.135.343v12.489a.49.49,0,0,0,.135.343.434.434,0,0,0,.331.147h1.2a.5.5,0,0,0,.491-.489v-10.24a7.427,7.427,0,0,1,1.731-.794,5.891,5.891,0,0,1,1.656-.233q.515,0,.515-.422v-1.017Q2588.127,3269,2587.619,3269Z" transform="translate(-2525.324 -3268.888)" fill="url(#o)"/><path d="M2636.525,3270.238a4.469,4.469,0,0,0-1.677-1.145,6.3,6.3,0,0,0-2.351-.4,5.182,5.182,0,0,0-4.041,1.534,5.955,5.955,0,0,0-1.4,4.166v2.193a7.233,7.233,0,0,0,.478,2.826,4.833,4.833,0,0,0,1.251,1.79,4.521,4.521,0,0,0,1.779.949,7.649,7.649,0,0,0,2.062.281,22.364,22.364,0,0,0,2.295-.109q1.043-.108,2.1-.3a.589.589,0,0,0,.393-.183.637.637,0,0,0,.1-.377v-.829a.286.286,0,0,0-.122-.269.52.52,0,0,0-.271-.072H2637q-.859.123-2.073.195t-2.294.074a3.364,3.364,0,0,1-2.552-.9,4.392,4.392,0,0,1-.858-3.069v-.341h8.2q.465,0,.465-.541v-1.316a7.6,7.6,0,0,0-.343-2.35,4.892,4.892,0,0,0-1.016-1.8Zm-.8,4.372h-6.5v-.216a4.2,4.2,0,0,1,.847-2.9,3.146,3.146,0,0,1,2.441-.926,3.107,3.107,0,0,1,2.416.877,4.351,4.351,0,0,1,.8,2.948Z" transform="translate(-2556.151 -3268.679)" fill="url(#p)"/><path d="M2700.535,3270.238a4.472,4.472,0,0,0-1.677-1.145,6.305,6.305,0,0,0-2.351-.4,5.183,5.183,0,0,0-4.04,1.533,5.958,5.958,0,0,0-1.4,4.165v2.193a7.222,7.222,0,0,0,.478,2.825,4.831,4.831,0,0,0,1.251,1.79,4.532,4.532,0,0,0,1.779.949,7.66,7.66,0,0,0,2.062.281,22.292,22.292,0,0,0,2.295-.109q1.043-.108,2.1-.3a.589.589,0,0,0,.393-.183.634.634,0,0,0,.1-.377v-.829a.286.286,0,0,0-.122-.268.524.524,0,0,0-.271-.073h-.123q-.859.123-2.074.195t-2.294.074a3.363,3.363,0,0,1-2.552-.9,4.393,4.393,0,0,1-.859-3.069v-.341h8.2c.309,0,.465-.178.465-.541v-1.316a7.594,7.594,0,0,0-.343-2.35,4.877,4.877,0,0,0-1.015-1.8Zm-.8,4.372h-6.5v-.216a4.2,4.2,0,0,1,.847-2.9,3.724,3.724,0,0,1,4.858-.049,4.35,4.35,0,0,1,.8,2.948Z" transform="translate(-2600.003 -3268.679)" fill="url(#p)"/><path d="M2764.04,3269.031a.431.431,0,0,0-.331-.146h-1.227a.431.431,0,0,0-.331.146.483.483,0,0,0-.135.339v5.428h-6.011v-5.428a.484.484,0,0,0-.135-.34.431.431,0,0,0-.332-.146h-1.227a.43.43,0,0,0-.331.146.482.482,0,0,0-.135.339v12.707a.484.484,0,0,0,.135.339.431.431,0,0,0,.331.145h1.2a.476.476,0,0,0,.344-.145.466.466,0,0,0,.147-.34v-5.657h6.011v5.657a.465.465,0,0,0,.147.34.476.476,0,0,0,.344.145h1.2a.433.433,0,0,0,.331-.145.486.486,0,0,0,.135-.339v-12.711a.481.481,0,0,0-.135-.335Z" transform="translate(-2643.008 -3268.809)" fill="url(#r)"/></g><path d="M2535.521,2983.752a32.669,32.669,0,0,0-6.53-13.772,3.867,3.867,0,0,1-.743-2.119c-.149-3.268,1.18-6.094,2.907-8.752.7-1.073,1.537-2.055,2.313-3.074a43.8,43.8,0,0,0-9.507,7.591c-.269.281-.541.579-.816.892l-.029-.023c-7.646,9.3-16.6,28.88-16.683,29.074-.433,1.048-1.4,3.418-1.4,3.419-1.19,2.933-2.38,5.868-3.639,8.776a27.023,27.023,0,0,1-4.248,7.24c-1.952,2.238-4.174,2.813-6.395,1.469a7.73,7.73,0,0,1-2.242-2.034c-2.7-3.768-5.317-7.6-7.954-11.412a76.091,76.091,0,0,0-8.371-10.367v-.007l-.053-.05-.03-.033h0a46.142,46.142,0,0,0-3.651-3.308c-1.035-.835-2.126-1.6-3.19-2.4l-.087.131c1.16,1.406,2.38,2.762,3.468,4.218a17.605,17.605,0,0,1,3.45,6.5,34.656,34.656,0,0,0,4.127,10.738,31.948,31.948,0,0,0,20.271,14.936,31.966,31.966,0,0,1-15.6-9.127,31.962,31.962,0,0,0,15.516,9.044q1.515.363,3.1.6c.287.041.574.077.865.108.241.03.48.053.72.078.991.092,1.992.145,3.007.145a31.932,31.932,0,0,0,24.585-11.519,31.944,31.944,0,0,1-25.324,12.446c-1.015,0-2.016-.053-3.007-.145a30.9,30.9,0,0,0,17.616-3.2c9.843-5.013,15.75-13,17.779-23.875A30.911,30.911,0,0,0,2535.521,2983.752Zm-16.068,32.738-.283-.264,12.785-13.749.216.177a28.972,28.972,0,0,1-12.713,13.83Z" transform="translate(-2445.24 -2956.036)" fill="url(#s)"/></svg>